M48
; DRILL file {KiCad (5.1.6)-1} date 10/28/22 15:03:11
; FORMAT={-:-/ absolute / metric / decimal}
; #@! TF.CreationDate,2022-10-28T15:03:11-04:00
; #@! TF.GenerationSoftware,Kicad,Pcbnew,(5.1.6)-1
; #@! TF.FileFunction,Plated,1,2,PTH
FMAT,2
METRIC
T1C0.400
T2C1.000
T3C1.040
T4C3.200
%
G90
G05
T1
X147.844Y-114.554
X150.114Y-106.934
X150.345Y-114.554
X151.13Y-106.934
X152.995Y-115.24
X153.797Y-114.63
X154.457Y-111.658
X155.118Y-114.554
X155.702Y-106.934
X155.708Y-111.995
X156.413Y-114.554
X156.921Y-111.049
X158.598Y-103.886
X159.055Y-109.772
X159.538Y-110.922
X161.544Y-115.062
X164.084Y-115.062
T2
X131.013Y-107.696
X131.013Y-110.236
X137.042Y-100.635
X138.427Y-98.095
X139.812Y-100.635
X141.197Y-98.095
X142.582Y-100.635
X143.967Y-98.095
X145.352Y-100.635
X146.737Y-98.095
X148.122Y-100.635
X149.507Y-98.095
X150.892Y-100.635
X152.277Y-98.095
X153.662Y-100.635
X155.047Y-98.095
X156.432Y-100.635
X157.817Y-98.095
X159.202Y-100.635
X160.587Y-98.095
X161.972Y-100.635
X163.357Y-98.095
X164.742Y-100.635
X166.127Y-98.095
X167.512Y-100.635
X168.897Y-98.095
X170.282Y-100.635
X176.454Y-107.747
X176.454Y-110.287
T3
X131.012Y-117.348
X131.012Y-142.748
X133.552Y-117.348
X133.552Y-142.748
X136.092Y-117.348
X136.092Y-142.748
X138.632Y-117.348
X138.632Y-142.748
X141.172Y-117.348
X141.172Y-142.748
X143.712Y-117.348
X143.712Y-142.748
X146.252Y-117.348
X146.252Y-142.748
X148.792Y-117.348
X148.792Y-142.748
X151.332Y-117.348
X151.332Y-142.748
X153.872Y-117.348
X153.872Y-142.748
X156.412Y-117.348
X156.412Y-142.748
X158.952Y-117.348
X158.952Y-142.748
X161.492Y-117.348
X161.492Y-142.748
X164.032Y-117.348
X164.032Y-142.748
X166.572Y-117.348
X166.572Y-142.748
X169.112Y-117.348
X169.112Y-142.748
X171.652Y-117.348
X171.652Y-142.748
X174.192Y-117.348
X174.192Y-142.748
X176.732Y-117.348
X176.732Y-142.748
T4
X130.142Y-99.365
X177.182Y-99.365
T0
M30
