%TF.GenerationSoftware,KiCad,Pcbnew,(5.1.6)-1*%
%TF.CreationDate,2022-10-28T15:03:09-04:00*%
%TF.ProjectId,Amiga ESP32fi,416d6967-6120-4455-9350-333266692e6b,rev?*%
%TF.SameCoordinates,Original*%
%TF.FileFunction,Soldermask,Top*%
%TF.FilePolarity,Negative*%
%FSLAX46Y46*%
G04 Gerber Fmt 4.6, Leading zero omitted, Abs format (unit mm)*
G04 Created by KiCad (PCBNEW (5.1.6)-1) date 2022-10-28 15:03:09*
%MOMM*%
%LPD*%
G01*
G04 APERTURE LIST*
%ADD10R,0.400000X1.575000*%
%ADD11R,1.600000X1.600000*%
%ADD12C,1.600000*%
%ADD13C,4.900000*%
%ADD14R,1.800000X1.800000*%
%ADD15O,1.800000X1.800000*%
%ADD16C,1.660000*%
%ADD17R,1.660000X1.660000*%
G04 APERTURE END LIST*
%TO.C,C1*%
G36*
G01*
X143044800Y-113635262D02*
X143044800Y-112678738D01*
G75*
G02*
X143316538Y-112407000I271738J0D01*
G01*
X144023062Y-112407000D01*
G75*
G02*
X144294800Y-112678738I0J-271738D01*
G01*
X144294800Y-113635262D01*
G75*
G02*
X144023062Y-113907000I-271738J0D01*
G01*
X143316538Y-113907000D01*
G75*
G02*
X143044800Y-113635262I0J271738D01*
G01*
G37*
G36*
G01*
X145094800Y-113635262D02*
X145094800Y-112678738D01*
G75*
G02*
X145366538Y-112407000I271738J0D01*
G01*
X146073062Y-112407000D01*
G75*
G02*
X146344800Y-112678738I0J-271738D01*
G01*
X146344800Y-113635262D01*
G75*
G02*
X146073062Y-113907000I-271738J0D01*
G01*
X145366538Y-113907000D01*
G75*
G02*
X145094800Y-113635262I0J271738D01*
G01*
G37*
%TD*%
D10*
%TO.C,IC1*%
X159420000Y-105584400D03*
X158920000Y-105584400D03*
X158420000Y-105584400D03*
X157920000Y-105584400D03*
X157420000Y-105584400D03*
X156920000Y-105584400D03*
X156420000Y-105584400D03*
X155920000Y-105584400D03*
X155420000Y-105584400D03*
X154920000Y-105584400D03*
X154420000Y-105584400D03*
X153920000Y-105584400D03*
X153420000Y-105584400D03*
X152920000Y-105584400D03*
X152420000Y-105584400D03*
X151920000Y-105584400D03*
X151420000Y-105584400D03*
X150920000Y-105584400D03*
X150420000Y-105584400D03*
X149920000Y-105584400D03*
X149420000Y-105584400D03*
X148920000Y-105584400D03*
X148420000Y-105584400D03*
X147920000Y-105584400D03*
X147920000Y-113160400D03*
X148420000Y-113160400D03*
X148920000Y-113160400D03*
X149420000Y-113160400D03*
X149920000Y-113160400D03*
X150420000Y-113160400D03*
X150920000Y-113160400D03*
X151420000Y-113160400D03*
X151920000Y-113160400D03*
X152420000Y-113160400D03*
X152920000Y-113160400D03*
X153420000Y-113160400D03*
X153920000Y-113160400D03*
X154420000Y-113160400D03*
X154920000Y-113160400D03*
X155420000Y-113160400D03*
X155920000Y-113160400D03*
X156420000Y-113160400D03*
X156920000Y-113160400D03*
X157420000Y-113160400D03*
X157920000Y-113160400D03*
X158420000Y-113160400D03*
X158920000Y-113160400D03*
X159420000Y-113160400D03*
%TD*%
D11*
%TO.C,J0*%
X170281600Y-100634800D03*
D12*
X167511600Y-100634800D03*
X164741600Y-100634800D03*
X161971600Y-100634800D03*
X159201600Y-100634800D03*
X156431600Y-100634800D03*
X153661600Y-100634800D03*
X150891600Y-100634800D03*
X148121600Y-100634800D03*
X145351600Y-100634800D03*
X142581600Y-100634800D03*
X139811600Y-100634800D03*
X137041600Y-100634800D03*
X168896600Y-98094800D03*
X166126600Y-98094800D03*
X163356600Y-98094800D03*
X160586600Y-98094800D03*
X157816600Y-98094800D03*
X155046600Y-98094800D03*
X152276600Y-98094800D03*
X149506600Y-98094800D03*
X146736600Y-98094800D03*
X143966600Y-98094800D03*
X141196600Y-98094800D03*
X138426600Y-98094800D03*
D13*
X177181600Y-99364800D03*
X130141600Y-99364800D03*
%TD*%
D14*
%TO.C,J1*%
X176453800Y-107746800D03*
D15*
X176453800Y-110286800D03*
%TD*%
%TO.C,J2*%
X131013200Y-110236000D03*
D14*
X131013200Y-107696000D03*
%TD*%
%TO.C,R1*%
G36*
G01*
X162160000Y-112678738D02*
X162160000Y-113635262D01*
G75*
G02*
X161888262Y-113907000I-271738J0D01*
G01*
X161181738Y-113907000D01*
G75*
G02*
X160910000Y-113635262I0J271738D01*
G01*
X160910000Y-112678738D01*
G75*
G02*
X161181738Y-112407000I271738J0D01*
G01*
X161888262Y-112407000D01*
G75*
G02*
X162160000Y-112678738I0J-271738D01*
G01*
G37*
G36*
G01*
X164210000Y-112678738D02*
X164210000Y-113635262D01*
G75*
G02*
X163938262Y-113907000I-271738J0D01*
G01*
X163231738Y-113907000D01*
G75*
G02*
X162960000Y-113635262I0J271738D01*
G01*
X162960000Y-112678738D01*
G75*
G02*
X163231738Y-112407000I271738J0D01*
G01*
X163938262Y-112407000D01*
G75*
G02*
X164210000Y-112678738I0J-271738D01*
G01*
G37*
%TD*%
D16*
%TO.C,U1*%
X131012000Y-142748000D03*
X133552000Y-142748000D03*
X136092000Y-142748000D03*
X138632000Y-142748000D03*
X141172000Y-142748000D03*
X143712000Y-142748000D03*
X146252000Y-142748000D03*
X148792000Y-142748000D03*
X151332000Y-142748000D03*
X153872000Y-142748000D03*
X156412000Y-142748000D03*
X158952000Y-142748000D03*
X161492000Y-142748000D03*
X164032000Y-142748000D03*
X166572000Y-142748000D03*
X169112000Y-142748000D03*
X171652000Y-142748000D03*
X174192000Y-142748000D03*
X176732000Y-142748000D03*
X133552000Y-117348000D03*
X136092000Y-117348000D03*
X138632000Y-117348000D03*
X141172000Y-117348000D03*
X143712000Y-117348000D03*
X146252000Y-117348000D03*
X148792000Y-117348000D03*
X151332000Y-117348000D03*
X153872000Y-117348000D03*
X156412000Y-117348000D03*
X158952000Y-117348000D03*
X161492000Y-117348000D03*
X164032000Y-117348000D03*
X166572000Y-117348000D03*
X169112000Y-117348000D03*
X171652000Y-117348000D03*
X131012000Y-117348000D03*
X174192000Y-117348000D03*
D17*
X176732000Y-117348000D03*
%TD*%
M02*
