%TF.GenerationSoftware,KiCad,Pcbnew,(5.1.6)-1*%
%TF.CreationDate,2022-10-28T15:03:09-04:00*%
%TF.ProjectId,Amiga ESP32fi,416d6967-6120-4455-9350-333266692e6b,rev?*%
%TF.SameCoordinates,Original*%
%TF.FileFunction,Paste,Top*%
%TF.FilePolarity,Positive*%
%FSLAX46Y46*%
G04 Gerber Fmt 4.6, Leading zero omitted, Abs format (unit mm)*
G04 Created by KiCad (PCBNEW (5.1.6)-1) date 2022-10-28 15:03:09*
%MOMM*%
%LPD*%
G01*
G04 APERTURE LIST*
%ADD10R,0.300000X1.475000*%
G04 APERTURE END LIST*
%TO.C,C1*%
G36*
G01*
X143094800Y-113607001D02*
X143094800Y-112706999D01*
G75*
G02*
X143344799Y-112457000I249999J0D01*
G01*
X143994801Y-112457000D01*
G75*
G02*
X144244800Y-112706999I0J-249999D01*
G01*
X144244800Y-113607001D01*
G75*
G02*
X143994801Y-113857000I-249999J0D01*
G01*
X143344799Y-113857000D01*
G75*
G02*
X143094800Y-113607001I0J249999D01*
G01*
G37*
G36*
G01*
X145144800Y-113607001D02*
X145144800Y-112706999D01*
G75*
G02*
X145394799Y-112457000I249999J0D01*
G01*
X146044801Y-112457000D01*
G75*
G02*
X146294800Y-112706999I0J-249999D01*
G01*
X146294800Y-113607001D01*
G75*
G02*
X146044801Y-113857000I-249999J0D01*
G01*
X145394799Y-113857000D01*
G75*
G02*
X145144800Y-113607001I0J249999D01*
G01*
G37*
%TD*%
D10*
%TO.C,IC1*%
X159420000Y-105584400D03*
X158920000Y-105584400D03*
X158420000Y-105584400D03*
X157920000Y-105584400D03*
X157420000Y-105584400D03*
X156920000Y-105584400D03*
X156420000Y-105584400D03*
X155920000Y-105584400D03*
X155420000Y-105584400D03*
X154920000Y-105584400D03*
X154420000Y-105584400D03*
X153920000Y-105584400D03*
X153420000Y-105584400D03*
X152920000Y-105584400D03*
X152420000Y-105584400D03*
X151920000Y-105584400D03*
X151420000Y-105584400D03*
X150920000Y-105584400D03*
X150420000Y-105584400D03*
X149920000Y-105584400D03*
X149420000Y-105584400D03*
X148920000Y-105584400D03*
X148420000Y-105584400D03*
X147920000Y-105584400D03*
X147920000Y-113160400D03*
X148420000Y-113160400D03*
X148920000Y-113160400D03*
X149420000Y-113160400D03*
X149920000Y-113160400D03*
X150420000Y-113160400D03*
X150920000Y-113160400D03*
X151420000Y-113160400D03*
X151920000Y-113160400D03*
X152420000Y-113160400D03*
X152920000Y-113160400D03*
X153420000Y-113160400D03*
X153920000Y-113160400D03*
X154420000Y-113160400D03*
X154920000Y-113160400D03*
X155420000Y-113160400D03*
X155920000Y-113160400D03*
X156420000Y-113160400D03*
X156920000Y-113160400D03*
X157420000Y-113160400D03*
X157920000Y-113160400D03*
X158420000Y-113160400D03*
X158920000Y-113160400D03*
X159420000Y-113160400D03*
%TD*%
%TO.C,R1*%
G36*
G01*
X162110000Y-112706999D02*
X162110000Y-113607001D01*
G75*
G02*
X161860001Y-113857000I-249999J0D01*
G01*
X161209999Y-113857000D01*
G75*
G02*
X160960000Y-113607001I0J249999D01*
G01*
X160960000Y-112706999D01*
G75*
G02*
X161209999Y-112457000I249999J0D01*
G01*
X161860001Y-112457000D01*
G75*
G02*
X162110000Y-112706999I0J-249999D01*
G01*
G37*
G36*
G01*
X164160000Y-112706999D02*
X164160000Y-113607001D01*
G75*
G02*
X163910001Y-113857000I-249999J0D01*
G01*
X163259999Y-113857000D01*
G75*
G02*
X163010000Y-113607001I0J249999D01*
G01*
X163010000Y-112706999D01*
G75*
G02*
X163259999Y-112457000I249999J0D01*
G01*
X163910001Y-112457000D01*
G75*
G02*
X164160000Y-112706999I0J-249999D01*
G01*
G37*
%TD*%
M02*
