%TF.GenerationSoftware,KiCad,Pcbnew,(5.1.6)-1*%
%TF.CreationDate,2022-10-28T15:03:09-04:00*%
%TF.ProjectId,Amiga ESP32fi,416d6967-6120-4455-9350-333266692e6b,rev?*%
%TF.SameCoordinates,Original*%
%TF.FileFunction,Copper,L2,Bot*%
%TF.FilePolarity,Positive*%
%FSLAX46Y46*%
G04 Gerber Fmt 4.6, Leading zero omitted, Abs format (unit mm)*
G04 Created by KiCad (PCBNEW (5.1.6)-1) date 2022-10-28 15:03:09*
%MOMM*%
%LPD*%
G01*
G04 APERTURE LIST*
%TA.AperFunction,ComponentPad*%
%ADD10R,1.500000X1.500000*%
%TD*%
%TA.AperFunction,ComponentPad*%
%ADD11C,1.500000*%
%TD*%
%TA.AperFunction,ComponentPad*%
%ADD12C,4.800000*%
%TD*%
%TA.AperFunction,ComponentPad*%
%ADD13R,1.700000X1.700000*%
%TD*%
%TA.AperFunction,ComponentPad*%
%ADD14O,1.700000X1.700000*%
%TD*%
%TA.AperFunction,ComponentPad*%
%ADD15C,1.560000*%
%TD*%
%TA.AperFunction,ComponentPad*%
%ADD16R,1.560000X1.560000*%
%TD*%
%TA.AperFunction,ViaPad*%
%ADD17C,0.500000*%
%TD*%
%TA.AperFunction,Conductor*%
%ADD18C,0.250000*%
%TD*%
%TA.AperFunction,Conductor*%
%ADD19C,0.254000*%
%TD*%
G04 APERTURE END LIST*
D10*
%TO.P,J0,1*%
%TO.N,AMI_STROBE*%
X170281600Y-100634800D03*
D11*
%TO.P,J0,2*%
%TO.N,AMI_D0*%
X167511600Y-100634800D03*
%TO.P,J0,3*%
%TO.N,AMI_D1*%
X164741600Y-100634800D03*
%TO.P,J0,4*%
%TO.N,AMI_D2*%
X161971600Y-100634800D03*
%TO.P,J0,5*%
%TO.N,AMI_D3*%
X159201600Y-100634800D03*
%TO.P,J0,6*%
%TO.N,AMI_D4*%
X156431600Y-100634800D03*
%TO.P,J0,7*%
%TO.N,AMI_D5*%
X153661600Y-100634800D03*
%TO.P,J0,8*%
%TO.N,AMI_D6*%
X150891600Y-100634800D03*
%TO.P,J0,9*%
%TO.N,AMI_D7*%
X148121600Y-100634800D03*
%TO.P,J0,10*%
%TO.N,AMI_ACK*%
X145351600Y-100634800D03*
%TO.P,J0,11*%
%TO.N,AMI_BUSY*%
X142581600Y-100634800D03*
%TO.P,J0,12*%
%TO.N,AMI_POUT*%
X139811600Y-100634800D03*
%TO.P,J0,13*%
%TO.N,AMI_SEL*%
X137041600Y-100634800D03*
%TO.P,J0,14*%
%TO.N,AMI_5V*%
X168896600Y-98094800D03*
%TO.P,J0,15*%
%TO.N,Net-(J0-Pad15)*%
X166126600Y-98094800D03*
%TO.P,J0,16*%
%TO.N,AMI_RESET*%
X163356600Y-98094800D03*
%TO.P,J0,17*%
%TO.N,GND*%
X160586600Y-98094800D03*
%TO.P,J0,18*%
X157816600Y-98094800D03*
%TO.P,J0,19*%
X155046600Y-98094800D03*
%TO.P,J0,20*%
X152276600Y-98094800D03*
%TO.P,J0,21*%
X149506600Y-98094800D03*
%TO.P,J0,22*%
X146736600Y-98094800D03*
%TO.P,J0,23*%
X143966600Y-98094800D03*
%TO.P,J0,24*%
X141196600Y-98094800D03*
%TO.P,J0,25*%
X138426600Y-98094800D03*
D12*
%TO.P,J0,MH1*%
X177181600Y-99364800D03*
%TO.P,J0,MH2*%
X130141600Y-99364800D03*
%TD*%
D13*
%TO.P,J1,1*%
%TO.N,RESET*%
X176453800Y-107746800D03*
D14*
%TO.P,J1,2*%
%TO.N,Net-(J1-Pad2)*%
X176453800Y-110286800D03*
%TD*%
%TO.P,J2,2*%
%TO.N,+5V*%
X131013200Y-110236000D03*
D13*
%TO.P,J2,1*%
%TO.N,AMI_5V*%
X131013200Y-107696000D03*
%TD*%
D15*
%TO.P,U1,38*%
%TO.N,Net-(U1-Pad38)*%
X131012000Y-142748000D03*
%TO.P,U1,37*%
%TO.N,Net-(U1-Pad37)*%
X133552000Y-142748000D03*
%TO.P,U1,36*%
%TO.N,Net-(U1-Pad36)*%
X136092000Y-142748000D03*
%TO.P,U1,35*%
%TO.N,D4*%
X138632000Y-142748000D03*
%TO.P,U1,34*%
%TO.N,LED_STATUS*%
X141172000Y-142748000D03*
%TO.P,U1,33*%
%TO.N,Net-(U1-Pad33)*%
X143712000Y-142748000D03*
%TO.P,U1,32*%
%TO.N,ACK*%
X146252000Y-142748000D03*
%TO.P,U1,31*%
%TO.N,D3*%
X148792000Y-142748000D03*
%TO.P,U1,30*%
%TO.N,D2*%
X151332000Y-142748000D03*
%TO.P,U1,29*%
%TO.N,STROBE*%
X153872000Y-142748000D03*
%TO.P,U1,28*%
%TO.N,D1*%
X156412000Y-142748000D03*
%TO.P,U1,27*%
%TO.N,D0*%
X158952000Y-142748000D03*
%TO.P,U1,26*%
%TO.N,GND*%
X161492000Y-142748000D03*
%TO.P,U1,25*%
%TO.N,I2C_SDA*%
X164032000Y-142748000D03*
%TO.P,U1,24*%
%TO.N,Net-(U1-Pad24)*%
X166572000Y-142748000D03*
%TO.P,U1,23*%
%TO.N,Net-(U1-Pad23)*%
X169112000Y-142748000D03*
%TO.P,U1,22*%
%TO.N,I2C_SCL*%
X171652000Y-142748000D03*
%TO.P,U1,21*%
%TO.N,LED_STATUS2*%
X174192000Y-142748000D03*
%TO.P,U1,20*%
%TO.N,GND*%
X176732000Y-142748000D03*
%TO.P,U1,18*%
%TO.N,Net-(U1-Pad18)*%
X133552000Y-117348000D03*
%TO.P,U1,17*%
%TO.N,Net-(U1-Pad17)*%
X136092000Y-117348000D03*
%TO.P,U1,16*%
%TO.N,Net-(U1-Pad16)*%
X138632000Y-117348000D03*
%TO.P,U1,15*%
%TO.N,D6*%
X141172000Y-117348000D03*
%TO.P,U1,14*%
%TO.N,GND*%
X143712000Y-117348000D03*
%TO.P,U1,13*%
%TO.N,D7*%
X146252000Y-117348000D03*
%TO.P,U1,12*%
%TO.N,D5*%
X148792000Y-117348000D03*
%TO.P,U1,11*%
%TO.N,SEL*%
X151332000Y-117348000D03*
%TO.P,U1,10*%
%TO.N,BUSY*%
X153872000Y-117348000D03*
%TO.P,U1,9*%
%TO.N,OE*%
X156412000Y-117348000D03*
%TO.P,U1,8*%
%TO.N,POUT*%
X158952000Y-117348000D03*
%TO.P,U1,7*%
%TO.N,Net-(J1-Pad2)*%
X161492000Y-117348000D03*
%TO.P,U1,6*%
%TO.N,Net-(U1-Pad6)*%
X164032000Y-117348000D03*
%TO.P,U1,5*%
%TO.N,Net-(U1-Pad5)*%
X166572000Y-117348000D03*
%TO.P,U1,4*%
%TO.N,Net-(U1-Pad4)*%
X169112000Y-117348000D03*
%TO.P,U1,3*%
%TO.N,Net-(U1-Pad3)*%
X171652000Y-117348000D03*
%TO.P,U1,19*%
%TO.N,+5V*%
X131012000Y-117348000D03*
%TO.P,U1,2*%
%TO.N,Net-(U1-Pad2)*%
X174192000Y-117348000D03*
D16*
%TO.P,U1,1*%
%TO.N,+3V3*%
X176732000Y-117348000D03*
%TD*%
D17*
%TO.N,GND*%
X151130000Y-106934000D03*
X155702000Y-106934000D03*
X147844200Y-114554000D03*
X150345000Y-114554000D03*
X155708243Y-111994659D03*
X150114000Y-106934000D03*
X161544000Y-115062000D03*
X164084000Y-115062000D03*
%TO.N,AMI_RESET*%
X158597600Y-103886000D03*
%TO.N,ACK*%
X152995000Y-115239800D03*
%TO.N,D5*%
X153797000Y-114630200D03*
%TO.N,D4*%
X154457400Y-111658400D03*
%TO.N,D3*%
X155117802Y-114553944D03*
%TO.N,D2*%
X156413200Y-114554000D03*
%TO.N,D1*%
X156921200Y-111048800D03*
%TO.N,D0*%
X159054613Y-109771986D03*
%TO.N,STROBE*%
X159537587Y-110921987D03*
%TD*%
D18*
%TO.N,AMI_RESET*%
X160604200Y-101904800D02*
X158623000Y-103886000D01*
X158623000Y-103886000D02*
X158597600Y-103886000D01*
X160604200Y-100050600D02*
X160604200Y-101904800D01*
X163356600Y-98094800D02*
X162560000Y-98094800D01*
X162560000Y-98094800D02*
X160604200Y-100050600D01*
%TO.N,ACK*%
X152603200Y-136396800D02*
X146252000Y-142748000D01*
X152995000Y-115239800D02*
X152603200Y-115631600D01*
X152603200Y-115631600D02*
X152603200Y-136396800D01*
%TO.N,D5*%
X152069800Y-114630200D02*
X153797000Y-114630200D01*
X148792000Y-117348000D02*
X149352000Y-117348000D01*
X149352000Y-117348000D02*
X152069800Y-114630200D01*
%TO.N,D4*%
X139903200Y-141476800D02*
X138632000Y-142748000D01*
X139903200Y-116789200D02*
X139903200Y-141476800D01*
X154457400Y-111658400D02*
X145034000Y-111658400D01*
X145034000Y-111658400D02*
X139903200Y-116789200D01*
%TO.N,D3*%
X148792000Y-142748000D02*
X155117802Y-136422198D01*
X155117802Y-136422198D02*
X155117802Y-114553944D01*
%TO.N,D2*%
X157683200Y-136396800D02*
X151332000Y-142748000D01*
X156413200Y-114554000D02*
X157683200Y-115824000D01*
X157683200Y-115824000D02*
X157683200Y-136396800D01*
%TO.N,D1*%
X159813588Y-110346986D02*
X157623014Y-110346986D01*
X162763200Y-113296598D02*
X159813588Y-110346986D01*
X156412000Y-142748000D02*
X162763200Y-136396800D01*
X157623014Y-110346986D02*
X156921200Y-111048800D01*
X162763200Y-136396800D02*
X162763200Y-113296598D01*
%TO.N,D0*%
X165303200Y-136396800D02*
X158952000Y-142748000D01*
X165303200Y-115200188D02*
X165303200Y-136396800D01*
X159054613Y-109771986D02*
X159874998Y-109771986D01*
X159874998Y-109771986D02*
X165303200Y-115200188D01*
%TO.N,STROBE*%
X160197800Y-111582200D02*
X159537587Y-110921987D01*
X153872000Y-142748000D02*
X160197800Y-136422200D01*
X160197800Y-136422200D02*
X160197800Y-111582200D01*
%TD*%
D19*
%TO.N,GND*%
G36*
X179888000Y-98547679D02*
G01*
X179800078Y-98263427D01*
X179552108Y-97799505D01*
X179202496Y-97523509D01*
X177361205Y-99364800D01*
X179202496Y-101206091D01*
X179552108Y-100930095D01*
X179811933Y-100437555D01*
X179888000Y-100181783D01*
X179888001Y-143233883D01*
X179865458Y-143463800D01*
X179805111Y-143663678D01*
X179707084Y-143848039D01*
X179575122Y-144009842D01*
X179414241Y-144142932D01*
X179230579Y-144242238D01*
X179031122Y-144303981D01*
X178802599Y-144328000D01*
X128546107Y-144328000D01*
X128316200Y-144305458D01*
X128116322Y-144245111D01*
X127931961Y-144147084D01*
X127770158Y-144015122D01*
X127637068Y-143854241D01*
X127537762Y-143670579D01*
X127476019Y-143471122D01*
X127452000Y-143242599D01*
X127452000Y-142629121D01*
X129805000Y-142629121D01*
X129805000Y-142866879D01*
X129851384Y-143100069D01*
X129942371Y-143319729D01*
X130074462Y-143517418D01*
X130242582Y-143685538D01*
X130440271Y-143817629D01*
X130659931Y-143908616D01*
X130893121Y-143955000D01*
X131130879Y-143955000D01*
X131364069Y-143908616D01*
X131583729Y-143817629D01*
X131781418Y-143685538D01*
X131949538Y-143517418D01*
X132081629Y-143319729D01*
X132172616Y-143100069D01*
X132219000Y-142866879D01*
X132219000Y-142629121D01*
X132345000Y-142629121D01*
X132345000Y-142866879D01*
X132391384Y-143100069D01*
X132482371Y-143319729D01*
X132614462Y-143517418D01*
X132782582Y-143685538D01*
X132980271Y-143817629D01*
X133199931Y-143908616D01*
X133433121Y-143955000D01*
X133670879Y-143955000D01*
X133904069Y-143908616D01*
X134123729Y-143817629D01*
X134321418Y-143685538D01*
X134489538Y-143517418D01*
X134621629Y-143319729D01*
X134712616Y-143100069D01*
X134759000Y-142866879D01*
X134759000Y-142629121D01*
X134885000Y-142629121D01*
X134885000Y-142866879D01*
X134931384Y-143100069D01*
X135022371Y-143319729D01*
X135154462Y-143517418D01*
X135322582Y-143685538D01*
X135520271Y-143817629D01*
X135739931Y-143908616D01*
X135973121Y-143955000D01*
X136210879Y-143955000D01*
X136444069Y-143908616D01*
X136663729Y-143817629D01*
X136861418Y-143685538D01*
X137029538Y-143517418D01*
X137161629Y-143319729D01*
X137252616Y-143100069D01*
X137299000Y-142866879D01*
X137299000Y-142629121D01*
X137252616Y-142395931D01*
X137161629Y-142176271D01*
X137029538Y-141978582D01*
X136861418Y-141810462D01*
X136663729Y-141678371D01*
X136444069Y-141587384D01*
X136210879Y-141541000D01*
X135973121Y-141541000D01*
X135739931Y-141587384D01*
X135520271Y-141678371D01*
X135322582Y-141810462D01*
X135154462Y-141978582D01*
X135022371Y-142176271D01*
X134931384Y-142395931D01*
X134885000Y-142629121D01*
X134759000Y-142629121D01*
X134712616Y-142395931D01*
X134621629Y-142176271D01*
X134489538Y-141978582D01*
X134321418Y-141810462D01*
X134123729Y-141678371D01*
X133904069Y-141587384D01*
X133670879Y-141541000D01*
X133433121Y-141541000D01*
X133199931Y-141587384D01*
X132980271Y-141678371D01*
X132782582Y-141810462D01*
X132614462Y-141978582D01*
X132482371Y-142176271D01*
X132391384Y-142395931D01*
X132345000Y-142629121D01*
X132219000Y-142629121D01*
X132172616Y-142395931D01*
X132081629Y-142176271D01*
X131949538Y-141978582D01*
X131781418Y-141810462D01*
X131583729Y-141678371D01*
X131364069Y-141587384D01*
X131130879Y-141541000D01*
X130893121Y-141541000D01*
X130659931Y-141587384D01*
X130440271Y-141678371D01*
X130242582Y-141810462D01*
X130074462Y-141978582D01*
X129942371Y-142176271D01*
X129851384Y-142395931D01*
X129805000Y-142629121D01*
X127452000Y-142629121D01*
X127452000Y-117229121D01*
X129805000Y-117229121D01*
X129805000Y-117466879D01*
X129851384Y-117700069D01*
X129942371Y-117919729D01*
X130074462Y-118117418D01*
X130242582Y-118285538D01*
X130440271Y-118417629D01*
X130659931Y-118508616D01*
X130893121Y-118555000D01*
X131130879Y-118555000D01*
X131364069Y-118508616D01*
X131583729Y-118417629D01*
X131781418Y-118285538D01*
X131949538Y-118117418D01*
X132081629Y-117919729D01*
X132172616Y-117700069D01*
X132219000Y-117466879D01*
X132219000Y-117229121D01*
X132345000Y-117229121D01*
X132345000Y-117466879D01*
X132391384Y-117700069D01*
X132482371Y-117919729D01*
X132614462Y-118117418D01*
X132782582Y-118285538D01*
X132980271Y-118417629D01*
X133199931Y-118508616D01*
X133433121Y-118555000D01*
X133670879Y-118555000D01*
X133904069Y-118508616D01*
X134123729Y-118417629D01*
X134321418Y-118285538D01*
X134489538Y-118117418D01*
X134621629Y-117919729D01*
X134712616Y-117700069D01*
X134759000Y-117466879D01*
X134759000Y-117229121D01*
X134885000Y-117229121D01*
X134885000Y-117466879D01*
X134931384Y-117700069D01*
X135022371Y-117919729D01*
X135154462Y-118117418D01*
X135322582Y-118285538D01*
X135520271Y-118417629D01*
X135739931Y-118508616D01*
X135973121Y-118555000D01*
X136210879Y-118555000D01*
X136444069Y-118508616D01*
X136663729Y-118417629D01*
X136861418Y-118285538D01*
X137029538Y-118117418D01*
X137161629Y-117919729D01*
X137252616Y-117700069D01*
X137299000Y-117466879D01*
X137299000Y-117229121D01*
X137425000Y-117229121D01*
X137425000Y-117466879D01*
X137471384Y-117700069D01*
X137562371Y-117919729D01*
X137694462Y-118117418D01*
X137862582Y-118285538D01*
X138060271Y-118417629D01*
X138279931Y-118508616D01*
X138513121Y-118555000D01*
X138750879Y-118555000D01*
X138984069Y-118508616D01*
X139203729Y-118417629D01*
X139351200Y-118319092D01*
X139351201Y-141248153D01*
X139003799Y-141595556D01*
X138984069Y-141587384D01*
X138750879Y-141541000D01*
X138513121Y-141541000D01*
X138279931Y-141587384D01*
X138060271Y-141678371D01*
X137862582Y-141810462D01*
X137694462Y-141978582D01*
X137562371Y-142176271D01*
X137471384Y-142395931D01*
X137425000Y-142629121D01*
X137425000Y-142866879D01*
X137471384Y-143100069D01*
X137562371Y-143319729D01*
X137694462Y-143517418D01*
X137862582Y-143685538D01*
X138060271Y-143817629D01*
X138279931Y-143908616D01*
X138513121Y-143955000D01*
X138750879Y-143955000D01*
X138984069Y-143908616D01*
X139203729Y-143817629D01*
X139401418Y-143685538D01*
X139569538Y-143517418D01*
X139701629Y-143319729D01*
X139792616Y-143100069D01*
X139839000Y-142866879D01*
X139839000Y-142629121D01*
X139965000Y-142629121D01*
X139965000Y-142866879D01*
X140011384Y-143100069D01*
X140102371Y-143319729D01*
X140234462Y-143517418D01*
X140402582Y-143685538D01*
X140600271Y-143817629D01*
X140819931Y-143908616D01*
X141053121Y-143955000D01*
X141290879Y-143955000D01*
X141524069Y-143908616D01*
X141743729Y-143817629D01*
X141941418Y-143685538D01*
X142109538Y-143517418D01*
X142241629Y-143319729D01*
X142332616Y-143100069D01*
X142379000Y-142866879D01*
X142379000Y-142629121D01*
X142505000Y-142629121D01*
X142505000Y-142866879D01*
X142551384Y-143100069D01*
X142642371Y-143319729D01*
X142774462Y-143517418D01*
X142942582Y-143685538D01*
X143140271Y-143817629D01*
X143359931Y-143908616D01*
X143593121Y-143955000D01*
X143830879Y-143955000D01*
X144064069Y-143908616D01*
X144283729Y-143817629D01*
X144481418Y-143685538D01*
X144649538Y-143517418D01*
X144781629Y-143319729D01*
X144872616Y-143100069D01*
X144919000Y-142866879D01*
X144919000Y-142629121D01*
X145045000Y-142629121D01*
X145045000Y-142866879D01*
X145091384Y-143100069D01*
X145182371Y-143319729D01*
X145314462Y-143517418D01*
X145482582Y-143685538D01*
X145680271Y-143817629D01*
X145899931Y-143908616D01*
X146133121Y-143955000D01*
X146370879Y-143955000D01*
X146604069Y-143908616D01*
X146823729Y-143817629D01*
X147021418Y-143685538D01*
X147189538Y-143517418D01*
X147321629Y-143319729D01*
X147412616Y-143100069D01*
X147459000Y-142866879D01*
X147459000Y-142629121D01*
X147412616Y-142395931D01*
X147404443Y-142376201D01*
X152974354Y-136806292D01*
X152995411Y-136789011D01*
X153064391Y-136704958D01*
X153115648Y-136609063D01*
X153147212Y-136505011D01*
X153155200Y-136423909D01*
X153155200Y-136423899D01*
X153157869Y-136396801D01*
X153155200Y-136369703D01*
X153155200Y-118320696D01*
X153300271Y-118417629D01*
X153519931Y-118508616D01*
X153753121Y-118555000D01*
X153990879Y-118555000D01*
X154224069Y-118508616D01*
X154443729Y-118417629D01*
X154565803Y-118336062D01*
X154565802Y-136193553D01*
X149163799Y-141595557D01*
X149144069Y-141587384D01*
X148910879Y-141541000D01*
X148673121Y-141541000D01*
X148439931Y-141587384D01*
X148220271Y-141678371D01*
X148022582Y-141810462D01*
X147854462Y-141978582D01*
X147722371Y-142176271D01*
X147631384Y-142395931D01*
X147585000Y-142629121D01*
X147585000Y-142866879D01*
X147631384Y-143100069D01*
X147722371Y-143319729D01*
X147854462Y-143517418D01*
X148022582Y-143685538D01*
X148220271Y-143817629D01*
X148439931Y-143908616D01*
X148673121Y-143955000D01*
X148910879Y-143955000D01*
X149144069Y-143908616D01*
X149363729Y-143817629D01*
X149561418Y-143685538D01*
X149729538Y-143517418D01*
X149861629Y-143319729D01*
X149952616Y-143100069D01*
X149999000Y-142866879D01*
X149999000Y-142629121D01*
X149952616Y-142395931D01*
X149944443Y-142376201D01*
X155488951Y-136831694D01*
X155510013Y-136814409D01*
X155578993Y-136730356D01*
X155630250Y-136634461D01*
X155661814Y-136530409D01*
X155669802Y-136449307D01*
X155669802Y-136449304D01*
X155672472Y-136422198D01*
X155669802Y-136395092D01*
X155669802Y-118303726D01*
X155840271Y-118417629D01*
X156059931Y-118508616D01*
X156293121Y-118555000D01*
X156530879Y-118555000D01*
X156764069Y-118508616D01*
X156983729Y-118417629D01*
X157131200Y-118319092D01*
X157131201Y-136168153D01*
X151703799Y-141595557D01*
X151684069Y-141587384D01*
X151450879Y-141541000D01*
X151213121Y-141541000D01*
X150979931Y-141587384D01*
X150760271Y-141678371D01*
X150562582Y-141810462D01*
X150394462Y-141978582D01*
X150262371Y-142176271D01*
X150171384Y-142395931D01*
X150125000Y-142629121D01*
X150125000Y-142866879D01*
X150171384Y-143100069D01*
X150262371Y-143319729D01*
X150394462Y-143517418D01*
X150562582Y-143685538D01*
X150760271Y-143817629D01*
X150979931Y-143908616D01*
X151213121Y-143955000D01*
X151450879Y-143955000D01*
X151684069Y-143908616D01*
X151903729Y-143817629D01*
X152101418Y-143685538D01*
X152269538Y-143517418D01*
X152401629Y-143319729D01*
X152492616Y-143100069D01*
X152539000Y-142866879D01*
X152539000Y-142629121D01*
X152492616Y-142395931D01*
X152484443Y-142376201D01*
X158054354Y-136806292D01*
X158075411Y-136789011D01*
X158144391Y-136704958D01*
X158195648Y-136609063D01*
X158227212Y-136505011D01*
X158235200Y-136423909D01*
X158235200Y-136423899D01*
X158237869Y-136396801D01*
X158235200Y-136369703D01*
X158235200Y-118320696D01*
X158380271Y-118417629D01*
X158599931Y-118508616D01*
X158833121Y-118555000D01*
X159070879Y-118555000D01*
X159304069Y-118508616D01*
X159523729Y-118417629D01*
X159645801Y-118336064D01*
X159645800Y-136193554D01*
X154243799Y-141595557D01*
X154224069Y-141587384D01*
X153990879Y-141541000D01*
X153753121Y-141541000D01*
X153519931Y-141587384D01*
X153300271Y-141678371D01*
X153102582Y-141810462D01*
X152934462Y-141978582D01*
X152802371Y-142176271D01*
X152711384Y-142395931D01*
X152665000Y-142629121D01*
X152665000Y-142866879D01*
X152711384Y-143100069D01*
X152802371Y-143319729D01*
X152934462Y-143517418D01*
X153102582Y-143685538D01*
X153300271Y-143817629D01*
X153519931Y-143908616D01*
X153753121Y-143955000D01*
X153990879Y-143955000D01*
X154224069Y-143908616D01*
X154443729Y-143817629D01*
X154641418Y-143685538D01*
X154809538Y-143517418D01*
X154941629Y-143319729D01*
X155032616Y-143100069D01*
X155079000Y-142866879D01*
X155079000Y-142629121D01*
X155032616Y-142395931D01*
X155024443Y-142376201D01*
X160568954Y-136831692D01*
X160590011Y-136814411D01*
X160658991Y-136730358D01*
X160710248Y-136634463D01*
X160741812Y-136530411D01*
X160749800Y-136449309D01*
X160749800Y-136449306D01*
X160752470Y-136422201D01*
X160749800Y-136395095D01*
X160749800Y-118303724D01*
X160920271Y-118417629D01*
X161139931Y-118508616D01*
X161373121Y-118555000D01*
X161610879Y-118555000D01*
X161844069Y-118508616D01*
X162063729Y-118417629D01*
X162211201Y-118319092D01*
X162211200Y-136168154D01*
X156783799Y-141595557D01*
X156764069Y-141587384D01*
X156530879Y-141541000D01*
X156293121Y-141541000D01*
X156059931Y-141587384D01*
X155840271Y-141678371D01*
X155642582Y-141810462D01*
X155474462Y-141978582D01*
X155342371Y-142176271D01*
X155251384Y-142395931D01*
X155205000Y-142629121D01*
X155205000Y-142866879D01*
X155251384Y-143100069D01*
X155342371Y-143319729D01*
X155474462Y-143517418D01*
X155642582Y-143685538D01*
X155840271Y-143817629D01*
X156059931Y-143908616D01*
X156293121Y-143955000D01*
X156530879Y-143955000D01*
X156764069Y-143908616D01*
X156983729Y-143817629D01*
X157181418Y-143685538D01*
X157349538Y-143517418D01*
X157481629Y-143319729D01*
X157572616Y-143100069D01*
X157619000Y-142866879D01*
X157619000Y-142629121D01*
X157572616Y-142395931D01*
X157564443Y-142376201D01*
X163134354Y-136806292D01*
X163155411Y-136789011D01*
X163224391Y-136704958D01*
X163275648Y-136609063D01*
X163307212Y-136505011D01*
X163315200Y-136423909D01*
X163315200Y-136423899D01*
X163317869Y-136396801D01*
X163315200Y-136369703D01*
X163315200Y-118320696D01*
X163460271Y-118417629D01*
X163679931Y-118508616D01*
X163913121Y-118555000D01*
X164150879Y-118555000D01*
X164384069Y-118508616D01*
X164603729Y-118417629D01*
X164751200Y-118319092D01*
X164751201Y-136168153D01*
X159323799Y-141595557D01*
X159304069Y-141587384D01*
X159070879Y-141541000D01*
X158833121Y-141541000D01*
X158599931Y-141587384D01*
X158380271Y-141678371D01*
X158182582Y-141810462D01*
X158014462Y-141978582D01*
X157882371Y-142176271D01*
X157791384Y-142395931D01*
X157745000Y-142629121D01*
X157745000Y-142866879D01*
X157791384Y-143100069D01*
X157882371Y-143319729D01*
X158014462Y-143517418D01*
X158182582Y-143685538D01*
X158380271Y-143817629D01*
X158599931Y-143908616D01*
X158833121Y-143955000D01*
X159070879Y-143955000D01*
X159304069Y-143908616D01*
X159523729Y-143817629D01*
X159721418Y-143685538D01*
X159792202Y-143614754D01*
X160804851Y-143614754D01*
X160885775Y-143798462D01*
X161102359Y-143896546D01*
X161333916Y-143950492D01*
X161571548Y-143958227D01*
X161806124Y-143919454D01*
X162028627Y-143835662D01*
X162098225Y-143798462D01*
X162179149Y-143614754D01*
X161492000Y-142927605D01*
X160804851Y-143614754D01*
X159792202Y-143614754D01*
X159889538Y-143517418D01*
X160021629Y-143319729D01*
X160112616Y-143100069D01*
X160159000Y-142866879D01*
X160159000Y-142827548D01*
X160281773Y-142827548D01*
X160320546Y-143062124D01*
X160404338Y-143284627D01*
X160441538Y-143354225D01*
X160625246Y-143435149D01*
X161312395Y-142748000D01*
X161671605Y-142748000D01*
X162358754Y-143435149D01*
X162542462Y-143354225D01*
X162640546Y-143137641D01*
X162694492Y-142906084D01*
X162702227Y-142668452D01*
X162695726Y-142629121D01*
X162825000Y-142629121D01*
X162825000Y-142866879D01*
X162871384Y-143100069D01*
X162962371Y-143319729D01*
X163094462Y-143517418D01*
X163262582Y-143685538D01*
X163460271Y-143817629D01*
X163679931Y-143908616D01*
X163913121Y-143955000D01*
X164150879Y-143955000D01*
X164384069Y-143908616D01*
X164603729Y-143817629D01*
X164801418Y-143685538D01*
X164969538Y-143517418D01*
X165101629Y-143319729D01*
X165192616Y-143100069D01*
X165239000Y-142866879D01*
X165239000Y-142629121D01*
X165365000Y-142629121D01*
X165365000Y-142866879D01*
X165411384Y-143100069D01*
X165502371Y-143319729D01*
X165634462Y-143517418D01*
X165802582Y-143685538D01*
X166000271Y-143817629D01*
X166219931Y-143908616D01*
X166453121Y-143955000D01*
X166690879Y-143955000D01*
X166924069Y-143908616D01*
X167143729Y-143817629D01*
X167341418Y-143685538D01*
X167509538Y-143517418D01*
X167641629Y-143319729D01*
X167732616Y-143100069D01*
X167779000Y-142866879D01*
X167779000Y-142629121D01*
X167905000Y-142629121D01*
X167905000Y-142866879D01*
X167951384Y-143100069D01*
X168042371Y-143319729D01*
X168174462Y-143517418D01*
X168342582Y-143685538D01*
X168540271Y-143817629D01*
X168759931Y-143908616D01*
X168993121Y-143955000D01*
X169230879Y-143955000D01*
X169464069Y-143908616D01*
X169683729Y-143817629D01*
X169881418Y-143685538D01*
X170049538Y-143517418D01*
X170181629Y-143319729D01*
X170272616Y-143100069D01*
X170319000Y-142866879D01*
X170319000Y-142629121D01*
X170445000Y-142629121D01*
X170445000Y-142866879D01*
X170491384Y-143100069D01*
X170582371Y-143319729D01*
X170714462Y-143517418D01*
X170882582Y-143685538D01*
X171080271Y-143817629D01*
X171299931Y-143908616D01*
X171533121Y-143955000D01*
X171770879Y-143955000D01*
X172004069Y-143908616D01*
X172223729Y-143817629D01*
X172421418Y-143685538D01*
X172589538Y-143517418D01*
X172721629Y-143319729D01*
X172812616Y-143100069D01*
X172859000Y-142866879D01*
X172859000Y-142629121D01*
X172985000Y-142629121D01*
X172985000Y-142866879D01*
X173031384Y-143100069D01*
X173122371Y-143319729D01*
X173254462Y-143517418D01*
X173422582Y-143685538D01*
X173620271Y-143817629D01*
X173839931Y-143908616D01*
X174073121Y-143955000D01*
X174310879Y-143955000D01*
X174544069Y-143908616D01*
X174763729Y-143817629D01*
X174961418Y-143685538D01*
X175032202Y-143614754D01*
X176044851Y-143614754D01*
X176125775Y-143798462D01*
X176342359Y-143896546D01*
X176573916Y-143950492D01*
X176811548Y-143958227D01*
X177046124Y-143919454D01*
X177268627Y-143835662D01*
X177338225Y-143798462D01*
X177419149Y-143614754D01*
X176732000Y-142927605D01*
X176044851Y-143614754D01*
X175032202Y-143614754D01*
X175129538Y-143517418D01*
X175261629Y-143319729D01*
X175352616Y-143100069D01*
X175399000Y-142866879D01*
X175399000Y-142827548D01*
X175521773Y-142827548D01*
X175560546Y-143062124D01*
X175644338Y-143284627D01*
X175681538Y-143354225D01*
X175865246Y-143435149D01*
X176552395Y-142748000D01*
X176911605Y-142748000D01*
X177598754Y-143435149D01*
X177782462Y-143354225D01*
X177880546Y-143137641D01*
X177934492Y-142906084D01*
X177942227Y-142668452D01*
X177903454Y-142433876D01*
X177819662Y-142211373D01*
X177782462Y-142141775D01*
X177598754Y-142060851D01*
X176911605Y-142748000D01*
X176552395Y-142748000D01*
X175865246Y-142060851D01*
X175681538Y-142141775D01*
X175583454Y-142358359D01*
X175529508Y-142589916D01*
X175521773Y-142827548D01*
X175399000Y-142827548D01*
X175399000Y-142629121D01*
X175352616Y-142395931D01*
X175261629Y-142176271D01*
X175129538Y-141978582D01*
X175032202Y-141881246D01*
X176044851Y-141881246D01*
X176732000Y-142568395D01*
X177419149Y-141881246D01*
X177338225Y-141697538D01*
X177121641Y-141599454D01*
X176890084Y-141545508D01*
X176652452Y-141537773D01*
X176417876Y-141576546D01*
X176195373Y-141660338D01*
X176125775Y-141697538D01*
X176044851Y-141881246D01*
X175032202Y-141881246D01*
X174961418Y-141810462D01*
X174763729Y-141678371D01*
X174544069Y-141587384D01*
X174310879Y-141541000D01*
X174073121Y-141541000D01*
X173839931Y-141587384D01*
X173620271Y-141678371D01*
X173422582Y-141810462D01*
X173254462Y-141978582D01*
X173122371Y-142176271D01*
X173031384Y-142395931D01*
X172985000Y-142629121D01*
X172859000Y-142629121D01*
X172812616Y-142395931D01*
X172721629Y-142176271D01*
X172589538Y-141978582D01*
X172421418Y-141810462D01*
X172223729Y-141678371D01*
X172004069Y-141587384D01*
X171770879Y-141541000D01*
X171533121Y-141541000D01*
X171299931Y-141587384D01*
X171080271Y-141678371D01*
X170882582Y-141810462D01*
X170714462Y-141978582D01*
X170582371Y-142176271D01*
X170491384Y-142395931D01*
X170445000Y-142629121D01*
X170319000Y-142629121D01*
X170272616Y-142395931D01*
X170181629Y-142176271D01*
X170049538Y-141978582D01*
X169881418Y-141810462D01*
X169683729Y-141678371D01*
X169464069Y-141587384D01*
X169230879Y-141541000D01*
X168993121Y-141541000D01*
X168759931Y-141587384D01*
X168540271Y-141678371D01*
X168342582Y-141810462D01*
X168174462Y-141978582D01*
X168042371Y-142176271D01*
X167951384Y-142395931D01*
X167905000Y-142629121D01*
X167779000Y-142629121D01*
X167732616Y-142395931D01*
X167641629Y-142176271D01*
X167509538Y-141978582D01*
X167341418Y-141810462D01*
X167143729Y-141678371D01*
X166924069Y-141587384D01*
X166690879Y-141541000D01*
X166453121Y-141541000D01*
X166219931Y-141587384D01*
X166000271Y-141678371D01*
X165802582Y-141810462D01*
X165634462Y-141978582D01*
X165502371Y-142176271D01*
X165411384Y-142395931D01*
X165365000Y-142629121D01*
X165239000Y-142629121D01*
X165192616Y-142395931D01*
X165101629Y-142176271D01*
X164969538Y-141978582D01*
X164801418Y-141810462D01*
X164603729Y-141678371D01*
X164384069Y-141587384D01*
X164150879Y-141541000D01*
X163913121Y-141541000D01*
X163679931Y-141587384D01*
X163460271Y-141678371D01*
X163262582Y-141810462D01*
X163094462Y-141978582D01*
X162962371Y-142176271D01*
X162871384Y-142395931D01*
X162825000Y-142629121D01*
X162695726Y-142629121D01*
X162663454Y-142433876D01*
X162579662Y-142211373D01*
X162542462Y-142141775D01*
X162358754Y-142060851D01*
X161671605Y-142748000D01*
X161312395Y-142748000D01*
X160625246Y-142060851D01*
X160441538Y-142141775D01*
X160343454Y-142358359D01*
X160289508Y-142589916D01*
X160281773Y-142827548D01*
X160159000Y-142827548D01*
X160159000Y-142629121D01*
X160112616Y-142395931D01*
X160104443Y-142376201D01*
X160599398Y-141881246D01*
X160804851Y-141881246D01*
X161492000Y-142568395D01*
X162179149Y-141881246D01*
X162098225Y-141697538D01*
X161881641Y-141599454D01*
X161650084Y-141545508D01*
X161412452Y-141537773D01*
X161177876Y-141576546D01*
X160955373Y-141660338D01*
X160885775Y-141697538D01*
X160804851Y-141881246D01*
X160599398Y-141881246D01*
X165674354Y-136806292D01*
X165695411Y-136789011D01*
X165764391Y-136704958D01*
X165815648Y-136609063D01*
X165847212Y-136505011D01*
X165855200Y-136423909D01*
X165855200Y-136423899D01*
X165857869Y-136396801D01*
X165855200Y-136369703D01*
X165855200Y-118320696D01*
X166000271Y-118417629D01*
X166219931Y-118508616D01*
X166453121Y-118555000D01*
X166690879Y-118555000D01*
X166924069Y-118508616D01*
X167143729Y-118417629D01*
X167341418Y-118285538D01*
X167509538Y-118117418D01*
X167641629Y-117919729D01*
X167732616Y-117700069D01*
X167779000Y-117466879D01*
X167779000Y-117229121D01*
X167905000Y-117229121D01*
X167905000Y-117466879D01*
X167951384Y-117700069D01*
X168042371Y-117919729D01*
X168174462Y-118117418D01*
X168342582Y-118285538D01*
X168540271Y-118417629D01*
X168759931Y-118508616D01*
X168993121Y-118555000D01*
X169230879Y-118555000D01*
X169464069Y-118508616D01*
X169683729Y-118417629D01*
X169881418Y-118285538D01*
X170049538Y-118117418D01*
X170181629Y-117919729D01*
X170272616Y-117700069D01*
X170319000Y-117466879D01*
X170319000Y-117229121D01*
X170445000Y-117229121D01*
X170445000Y-117466879D01*
X170491384Y-117700069D01*
X170582371Y-117919729D01*
X170714462Y-118117418D01*
X170882582Y-118285538D01*
X171080271Y-118417629D01*
X171299931Y-118508616D01*
X171533121Y-118555000D01*
X171770879Y-118555000D01*
X172004069Y-118508616D01*
X172223729Y-118417629D01*
X172421418Y-118285538D01*
X172589538Y-118117418D01*
X172721629Y-117919729D01*
X172812616Y-117700069D01*
X172859000Y-117466879D01*
X172859000Y-117229121D01*
X172985000Y-117229121D01*
X172985000Y-117466879D01*
X173031384Y-117700069D01*
X173122371Y-117919729D01*
X173254462Y-118117418D01*
X173422582Y-118285538D01*
X173620271Y-118417629D01*
X173839931Y-118508616D01*
X174073121Y-118555000D01*
X174310879Y-118555000D01*
X174544069Y-118508616D01*
X174763729Y-118417629D01*
X174961418Y-118285538D01*
X175129538Y-118117418D01*
X175261629Y-117919729D01*
X175352616Y-117700069D01*
X175399000Y-117466879D01*
X175399000Y-117229121D01*
X175352616Y-116995931D01*
X175261629Y-116776271D01*
X175129538Y-116578582D01*
X175118956Y-116568000D01*
X175522934Y-116568000D01*
X175522934Y-118128000D01*
X175531178Y-118211707D01*
X175555595Y-118292196D01*
X175595245Y-118366376D01*
X175648605Y-118431395D01*
X175713624Y-118484755D01*
X175787804Y-118524405D01*
X175868293Y-118548822D01*
X175952000Y-118557066D01*
X177512000Y-118557066D01*
X177595707Y-118548822D01*
X177676196Y-118524405D01*
X177750376Y-118484755D01*
X177815395Y-118431395D01*
X177868755Y-118366376D01*
X177908405Y-118292196D01*
X177932822Y-118211707D01*
X177941066Y-118128000D01*
X177941066Y-116568000D01*
X177932822Y-116484293D01*
X177908405Y-116403804D01*
X177868755Y-116329624D01*
X177815395Y-116264605D01*
X177750376Y-116211245D01*
X177676196Y-116171595D01*
X177595707Y-116147178D01*
X177512000Y-116138934D01*
X175952000Y-116138934D01*
X175868293Y-116147178D01*
X175787804Y-116171595D01*
X175713624Y-116211245D01*
X175648605Y-116264605D01*
X175595245Y-116329624D01*
X175555595Y-116403804D01*
X175531178Y-116484293D01*
X175522934Y-116568000D01*
X175118956Y-116568000D01*
X174961418Y-116410462D01*
X174763729Y-116278371D01*
X174544069Y-116187384D01*
X174310879Y-116141000D01*
X174073121Y-116141000D01*
X173839931Y-116187384D01*
X173620271Y-116278371D01*
X173422582Y-116410462D01*
X173254462Y-116578582D01*
X173122371Y-116776271D01*
X173031384Y-116995931D01*
X172985000Y-117229121D01*
X172859000Y-117229121D01*
X172812616Y-116995931D01*
X172721629Y-116776271D01*
X172589538Y-116578582D01*
X172421418Y-116410462D01*
X172223729Y-116278371D01*
X172004069Y-116187384D01*
X171770879Y-116141000D01*
X171533121Y-116141000D01*
X171299931Y-116187384D01*
X171080271Y-116278371D01*
X170882582Y-116410462D01*
X170714462Y-116578582D01*
X170582371Y-116776271D01*
X170491384Y-116995931D01*
X170445000Y-117229121D01*
X170319000Y-117229121D01*
X170272616Y-116995931D01*
X170181629Y-116776271D01*
X170049538Y-116578582D01*
X169881418Y-116410462D01*
X169683729Y-116278371D01*
X169464069Y-116187384D01*
X169230879Y-116141000D01*
X168993121Y-116141000D01*
X168759931Y-116187384D01*
X168540271Y-116278371D01*
X168342582Y-116410462D01*
X168174462Y-116578582D01*
X168042371Y-116776271D01*
X167951384Y-116995931D01*
X167905000Y-117229121D01*
X167779000Y-117229121D01*
X167732616Y-116995931D01*
X167641629Y-116776271D01*
X167509538Y-116578582D01*
X167341418Y-116410462D01*
X167143729Y-116278371D01*
X166924069Y-116187384D01*
X166690879Y-116141000D01*
X166453121Y-116141000D01*
X166219931Y-116187384D01*
X166000271Y-116278371D01*
X165855200Y-116375304D01*
X165855200Y-115227294D01*
X165857870Y-115200188D01*
X165854937Y-115170409D01*
X165847212Y-115091977D01*
X165815648Y-114987925D01*
X165764391Y-114892030D01*
X165695411Y-114807977D01*
X165674349Y-114790692D01*
X160284499Y-109400843D01*
X160267209Y-109379775D01*
X160183156Y-109310795D01*
X160087261Y-109259538D01*
X159983209Y-109227974D01*
X159902107Y-109219986D01*
X159902104Y-109219986D01*
X159874998Y-109217316D01*
X159847892Y-109219986D01*
X159447055Y-109219986D01*
X159375293Y-109172036D01*
X159252087Y-109121002D01*
X159121292Y-109094986D01*
X158987934Y-109094986D01*
X158857139Y-109121002D01*
X158733933Y-109172036D01*
X158623050Y-109246126D01*
X158528753Y-109340423D01*
X158454663Y-109451306D01*
X158403629Y-109574512D01*
X158377613Y-109705307D01*
X158377613Y-109794986D01*
X157650120Y-109794986D01*
X157623014Y-109792316D01*
X157595908Y-109794986D01*
X157595905Y-109794986D01*
X157514803Y-109802974D01*
X157410751Y-109834538D01*
X157314856Y-109885795D01*
X157230803Y-109954775D01*
X157213518Y-109975837D01*
X156808377Y-110380978D01*
X156723726Y-110397816D01*
X156600520Y-110448850D01*
X156489637Y-110522940D01*
X156395340Y-110617237D01*
X156321250Y-110728120D01*
X156270216Y-110851326D01*
X156244200Y-110982121D01*
X156244200Y-111115479D01*
X156270216Y-111246274D01*
X156321250Y-111369480D01*
X156395340Y-111480363D01*
X156489637Y-111574660D01*
X156600520Y-111648750D01*
X156723726Y-111699784D01*
X156854521Y-111725800D01*
X156987879Y-111725800D01*
X157118674Y-111699784D01*
X157241880Y-111648750D01*
X157352763Y-111574660D01*
X157447060Y-111480363D01*
X157521150Y-111369480D01*
X157572184Y-111246274D01*
X157589022Y-111161623D01*
X157851659Y-110898986D01*
X158860587Y-110898986D01*
X158860587Y-110988666D01*
X158886603Y-111119461D01*
X158937637Y-111242667D01*
X159011727Y-111353550D01*
X159106024Y-111447847D01*
X159216907Y-111521937D01*
X159340113Y-111572971D01*
X159424764Y-111589809D01*
X159645801Y-111810846D01*
X159645801Y-116359936D01*
X159523729Y-116278371D01*
X159304069Y-116187384D01*
X159070879Y-116141000D01*
X158833121Y-116141000D01*
X158599931Y-116187384D01*
X158380271Y-116278371D01*
X158235200Y-116375304D01*
X158235200Y-115851097D01*
X158237869Y-115823999D01*
X158235200Y-115796901D01*
X158235200Y-115796891D01*
X158227212Y-115715789D01*
X158195648Y-115611737D01*
X158168251Y-115560480D01*
X158144391Y-115515841D01*
X158092691Y-115452845D01*
X158075411Y-115431789D01*
X158054354Y-115414508D01*
X157081022Y-114441177D01*
X157064184Y-114356526D01*
X157013150Y-114233320D01*
X156939060Y-114122437D01*
X156844763Y-114028140D01*
X156733880Y-113954050D01*
X156610674Y-113903016D01*
X156479879Y-113877000D01*
X156346521Y-113877000D01*
X156215726Y-113903016D01*
X156092520Y-113954050D01*
X155981637Y-114028140D01*
X155887340Y-114122437D01*
X155813250Y-114233320D01*
X155765513Y-114348567D01*
X155717752Y-114233264D01*
X155643662Y-114122381D01*
X155549365Y-114028084D01*
X155438482Y-113953994D01*
X155315276Y-113902960D01*
X155184481Y-113876944D01*
X155051123Y-113876944D01*
X154920328Y-113902960D01*
X154797122Y-113953994D01*
X154686239Y-114028084D01*
X154591942Y-114122381D01*
X154517852Y-114233264D01*
X154466818Y-114356470D01*
X154449817Y-114441942D01*
X154447984Y-114432726D01*
X154396950Y-114309520D01*
X154322860Y-114198637D01*
X154228563Y-114104340D01*
X154117680Y-114030250D01*
X153994474Y-113979216D01*
X153863679Y-113953200D01*
X153730321Y-113953200D01*
X153599526Y-113979216D01*
X153476320Y-114030250D01*
X153404558Y-114078200D01*
X152096908Y-114078200D01*
X152069800Y-114075530D01*
X152042691Y-114078200D01*
X151961589Y-114086188D01*
X151857537Y-114117752D01*
X151761642Y-114169009D01*
X151677589Y-114237989D01*
X151660308Y-114259046D01*
X149529932Y-116389424D01*
X149363729Y-116278371D01*
X149144069Y-116187384D01*
X148910879Y-116141000D01*
X148673121Y-116141000D01*
X148439931Y-116187384D01*
X148220271Y-116278371D01*
X148022582Y-116410462D01*
X147854462Y-116578582D01*
X147722371Y-116776271D01*
X147631384Y-116995931D01*
X147585000Y-117229121D01*
X147585000Y-117466879D01*
X147631384Y-117700069D01*
X147722371Y-117919729D01*
X147854462Y-118117418D01*
X148022582Y-118285538D01*
X148220271Y-118417629D01*
X148439931Y-118508616D01*
X148673121Y-118555000D01*
X148910879Y-118555000D01*
X149144069Y-118508616D01*
X149363729Y-118417629D01*
X149561418Y-118285538D01*
X149729538Y-118117418D01*
X149861629Y-117919729D01*
X149952616Y-117700069D01*
X149995334Y-117485310D01*
X150125000Y-117355644D01*
X150125000Y-117466879D01*
X150171384Y-117700069D01*
X150262371Y-117919729D01*
X150394462Y-118117418D01*
X150562582Y-118285538D01*
X150760271Y-118417629D01*
X150979931Y-118508616D01*
X151213121Y-118555000D01*
X151450879Y-118555000D01*
X151684069Y-118508616D01*
X151903729Y-118417629D01*
X152051200Y-118319092D01*
X152051201Y-136168153D01*
X146623799Y-141595557D01*
X146604069Y-141587384D01*
X146370879Y-141541000D01*
X146133121Y-141541000D01*
X145899931Y-141587384D01*
X145680271Y-141678371D01*
X145482582Y-141810462D01*
X145314462Y-141978582D01*
X145182371Y-142176271D01*
X145091384Y-142395931D01*
X145045000Y-142629121D01*
X144919000Y-142629121D01*
X144872616Y-142395931D01*
X144781629Y-142176271D01*
X144649538Y-141978582D01*
X144481418Y-141810462D01*
X144283729Y-141678371D01*
X144064069Y-141587384D01*
X143830879Y-141541000D01*
X143593121Y-141541000D01*
X143359931Y-141587384D01*
X143140271Y-141678371D01*
X142942582Y-141810462D01*
X142774462Y-141978582D01*
X142642371Y-142176271D01*
X142551384Y-142395931D01*
X142505000Y-142629121D01*
X142379000Y-142629121D01*
X142332616Y-142395931D01*
X142241629Y-142176271D01*
X142109538Y-141978582D01*
X141941418Y-141810462D01*
X141743729Y-141678371D01*
X141524069Y-141587384D01*
X141290879Y-141541000D01*
X141053121Y-141541000D01*
X140819931Y-141587384D01*
X140600271Y-141678371D01*
X140402582Y-141810462D01*
X140234462Y-141978582D01*
X140102371Y-142176271D01*
X140011384Y-142395931D01*
X139965000Y-142629121D01*
X139839000Y-142629121D01*
X139792616Y-142395931D01*
X139784444Y-142376201D01*
X140274354Y-141886292D01*
X140295411Y-141869011D01*
X140343461Y-141810462D01*
X140364391Y-141784959D01*
X140415647Y-141689064D01*
X140415648Y-141689063D01*
X140447212Y-141585011D01*
X140455200Y-141503909D01*
X140455200Y-141503899D01*
X140457869Y-141476801D01*
X140455200Y-141449703D01*
X140455200Y-118320696D01*
X140600271Y-118417629D01*
X140819931Y-118508616D01*
X141053121Y-118555000D01*
X141290879Y-118555000D01*
X141524069Y-118508616D01*
X141743729Y-118417629D01*
X141941418Y-118285538D01*
X142012202Y-118214754D01*
X143024851Y-118214754D01*
X143105775Y-118398462D01*
X143322359Y-118496546D01*
X143553916Y-118550492D01*
X143791548Y-118558227D01*
X144026124Y-118519454D01*
X144248627Y-118435662D01*
X144318225Y-118398462D01*
X144399149Y-118214754D01*
X143712000Y-117527605D01*
X143024851Y-118214754D01*
X142012202Y-118214754D01*
X142109538Y-118117418D01*
X142241629Y-117919729D01*
X142332616Y-117700069D01*
X142379000Y-117466879D01*
X142379000Y-117427548D01*
X142501773Y-117427548D01*
X142540546Y-117662124D01*
X142624338Y-117884627D01*
X142661538Y-117954225D01*
X142845246Y-118035149D01*
X143532395Y-117348000D01*
X143891605Y-117348000D01*
X144578754Y-118035149D01*
X144762462Y-117954225D01*
X144860546Y-117737641D01*
X144914492Y-117506084D01*
X144922227Y-117268452D01*
X144915726Y-117229121D01*
X145045000Y-117229121D01*
X145045000Y-117466879D01*
X145091384Y-117700069D01*
X145182371Y-117919729D01*
X145314462Y-118117418D01*
X145482582Y-118285538D01*
X145680271Y-118417629D01*
X145899931Y-118508616D01*
X146133121Y-118555000D01*
X146370879Y-118555000D01*
X146604069Y-118508616D01*
X146823729Y-118417629D01*
X147021418Y-118285538D01*
X147189538Y-118117418D01*
X147321629Y-117919729D01*
X147412616Y-117700069D01*
X147459000Y-117466879D01*
X147459000Y-117229121D01*
X147412616Y-116995931D01*
X147321629Y-116776271D01*
X147189538Y-116578582D01*
X147021418Y-116410462D01*
X146823729Y-116278371D01*
X146604069Y-116187384D01*
X146370879Y-116141000D01*
X146133121Y-116141000D01*
X145899931Y-116187384D01*
X145680271Y-116278371D01*
X145482582Y-116410462D01*
X145314462Y-116578582D01*
X145182371Y-116776271D01*
X145091384Y-116995931D01*
X145045000Y-117229121D01*
X144915726Y-117229121D01*
X144883454Y-117033876D01*
X144799662Y-116811373D01*
X144762462Y-116741775D01*
X144578754Y-116660851D01*
X143891605Y-117348000D01*
X143532395Y-117348000D01*
X142845246Y-116660851D01*
X142661538Y-116741775D01*
X142563454Y-116958359D01*
X142509508Y-117189916D01*
X142501773Y-117427548D01*
X142379000Y-117427548D01*
X142379000Y-117229121D01*
X142332616Y-116995931D01*
X142241629Y-116776271D01*
X142109538Y-116578582D01*
X142012202Y-116481246D01*
X143024851Y-116481246D01*
X143712000Y-117168395D01*
X144399149Y-116481246D01*
X144318225Y-116297538D01*
X144101641Y-116199454D01*
X143870084Y-116145508D01*
X143632452Y-116137773D01*
X143397876Y-116176546D01*
X143175373Y-116260338D01*
X143105775Y-116297538D01*
X143024851Y-116481246D01*
X142012202Y-116481246D01*
X141941418Y-116410462D01*
X141743729Y-116278371D01*
X141524069Y-116187384D01*
X141325215Y-116147830D01*
X145262645Y-112210400D01*
X154064958Y-112210400D01*
X154136720Y-112258350D01*
X154259926Y-112309384D01*
X154390721Y-112335400D01*
X154524079Y-112335400D01*
X154654874Y-112309384D01*
X154778080Y-112258350D01*
X154888963Y-112184260D01*
X154983260Y-112089963D01*
X155057350Y-111979080D01*
X155108384Y-111855874D01*
X155134400Y-111725079D01*
X155134400Y-111591721D01*
X155108384Y-111460926D01*
X155057350Y-111337720D01*
X154983260Y-111226837D01*
X154888963Y-111132540D01*
X154778080Y-111058450D01*
X154654874Y-111007416D01*
X154524079Y-110981400D01*
X154390721Y-110981400D01*
X154259926Y-111007416D01*
X154136720Y-111058450D01*
X154064958Y-111106400D01*
X145061106Y-111106400D01*
X145034000Y-111103730D01*
X145006894Y-111106400D01*
X145006891Y-111106400D01*
X144925789Y-111114388D01*
X144821737Y-111145952D01*
X144725842Y-111197209D01*
X144641789Y-111266189D01*
X144624504Y-111287251D01*
X139532057Y-116379699D01*
X139510989Y-116396989D01*
X139455527Y-116464571D01*
X139401418Y-116410462D01*
X139203729Y-116278371D01*
X138984069Y-116187384D01*
X138750879Y-116141000D01*
X138513121Y-116141000D01*
X138279931Y-116187384D01*
X138060271Y-116278371D01*
X137862582Y-116410462D01*
X137694462Y-116578582D01*
X137562371Y-116776271D01*
X137471384Y-116995931D01*
X137425000Y-117229121D01*
X137299000Y-117229121D01*
X137252616Y-116995931D01*
X137161629Y-116776271D01*
X137029538Y-116578582D01*
X136861418Y-116410462D01*
X136663729Y-116278371D01*
X136444069Y-116187384D01*
X136210879Y-116141000D01*
X135973121Y-116141000D01*
X135739931Y-116187384D01*
X135520271Y-116278371D01*
X135322582Y-116410462D01*
X135154462Y-116578582D01*
X135022371Y-116776271D01*
X134931384Y-116995931D01*
X134885000Y-117229121D01*
X134759000Y-117229121D01*
X134712616Y-116995931D01*
X134621629Y-116776271D01*
X134489538Y-116578582D01*
X134321418Y-116410462D01*
X134123729Y-116278371D01*
X133904069Y-116187384D01*
X133670879Y-116141000D01*
X133433121Y-116141000D01*
X133199931Y-116187384D01*
X132980271Y-116278371D01*
X132782582Y-116410462D01*
X132614462Y-116578582D01*
X132482371Y-116776271D01*
X132391384Y-116995931D01*
X132345000Y-117229121D01*
X132219000Y-117229121D01*
X132172616Y-116995931D01*
X132081629Y-116776271D01*
X131949538Y-116578582D01*
X131781418Y-116410462D01*
X131583729Y-116278371D01*
X131364069Y-116187384D01*
X131130879Y-116141000D01*
X130893121Y-116141000D01*
X130659931Y-116187384D01*
X130440271Y-116278371D01*
X130242582Y-116410462D01*
X130074462Y-116578582D01*
X129942371Y-116776271D01*
X129851384Y-116995931D01*
X129805000Y-117229121D01*
X127452000Y-117229121D01*
X127452000Y-106846000D01*
X129734134Y-106846000D01*
X129734134Y-108546000D01*
X129742378Y-108629707D01*
X129766795Y-108710196D01*
X129806445Y-108784376D01*
X129859805Y-108849395D01*
X129924824Y-108902755D01*
X129999004Y-108942405D01*
X130079493Y-108966822D01*
X130163200Y-108975066D01*
X130806656Y-108975066D01*
X130640713Y-109008074D01*
X130408314Y-109104337D01*
X130199160Y-109244089D01*
X130021289Y-109421960D01*
X129881537Y-109631114D01*
X129785274Y-109863513D01*
X129736200Y-110110226D01*
X129736200Y-110361774D01*
X129785274Y-110608487D01*
X129881537Y-110840886D01*
X130021289Y-111050040D01*
X130199160Y-111227911D01*
X130408314Y-111367663D01*
X130640713Y-111463926D01*
X130887426Y-111513000D01*
X131138974Y-111513000D01*
X131385687Y-111463926D01*
X131618086Y-111367663D01*
X131827240Y-111227911D01*
X132005111Y-111050040D01*
X132144863Y-110840886D01*
X132241126Y-110608487D01*
X132290200Y-110361774D01*
X132290200Y-110110226D01*
X132241126Y-109863513D01*
X132144863Y-109631114D01*
X132005111Y-109421960D01*
X131827240Y-109244089D01*
X131618086Y-109104337D01*
X131385687Y-109008074D01*
X131219744Y-108975066D01*
X131863200Y-108975066D01*
X131946907Y-108966822D01*
X132027396Y-108942405D01*
X132101576Y-108902755D01*
X132166595Y-108849395D01*
X132219955Y-108784376D01*
X132259605Y-108710196D01*
X132284022Y-108629707D01*
X132292266Y-108546000D01*
X132292266Y-106896800D01*
X175174734Y-106896800D01*
X175174734Y-108596800D01*
X175182978Y-108680507D01*
X175207395Y-108760996D01*
X175247045Y-108835176D01*
X175300405Y-108900195D01*
X175365424Y-108953555D01*
X175439604Y-108993205D01*
X175520093Y-109017622D01*
X175603800Y-109025866D01*
X176247256Y-109025866D01*
X176081313Y-109058874D01*
X175848914Y-109155137D01*
X175639760Y-109294889D01*
X175461889Y-109472760D01*
X175322137Y-109681914D01*
X175225874Y-109914313D01*
X175176800Y-110161026D01*
X175176800Y-110412574D01*
X175225874Y-110659287D01*
X175322137Y-110891686D01*
X175461889Y-111100840D01*
X175639760Y-111278711D01*
X175848914Y-111418463D01*
X176081313Y-111514726D01*
X176328026Y-111563800D01*
X176579574Y-111563800D01*
X176826287Y-111514726D01*
X177058686Y-111418463D01*
X177267840Y-111278711D01*
X177445711Y-111100840D01*
X177585463Y-110891686D01*
X177681726Y-110659287D01*
X177730800Y-110412574D01*
X177730800Y-110161026D01*
X177681726Y-109914313D01*
X177585463Y-109681914D01*
X177445711Y-109472760D01*
X177267840Y-109294889D01*
X177058686Y-109155137D01*
X176826287Y-109058874D01*
X176660344Y-109025866D01*
X177303800Y-109025866D01*
X177387507Y-109017622D01*
X177467996Y-108993205D01*
X177542176Y-108953555D01*
X177607195Y-108900195D01*
X177660555Y-108835176D01*
X177700205Y-108760996D01*
X177724622Y-108680507D01*
X177732866Y-108596800D01*
X177732866Y-106896800D01*
X177724622Y-106813093D01*
X177700205Y-106732604D01*
X177660555Y-106658424D01*
X177607195Y-106593405D01*
X177542176Y-106540045D01*
X177467996Y-106500395D01*
X177387507Y-106475978D01*
X177303800Y-106467734D01*
X175603800Y-106467734D01*
X175520093Y-106475978D01*
X175439604Y-106500395D01*
X175365424Y-106540045D01*
X175300405Y-106593405D01*
X175247045Y-106658424D01*
X175207395Y-106732604D01*
X175182978Y-106813093D01*
X175174734Y-106896800D01*
X132292266Y-106896800D01*
X132292266Y-106846000D01*
X132284022Y-106762293D01*
X132259605Y-106681804D01*
X132219955Y-106607624D01*
X132166595Y-106542605D01*
X132101576Y-106489245D01*
X132027396Y-106449595D01*
X131946907Y-106425178D01*
X131863200Y-106416934D01*
X130163200Y-106416934D01*
X130079493Y-106425178D01*
X129999004Y-106449595D01*
X129924824Y-106489245D01*
X129859805Y-106542605D01*
X129806445Y-106607624D01*
X129766795Y-106681804D01*
X129742378Y-106762293D01*
X129734134Y-106846000D01*
X127452000Y-106846000D01*
X127452000Y-103819321D01*
X157920600Y-103819321D01*
X157920600Y-103952679D01*
X157946616Y-104083474D01*
X157997650Y-104206680D01*
X158071740Y-104317563D01*
X158166037Y-104411860D01*
X158276920Y-104485950D01*
X158400126Y-104536984D01*
X158530921Y-104563000D01*
X158664279Y-104563000D01*
X158795074Y-104536984D01*
X158918280Y-104485950D01*
X159029163Y-104411860D01*
X159123460Y-104317563D01*
X159197550Y-104206680D01*
X159248584Y-104083474D01*
X159259115Y-104030529D01*
X160975349Y-102314296D01*
X160996411Y-102297011D01*
X161065391Y-102212958D01*
X161116648Y-102117063D01*
X161148212Y-102013011D01*
X161156200Y-101931909D01*
X161156200Y-101931906D01*
X161158870Y-101904800D01*
X161156200Y-101877694D01*
X161156200Y-101483930D01*
X161221306Y-101549036D01*
X161414081Y-101677844D01*
X161628282Y-101766569D01*
X161855676Y-101811800D01*
X162087524Y-101811800D01*
X162314918Y-101766569D01*
X162529119Y-101677844D01*
X162721894Y-101549036D01*
X162885836Y-101385094D01*
X163014644Y-101192319D01*
X163103369Y-100978118D01*
X163148600Y-100750724D01*
X163148600Y-100518876D01*
X163564600Y-100518876D01*
X163564600Y-100750724D01*
X163609831Y-100978118D01*
X163698556Y-101192319D01*
X163827364Y-101385094D01*
X163991306Y-101549036D01*
X164184081Y-101677844D01*
X164398282Y-101766569D01*
X164625676Y-101811800D01*
X164857524Y-101811800D01*
X165084918Y-101766569D01*
X165299119Y-101677844D01*
X165491894Y-101549036D01*
X165655836Y-101385094D01*
X165784644Y-101192319D01*
X165873369Y-100978118D01*
X165918600Y-100750724D01*
X165918600Y-100518876D01*
X166334600Y-100518876D01*
X166334600Y-100750724D01*
X166379831Y-100978118D01*
X166468556Y-101192319D01*
X166597364Y-101385094D01*
X166761306Y-101549036D01*
X166954081Y-101677844D01*
X167168282Y-101766569D01*
X167395676Y-101811800D01*
X167627524Y-101811800D01*
X167854918Y-101766569D01*
X168069119Y-101677844D01*
X168261894Y-101549036D01*
X168425836Y-101385094D01*
X168554644Y-101192319D01*
X168643369Y-100978118D01*
X168688600Y-100750724D01*
X168688600Y-100518876D01*
X168643369Y-100291482D01*
X168554644Y-100077281D01*
X168426033Y-99884800D01*
X169102534Y-99884800D01*
X169102534Y-101384800D01*
X169110778Y-101468507D01*
X169135195Y-101548996D01*
X169174845Y-101623176D01*
X169228205Y-101688195D01*
X169293224Y-101741555D01*
X169367404Y-101781205D01*
X169447893Y-101805622D01*
X169531600Y-101813866D01*
X171031600Y-101813866D01*
X171115307Y-101805622D01*
X171195796Y-101781205D01*
X171269976Y-101741555D01*
X171334995Y-101688195D01*
X171388355Y-101623176D01*
X171428005Y-101548996D01*
X171452422Y-101468507D01*
X171460577Y-101385696D01*
X175340309Y-101385696D01*
X175616305Y-101735308D01*
X176108845Y-101995133D01*
X176642610Y-102153876D01*
X177197088Y-102205436D01*
X177750971Y-102147832D01*
X178282973Y-101983278D01*
X178746895Y-101735308D01*
X179022891Y-101385696D01*
X177181600Y-99544405D01*
X175340309Y-101385696D01*
X171460577Y-101385696D01*
X171460666Y-101384800D01*
X171460666Y-99884800D01*
X171452422Y-99801093D01*
X171428005Y-99720604D01*
X171388355Y-99646424D01*
X171334995Y-99581405D01*
X171269976Y-99528045D01*
X171195796Y-99488395D01*
X171115307Y-99463978D01*
X171031600Y-99455734D01*
X169531600Y-99455734D01*
X169447893Y-99463978D01*
X169367404Y-99488395D01*
X169293224Y-99528045D01*
X169228205Y-99581405D01*
X169174845Y-99646424D01*
X169135195Y-99720604D01*
X169110778Y-99801093D01*
X169102534Y-99884800D01*
X168426033Y-99884800D01*
X168425836Y-99884506D01*
X168261894Y-99720564D01*
X168069119Y-99591756D01*
X167854918Y-99503031D01*
X167627524Y-99457800D01*
X167395676Y-99457800D01*
X167168282Y-99503031D01*
X166954081Y-99591756D01*
X166761306Y-99720564D01*
X166597364Y-99884506D01*
X166468556Y-100077281D01*
X166379831Y-100291482D01*
X166334600Y-100518876D01*
X165918600Y-100518876D01*
X165873369Y-100291482D01*
X165784644Y-100077281D01*
X165655836Y-99884506D01*
X165491894Y-99720564D01*
X165299119Y-99591756D01*
X165084918Y-99503031D01*
X164857524Y-99457800D01*
X164625676Y-99457800D01*
X164398282Y-99503031D01*
X164184081Y-99591756D01*
X163991306Y-99720564D01*
X163827364Y-99884506D01*
X163698556Y-100077281D01*
X163609831Y-100291482D01*
X163564600Y-100518876D01*
X163148600Y-100518876D01*
X163103369Y-100291482D01*
X163014644Y-100077281D01*
X162885836Y-99884506D01*
X162721894Y-99720564D01*
X162529119Y-99591756D01*
X162314918Y-99503031D01*
X162087524Y-99457800D01*
X161977645Y-99457800D01*
X162055156Y-99380288D01*
X174340964Y-99380288D01*
X174398568Y-99934171D01*
X174563122Y-100466173D01*
X174811092Y-100930095D01*
X175160704Y-101206091D01*
X177001995Y-99364800D01*
X175160704Y-97523509D01*
X174811092Y-97799505D01*
X174551267Y-98292045D01*
X174392524Y-98825810D01*
X174340964Y-99380288D01*
X162055156Y-99380288D01*
X162516357Y-98919087D01*
X162606306Y-99009036D01*
X162799081Y-99137844D01*
X163013282Y-99226569D01*
X163240676Y-99271800D01*
X163472524Y-99271800D01*
X163699918Y-99226569D01*
X163914119Y-99137844D01*
X164106894Y-99009036D01*
X164270836Y-98845094D01*
X164399644Y-98652319D01*
X164488369Y-98438118D01*
X164533600Y-98210724D01*
X164533600Y-97978876D01*
X164949600Y-97978876D01*
X164949600Y-98210724D01*
X164994831Y-98438118D01*
X165083556Y-98652319D01*
X165212364Y-98845094D01*
X165376306Y-99009036D01*
X165569081Y-99137844D01*
X165783282Y-99226569D01*
X166010676Y-99271800D01*
X166242524Y-99271800D01*
X166469918Y-99226569D01*
X166684119Y-99137844D01*
X166876894Y-99009036D01*
X167040836Y-98845094D01*
X167169644Y-98652319D01*
X167258369Y-98438118D01*
X167303600Y-98210724D01*
X167303600Y-97978876D01*
X167719600Y-97978876D01*
X167719600Y-98210724D01*
X167764831Y-98438118D01*
X167853556Y-98652319D01*
X167982364Y-98845094D01*
X168146306Y-99009036D01*
X168339081Y-99137844D01*
X168553282Y-99226569D01*
X168780676Y-99271800D01*
X169012524Y-99271800D01*
X169239918Y-99226569D01*
X169454119Y-99137844D01*
X169646894Y-99009036D01*
X169810836Y-98845094D01*
X169939644Y-98652319D01*
X170028369Y-98438118D01*
X170073600Y-98210724D01*
X170073600Y-97978876D01*
X170028369Y-97751482D01*
X169939644Y-97537281D01*
X169810836Y-97344506D01*
X169810234Y-97343904D01*
X175340309Y-97343904D01*
X177181600Y-99185195D01*
X179022891Y-97343904D01*
X178746895Y-96994292D01*
X178254355Y-96734467D01*
X177720590Y-96575724D01*
X177166112Y-96524164D01*
X176612229Y-96581768D01*
X176080227Y-96746322D01*
X175616305Y-96994292D01*
X175340309Y-97343904D01*
X169810234Y-97343904D01*
X169646894Y-97180564D01*
X169454119Y-97051756D01*
X169239918Y-96963031D01*
X169012524Y-96917800D01*
X168780676Y-96917800D01*
X168553282Y-96963031D01*
X168339081Y-97051756D01*
X168146306Y-97180564D01*
X167982364Y-97344506D01*
X167853556Y-97537281D01*
X167764831Y-97751482D01*
X167719600Y-97978876D01*
X167303600Y-97978876D01*
X167258369Y-97751482D01*
X167169644Y-97537281D01*
X167040836Y-97344506D01*
X166876894Y-97180564D01*
X166684119Y-97051756D01*
X166469918Y-96963031D01*
X166242524Y-96917800D01*
X166010676Y-96917800D01*
X165783282Y-96963031D01*
X165569081Y-97051756D01*
X165376306Y-97180564D01*
X165212364Y-97344506D01*
X165083556Y-97537281D01*
X164994831Y-97751482D01*
X164949600Y-97978876D01*
X164533600Y-97978876D01*
X164488369Y-97751482D01*
X164399644Y-97537281D01*
X164270836Y-97344506D01*
X164106894Y-97180564D01*
X163914119Y-97051756D01*
X163699918Y-96963031D01*
X163472524Y-96917800D01*
X163240676Y-96917800D01*
X163013282Y-96963031D01*
X162799081Y-97051756D01*
X162606306Y-97180564D01*
X162442364Y-97344506D01*
X162313556Y-97537281D01*
X162279859Y-97618634D01*
X162251842Y-97633609D01*
X162167789Y-97702589D01*
X162150504Y-97723651D01*
X161763656Y-98110500D01*
X161766536Y-98014062D01*
X161728112Y-97785420D01*
X161645821Y-97568667D01*
X161612536Y-97506395D01*
X161431892Y-97429113D01*
X160766205Y-98094800D01*
X160780348Y-98108943D01*
X160600743Y-98288548D01*
X160586600Y-98274405D01*
X159920913Y-98940092D01*
X159998195Y-99120736D01*
X160209651Y-99215815D01*
X160435592Y-99267814D01*
X160601390Y-99272766D01*
X160233057Y-99641099D01*
X160211989Y-99658389D01*
X160143009Y-99742442D01*
X160091752Y-99838338D01*
X160086612Y-99855282D01*
X159951894Y-99720564D01*
X159759119Y-99591756D01*
X159544918Y-99503031D01*
X159317524Y-99457800D01*
X159085676Y-99457800D01*
X158858282Y-99503031D01*
X158644081Y-99591756D01*
X158451306Y-99720564D01*
X158287364Y-99884506D01*
X158158556Y-100077281D01*
X158069831Y-100291482D01*
X158024600Y-100518876D01*
X158024600Y-100750724D01*
X158069831Y-100978118D01*
X158158556Y-101192319D01*
X158287364Y-101385094D01*
X158451306Y-101549036D01*
X158644081Y-101677844D01*
X158858282Y-101766569D01*
X159085676Y-101811800D01*
X159317524Y-101811800D01*
X159544918Y-101766569D01*
X159759119Y-101677844D01*
X159951894Y-101549036D01*
X160052201Y-101448729D01*
X160052201Y-101676154D01*
X158516484Y-103211872D01*
X158400126Y-103235016D01*
X158276920Y-103286050D01*
X158166037Y-103360140D01*
X158071740Y-103454437D01*
X157997650Y-103565320D01*
X157946616Y-103688526D01*
X157920600Y-103819321D01*
X127452000Y-103819321D01*
X127452000Y-101385696D01*
X128300309Y-101385696D01*
X128576305Y-101735308D01*
X129068845Y-101995133D01*
X129602610Y-102153876D01*
X130157088Y-102205436D01*
X130710971Y-102147832D01*
X131242973Y-101983278D01*
X131706895Y-101735308D01*
X131982891Y-101385696D01*
X130141600Y-99544405D01*
X128300309Y-101385696D01*
X127452000Y-101385696D01*
X127452000Y-100236236D01*
X127523122Y-100466173D01*
X127771092Y-100930095D01*
X128120704Y-101206091D01*
X129961995Y-99364800D01*
X130321205Y-99364800D01*
X132162496Y-101206091D01*
X132512108Y-100930095D01*
X132729034Y-100518876D01*
X135864600Y-100518876D01*
X135864600Y-100750724D01*
X135909831Y-100978118D01*
X135998556Y-101192319D01*
X136127364Y-101385094D01*
X136291306Y-101549036D01*
X136484081Y-101677844D01*
X136698282Y-101766569D01*
X136925676Y-101811800D01*
X137157524Y-101811800D01*
X137384918Y-101766569D01*
X137599119Y-101677844D01*
X137791894Y-101549036D01*
X137955836Y-101385094D01*
X138084644Y-101192319D01*
X138173369Y-100978118D01*
X138218600Y-100750724D01*
X138218600Y-100518876D01*
X138634600Y-100518876D01*
X138634600Y-100750724D01*
X138679831Y-100978118D01*
X138768556Y-101192319D01*
X138897364Y-101385094D01*
X139061306Y-101549036D01*
X139254081Y-101677844D01*
X139468282Y-101766569D01*
X139695676Y-101811800D01*
X139927524Y-101811800D01*
X140154918Y-101766569D01*
X140369119Y-101677844D01*
X140561894Y-101549036D01*
X140725836Y-101385094D01*
X140854644Y-101192319D01*
X140943369Y-100978118D01*
X140988600Y-100750724D01*
X140988600Y-100518876D01*
X141404600Y-100518876D01*
X141404600Y-100750724D01*
X141449831Y-100978118D01*
X141538556Y-101192319D01*
X141667364Y-101385094D01*
X141831306Y-101549036D01*
X142024081Y-101677844D01*
X142238282Y-101766569D01*
X142465676Y-101811800D01*
X142697524Y-101811800D01*
X142924918Y-101766569D01*
X143139119Y-101677844D01*
X143331894Y-101549036D01*
X143495836Y-101385094D01*
X143624644Y-101192319D01*
X143713369Y-100978118D01*
X143758600Y-100750724D01*
X143758600Y-100518876D01*
X144174600Y-100518876D01*
X144174600Y-100750724D01*
X144219831Y-100978118D01*
X144308556Y-101192319D01*
X144437364Y-101385094D01*
X144601306Y-101549036D01*
X144794081Y-101677844D01*
X145008282Y-101766569D01*
X145235676Y-101811800D01*
X145467524Y-101811800D01*
X145694918Y-101766569D01*
X145909119Y-101677844D01*
X146101894Y-101549036D01*
X146265836Y-101385094D01*
X146394644Y-101192319D01*
X146483369Y-100978118D01*
X146528600Y-100750724D01*
X146528600Y-100518876D01*
X146944600Y-100518876D01*
X146944600Y-100750724D01*
X146989831Y-100978118D01*
X147078556Y-101192319D01*
X147207364Y-101385094D01*
X147371306Y-101549036D01*
X147564081Y-101677844D01*
X147778282Y-101766569D01*
X148005676Y-101811800D01*
X148237524Y-101811800D01*
X148464918Y-101766569D01*
X148679119Y-101677844D01*
X148871894Y-101549036D01*
X149035836Y-101385094D01*
X149164644Y-101192319D01*
X149253369Y-100978118D01*
X149298600Y-100750724D01*
X149298600Y-100518876D01*
X149714600Y-100518876D01*
X149714600Y-100750724D01*
X149759831Y-100978118D01*
X149848556Y-101192319D01*
X149977364Y-101385094D01*
X150141306Y-101549036D01*
X150334081Y-101677844D01*
X150548282Y-101766569D01*
X150775676Y-101811800D01*
X151007524Y-101811800D01*
X151234918Y-101766569D01*
X151449119Y-101677844D01*
X151641894Y-101549036D01*
X151805836Y-101385094D01*
X151934644Y-101192319D01*
X152023369Y-100978118D01*
X152068600Y-100750724D01*
X152068600Y-100518876D01*
X152484600Y-100518876D01*
X152484600Y-100750724D01*
X152529831Y-100978118D01*
X152618556Y-101192319D01*
X152747364Y-101385094D01*
X152911306Y-101549036D01*
X153104081Y-101677844D01*
X153318282Y-101766569D01*
X153545676Y-101811800D01*
X153777524Y-101811800D01*
X154004918Y-101766569D01*
X154219119Y-101677844D01*
X154411894Y-101549036D01*
X154575836Y-101385094D01*
X154704644Y-101192319D01*
X154793369Y-100978118D01*
X154838600Y-100750724D01*
X154838600Y-100518876D01*
X155254600Y-100518876D01*
X155254600Y-100750724D01*
X155299831Y-100978118D01*
X155388556Y-101192319D01*
X155517364Y-101385094D01*
X155681306Y-101549036D01*
X155874081Y-101677844D01*
X156088282Y-101766569D01*
X156315676Y-101811800D01*
X156547524Y-101811800D01*
X156774918Y-101766569D01*
X156989119Y-101677844D01*
X157181894Y-101549036D01*
X157345836Y-101385094D01*
X157474644Y-101192319D01*
X157563369Y-100978118D01*
X157608600Y-100750724D01*
X157608600Y-100518876D01*
X157563369Y-100291482D01*
X157474644Y-100077281D01*
X157345836Y-99884506D01*
X157181894Y-99720564D01*
X156989119Y-99591756D01*
X156774918Y-99503031D01*
X156547524Y-99457800D01*
X156315676Y-99457800D01*
X156088282Y-99503031D01*
X155874081Y-99591756D01*
X155681306Y-99720564D01*
X155517364Y-99884506D01*
X155388556Y-100077281D01*
X155299831Y-100291482D01*
X155254600Y-100518876D01*
X154838600Y-100518876D01*
X154793369Y-100291482D01*
X154704644Y-100077281D01*
X154575836Y-99884506D01*
X154411894Y-99720564D01*
X154219119Y-99591756D01*
X154004918Y-99503031D01*
X153777524Y-99457800D01*
X153545676Y-99457800D01*
X153318282Y-99503031D01*
X153104081Y-99591756D01*
X152911306Y-99720564D01*
X152747364Y-99884506D01*
X152618556Y-100077281D01*
X152529831Y-100291482D01*
X152484600Y-100518876D01*
X152068600Y-100518876D01*
X152023369Y-100291482D01*
X151934644Y-100077281D01*
X151805836Y-99884506D01*
X151641894Y-99720564D01*
X151449119Y-99591756D01*
X151234918Y-99503031D01*
X151007524Y-99457800D01*
X150775676Y-99457800D01*
X150548282Y-99503031D01*
X150334081Y-99591756D01*
X150141306Y-99720564D01*
X149977364Y-99884506D01*
X149848556Y-100077281D01*
X149759831Y-100291482D01*
X149714600Y-100518876D01*
X149298600Y-100518876D01*
X149253369Y-100291482D01*
X149164644Y-100077281D01*
X149035836Y-99884506D01*
X148871894Y-99720564D01*
X148679119Y-99591756D01*
X148464918Y-99503031D01*
X148237524Y-99457800D01*
X148005676Y-99457800D01*
X147778282Y-99503031D01*
X147564081Y-99591756D01*
X147371306Y-99720564D01*
X147207364Y-99884506D01*
X147078556Y-100077281D01*
X146989831Y-100291482D01*
X146944600Y-100518876D01*
X146528600Y-100518876D01*
X146483369Y-100291482D01*
X146394644Y-100077281D01*
X146265836Y-99884506D01*
X146101894Y-99720564D01*
X145909119Y-99591756D01*
X145694918Y-99503031D01*
X145467524Y-99457800D01*
X145235676Y-99457800D01*
X145008282Y-99503031D01*
X144794081Y-99591756D01*
X144601306Y-99720564D01*
X144437364Y-99884506D01*
X144308556Y-100077281D01*
X144219831Y-100291482D01*
X144174600Y-100518876D01*
X143758600Y-100518876D01*
X143713369Y-100291482D01*
X143624644Y-100077281D01*
X143495836Y-99884506D01*
X143331894Y-99720564D01*
X143139119Y-99591756D01*
X142924918Y-99503031D01*
X142697524Y-99457800D01*
X142465676Y-99457800D01*
X142238282Y-99503031D01*
X142024081Y-99591756D01*
X141831306Y-99720564D01*
X141667364Y-99884506D01*
X141538556Y-100077281D01*
X141449831Y-100291482D01*
X141404600Y-100518876D01*
X140988600Y-100518876D01*
X140943369Y-100291482D01*
X140854644Y-100077281D01*
X140725836Y-99884506D01*
X140561894Y-99720564D01*
X140369119Y-99591756D01*
X140154918Y-99503031D01*
X139927524Y-99457800D01*
X139695676Y-99457800D01*
X139468282Y-99503031D01*
X139254081Y-99591756D01*
X139061306Y-99720564D01*
X138897364Y-99884506D01*
X138768556Y-100077281D01*
X138679831Y-100291482D01*
X138634600Y-100518876D01*
X138218600Y-100518876D01*
X138173369Y-100291482D01*
X138084644Y-100077281D01*
X137955836Y-99884506D01*
X137791894Y-99720564D01*
X137599119Y-99591756D01*
X137384918Y-99503031D01*
X137157524Y-99457800D01*
X136925676Y-99457800D01*
X136698282Y-99503031D01*
X136484081Y-99591756D01*
X136291306Y-99720564D01*
X136127364Y-99884506D01*
X135998556Y-100077281D01*
X135909831Y-100291482D01*
X135864600Y-100518876D01*
X132729034Y-100518876D01*
X132771933Y-100437555D01*
X132930676Y-99903790D01*
X132982236Y-99349312D01*
X132939677Y-98940092D01*
X137760913Y-98940092D01*
X137838195Y-99120736D01*
X138049651Y-99215815D01*
X138275592Y-99267814D01*
X138507338Y-99274736D01*
X138735980Y-99236312D01*
X138952733Y-99154021D01*
X139015005Y-99120736D01*
X139092287Y-98940092D01*
X140530913Y-98940092D01*
X140608195Y-99120736D01*
X140819651Y-99215815D01*
X141045592Y-99267814D01*
X141277338Y-99274736D01*
X141505980Y-99236312D01*
X141722733Y-99154021D01*
X141785005Y-99120736D01*
X141862287Y-98940092D01*
X143300913Y-98940092D01*
X143378195Y-99120736D01*
X143589651Y-99215815D01*
X143815592Y-99267814D01*
X144047338Y-99274736D01*
X144275980Y-99236312D01*
X144492733Y-99154021D01*
X144555005Y-99120736D01*
X144632287Y-98940092D01*
X146070913Y-98940092D01*
X146148195Y-99120736D01*
X146359651Y-99215815D01*
X146585592Y-99267814D01*
X146817338Y-99274736D01*
X147045980Y-99236312D01*
X147262733Y-99154021D01*
X147325005Y-99120736D01*
X147402287Y-98940092D01*
X148840913Y-98940092D01*
X148918195Y-99120736D01*
X149129651Y-99215815D01*
X149355592Y-99267814D01*
X149587338Y-99274736D01*
X149815980Y-99236312D01*
X150032733Y-99154021D01*
X150095005Y-99120736D01*
X150172287Y-98940092D01*
X151610913Y-98940092D01*
X151688195Y-99120736D01*
X151899651Y-99215815D01*
X152125592Y-99267814D01*
X152357338Y-99274736D01*
X152585980Y-99236312D01*
X152802733Y-99154021D01*
X152865005Y-99120736D01*
X152942287Y-98940092D01*
X154380913Y-98940092D01*
X154458195Y-99120736D01*
X154669651Y-99215815D01*
X154895592Y-99267814D01*
X155127338Y-99274736D01*
X155355980Y-99236312D01*
X155572733Y-99154021D01*
X155635005Y-99120736D01*
X155712287Y-98940092D01*
X157150913Y-98940092D01*
X157228195Y-99120736D01*
X157439651Y-99215815D01*
X157665592Y-99267814D01*
X157897338Y-99274736D01*
X158125980Y-99236312D01*
X158342733Y-99154021D01*
X158405005Y-99120736D01*
X158482287Y-98940092D01*
X157816600Y-98274405D01*
X157150913Y-98940092D01*
X155712287Y-98940092D01*
X155046600Y-98274405D01*
X154380913Y-98940092D01*
X152942287Y-98940092D01*
X152276600Y-98274405D01*
X151610913Y-98940092D01*
X150172287Y-98940092D01*
X149506600Y-98274405D01*
X148840913Y-98940092D01*
X147402287Y-98940092D01*
X146736600Y-98274405D01*
X146070913Y-98940092D01*
X144632287Y-98940092D01*
X143966600Y-98274405D01*
X143300913Y-98940092D01*
X141862287Y-98940092D01*
X141196600Y-98274405D01*
X140530913Y-98940092D01*
X139092287Y-98940092D01*
X138426600Y-98274405D01*
X137760913Y-98940092D01*
X132939677Y-98940092D01*
X132924632Y-98795429D01*
X132760078Y-98263427D01*
X132713101Y-98175538D01*
X137246664Y-98175538D01*
X137285088Y-98404180D01*
X137367379Y-98620933D01*
X137400664Y-98683205D01*
X137581308Y-98760487D01*
X138246995Y-98094800D01*
X138606205Y-98094800D01*
X139271892Y-98760487D01*
X139452536Y-98683205D01*
X139547615Y-98471749D01*
X139599614Y-98245808D01*
X139601712Y-98175538D01*
X140016664Y-98175538D01*
X140055088Y-98404180D01*
X140137379Y-98620933D01*
X140170664Y-98683205D01*
X140351308Y-98760487D01*
X141016995Y-98094800D01*
X141376205Y-98094800D01*
X142041892Y-98760487D01*
X142222536Y-98683205D01*
X142317615Y-98471749D01*
X142369614Y-98245808D01*
X142371712Y-98175538D01*
X142786664Y-98175538D01*
X142825088Y-98404180D01*
X142907379Y-98620933D01*
X142940664Y-98683205D01*
X143121308Y-98760487D01*
X143786995Y-98094800D01*
X144146205Y-98094800D01*
X144811892Y-98760487D01*
X144992536Y-98683205D01*
X145087615Y-98471749D01*
X145139614Y-98245808D01*
X145141712Y-98175538D01*
X145556664Y-98175538D01*
X145595088Y-98404180D01*
X145677379Y-98620933D01*
X145710664Y-98683205D01*
X145891308Y-98760487D01*
X146556995Y-98094800D01*
X146916205Y-98094800D01*
X147581892Y-98760487D01*
X147762536Y-98683205D01*
X147857615Y-98471749D01*
X147909614Y-98245808D01*
X147911712Y-98175538D01*
X148326664Y-98175538D01*
X148365088Y-98404180D01*
X148447379Y-98620933D01*
X148480664Y-98683205D01*
X148661308Y-98760487D01*
X149326995Y-98094800D01*
X149686205Y-98094800D01*
X150351892Y-98760487D01*
X150532536Y-98683205D01*
X150627615Y-98471749D01*
X150679614Y-98245808D01*
X150681712Y-98175538D01*
X151096664Y-98175538D01*
X151135088Y-98404180D01*
X151217379Y-98620933D01*
X151250664Y-98683205D01*
X151431308Y-98760487D01*
X152096995Y-98094800D01*
X152456205Y-98094800D01*
X153121892Y-98760487D01*
X153302536Y-98683205D01*
X153397615Y-98471749D01*
X153449614Y-98245808D01*
X153451712Y-98175538D01*
X153866664Y-98175538D01*
X153905088Y-98404180D01*
X153987379Y-98620933D01*
X154020664Y-98683205D01*
X154201308Y-98760487D01*
X154866995Y-98094800D01*
X155226205Y-98094800D01*
X155891892Y-98760487D01*
X156072536Y-98683205D01*
X156167615Y-98471749D01*
X156219614Y-98245808D01*
X156221712Y-98175538D01*
X156636664Y-98175538D01*
X156675088Y-98404180D01*
X156757379Y-98620933D01*
X156790664Y-98683205D01*
X156971308Y-98760487D01*
X157636995Y-98094800D01*
X157996205Y-98094800D01*
X158661892Y-98760487D01*
X158842536Y-98683205D01*
X158937615Y-98471749D01*
X158989614Y-98245808D01*
X158991712Y-98175538D01*
X159406664Y-98175538D01*
X159445088Y-98404180D01*
X159527379Y-98620933D01*
X159560664Y-98683205D01*
X159741308Y-98760487D01*
X160406995Y-98094800D01*
X159741308Y-97429113D01*
X159560664Y-97506395D01*
X159465585Y-97717851D01*
X159413586Y-97943792D01*
X159406664Y-98175538D01*
X158991712Y-98175538D01*
X158996536Y-98014062D01*
X158958112Y-97785420D01*
X158875821Y-97568667D01*
X158842536Y-97506395D01*
X158661892Y-97429113D01*
X157996205Y-98094800D01*
X157636995Y-98094800D01*
X156971308Y-97429113D01*
X156790664Y-97506395D01*
X156695585Y-97717851D01*
X156643586Y-97943792D01*
X156636664Y-98175538D01*
X156221712Y-98175538D01*
X156226536Y-98014062D01*
X156188112Y-97785420D01*
X156105821Y-97568667D01*
X156072536Y-97506395D01*
X155891892Y-97429113D01*
X155226205Y-98094800D01*
X154866995Y-98094800D01*
X154201308Y-97429113D01*
X154020664Y-97506395D01*
X153925585Y-97717851D01*
X153873586Y-97943792D01*
X153866664Y-98175538D01*
X153451712Y-98175538D01*
X153456536Y-98014062D01*
X153418112Y-97785420D01*
X153335821Y-97568667D01*
X153302536Y-97506395D01*
X153121892Y-97429113D01*
X152456205Y-98094800D01*
X152096995Y-98094800D01*
X151431308Y-97429113D01*
X151250664Y-97506395D01*
X151155585Y-97717851D01*
X151103586Y-97943792D01*
X151096664Y-98175538D01*
X150681712Y-98175538D01*
X150686536Y-98014062D01*
X150648112Y-97785420D01*
X150565821Y-97568667D01*
X150532536Y-97506395D01*
X150351892Y-97429113D01*
X149686205Y-98094800D01*
X149326995Y-98094800D01*
X148661308Y-97429113D01*
X148480664Y-97506395D01*
X148385585Y-97717851D01*
X148333586Y-97943792D01*
X148326664Y-98175538D01*
X147911712Y-98175538D01*
X147916536Y-98014062D01*
X147878112Y-97785420D01*
X147795821Y-97568667D01*
X147762536Y-97506395D01*
X147581892Y-97429113D01*
X146916205Y-98094800D01*
X146556995Y-98094800D01*
X145891308Y-97429113D01*
X145710664Y-97506395D01*
X145615585Y-97717851D01*
X145563586Y-97943792D01*
X145556664Y-98175538D01*
X145141712Y-98175538D01*
X145146536Y-98014062D01*
X145108112Y-97785420D01*
X145025821Y-97568667D01*
X144992536Y-97506395D01*
X144811892Y-97429113D01*
X144146205Y-98094800D01*
X143786995Y-98094800D01*
X143121308Y-97429113D01*
X142940664Y-97506395D01*
X142845585Y-97717851D01*
X142793586Y-97943792D01*
X142786664Y-98175538D01*
X142371712Y-98175538D01*
X142376536Y-98014062D01*
X142338112Y-97785420D01*
X142255821Y-97568667D01*
X142222536Y-97506395D01*
X142041892Y-97429113D01*
X141376205Y-98094800D01*
X141016995Y-98094800D01*
X140351308Y-97429113D01*
X140170664Y-97506395D01*
X140075585Y-97717851D01*
X140023586Y-97943792D01*
X140016664Y-98175538D01*
X139601712Y-98175538D01*
X139606536Y-98014062D01*
X139568112Y-97785420D01*
X139485821Y-97568667D01*
X139452536Y-97506395D01*
X139271892Y-97429113D01*
X138606205Y-98094800D01*
X138246995Y-98094800D01*
X137581308Y-97429113D01*
X137400664Y-97506395D01*
X137305585Y-97717851D01*
X137253586Y-97943792D01*
X137246664Y-98175538D01*
X132713101Y-98175538D01*
X132512108Y-97799505D01*
X132162496Y-97523509D01*
X130321205Y-99364800D01*
X129961995Y-99364800D01*
X128120704Y-97523509D01*
X127771092Y-97799505D01*
X127511267Y-98292045D01*
X127452000Y-98491327D01*
X127452000Y-97343904D01*
X128300309Y-97343904D01*
X130141600Y-99185195D01*
X131982891Y-97343904D01*
X131908372Y-97249508D01*
X137760913Y-97249508D01*
X138426600Y-97915195D01*
X139092287Y-97249508D01*
X140530913Y-97249508D01*
X141196600Y-97915195D01*
X141862287Y-97249508D01*
X143300913Y-97249508D01*
X143966600Y-97915195D01*
X144632287Y-97249508D01*
X146070913Y-97249508D01*
X146736600Y-97915195D01*
X147402287Y-97249508D01*
X148840913Y-97249508D01*
X149506600Y-97915195D01*
X150172287Y-97249508D01*
X151610913Y-97249508D01*
X152276600Y-97915195D01*
X152942287Y-97249508D01*
X154380913Y-97249508D01*
X155046600Y-97915195D01*
X155712287Y-97249508D01*
X157150913Y-97249508D01*
X157816600Y-97915195D01*
X158482287Y-97249508D01*
X159920913Y-97249508D01*
X160586600Y-97915195D01*
X161252287Y-97249508D01*
X161175005Y-97068864D01*
X160963549Y-96973785D01*
X160737608Y-96921786D01*
X160505862Y-96914864D01*
X160277220Y-96953288D01*
X160060467Y-97035579D01*
X159998195Y-97068864D01*
X159920913Y-97249508D01*
X158482287Y-97249508D01*
X158405005Y-97068864D01*
X158193549Y-96973785D01*
X157967608Y-96921786D01*
X157735862Y-96914864D01*
X157507220Y-96953288D01*
X157290467Y-97035579D01*
X157228195Y-97068864D01*
X157150913Y-97249508D01*
X155712287Y-97249508D01*
X155635005Y-97068864D01*
X155423549Y-96973785D01*
X155197608Y-96921786D01*
X154965862Y-96914864D01*
X154737220Y-96953288D01*
X154520467Y-97035579D01*
X154458195Y-97068864D01*
X154380913Y-97249508D01*
X152942287Y-97249508D01*
X152865005Y-97068864D01*
X152653549Y-96973785D01*
X152427608Y-96921786D01*
X152195862Y-96914864D01*
X151967220Y-96953288D01*
X151750467Y-97035579D01*
X151688195Y-97068864D01*
X151610913Y-97249508D01*
X150172287Y-97249508D01*
X150095005Y-97068864D01*
X149883549Y-96973785D01*
X149657608Y-96921786D01*
X149425862Y-96914864D01*
X149197220Y-96953288D01*
X148980467Y-97035579D01*
X148918195Y-97068864D01*
X148840913Y-97249508D01*
X147402287Y-97249508D01*
X147325005Y-97068864D01*
X147113549Y-96973785D01*
X146887608Y-96921786D01*
X146655862Y-96914864D01*
X146427220Y-96953288D01*
X146210467Y-97035579D01*
X146148195Y-97068864D01*
X146070913Y-97249508D01*
X144632287Y-97249508D01*
X144555005Y-97068864D01*
X144343549Y-96973785D01*
X144117608Y-96921786D01*
X143885862Y-96914864D01*
X143657220Y-96953288D01*
X143440467Y-97035579D01*
X143378195Y-97068864D01*
X143300913Y-97249508D01*
X141862287Y-97249508D01*
X141785005Y-97068864D01*
X141573549Y-96973785D01*
X141347608Y-96921786D01*
X141115862Y-96914864D01*
X140887220Y-96953288D01*
X140670467Y-97035579D01*
X140608195Y-97068864D01*
X140530913Y-97249508D01*
X139092287Y-97249508D01*
X139015005Y-97068864D01*
X138803549Y-96973785D01*
X138577608Y-96921786D01*
X138345862Y-96914864D01*
X138117220Y-96953288D01*
X137900467Y-97035579D01*
X137838195Y-97068864D01*
X137760913Y-97249508D01*
X131908372Y-97249508D01*
X131706895Y-96994292D01*
X131214355Y-96734467D01*
X130680590Y-96575724D01*
X130126112Y-96524164D01*
X129572229Y-96581768D01*
X129040227Y-96746322D01*
X128576305Y-96994292D01*
X128300309Y-97343904D01*
X127452000Y-97343904D01*
X127452000Y-88082000D01*
X179888000Y-88082000D01*
X179888000Y-98547679D01*
G37*
X179888000Y-98547679D02*
X179800078Y-98263427D01*
X179552108Y-97799505D01*
X179202496Y-97523509D01*
X177361205Y-99364800D01*
X179202496Y-101206091D01*
X179552108Y-100930095D01*
X179811933Y-100437555D01*
X179888000Y-100181783D01*
X179888001Y-143233883D01*
X179865458Y-143463800D01*
X179805111Y-143663678D01*
X179707084Y-143848039D01*
X179575122Y-144009842D01*
X179414241Y-144142932D01*
X179230579Y-144242238D01*
X179031122Y-144303981D01*
X178802599Y-144328000D01*
X128546107Y-144328000D01*
X128316200Y-144305458D01*
X128116322Y-144245111D01*
X127931961Y-144147084D01*
X127770158Y-144015122D01*
X127637068Y-143854241D01*
X127537762Y-143670579D01*
X127476019Y-143471122D01*
X127452000Y-143242599D01*
X127452000Y-142629121D01*
X129805000Y-142629121D01*
X129805000Y-142866879D01*
X129851384Y-143100069D01*
X129942371Y-143319729D01*
X130074462Y-143517418D01*
X130242582Y-143685538D01*
X130440271Y-143817629D01*
X130659931Y-143908616D01*
X130893121Y-143955000D01*
X131130879Y-143955000D01*
X131364069Y-143908616D01*
X131583729Y-143817629D01*
X131781418Y-143685538D01*
X131949538Y-143517418D01*
X132081629Y-143319729D01*
X132172616Y-143100069D01*
X132219000Y-142866879D01*
X132219000Y-142629121D01*
X132345000Y-142629121D01*
X132345000Y-142866879D01*
X132391384Y-143100069D01*
X132482371Y-143319729D01*
X132614462Y-143517418D01*
X132782582Y-143685538D01*
X132980271Y-143817629D01*
X133199931Y-143908616D01*
X133433121Y-143955000D01*
X133670879Y-143955000D01*
X133904069Y-143908616D01*
X134123729Y-143817629D01*
X134321418Y-143685538D01*
X134489538Y-143517418D01*
X134621629Y-143319729D01*
X134712616Y-143100069D01*
X134759000Y-142866879D01*
X134759000Y-142629121D01*
X134885000Y-142629121D01*
X134885000Y-142866879D01*
X134931384Y-143100069D01*
X135022371Y-143319729D01*
X135154462Y-143517418D01*
X135322582Y-143685538D01*
X135520271Y-143817629D01*
X135739931Y-143908616D01*
X135973121Y-143955000D01*
X136210879Y-143955000D01*
X136444069Y-143908616D01*
X136663729Y-143817629D01*
X136861418Y-143685538D01*
X137029538Y-143517418D01*
X137161629Y-143319729D01*
X137252616Y-143100069D01*
X137299000Y-142866879D01*
X137299000Y-142629121D01*
X137252616Y-142395931D01*
X137161629Y-142176271D01*
X137029538Y-141978582D01*
X136861418Y-141810462D01*
X136663729Y-141678371D01*
X136444069Y-141587384D01*
X136210879Y-141541000D01*
X135973121Y-141541000D01*
X135739931Y-141587384D01*
X135520271Y-141678371D01*
X135322582Y-141810462D01*
X135154462Y-141978582D01*
X135022371Y-142176271D01*
X134931384Y-142395931D01*
X134885000Y-142629121D01*
X134759000Y-142629121D01*
X134712616Y-142395931D01*
X134621629Y-142176271D01*
X134489538Y-141978582D01*
X134321418Y-141810462D01*
X134123729Y-141678371D01*
X133904069Y-141587384D01*
X133670879Y-141541000D01*
X133433121Y-141541000D01*
X133199931Y-141587384D01*
X132980271Y-141678371D01*
X132782582Y-141810462D01*
X132614462Y-141978582D01*
X132482371Y-142176271D01*
X132391384Y-142395931D01*
X132345000Y-142629121D01*
X132219000Y-142629121D01*
X132172616Y-142395931D01*
X132081629Y-142176271D01*
X131949538Y-141978582D01*
X131781418Y-141810462D01*
X131583729Y-141678371D01*
X131364069Y-141587384D01*
X131130879Y-141541000D01*
X130893121Y-141541000D01*
X130659931Y-141587384D01*
X130440271Y-141678371D01*
X130242582Y-141810462D01*
X130074462Y-141978582D01*
X129942371Y-142176271D01*
X129851384Y-142395931D01*
X129805000Y-142629121D01*
X127452000Y-142629121D01*
X127452000Y-117229121D01*
X129805000Y-117229121D01*
X129805000Y-117466879D01*
X129851384Y-117700069D01*
X129942371Y-117919729D01*
X130074462Y-118117418D01*
X130242582Y-118285538D01*
X130440271Y-118417629D01*
X130659931Y-118508616D01*
X130893121Y-118555000D01*
X131130879Y-118555000D01*
X131364069Y-118508616D01*
X131583729Y-118417629D01*
X131781418Y-118285538D01*
X131949538Y-118117418D01*
X132081629Y-117919729D01*
X132172616Y-117700069D01*
X132219000Y-117466879D01*
X132219000Y-117229121D01*
X132345000Y-117229121D01*
X132345000Y-117466879D01*
X132391384Y-117700069D01*
X132482371Y-117919729D01*
X132614462Y-118117418D01*
X132782582Y-118285538D01*
X132980271Y-118417629D01*
X133199931Y-118508616D01*
X133433121Y-118555000D01*
X133670879Y-118555000D01*
X133904069Y-118508616D01*
X134123729Y-118417629D01*
X134321418Y-118285538D01*
X134489538Y-118117418D01*
X134621629Y-117919729D01*
X134712616Y-117700069D01*
X134759000Y-117466879D01*
X134759000Y-117229121D01*
X134885000Y-117229121D01*
X134885000Y-117466879D01*
X134931384Y-117700069D01*
X135022371Y-117919729D01*
X135154462Y-118117418D01*
X135322582Y-118285538D01*
X135520271Y-118417629D01*
X135739931Y-118508616D01*
X135973121Y-118555000D01*
X136210879Y-118555000D01*
X136444069Y-118508616D01*
X136663729Y-118417629D01*
X136861418Y-118285538D01*
X137029538Y-118117418D01*
X137161629Y-117919729D01*
X137252616Y-117700069D01*
X137299000Y-117466879D01*
X137299000Y-117229121D01*
X137425000Y-117229121D01*
X137425000Y-117466879D01*
X137471384Y-117700069D01*
X137562371Y-117919729D01*
X137694462Y-118117418D01*
X137862582Y-118285538D01*
X138060271Y-118417629D01*
X138279931Y-118508616D01*
X138513121Y-118555000D01*
X138750879Y-118555000D01*
X138984069Y-118508616D01*
X139203729Y-118417629D01*
X139351200Y-118319092D01*
X139351201Y-141248153D01*
X139003799Y-141595556D01*
X138984069Y-141587384D01*
X138750879Y-141541000D01*
X138513121Y-141541000D01*
X138279931Y-141587384D01*
X138060271Y-141678371D01*
X137862582Y-141810462D01*
X137694462Y-141978582D01*
X137562371Y-142176271D01*
X137471384Y-142395931D01*
X137425000Y-142629121D01*
X137425000Y-142866879D01*
X137471384Y-143100069D01*
X137562371Y-143319729D01*
X137694462Y-143517418D01*
X137862582Y-143685538D01*
X138060271Y-143817629D01*
X138279931Y-143908616D01*
X138513121Y-143955000D01*
X138750879Y-143955000D01*
X138984069Y-143908616D01*
X139203729Y-143817629D01*
X139401418Y-143685538D01*
X139569538Y-143517418D01*
X139701629Y-143319729D01*
X139792616Y-143100069D01*
X139839000Y-142866879D01*
X139839000Y-142629121D01*
X139965000Y-142629121D01*
X139965000Y-142866879D01*
X140011384Y-143100069D01*
X140102371Y-143319729D01*
X140234462Y-143517418D01*
X140402582Y-143685538D01*
X140600271Y-143817629D01*
X140819931Y-143908616D01*
X141053121Y-143955000D01*
X141290879Y-143955000D01*
X141524069Y-143908616D01*
X141743729Y-143817629D01*
X141941418Y-143685538D01*
X142109538Y-143517418D01*
X142241629Y-143319729D01*
X142332616Y-143100069D01*
X142379000Y-142866879D01*
X142379000Y-142629121D01*
X142505000Y-142629121D01*
X142505000Y-142866879D01*
X142551384Y-143100069D01*
X142642371Y-143319729D01*
X142774462Y-143517418D01*
X142942582Y-143685538D01*
X143140271Y-143817629D01*
X143359931Y-143908616D01*
X143593121Y-143955000D01*
X143830879Y-143955000D01*
X144064069Y-143908616D01*
X144283729Y-143817629D01*
X144481418Y-143685538D01*
X144649538Y-143517418D01*
X144781629Y-143319729D01*
X144872616Y-143100069D01*
X144919000Y-142866879D01*
X144919000Y-142629121D01*
X145045000Y-142629121D01*
X145045000Y-142866879D01*
X145091384Y-143100069D01*
X145182371Y-143319729D01*
X145314462Y-143517418D01*
X145482582Y-143685538D01*
X145680271Y-143817629D01*
X145899931Y-143908616D01*
X146133121Y-143955000D01*
X146370879Y-143955000D01*
X146604069Y-143908616D01*
X146823729Y-143817629D01*
X147021418Y-143685538D01*
X147189538Y-143517418D01*
X147321629Y-143319729D01*
X147412616Y-143100069D01*
X147459000Y-142866879D01*
X147459000Y-142629121D01*
X147412616Y-142395931D01*
X147404443Y-142376201D01*
X152974354Y-136806292D01*
X152995411Y-136789011D01*
X153064391Y-136704958D01*
X153115648Y-136609063D01*
X153147212Y-136505011D01*
X153155200Y-136423909D01*
X153155200Y-136423899D01*
X153157869Y-136396801D01*
X153155200Y-136369703D01*
X153155200Y-118320696D01*
X153300271Y-118417629D01*
X153519931Y-118508616D01*
X153753121Y-118555000D01*
X153990879Y-118555000D01*
X154224069Y-118508616D01*
X154443729Y-118417629D01*
X154565803Y-118336062D01*
X154565802Y-136193553D01*
X149163799Y-141595557D01*
X149144069Y-141587384D01*
X148910879Y-141541000D01*
X148673121Y-141541000D01*
X148439931Y-141587384D01*
X148220271Y-141678371D01*
X148022582Y-141810462D01*
X147854462Y-141978582D01*
X147722371Y-142176271D01*
X147631384Y-142395931D01*
X147585000Y-142629121D01*
X147585000Y-142866879D01*
X147631384Y-143100069D01*
X147722371Y-143319729D01*
X147854462Y-143517418D01*
X148022582Y-143685538D01*
X148220271Y-143817629D01*
X148439931Y-143908616D01*
X148673121Y-143955000D01*
X148910879Y-143955000D01*
X149144069Y-143908616D01*
X149363729Y-143817629D01*
X149561418Y-143685538D01*
X149729538Y-143517418D01*
X149861629Y-143319729D01*
X149952616Y-143100069D01*
X149999000Y-142866879D01*
X149999000Y-142629121D01*
X149952616Y-142395931D01*
X149944443Y-142376201D01*
X155488951Y-136831694D01*
X155510013Y-136814409D01*
X155578993Y-136730356D01*
X155630250Y-136634461D01*
X155661814Y-136530409D01*
X155669802Y-136449307D01*
X155669802Y-136449304D01*
X155672472Y-136422198D01*
X155669802Y-136395092D01*
X155669802Y-118303726D01*
X155840271Y-118417629D01*
X156059931Y-118508616D01*
X156293121Y-118555000D01*
X156530879Y-118555000D01*
X156764069Y-118508616D01*
X156983729Y-118417629D01*
X157131200Y-118319092D01*
X157131201Y-136168153D01*
X151703799Y-141595557D01*
X151684069Y-141587384D01*
X151450879Y-141541000D01*
X151213121Y-141541000D01*
X150979931Y-141587384D01*
X150760271Y-141678371D01*
X150562582Y-141810462D01*
X150394462Y-141978582D01*
X150262371Y-142176271D01*
X150171384Y-142395931D01*
X150125000Y-142629121D01*
X150125000Y-142866879D01*
X150171384Y-143100069D01*
X150262371Y-143319729D01*
X150394462Y-143517418D01*
X150562582Y-143685538D01*
X150760271Y-143817629D01*
X150979931Y-143908616D01*
X151213121Y-143955000D01*
X151450879Y-143955000D01*
X151684069Y-143908616D01*
X151903729Y-143817629D01*
X152101418Y-143685538D01*
X152269538Y-143517418D01*
X152401629Y-143319729D01*
X152492616Y-143100069D01*
X152539000Y-142866879D01*
X152539000Y-142629121D01*
X152492616Y-142395931D01*
X152484443Y-142376201D01*
X158054354Y-136806292D01*
X158075411Y-136789011D01*
X158144391Y-136704958D01*
X158195648Y-136609063D01*
X158227212Y-136505011D01*
X158235200Y-136423909D01*
X158235200Y-136423899D01*
X158237869Y-136396801D01*
X158235200Y-136369703D01*
X158235200Y-118320696D01*
X158380271Y-118417629D01*
X158599931Y-118508616D01*
X158833121Y-118555000D01*
X159070879Y-118555000D01*
X159304069Y-118508616D01*
X159523729Y-118417629D01*
X159645801Y-118336064D01*
X159645800Y-136193554D01*
X154243799Y-141595557D01*
X154224069Y-141587384D01*
X153990879Y-141541000D01*
X153753121Y-141541000D01*
X153519931Y-141587384D01*
X153300271Y-141678371D01*
X153102582Y-141810462D01*
X152934462Y-141978582D01*
X152802371Y-142176271D01*
X152711384Y-142395931D01*
X152665000Y-142629121D01*
X152665000Y-142866879D01*
X152711384Y-143100069D01*
X152802371Y-143319729D01*
X152934462Y-143517418D01*
X153102582Y-143685538D01*
X153300271Y-143817629D01*
X153519931Y-143908616D01*
X153753121Y-143955000D01*
X153990879Y-143955000D01*
X154224069Y-143908616D01*
X154443729Y-143817629D01*
X154641418Y-143685538D01*
X154809538Y-143517418D01*
X154941629Y-143319729D01*
X155032616Y-143100069D01*
X155079000Y-142866879D01*
X155079000Y-142629121D01*
X155032616Y-142395931D01*
X155024443Y-142376201D01*
X160568954Y-136831692D01*
X160590011Y-136814411D01*
X160658991Y-136730358D01*
X160710248Y-136634463D01*
X160741812Y-136530411D01*
X160749800Y-136449309D01*
X160749800Y-136449306D01*
X160752470Y-136422201D01*
X160749800Y-136395095D01*
X160749800Y-118303724D01*
X160920271Y-118417629D01*
X161139931Y-118508616D01*
X161373121Y-118555000D01*
X161610879Y-118555000D01*
X161844069Y-118508616D01*
X162063729Y-118417629D01*
X162211201Y-118319092D01*
X162211200Y-136168154D01*
X156783799Y-141595557D01*
X156764069Y-141587384D01*
X156530879Y-141541000D01*
X156293121Y-141541000D01*
X156059931Y-141587384D01*
X155840271Y-141678371D01*
X155642582Y-141810462D01*
X155474462Y-141978582D01*
X155342371Y-142176271D01*
X155251384Y-142395931D01*
X155205000Y-142629121D01*
X155205000Y-142866879D01*
X155251384Y-143100069D01*
X155342371Y-143319729D01*
X155474462Y-143517418D01*
X155642582Y-143685538D01*
X155840271Y-143817629D01*
X156059931Y-143908616D01*
X156293121Y-143955000D01*
X156530879Y-143955000D01*
X156764069Y-143908616D01*
X156983729Y-143817629D01*
X157181418Y-143685538D01*
X157349538Y-143517418D01*
X157481629Y-143319729D01*
X157572616Y-143100069D01*
X157619000Y-142866879D01*
X157619000Y-142629121D01*
X157572616Y-142395931D01*
X157564443Y-142376201D01*
X163134354Y-136806292D01*
X163155411Y-136789011D01*
X163224391Y-136704958D01*
X163275648Y-136609063D01*
X163307212Y-136505011D01*
X163315200Y-136423909D01*
X163315200Y-136423899D01*
X163317869Y-136396801D01*
X163315200Y-136369703D01*
X163315200Y-118320696D01*
X163460271Y-118417629D01*
X163679931Y-118508616D01*
X163913121Y-118555000D01*
X164150879Y-118555000D01*
X164384069Y-118508616D01*
X164603729Y-118417629D01*
X164751200Y-118319092D01*
X164751201Y-136168153D01*
X159323799Y-141595557D01*
X159304069Y-141587384D01*
X159070879Y-141541000D01*
X158833121Y-141541000D01*
X158599931Y-141587384D01*
X158380271Y-141678371D01*
X158182582Y-141810462D01*
X158014462Y-141978582D01*
X157882371Y-142176271D01*
X157791384Y-142395931D01*
X157745000Y-142629121D01*
X157745000Y-142866879D01*
X157791384Y-143100069D01*
X157882371Y-143319729D01*
X158014462Y-143517418D01*
X158182582Y-143685538D01*
X158380271Y-143817629D01*
X158599931Y-143908616D01*
X158833121Y-143955000D01*
X159070879Y-143955000D01*
X159304069Y-143908616D01*
X159523729Y-143817629D01*
X159721418Y-143685538D01*
X159792202Y-143614754D01*
X160804851Y-143614754D01*
X160885775Y-143798462D01*
X161102359Y-143896546D01*
X161333916Y-143950492D01*
X161571548Y-143958227D01*
X161806124Y-143919454D01*
X162028627Y-143835662D01*
X162098225Y-143798462D01*
X162179149Y-143614754D01*
X161492000Y-142927605D01*
X160804851Y-143614754D01*
X159792202Y-143614754D01*
X159889538Y-143517418D01*
X160021629Y-143319729D01*
X160112616Y-143100069D01*
X160159000Y-142866879D01*
X160159000Y-142827548D01*
X160281773Y-142827548D01*
X160320546Y-143062124D01*
X160404338Y-143284627D01*
X160441538Y-143354225D01*
X160625246Y-143435149D01*
X161312395Y-142748000D01*
X161671605Y-142748000D01*
X162358754Y-143435149D01*
X162542462Y-143354225D01*
X162640546Y-143137641D01*
X162694492Y-142906084D01*
X162702227Y-142668452D01*
X162695726Y-142629121D01*
X162825000Y-142629121D01*
X162825000Y-142866879D01*
X162871384Y-143100069D01*
X162962371Y-143319729D01*
X163094462Y-143517418D01*
X163262582Y-143685538D01*
X163460271Y-143817629D01*
X163679931Y-143908616D01*
X163913121Y-143955000D01*
X164150879Y-143955000D01*
X164384069Y-143908616D01*
X164603729Y-143817629D01*
X164801418Y-143685538D01*
X164969538Y-143517418D01*
X165101629Y-143319729D01*
X165192616Y-143100069D01*
X165239000Y-142866879D01*
X165239000Y-142629121D01*
X165365000Y-142629121D01*
X165365000Y-142866879D01*
X165411384Y-143100069D01*
X165502371Y-143319729D01*
X165634462Y-143517418D01*
X165802582Y-143685538D01*
X166000271Y-143817629D01*
X166219931Y-143908616D01*
X166453121Y-143955000D01*
X166690879Y-143955000D01*
X166924069Y-143908616D01*
X167143729Y-143817629D01*
X167341418Y-143685538D01*
X167509538Y-143517418D01*
X167641629Y-143319729D01*
X167732616Y-143100069D01*
X167779000Y-142866879D01*
X167779000Y-142629121D01*
X167905000Y-142629121D01*
X167905000Y-142866879D01*
X167951384Y-143100069D01*
X168042371Y-143319729D01*
X168174462Y-143517418D01*
X168342582Y-143685538D01*
X168540271Y-143817629D01*
X168759931Y-143908616D01*
X168993121Y-143955000D01*
X169230879Y-143955000D01*
X169464069Y-143908616D01*
X169683729Y-143817629D01*
X169881418Y-143685538D01*
X170049538Y-143517418D01*
X170181629Y-143319729D01*
X170272616Y-143100069D01*
X170319000Y-142866879D01*
X170319000Y-142629121D01*
X170445000Y-142629121D01*
X170445000Y-142866879D01*
X170491384Y-143100069D01*
X170582371Y-143319729D01*
X170714462Y-143517418D01*
X170882582Y-143685538D01*
X171080271Y-143817629D01*
X171299931Y-143908616D01*
X171533121Y-143955000D01*
X171770879Y-143955000D01*
X172004069Y-143908616D01*
X172223729Y-143817629D01*
X172421418Y-143685538D01*
X172589538Y-143517418D01*
X172721629Y-143319729D01*
X172812616Y-143100069D01*
X172859000Y-142866879D01*
X172859000Y-142629121D01*
X172985000Y-142629121D01*
X172985000Y-142866879D01*
X173031384Y-143100069D01*
X173122371Y-143319729D01*
X173254462Y-143517418D01*
X173422582Y-143685538D01*
X173620271Y-143817629D01*
X173839931Y-143908616D01*
X174073121Y-143955000D01*
X174310879Y-143955000D01*
X174544069Y-143908616D01*
X174763729Y-143817629D01*
X174961418Y-143685538D01*
X175032202Y-143614754D01*
X176044851Y-143614754D01*
X176125775Y-143798462D01*
X176342359Y-143896546D01*
X176573916Y-143950492D01*
X176811548Y-143958227D01*
X177046124Y-143919454D01*
X177268627Y-143835662D01*
X177338225Y-143798462D01*
X177419149Y-143614754D01*
X176732000Y-142927605D01*
X176044851Y-143614754D01*
X175032202Y-143614754D01*
X175129538Y-143517418D01*
X175261629Y-143319729D01*
X175352616Y-143100069D01*
X175399000Y-142866879D01*
X175399000Y-142827548D01*
X175521773Y-142827548D01*
X175560546Y-143062124D01*
X175644338Y-143284627D01*
X175681538Y-143354225D01*
X175865246Y-143435149D01*
X176552395Y-142748000D01*
X176911605Y-142748000D01*
X177598754Y-143435149D01*
X177782462Y-143354225D01*
X177880546Y-143137641D01*
X177934492Y-142906084D01*
X177942227Y-142668452D01*
X177903454Y-142433876D01*
X177819662Y-142211373D01*
X177782462Y-142141775D01*
X177598754Y-142060851D01*
X176911605Y-142748000D01*
X176552395Y-142748000D01*
X175865246Y-142060851D01*
X175681538Y-142141775D01*
X175583454Y-142358359D01*
X175529508Y-142589916D01*
X175521773Y-142827548D01*
X175399000Y-142827548D01*
X175399000Y-142629121D01*
X175352616Y-142395931D01*
X175261629Y-142176271D01*
X175129538Y-141978582D01*
X175032202Y-141881246D01*
X176044851Y-141881246D01*
X176732000Y-142568395D01*
X177419149Y-141881246D01*
X177338225Y-141697538D01*
X177121641Y-141599454D01*
X176890084Y-141545508D01*
X176652452Y-141537773D01*
X176417876Y-141576546D01*
X176195373Y-141660338D01*
X176125775Y-141697538D01*
X176044851Y-141881246D01*
X175032202Y-141881246D01*
X174961418Y-141810462D01*
X174763729Y-141678371D01*
X174544069Y-141587384D01*
X174310879Y-141541000D01*
X174073121Y-141541000D01*
X173839931Y-141587384D01*
X173620271Y-141678371D01*
X173422582Y-141810462D01*
X173254462Y-141978582D01*
X173122371Y-142176271D01*
X173031384Y-142395931D01*
X172985000Y-142629121D01*
X172859000Y-142629121D01*
X172812616Y-142395931D01*
X172721629Y-142176271D01*
X172589538Y-141978582D01*
X172421418Y-141810462D01*
X172223729Y-141678371D01*
X172004069Y-141587384D01*
X171770879Y-141541000D01*
X171533121Y-141541000D01*
X171299931Y-141587384D01*
X171080271Y-141678371D01*
X170882582Y-141810462D01*
X170714462Y-141978582D01*
X170582371Y-142176271D01*
X170491384Y-142395931D01*
X170445000Y-142629121D01*
X170319000Y-142629121D01*
X170272616Y-142395931D01*
X170181629Y-142176271D01*
X170049538Y-141978582D01*
X169881418Y-141810462D01*
X169683729Y-141678371D01*
X169464069Y-141587384D01*
X169230879Y-141541000D01*
X168993121Y-141541000D01*
X168759931Y-141587384D01*
X168540271Y-141678371D01*
X168342582Y-141810462D01*
X168174462Y-141978582D01*
X168042371Y-142176271D01*
X167951384Y-142395931D01*
X167905000Y-142629121D01*
X167779000Y-142629121D01*
X167732616Y-142395931D01*
X167641629Y-142176271D01*
X167509538Y-141978582D01*
X167341418Y-141810462D01*
X167143729Y-141678371D01*
X166924069Y-141587384D01*
X166690879Y-141541000D01*
X166453121Y-141541000D01*
X166219931Y-141587384D01*
X166000271Y-141678371D01*
X165802582Y-141810462D01*
X165634462Y-141978582D01*
X165502371Y-142176271D01*
X165411384Y-142395931D01*
X165365000Y-142629121D01*
X165239000Y-142629121D01*
X165192616Y-142395931D01*
X165101629Y-142176271D01*
X164969538Y-141978582D01*
X164801418Y-141810462D01*
X164603729Y-141678371D01*
X164384069Y-141587384D01*
X164150879Y-141541000D01*
X163913121Y-141541000D01*
X163679931Y-141587384D01*
X163460271Y-141678371D01*
X163262582Y-141810462D01*
X163094462Y-141978582D01*
X162962371Y-142176271D01*
X162871384Y-142395931D01*
X162825000Y-142629121D01*
X162695726Y-142629121D01*
X162663454Y-142433876D01*
X162579662Y-142211373D01*
X162542462Y-142141775D01*
X162358754Y-142060851D01*
X161671605Y-142748000D01*
X161312395Y-142748000D01*
X160625246Y-142060851D01*
X160441538Y-142141775D01*
X160343454Y-142358359D01*
X160289508Y-142589916D01*
X160281773Y-142827548D01*
X160159000Y-142827548D01*
X160159000Y-142629121D01*
X160112616Y-142395931D01*
X160104443Y-142376201D01*
X160599398Y-141881246D01*
X160804851Y-141881246D01*
X161492000Y-142568395D01*
X162179149Y-141881246D01*
X162098225Y-141697538D01*
X161881641Y-141599454D01*
X161650084Y-141545508D01*
X161412452Y-141537773D01*
X161177876Y-141576546D01*
X160955373Y-141660338D01*
X160885775Y-141697538D01*
X160804851Y-141881246D01*
X160599398Y-141881246D01*
X165674354Y-136806292D01*
X165695411Y-136789011D01*
X165764391Y-136704958D01*
X165815648Y-136609063D01*
X165847212Y-136505011D01*
X165855200Y-136423909D01*
X165855200Y-136423899D01*
X165857869Y-136396801D01*
X165855200Y-136369703D01*
X165855200Y-118320696D01*
X166000271Y-118417629D01*
X166219931Y-118508616D01*
X166453121Y-118555000D01*
X166690879Y-118555000D01*
X166924069Y-118508616D01*
X167143729Y-118417629D01*
X167341418Y-118285538D01*
X167509538Y-118117418D01*
X167641629Y-117919729D01*
X167732616Y-117700069D01*
X167779000Y-117466879D01*
X167779000Y-117229121D01*
X167905000Y-117229121D01*
X167905000Y-117466879D01*
X167951384Y-117700069D01*
X168042371Y-117919729D01*
X168174462Y-118117418D01*
X168342582Y-118285538D01*
X168540271Y-118417629D01*
X168759931Y-118508616D01*
X168993121Y-118555000D01*
X169230879Y-118555000D01*
X169464069Y-118508616D01*
X169683729Y-118417629D01*
X169881418Y-118285538D01*
X170049538Y-118117418D01*
X170181629Y-117919729D01*
X170272616Y-117700069D01*
X170319000Y-117466879D01*
X170319000Y-117229121D01*
X170445000Y-117229121D01*
X170445000Y-117466879D01*
X170491384Y-117700069D01*
X170582371Y-117919729D01*
X170714462Y-118117418D01*
X170882582Y-118285538D01*
X171080271Y-118417629D01*
X171299931Y-118508616D01*
X171533121Y-118555000D01*
X171770879Y-118555000D01*
X172004069Y-118508616D01*
X172223729Y-118417629D01*
X172421418Y-118285538D01*
X172589538Y-118117418D01*
X172721629Y-117919729D01*
X172812616Y-117700069D01*
X172859000Y-117466879D01*
X172859000Y-117229121D01*
X172985000Y-117229121D01*
X172985000Y-117466879D01*
X173031384Y-117700069D01*
X173122371Y-117919729D01*
X173254462Y-118117418D01*
X173422582Y-118285538D01*
X173620271Y-118417629D01*
X173839931Y-118508616D01*
X174073121Y-118555000D01*
X174310879Y-118555000D01*
X174544069Y-118508616D01*
X174763729Y-118417629D01*
X174961418Y-118285538D01*
X175129538Y-118117418D01*
X175261629Y-117919729D01*
X175352616Y-117700069D01*
X175399000Y-117466879D01*
X175399000Y-117229121D01*
X175352616Y-116995931D01*
X175261629Y-116776271D01*
X175129538Y-116578582D01*
X175118956Y-116568000D01*
X175522934Y-116568000D01*
X175522934Y-118128000D01*
X175531178Y-118211707D01*
X175555595Y-118292196D01*
X175595245Y-118366376D01*
X175648605Y-118431395D01*
X175713624Y-118484755D01*
X175787804Y-118524405D01*
X175868293Y-118548822D01*
X175952000Y-118557066D01*
X177512000Y-118557066D01*
X177595707Y-118548822D01*
X177676196Y-118524405D01*
X177750376Y-118484755D01*
X177815395Y-118431395D01*
X177868755Y-118366376D01*
X177908405Y-118292196D01*
X177932822Y-118211707D01*
X177941066Y-118128000D01*
X177941066Y-116568000D01*
X177932822Y-116484293D01*
X177908405Y-116403804D01*
X177868755Y-116329624D01*
X177815395Y-116264605D01*
X177750376Y-116211245D01*
X177676196Y-116171595D01*
X177595707Y-116147178D01*
X177512000Y-116138934D01*
X175952000Y-116138934D01*
X175868293Y-116147178D01*
X175787804Y-116171595D01*
X175713624Y-116211245D01*
X175648605Y-116264605D01*
X175595245Y-116329624D01*
X175555595Y-116403804D01*
X175531178Y-116484293D01*
X175522934Y-116568000D01*
X175118956Y-116568000D01*
X174961418Y-116410462D01*
X174763729Y-116278371D01*
X174544069Y-116187384D01*
X174310879Y-116141000D01*
X174073121Y-116141000D01*
X173839931Y-116187384D01*
X173620271Y-116278371D01*
X173422582Y-116410462D01*
X173254462Y-116578582D01*
X173122371Y-116776271D01*
X173031384Y-116995931D01*
X172985000Y-117229121D01*
X172859000Y-117229121D01*
X172812616Y-116995931D01*
X172721629Y-116776271D01*
X172589538Y-116578582D01*
X172421418Y-116410462D01*
X172223729Y-116278371D01*
X172004069Y-116187384D01*
X171770879Y-116141000D01*
X171533121Y-116141000D01*
X171299931Y-116187384D01*
X171080271Y-116278371D01*
X170882582Y-116410462D01*
X170714462Y-116578582D01*
X170582371Y-116776271D01*
X170491384Y-116995931D01*
X170445000Y-117229121D01*
X170319000Y-117229121D01*
X170272616Y-116995931D01*
X170181629Y-116776271D01*
X170049538Y-116578582D01*
X169881418Y-116410462D01*
X169683729Y-116278371D01*
X169464069Y-116187384D01*
X169230879Y-116141000D01*
X168993121Y-116141000D01*
X168759931Y-116187384D01*
X168540271Y-116278371D01*
X168342582Y-116410462D01*
X168174462Y-116578582D01*
X168042371Y-116776271D01*
X167951384Y-116995931D01*
X167905000Y-117229121D01*
X167779000Y-117229121D01*
X167732616Y-116995931D01*
X167641629Y-116776271D01*
X167509538Y-116578582D01*
X167341418Y-116410462D01*
X167143729Y-116278371D01*
X166924069Y-116187384D01*
X166690879Y-116141000D01*
X166453121Y-116141000D01*
X166219931Y-116187384D01*
X166000271Y-116278371D01*
X165855200Y-116375304D01*
X165855200Y-115227294D01*
X165857870Y-115200188D01*
X165854937Y-115170409D01*
X165847212Y-115091977D01*
X165815648Y-114987925D01*
X165764391Y-114892030D01*
X165695411Y-114807977D01*
X165674349Y-114790692D01*
X160284499Y-109400843D01*
X160267209Y-109379775D01*
X160183156Y-109310795D01*
X160087261Y-109259538D01*
X159983209Y-109227974D01*
X159902107Y-109219986D01*
X159902104Y-109219986D01*
X159874998Y-109217316D01*
X159847892Y-109219986D01*
X159447055Y-109219986D01*
X159375293Y-109172036D01*
X159252087Y-109121002D01*
X159121292Y-109094986D01*
X158987934Y-109094986D01*
X158857139Y-109121002D01*
X158733933Y-109172036D01*
X158623050Y-109246126D01*
X158528753Y-109340423D01*
X158454663Y-109451306D01*
X158403629Y-109574512D01*
X158377613Y-109705307D01*
X158377613Y-109794986D01*
X157650120Y-109794986D01*
X157623014Y-109792316D01*
X157595908Y-109794986D01*
X157595905Y-109794986D01*
X157514803Y-109802974D01*
X157410751Y-109834538D01*
X157314856Y-109885795D01*
X157230803Y-109954775D01*
X157213518Y-109975837D01*
X156808377Y-110380978D01*
X156723726Y-110397816D01*
X156600520Y-110448850D01*
X156489637Y-110522940D01*
X156395340Y-110617237D01*
X156321250Y-110728120D01*
X156270216Y-110851326D01*
X156244200Y-110982121D01*
X156244200Y-111115479D01*
X156270216Y-111246274D01*
X156321250Y-111369480D01*
X156395340Y-111480363D01*
X156489637Y-111574660D01*
X156600520Y-111648750D01*
X156723726Y-111699784D01*
X156854521Y-111725800D01*
X156987879Y-111725800D01*
X157118674Y-111699784D01*
X157241880Y-111648750D01*
X157352763Y-111574660D01*
X157447060Y-111480363D01*
X157521150Y-111369480D01*
X157572184Y-111246274D01*
X157589022Y-111161623D01*
X157851659Y-110898986D01*
X158860587Y-110898986D01*
X158860587Y-110988666D01*
X158886603Y-111119461D01*
X158937637Y-111242667D01*
X159011727Y-111353550D01*
X159106024Y-111447847D01*
X159216907Y-111521937D01*
X159340113Y-111572971D01*
X159424764Y-111589809D01*
X159645801Y-111810846D01*
X159645801Y-116359936D01*
X159523729Y-116278371D01*
X159304069Y-116187384D01*
X159070879Y-116141000D01*
X158833121Y-116141000D01*
X158599931Y-116187384D01*
X158380271Y-116278371D01*
X158235200Y-116375304D01*
X158235200Y-115851097D01*
X158237869Y-115823999D01*
X158235200Y-115796901D01*
X158235200Y-115796891D01*
X158227212Y-115715789D01*
X158195648Y-115611737D01*
X158168251Y-115560480D01*
X158144391Y-115515841D01*
X158092691Y-115452845D01*
X158075411Y-115431789D01*
X158054354Y-115414508D01*
X157081022Y-114441177D01*
X157064184Y-114356526D01*
X157013150Y-114233320D01*
X156939060Y-114122437D01*
X156844763Y-114028140D01*
X156733880Y-113954050D01*
X156610674Y-113903016D01*
X156479879Y-113877000D01*
X156346521Y-113877000D01*
X156215726Y-113903016D01*
X156092520Y-113954050D01*
X155981637Y-114028140D01*
X155887340Y-114122437D01*
X155813250Y-114233320D01*
X155765513Y-114348567D01*
X155717752Y-114233264D01*
X155643662Y-114122381D01*
X155549365Y-114028084D01*
X155438482Y-113953994D01*
X155315276Y-113902960D01*
X155184481Y-113876944D01*
X155051123Y-113876944D01*
X154920328Y-113902960D01*
X154797122Y-113953994D01*
X154686239Y-114028084D01*
X154591942Y-114122381D01*
X154517852Y-114233264D01*
X154466818Y-114356470D01*
X154449817Y-114441942D01*
X154447984Y-114432726D01*
X154396950Y-114309520D01*
X154322860Y-114198637D01*
X154228563Y-114104340D01*
X154117680Y-114030250D01*
X153994474Y-113979216D01*
X153863679Y-113953200D01*
X153730321Y-113953200D01*
X153599526Y-113979216D01*
X153476320Y-114030250D01*
X153404558Y-114078200D01*
X152096908Y-114078200D01*
X152069800Y-114075530D01*
X152042691Y-114078200D01*
X151961589Y-114086188D01*
X151857537Y-114117752D01*
X151761642Y-114169009D01*
X151677589Y-114237989D01*
X151660308Y-114259046D01*
X149529932Y-116389424D01*
X149363729Y-116278371D01*
X149144069Y-116187384D01*
X148910879Y-116141000D01*
X148673121Y-116141000D01*
X148439931Y-116187384D01*
X148220271Y-116278371D01*
X148022582Y-116410462D01*
X147854462Y-116578582D01*
X147722371Y-116776271D01*
X147631384Y-116995931D01*
X147585000Y-117229121D01*
X147585000Y-117466879D01*
X147631384Y-117700069D01*
X147722371Y-117919729D01*
X147854462Y-118117418D01*
X148022582Y-118285538D01*
X148220271Y-118417629D01*
X148439931Y-118508616D01*
X148673121Y-118555000D01*
X148910879Y-118555000D01*
X149144069Y-118508616D01*
X149363729Y-118417629D01*
X149561418Y-118285538D01*
X149729538Y-118117418D01*
X149861629Y-117919729D01*
X149952616Y-117700069D01*
X149995334Y-117485310D01*
X150125000Y-117355644D01*
X150125000Y-117466879D01*
X150171384Y-117700069D01*
X150262371Y-117919729D01*
X150394462Y-118117418D01*
X150562582Y-118285538D01*
X150760271Y-118417629D01*
X150979931Y-118508616D01*
X151213121Y-118555000D01*
X151450879Y-118555000D01*
X151684069Y-118508616D01*
X151903729Y-118417629D01*
X152051200Y-118319092D01*
X152051201Y-136168153D01*
X146623799Y-141595557D01*
X146604069Y-141587384D01*
X146370879Y-141541000D01*
X146133121Y-141541000D01*
X145899931Y-141587384D01*
X145680271Y-141678371D01*
X145482582Y-141810462D01*
X145314462Y-141978582D01*
X145182371Y-142176271D01*
X145091384Y-142395931D01*
X145045000Y-142629121D01*
X144919000Y-142629121D01*
X144872616Y-142395931D01*
X144781629Y-142176271D01*
X144649538Y-141978582D01*
X144481418Y-141810462D01*
X144283729Y-141678371D01*
X144064069Y-141587384D01*
X143830879Y-141541000D01*
X143593121Y-141541000D01*
X143359931Y-141587384D01*
X143140271Y-141678371D01*
X142942582Y-141810462D01*
X142774462Y-141978582D01*
X142642371Y-142176271D01*
X142551384Y-142395931D01*
X142505000Y-142629121D01*
X142379000Y-142629121D01*
X142332616Y-142395931D01*
X142241629Y-142176271D01*
X142109538Y-141978582D01*
X141941418Y-141810462D01*
X141743729Y-141678371D01*
X141524069Y-141587384D01*
X141290879Y-141541000D01*
X141053121Y-141541000D01*
X140819931Y-141587384D01*
X140600271Y-141678371D01*
X140402582Y-141810462D01*
X140234462Y-141978582D01*
X140102371Y-142176271D01*
X140011384Y-142395931D01*
X139965000Y-142629121D01*
X139839000Y-142629121D01*
X139792616Y-142395931D01*
X139784444Y-142376201D01*
X140274354Y-141886292D01*
X140295411Y-141869011D01*
X140343461Y-141810462D01*
X140364391Y-141784959D01*
X140415647Y-141689064D01*
X140415648Y-141689063D01*
X140447212Y-141585011D01*
X140455200Y-141503909D01*
X140455200Y-141503899D01*
X140457869Y-141476801D01*
X140455200Y-141449703D01*
X140455200Y-118320696D01*
X140600271Y-118417629D01*
X140819931Y-118508616D01*
X141053121Y-118555000D01*
X141290879Y-118555000D01*
X141524069Y-118508616D01*
X141743729Y-118417629D01*
X141941418Y-118285538D01*
X142012202Y-118214754D01*
X143024851Y-118214754D01*
X143105775Y-118398462D01*
X143322359Y-118496546D01*
X143553916Y-118550492D01*
X143791548Y-118558227D01*
X144026124Y-118519454D01*
X144248627Y-118435662D01*
X144318225Y-118398462D01*
X144399149Y-118214754D01*
X143712000Y-117527605D01*
X143024851Y-118214754D01*
X142012202Y-118214754D01*
X142109538Y-118117418D01*
X142241629Y-117919729D01*
X142332616Y-117700069D01*
X142379000Y-117466879D01*
X142379000Y-117427548D01*
X142501773Y-117427548D01*
X142540546Y-117662124D01*
X142624338Y-117884627D01*
X142661538Y-117954225D01*
X142845246Y-118035149D01*
X143532395Y-117348000D01*
X143891605Y-117348000D01*
X144578754Y-118035149D01*
X144762462Y-117954225D01*
X144860546Y-117737641D01*
X144914492Y-117506084D01*
X144922227Y-117268452D01*
X144915726Y-117229121D01*
X145045000Y-117229121D01*
X145045000Y-117466879D01*
X145091384Y-117700069D01*
X145182371Y-117919729D01*
X145314462Y-118117418D01*
X145482582Y-118285538D01*
X145680271Y-118417629D01*
X145899931Y-118508616D01*
X146133121Y-118555000D01*
X146370879Y-118555000D01*
X146604069Y-118508616D01*
X146823729Y-118417629D01*
X147021418Y-118285538D01*
X147189538Y-118117418D01*
X147321629Y-117919729D01*
X147412616Y-117700069D01*
X147459000Y-117466879D01*
X147459000Y-117229121D01*
X147412616Y-116995931D01*
X147321629Y-116776271D01*
X147189538Y-116578582D01*
X147021418Y-116410462D01*
X146823729Y-116278371D01*
X146604069Y-116187384D01*
X146370879Y-116141000D01*
X146133121Y-116141000D01*
X145899931Y-116187384D01*
X145680271Y-116278371D01*
X145482582Y-116410462D01*
X145314462Y-116578582D01*
X145182371Y-116776271D01*
X145091384Y-116995931D01*
X145045000Y-117229121D01*
X144915726Y-117229121D01*
X144883454Y-117033876D01*
X144799662Y-116811373D01*
X144762462Y-116741775D01*
X144578754Y-116660851D01*
X143891605Y-117348000D01*
X143532395Y-117348000D01*
X142845246Y-116660851D01*
X142661538Y-116741775D01*
X142563454Y-116958359D01*
X142509508Y-117189916D01*
X142501773Y-117427548D01*
X142379000Y-117427548D01*
X142379000Y-117229121D01*
X142332616Y-116995931D01*
X142241629Y-116776271D01*
X142109538Y-116578582D01*
X142012202Y-116481246D01*
X143024851Y-116481246D01*
X143712000Y-117168395D01*
X144399149Y-116481246D01*
X144318225Y-116297538D01*
X144101641Y-116199454D01*
X143870084Y-116145508D01*
X143632452Y-116137773D01*
X143397876Y-116176546D01*
X143175373Y-116260338D01*
X143105775Y-116297538D01*
X143024851Y-116481246D01*
X142012202Y-116481246D01*
X141941418Y-116410462D01*
X141743729Y-116278371D01*
X141524069Y-116187384D01*
X141325215Y-116147830D01*
X145262645Y-112210400D01*
X154064958Y-112210400D01*
X154136720Y-112258350D01*
X154259926Y-112309384D01*
X154390721Y-112335400D01*
X154524079Y-112335400D01*
X154654874Y-112309384D01*
X154778080Y-112258350D01*
X154888963Y-112184260D01*
X154983260Y-112089963D01*
X155057350Y-111979080D01*
X155108384Y-111855874D01*
X155134400Y-111725079D01*
X155134400Y-111591721D01*
X155108384Y-111460926D01*
X155057350Y-111337720D01*
X154983260Y-111226837D01*
X154888963Y-111132540D01*
X154778080Y-111058450D01*
X154654874Y-111007416D01*
X154524079Y-110981400D01*
X154390721Y-110981400D01*
X154259926Y-111007416D01*
X154136720Y-111058450D01*
X154064958Y-111106400D01*
X145061106Y-111106400D01*
X145034000Y-111103730D01*
X145006894Y-111106400D01*
X145006891Y-111106400D01*
X144925789Y-111114388D01*
X144821737Y-111145952D01*
X144725842Y-111197209D01*
X144641789Y-111266189D01*
X144624504Y-111287251D01*
X139532057Y-116379699D01*
X139510989Y-116396989D01*
X139455527Y-116464571D01*
X139401418Y-116410462D01*
X139203729Y-116278371D01*
X138984069Y-116187384D01*
X138750879Y-116141000D01*
X138513121Y-116141000D01*
X138279931Y-116187384D01*
X138060271Y-116278371D01*
X137862582Y-116410462D01*
X137694462Y-116578582D01*
X137562371Y-116776271D01*
X137471384Y-116995931D01*
X137425000Y-117229121D01*
X137299000Y-117229121D01*
X137252616Y-116995931D01*
X137161629Y-116776271D01*
X137029538Y-116578582D01*
X136861418Y-116410462D01*
X136663729Y-116278371D01*
X136444069Y-116187384D01*
X136210879Y-116141000D01*
X135973121Y-116141000D01*
X135739931Y-116187384D01*
X135520271Y-116278371D01*
X135322582Y-116410462D01*
X135154462Y-116578582D01*
X135022371Y-116776271D01*
X134931384Y-116995931D01*
X134885000Y-117229121D01*
X134759000Y-117229121D01*
X134712616Y-116995931D01*
X134621629Y-116776271D01*
X134489538Y-116578582D01*
X134321418Y-116410462D01*
X134123729Y-116278371D01*
X133904069Y-116187384D01*
X133670879Y-116141000D01*
X133433121Y-116141000D01*
X133199931Y-116187384D01*
X132980271Y-116278371D01*
X132782582Y-116410462D01*
X132614462Y-116578582D01*
X132482371Y-116776271D01*
X132391384Y-116995931D01*
X132345000Y-117229121D01*
X132219000Y-117229121D01*
X132172616Y-116995931D01*
X132081629Y-116776271D01*
X131949538Y-116578582D01*
X131781418Y-116410462D01*
X131583729Y-116278371D01*
X131364069Y-116187384D01*
X131130879Y-116141000D01*
X130893121Y-116141000D01*
X130659931Y-116187384D01*
X130440271Y-116278371D01*
X130242582Y-116410462D01*
X130074462Y-116578582D01*
X129942371Y-116776271D01*
X129851384Y-116995931D01*
X129805000Y-117229121D01*
X127452000Y-117229121D01*
X127452000Y-106846000D01*
X129734134Y-106846000D01*
X129734134Y-108546000D01*
X129742378Y-108629707D01*
X129766795Y-108710196D01*
X129806445Y-108784376D01*
X129859805Y-108849395D01*
X129924824Y-108902755D01*
X129999004Y-108942405D01*
X130079493Y-108966822D01*
X130163200Y-108975066D01*
X130806656Y-108975066D01*
X130640713Y-109008074D01*
X130408314Y-109104337D01*
X130199160Y-109244089D01*
X130021289Y-109421960D01*
X129881537Y-109631114D01*
X129785274Y-109863513D01*
X129736200Y-110110226D01*
X129736200Y-110361774D01*
X129785274Y-110608487D01*
X129881537Y-110840886D01*
X130021289Y-111050040D01*
X130199160Y-111227911D01*
X130408314Y-111367663D01*
X130640713Y-111463926D01*
X130887426Y-111513000D01*
X131138974Y-111513000D01*
X131385687Y-111463926D01*
X131618086Y-111367663D01*
X131827240Y-111227911D01*
X132005111Y-111050040D01*
X132144863Y-110840886D01*
X132241126Y-110608487D01*
X132290200Y-110361774D01*
X132290200Y-110110226D01*
X132241126Y-109863513D01*
X132144863Y-109631114D01*
X132005111Y-109421960D01*
X131827240Y-109244089D01*
X131618086Y-109104337D01*
X131385687Y-109008074D01*
X131219744Y-108975066D01*
X131863200Y-108975066D01*
X131946907Y-108966822D01*
X132027396Y-108942405D01*
X132101576Y-108902755D01*
X132166595Y-108849395D01*
X132219955Y-108784376D01*
X132259605Y-108710196D01*
X132284022Y-108629707D01*
X132292266Y-108546000D01*
X132292266Y-106896800D01*
X175174734Y-106896800D01*
X175174734Y-108596800D01*
X175182978Y-108680507D01*
X175207395Y-108760996D01*
X175247045Y-108835176D01*
X175300405Y-108900195D01*
X175365424Y-108953555D01*
X175439604Y-108993205D01*
X175520093Y-109017622D01*
X175603800Y-109025866D01*
X176247256Y-109025866D01*
X176081313Y-109058874D01*
X175848914Y-109155137D01*
X175639760Y-109294889D01*
X175461889Y-109472760D01*
X175322137Y-109681914D01*
X175225874Y-109914313D01*
X175176800Y-110161026D01*
X175176800Y-110412574D01*
X175225874Y-110659287D01*
X175322137Y-110891686D01*
X175461889Y-111100840D01*
X175639760Y-111278711D01*
X175848914Y-111418463D01*
X176081313Y-111514726D01*
X176328026Y-111563800D01*
X176579574Y-111563800D01*
X176826287Y-111514726D01*
X177058686Y-111418463D01*
X177267840Y-111278711D01*
X177445711Y-111100840D01*
X177585463Y-110891686D01*
X177681726Y-110659287D01*
X177730800Y-110412574D01*
X177730800Y-110161026D01*
X177681726Y-109914313D01*
X177585463Y-109681914D01*
X177445711Y-109472760D01*
X177267840Y-109294889D01*
X177058686Y-109155137D01*
X176826287Y-109058874D01*
X176660344Y-109025866D01*
X177303800Y-109025866D01*
X177387507Y-109017622D01*
X177467996Y-108993205D01*
X177542176Y-108953555D01*
X177607195Y-108900195D01*
X177660555Y-108835176D01*
X177700205Y-108760996D01*
X177724622Y-108680507D01*
X177732866Y-108596800D01*
X177732866Y-106896800D01*
X177724622Y-106813093D01*
X177700205Y-106732604D01*
X177660555Y-106658424D01*
X177607195Y-106593405D01*
X177542176Y-106540045D01*
X177467996Y-106500395D01*
X177387507Y-106475978D01*
X177303800Y-106467734D01*
X175603800Y-106467734D01*
X175520093Y-106475978D01*
X175439604Y-106500395D01*
X175365424Y-106540045D01*
X175300405Y-106593405D01*
X175247045Y-106658424D01*
X175207395Y-106732604D01*
X175182978Y-106813093D01*
X175174734Y-106896800D01*
X132292266Y-106896800D01*
X132292266Y-106846000D01*
X132284022Y-106762293D01*
X132259605Y-106681804D01*
X132219955Y-106607624D01*
X132166595Y-106542605D01*
X132101576Y-106489245D01*
X132027396Y-106449595D01*
X131946907Y-106425178D01*
X131863200Y-106416934D01*
X130163200Y-106416934D01*
X130079493Y-106425178D01*
X129999004Y-106449595D01*
X129924824Y-106489245D01*
X129859805Y-106542605D01*
X129806445Y-106607624D01*
X129766795Y-106681804D01*
X129742378Y-106762293D01*
X129734134Y-106846000D01*
X127452000Y-106846000D01*
X127452000Y-103819321D01*
X157920600Y-103819321D01*
X157920600Y-103952679D01*
X157946616Y-104083474D01*
X157997650Y-104206680D01*
X158071740Y-104317563D01*
X158166037Y-104411860D01*
X158276920Y-104485950D01*
X158400126Y-104536984D01*
X158530921Y-104563000D01*
X158664279Y-104563000D01*
X158795074Y-104536984D01*
X158918280Y-104485950D01*
X159029163Y-104411860D01*
X159123460Y-104317563D01*
X159197550Y-104206680D01*
X159248584Y-104083474D01*
X159259115Y-104030529D01*
X160975349Y-102314296D01*
X160996411Y-102297011D01*
X161065391Y-102212958D01*
X161116648Y-102117063D01*
X161148212Y-102013011D01*
X161156200Y-101931909D01*
X161156200Y-101931906D01*
X161158870Y-101904800D01*
X161156200Y-101877694D01*
X161156200Y-101483930D01*
X161221306Y-101549036D01*
X161414081Y-101677844D01*
X161628282Y-101766569D01*
X161855676Y-101811800D01*
X162087524Y-101811800D01*
X162314918Y-101766569D01*
X162529119Y-101677844D01*
X162721894Y-101549036D01*
X162885836Y-101385094D01*
X163014644Y-101192319D01*
X163103369Y-100978118D01*
X163148600Y-100750724D01*
X163148600Y-100518876D01*
X163564600Y-100518876D01*
X163564600Y-100750724D01*
X163609831Y-100978118D01*
X163698556Y-101192319D01*
X163827364Y-101385094D01*
X163991306Y-101549036D01*
X164184081Y-101677844D01*
X164398282Y-101766569D01*
X164625676Y-101811800D01*
X164857524Y-101811800D01*
X165084918Y-101766569D01*
X165299119Y-101677844D01*
X165491894Y-101549036D01*
X165655836Y-101385094D01*
X165784644Y-101192319D01*
X165873369Y-100978118D01*
X165918600Y-100750724D01*
X165918600Y-100518876D01*
X166334600Y-100518876D01*
X166334600Y-100750724D01*
X166379831Y-100978118D01*
X166468556Y-101192319D01*
X166597364Y-101385094D01*
X166761306Y-101549036D01*
X166954081Y-101677844D01*
X167168282Y-101766569D01*
X167395676Y-101811800D01*
X167627524Y-101811800D01*
X167854918Y-101766569D01*
X168069119Y-101677844D01*
X168261894Y-101549036D01*
X168425836Y-101385094D01*
X168554644Y-101192319D01*
X168643369Y-100978118D01*
X168688600Y-100750724D01*
X168688600Y-100518876D01*
X168643369Y-100291482D01*
X168554644Y-100077281D01*
X168426033Y-99884800D01*
X169102534Y-99884800D01*
X169102534Y-101384800D01*
X169110778Y-101468507D01*
X169135195Y-101548996D01*
X169174845Y-101623176D01*
X169228205Y-101688195D01*
X169293224Y-101741555D01*
X169367404Y-101781205D01*
X169447893Y-101805622D01*
X169531600Y-101813866D01*
X171031600Y-101813866D01*
X171115307Y-101805622D01*
X171195796Y-101781205D01*
X171269976Y-101741555D01*
X171334995Y-101688195D01*
X171388355Y-101623176D01*
X171428005Y-101548996D01*
X171452422Y-101468507D01*
X171460577Y-101385696D01*
X175340309Y-101385696D01*
X175616305Y-101735308D01*
X176108845Y-101995133D01*
X176642610Y-102153876D01*
X177197088Y-102205436D01*
X177750971Y-102147832D01*
X178282973Y-101983278D01*
X178746895Y-101735308D01*
X179022891Y-101385696D01*
X177181600Y-99544405D01*
X175340309Y-101385696D01*
X171460577Y-101385696D01*
X171460666Y-101384800D01*
X171460666Y-99884800D01*
X171452422Y-99801093D01*
X171428005Y-99720604D01*
X171388355Y-99646424D01*
X171334995Y-99581405D01*
X171269976Y-99528045D01*
X171195796Y-99488395D01*
X171115307Y-99463978D01*
X171031600Y-99455734D01*
X169531600Y-99455734D01*
X169447893Y-99463978D01*
X169367404Y-99488395D01*
X169293224Y-99528045D01*
X169228205Y-99581405D01*
X169174845Y-99646424D01*
X169135195Y-99720604D01*
X169110778Y-99801093D01*
X169102534Y-99884800D01*
X168426033Y-99884800D01*
X168425836Y-99884506D01*
X168261894Y-99720564D01*
X168069119Y-99591756D01*
X167854918Y-99503031D01*
X167627524Y-99457800D01*
X167395676Y-99457800D01*
X167168282Y-99503031D01*
X166954081Y-99591756D01*
X166761306Y-99720564D01*
X166597364Y-99884506D01*
X166468556Y-100077281D01*
X166379831Y-100291482D01*
X166334600Y-100518876D01*
X165918600Y-100518876D01*
X165873369Y-100291482D01*
X165784644Y-100077281D01*
X165655836Y-99884506D01*
X165491894Y-99720564D01*
X165299119Y-99591756D01*
X165084918Y-99503031D01*
X164857524Y-99457800D01*
X164625676Y-99457800D01*
X164398282Y-99503031D01*
X164184081Y-99591756D01*
X163991306Y-99720564D01*
X163827364Y-99884506D01*
X163698556Y-100077281D01*
X163609831Y-100291482D01*
X163564600Y-100518876D01*
X163148600Y-100518876D01*
X163103369Y-100291482D01*
X163014644Y-100077281D01*
X162885836Y-99884506D01*
X162721894Y-99720564D01*
X162529119Y-99591756D01*
X162314918Y-99503031D01*
X162087524Y-99457800D01*
X161977645Y-99457800D01*
X162055156Y-99380288D01*
X174340964Y-99380288D01*
X174398568Y-99934171D01*
X174563122Y-100466173D01*
X174811092Y-100930095D01*
X175160704Y-101206091D01*
X177001995Y-99364800D01*
X175160704Y-97523509D01*
X174811092Y-97799505D01*
X174551267Y-98292045D01*
X174392524Y-98825810D01*
X174340964Y-99380288D01*
X162055156Y-99380288D01*
X162516357Y-98919087D01*
X162606306Y-99009036D01*
X162799081Y-99137844D01*
X163013282Y-99226569D01*
X163240676Y-99271800D01*
X163472524Y-99271800D01*
X163699918Y-99226569D01*
X163914119Y-99137844D01*
X164106894Y-99009036D01*
X164270836Y-98845094D01*
X164399644Y-98652319D01*
X164488369Y-98438118D01*
X164533600Y-98210724D01*
X164533600Y-97978876D01*
X164949600Y-97978876D01*
X164949600Y-98210724D01*
X164994831Y-98438118D01*
X165083556Y-98652319D01*
X165212364Y-98845094D01*
X165376306Y-99009036D01*
X165569081Y-99137844D01*
X165783282Y-99226569D01*
X166010676Y-99271800D01*
X166242524Y-99271800D01*
X166469918Y-99226569D01*
X166684119Y-99137844D01*
X166876894Y-99009036D01*
X167040836Y-98845094D01*
X167169644Y-98652319D01*
X167258369Y-98438118D01*
X167303600Y-98210724D01*
X167303600Y-97978876D01*
X167719600Y-97978876D01*
X167719600Y-98210724D01*
X167764831Y-98438118D01*
X167853556Y-98652319D01*
X167982364Y-98845094D01*
X168146306Y-99009036D01*
X168339081Y-99137844D01*
X168553282Y-99226569D01*
X168780676Y-99271800D01*
X169012524Y-99271800D01*
X169239918Y-99226569D01*
X169454119Y-99137844D01*
X169646894Y-99009036D01*
X169810836Y-98845094D01*
X169939644Y-98652319D01*
X170028369Y-98438118D01*
X170073600Y-98210724D01*
X170073600Y-97978876D01*
X170028369Y-97751482D01*
X169939644Y-97537281D01*
X169810836Y-97344506D01*
X169810234Y-97343904D01*
X175340309Y-97343904D01*
X177181600Y-99185195D01*
X179022891Y-97343904D01*
X178746895Y-96994292D01*
X178254355Y-96734467D01*
X177720590Y-96575724D01*
X177166112Y-96524164D01*
X176612229Y-96581768D01*
X176080227Y-96746322D01*
X175616305Y-96994292D01*
X175340309Y-97343904D01*
X169810234Y-97343904D01*
X169646894Y-97180564D01*
X169454119Y-97051756D01*
X169239918Y-96963031D01*
X169012524Y-96917800D01*
X168780676Y-96917800D01*
X168553282Y-96963031D01*
X168339081Y-97051756D01*
X168146306Y-97180564D01*
X167982364Y-97344506D01*
X167853556Y-97537281D01*
X167764831Y-97751482D01*
X167719600Y-97978876D01*
X167303600Y-97978876D01*
X167258369Y-97751482D01*
X167169644Y-97537281D01*
X167040836Y-97344506D01*
X166876894Y-97180564D01*
X166684119Y-97051756D01*
X166469918Y-96963031D01*
X166242524Y-96917800D01*
X166010676Y-96917800D01*
X165783282Y-96963031D01*
X165569081Y-97051756D01*
X165376306Y-97180564D01*
X165212364Y-97344506D01*
X165083556Y-97537281D01*
X164994831Y-97751482D01*
X164949600Y-97978876D01*
X164533600Y-97978876D01*
X164488369Y-97751482D01*
X164399644Y-97537281D01*
X164270836Y-97344506D01*
X164106894Y-97180564D01*
X163914119Y-97051756D01*
X163699918Y-96963031D01*
X163472524Y-96917800D01*
X163240676Y-96917800D01*
X163013282Y-96963031D01*
X162799081Y-97051756D01*
X162606306Y-97180564D01*
X162442364Y-97344506D01*
X162313556Y-97537281D01*
X162279859Y-97618634D01*
X162251842Y-97633609D01*
X162167789Y-97702589D01*
X162150504Y-97723651D01*
X161763656Y-98110500D01*
X161766536Y-98014062D01*
X161728112Y-97785420D01*
X161645821Y-97568667D01*
X161612536Y-97506395D01*
X161431892Y-97429113D01*
X160766205Y-98094800D01*
X160780348Y-98108943D01*
X160600743Y-98288548D01*
X160586600Y-98274405D01*
X159920913Y-98940092D01*
X159998195Y-99120736D01*
X160209651Y-99215815D01*
X160435592Y-99267814D01*
X160601390Y-99272766D01*
X160233057Y-99641099D01*
X160211989Y-99658389D01*
X160143009Y-99742442D01*
X160091752Y-99838338D01*
X160086612Y-99855282D01*
X159951894Y-99720564D01*
X159759119Y-99591756D01*
X159544918Y-99503031D01*
X159317524Y-99457800D01*
X159085676Y-99457800D01*
X158858282Y-99503031D01*
X158644081Y-99591756D01*
X158451306Y-99720564D01*
X158287364Y-99884506D01*
X158158556Y-100077281D01*
X158069831Y-100291482D01*
X158024600Y-100518876D01*
X158024600Y-100750724D01*
X158069831Y-100978118D01*
X158158556Y-101192319D01*
X158287364Y-101385094D01*
X158451306Y-101549036D01*
X158644081Y-101677844D01*
X158858282Y-101766569D01*
X159085676Y-101811800D01*
X159317524Y-101811800D01*
X159544918Y-101766569D01*
X159759119Y-101677844D01*
X159951894Y-101549036D01*
X160052201Y-101448729D01*
X160052201Y-101676154D01*
X158516484Y-103211872D01*
X158400126Y-103235016D01*
X158276920Y-103286050D01*
X158166037Y-103360140D01*
X158071740Y-103454437D01*
X157997650Y-103565320D01*
X157946616Y-103688526D01*
X157920600Y-103819321D01*
X127452000Y-103819321D01*
X127452000Y-101385696D01*
X128300309Y-101385696D01*
X128576305Y-101735308D01*
X129068845Y-101995133D01*
X129602610Y-102153876D01*
X130157088Y-102205436D01*
X130710971Y-102147832D01*
X131242973Y-101983278D01*
X131706895Y-101735308D01*
X131982891Y-101385696D01*
X130141600Y-99544405D01*
X128300309Y-101385696D01*
X127452000Y-101385696D01*
X127452000Y-100236236D01*
X127523122Y-100466173D01*
X127771092Y-100930095D01*
X128120704Y-101206091D01*
X129961995Y-99364800D01*
X130321205Y-99364800D01*
X132162496Y-101206091D01*
X132512108Y-100930095D01*
X132729034Y-100518876D01*
X135864600Y-100518876D01*
X135864600Y-100750724D01*
X135909831Y-100978118D01*
X135998556Y-101192319D01*
X136127364Y-101385094D01*
X136291306Y-101549036D01*
X136484081Y-101677844D01*
X136698282Y-101766569D01*
X136925676Y-101811800D01*
X137157524Y-101811800D01*
X137384918Y-101766569D01*
X137599119Y-101677844D01*
X137791894Y-101549036D01*
X137955836Y-101385094D01*
X138084644Y-101192319D01*
X138173369Y-100978118D01*
X138218600Y-100750724D01*
X138218600Y-100518876D01*
X138634600Y-100518876D01*
X138634600Y-100750724D01*
X138679831Y-100978118D01*
X138768556Y-101192319D01*
X138897364Y-101385094D01*
X139061306Y-101549036D01*
X139254081Y-101677844D01*
X139468282Y-101766569D01*
X139695676Y-101811800D01*
X139927524Y-101811800D01*
X140154918Y-101766569D01*
X140369119Y-101677844D01*
X140561894Y-101549036D01*
X140725836Y-101385094D01*
X140854644Y-101192319D01*
X140943369Y-100978118D01*
X140988600Y-100750724D01*
X140988600Y-100518876D01*
X141404600Y-100518876D01*
X141404600Y-100750724D01*
X141449831Y-100978118D01*
X141538556Y-101192319D01*
X141667364Y-101385094D01*
X141831306Y-101549036D01*
X142024081Y-101677844D01*
X142238282Y-101766569D01*
X142465676Y-101811800D01*
X142697524Y-101811800D01*
X142924918Y-101766569D01*
X143139119Y-101677844D01*
X143331894Y-101549036D01*
X143495836Y-101385094D01*
X143624644Y-101192319D01*
X143713369Y-100978118D01*
X143758600Y-100750724D01*
X143758600Y-100518876D01*
X144174600Y-100518876D01*
X144174600Y-100750724D01*
X144219831Y-100978118D01*
X144308556Y-101192319D01*
X144437364Y-101385094D01*
X144601306Y-101549036D01*
X144794081Y-101677844D01*
X145008282Y-101766569D01*
X145235676Y-101811800D01*
X145467524Y-101811800D01*
X145694918Y-101766569D01*
X145909119Y-101677844D01*
X146101894Y-101549036D01*
X146265836Y-101385094D01*
X146394644Y-101192319D01*
X146483369Y-100978118D01*
X146528600Y-100750724D01*
X146528600Y-100518876D01*
X146944600Y-100518876D01*
X146944600Y-100750724D01*
X146989831Y-100978118D01*
X147078556Y-101192319D01*
X147207364Y-101385094D01*
X147371306Y-101549036D01*
X147564081Y-101677844D01*
X147778282Y-101766569D01*
X148005676Y-101811800D01*
X148237524Y-101811800D01*
X148464918Y-101766569D01*
X148679119Y-101677844D01*
X148871894Y-101549036D01*
X149035836Y-101385094D01*
X149164644Y-101192319D01*
X149253369Y-100978118D01*
X149298600Y-100750724D01*
X149298600Y-100518876D01*
X149714600Y-100518876D01*
X149714600Y-100750724D01*
X149759831Y-100978118D01*
X149848556Y-101192319D01*
X149977364Y-101385094D01*
X150141306Y-101549036D01*
X150334081Y-101677844D01*
X150548282Y-101766569D01*
X150775676Y-101811800D01*
X151007524Y-101811800D01*
X151234918Y-101766569D01*
X151449119Y-101677844D01*
X151641894Y-101549036D01*
X151805836Y-101385094D01*
X151934644Y-101192319D01*
X152023369Y-100978118D01*
X152068600Y-100750724D01*
X152068600Y-100518876D01*
X152484600Y-100518876D01*
X152484600Y-100750724D01*
X152529831Y-100978118D01*
X152618556Y-101192319D01*
X152747364Y-101385094D01*
X152911306Y-101549036D01*
X153104081Y-101677844D01*
X153318282Y-101766569D01*
X153545676Y-101811800D01*
X153777524Y-101811800D01*
X154004918Y-101766569D01*
X154219119Y-101677844D01*
X154411894Y-101549036D01*
X154575836Y-101385094D01*
X154704644Y-101192319D01*
X154793369Y-100978118D01*
X154838600Y-100750724D01*
X154838600Y-100518876D01*
X155254600Y-100518876D01*
X155254600Y-100750724D01*
X155299831Y-100978118D01*
X155388556Y-101192319D01*
X155517364Y-101385094D01*
X155681306Y-101549036D01*
X155874081Y-101677844D01*
X156088282Y-101766569D01*
X156315676Y-101811800D01*
X156547524Y-101811800D01*
X156774918Y-101766569D01*
X156989119Y-101677844D01*
X157181894Y-101549036D01*
X157345836Y-101385094D01*
X157474644Y-101192319D01*
X157563369Y-100978118D01*
X157608600Y-100750724D01*
X157608600Y-100518876D01*
X157563369Y-100291482D01*
X157474644Y-100077281D01*
X157345836Y-99884506D01*
X157181894Y-99720564D01*
X156989119Y-99591756D01*
X156774918Y-99503031D01*
X156547524Y-99457800D01*
X156315676Y-99457800D01*
X156088282Y-99503031D01*
X155874081Y-99591756D01*
X155681306Y-99720564D01*
X155517364Y-99884506D01*
X155388556Y-100077281D01*
X155299831Y-100291482D01*
X155254600Y-100518876D01*
X154838600Y-100518876D01*
X154793369Y-100291482D01*
X154704644Y-100077281D01*
X154575836Y-99884506D01*
X154411894Y-99720564D01*
X154219119Y-99591756D01*
X154004918Y-99503031D01*
X153777524Y-99457800D01*
X153545676Y-99457800D01*
X153318282Y-99503031D01*
X153104081Y-99591756D01*
X152911306Y-99720564D01*
X152747364Y-99884506D01*
X152618556Y-100077281D01*
X152529831Y-100291482D01*
X152484600Y-100518876D01*
X152068600Y-100518876D01*
X152023369Y-100291482D01*
X151934644Y-100077281D01*
X151805836Y-99884506D01*
X151641894Y-99720564D01*
X151449119Y-99591756D01*
X151234918Y-99503031D01*
X151007524Y-99457800D01*
X150775676Y-99457800D01*
X150548282Y-99503031D01*
X150334081Y-99591756D01*
X150141306Y-99720564D01*
X149977364Y-99884506D01*
X149848556Y-100077281D01*
X149759831Y-100291482D01*
X149714600Y-100518876D01*
X149298600Y-100518876D01*
X149253369Y-100291482D01*
X149164644Y-100077281D01*
X149035836Y-99884506D01*
X148871894Y-99720564D01*
X148679119Y-99591756D01*
X148464918Y-99503031D01*
X148237524Y-99457800D01*
X148005676Y-99457800D01*
X147778282Y-99503031D01*
X147564081Y-99591756D01*
X147371306Y-99720564D01*
X147207364Y-99884506D01*
X147078556Y-100077281D01*
X146989831Y-100291482D01*
X146944600Y-100518876D01*
X146528600Y-100518876D01*
X146483369Y-100291482D01*
X146394644Y-100077281D01*
X146265836Y-99884506D01*
X146101894Y-99720564D01*
X145909119Y-99591756D01*
X145694918Y-99503031D01*
X145467524Y-99457800D01*
X145235676Y-99457800D01*
X145008282Y-99503031D01*
X144794081Y-99591756D01*
X144601306Y-99720564D01*
X144437364Y-99884506D01*
X144308556Y-100077281D01*
X144219831Y-100291482D01*
X144174600Y-100518876D01*
X143758600Y-100518876D01*
X143713369Y-100291482D01*
X143624644Y-100077281D01*
X143495836Y-99884506D01*
X143331894Y-99720564D01*
X143139119Y-99591756D01*
X142924918Y-99503031D01*
X142697524Y-99457800D01*
X142465676Y-99457800D01*
X142238282Y-99503031D01*
X142024081Y-99591756D01*
X141831306Y-99720564D01*
X141667364Y-99884506D01*
X141538556Y-100077281D01*
X141449831Y-100291482D01*
X141404600Y-100518876D01*
X140988600Y-100518876D01*
X140943369Y-100291482D01*
X140854644Y-100077281D01*
X140725836Y-99884506D01*
X140561894Y-99720564D01*
X140369119Y-99591756D01*
X140154918Y-99503031D01*
X139927524Y-99457800D01*
X139695676Y-99457800D01*
X139468282Y-99503031D01*
X139254081Y-99591756D01*
X139061306Y-99720564D01*
X138897364Y-99884506D01*
X138768556Y-100077281D01*
X138679831Y-100291482D01*
X138634600Y-100518876D01*
X138218600Y-100518876D01*
X138173369Y-100291482D01*
X138084644Y-100077281D01*
X137955836Y-99884506D01*
X137791894Y-99720564D01*
X137599119Y-99591756D01*
X137384918Y-99503031D01*
X137157524Y-99457800D01*
X136925676Y-99457800D01*
X136698282Y-99503031D01*
X136484081Y-99591756D01*
X136291306Y-99720564D01*
X136127364Y-99884506D01*
X135998556Y-100077281D01*
X135909831Y-100291482D01*
X135864600Y-100518876D01*
X132729034Y-100518876D01*
X132771933Y-100437555D01*
X132930676Y-99903790D01*
X132982236Y-99349312D01*
X132939677Y-98940092D01*
X137760913Y-98940092D01*
X137838195Y-99120736D01*
X138049651Y-99215815D01*
X138275592Y-99267814D01*
X138507338Y-99274736D01*
X138735980Y-99236312D01*
X138952733Y-99154021D01*
X139015005Y-99120736D01*
X139092287Y-98940092D01*
X140530913Y-98940092D01*
X140608195Y-99120736D01*
X140819651Y-99215815D01*
X141045592Y-99267814D01*
X141277338Y-99274736D01*
X141505980Y-99236312D01*
X141722733Y-99154021D01*
X141785005Y-99120736D01*
X141862287Y-98940092D01*
X143300913Y-98940092D01*
X143378195Y-99120736D01*
X143589651Y-99215815D01*
X143815592Y-99267814D01*
X144047338Y-99274736D01*
X144275980Y-99236312D01*
X144492733Y-99154021D01*
X144555005Y-99120736D01*
X144632287Y-98940092D01*
X146070913Y-98940092D01*
X146148195Y-99120736D01*
X146359651Y-99215815D01*
X146585592Y-99267814D01*
X146817338Y-99274736D01*
X147045980Y-99236312D01*
X147262733Y-99154021D01*
X147325005Y-99120736D01*
X147402287Y-98940092D01*
X148840913Y-98940092D01*
X148918195Y-99120736D01*
X149129651Y-99215815D01*
X149355592Y-99267814D01*
X149587338Y-99274736D01*
X149815980Y-99236312D01*
X150032733Y-99154021D01*
X150095005Y-99120736D01*
X150172287Y-98940092D01*
X151610913Y-98940092D01*
X151688195Y-99120736D01*
X151899651Y-99215815D01*
X152125592Y-99267814D01*
X152357338Y-99274736D01*
X152585980Y-99236312D01*
X152802733Y-99154021D01*
X152865005Y-99120736D01*
X152942287Y-98940092D01*
X154380913Y-98940092D01*
X154458195Y-99120736D01*
X154669651Y-99215815D01*
X154895592Y-99267814D01*
X155127338Y-99274736D01*
X155355980Y-99236312D01*
X155572733Y-99154021D01*
X155635005Y-99120736D01*
X155712287Y-98940092D01*
X157150913Y-98940092D01*
X157228195Y-99120736D01*
X157439651Y-99215815D01*
X157665592Y-99267814D01*
X157897338Y-99274736D01*
X158125980Y-99236312D01*
X158342733Y-99154021D01*
X158405005Y-99120736D01*
X158482287Y-98940092D01*
X157816600Y-98274405D01*
X157150913Y-98940092D01*
X155712287Y-98940092D01*
X155046600Y-98274405D01*
X154380913Y-98940092D01*
X152942287Y-98940092D01*
X152276600Y-98274405D01*
X151610913Y-98940092D01*
X150172287Y-98940092D01*
X149506600Y-98274405D01*
X148840913Y-98940092D01*
X147402287Y-98940092D01*
X146736600Y-98274405D01*
X146070913Y-98940092D01*
X144632287Y-98940092D01*
X143966600Y-98274405D01*
X143300913Y-98940092D01*
X141862287Y-98940092D01*
X141196600Y-98274405D01*
X140530913Y-98940092D01*
X139092287Y-98940092D01*
X138426600Y-98274405D01*
X137760913Y-98940092D01*
X132939677Y-98940092D01*
X132924632Y-98795429D01*
X132760078Y-98263427D01*
X132713101Y-98175538D01*
X137246664Y-98175538D01*
X137285088Y-98404180D01*
X137367379Y-98620933D01*
X137400664Y-98683205D01*
X137581308Y-98760487D01*
X138246995Y-98094800D01*
X138606205Y-98094800D01*
X139271892Y-98760487D01*
X139452536Y-98683205D01*
X139547615Y-98471749D01*
X139599614Y-98245808D01*
X139601712Y-98175538D01*
X140016664Y-98175538D01*
X140055088Y-98404180D01*
X140137379Y-98620933D01*
X140170664Y-98683205D01*
X140351308Y-98760487D01*
X141016995Y-98094800D01*
X141376205Y-98094800D01*
X142041892Y-98760487D01*
X142222536Y-98683205D01*
X142317615Y-98471749D01*
X142369614Y-98245808D01*
X142371712Y-98175538D01*
X142786664Y-98175538D01*
X142825088Y-98404180D01*
X142907379Y-98620933D01*
X142940664Y-98683205D01*
X143121308Y-98760487D01*
X143786995Y-98094800D01*
X144146205Y-98094800D01*
X144811892Y-98760487D01*
X144992536Y-98683205D01*
X145087615Y-98471749D01*
X145139614Y-98245808D01*
X145141712Y-98175538D01*
X145556664Y-98175538D01*
X145595088Y-98404180D01*
X145677379Y-98620933D01*
X145710664Y-98683205D01*
X145891308Y-98760487D01*
X146556995Y-98094800D01*
X146916205Y-98094800D01*
X147581892Y-98760487D01*
X147762536Y-98683205D01*
X147857615Y-98471749D01*
X147909614Y-98245808D01*
X147911712Y-98175538D01*
X148326664Y-98175538D01*
X148365088Y-98404180D01*
X148447379Y-98620933D01*
X148480664Y-98683205D01*
X148661308Y-98760487D01*
X149326995Y-98094800D01*
X149686205Y-98094800D01*
X150351892Y-98760487D01*
X150532536Y-98683205D01*
X150627615Y-98471749D01*
X150679614Y-98245808D01*
X150681712Y-98175538D01*
X151096664Y-98175538D01*
X151135088Y-98404180D01*
X151217379Y-98620933D01*
X151250664Y-98683205D01*
X151431308Y-98760487D01*
X152096995Y-98094800D01*
X152456205Y-98094800D01*
X153121892Y-98760487D01*
X153302536Y-98683205D01*
X153397615Y-98471749D01*
X153449614Y-98245808D01*
X153451712Y-98175538D01*
X153866664Y-98175538D01*
X153905088Y-98404180D01*
X153987379Y-98620933D01*
X154020664Y-98683205D01*
X154201308Y-98760487D01*
X154866995Y-98094800D01*
X155226205Y-98094800D01*
X155891892Y-98760487D01*
X156072536Y-98683205D01*
X156167615Y-98471749D01*
X156219614Y-98245808D01*
X156221712Y-98175538D01*
X156636664Y-98175538D01*
X156675088Y-98404180D01*
X156757379Y-98620933D01*
X156790664Y-98683205D01*
X156971308Y-98760487D01*
X157636995Y-98094800D01*
X157996205Y-98094800D01*
X158661892Y-98760487D01*
X158842536Y-98683205D01*
X158937615Y-98471749D01*
X158989614Y-98245808D01*
X158991712Y-98175538D01*
X159406664Y-98175538D01*
X159445088Y-98404180D01*
X159527379Y-98620933D01*
X159560664Y-98683205D01*
X159741308Y-98760487D01*
X160406995Y-98094800D01*
X159741308Y-97429113D01*
X159560664Y-97506395D01*
X159465585Y-97717851D01*
X159413586Y-97943792D01*
X159406664Y-98175538D01*
X158991712Y-98175538D01*
X158996536Y-98014062D01*
X158958112Y-97785420D01*
X158875821Y-97568667D01*
X158842536Y-97506395D01*
X158661892Y-97429113D01*
X157996205Y-98094800D01*
X157636995Y-98094800D01*
X156971308Y-97429113D01*
X156790664Y-97506395D01*
X156695585Y-97717851D01*
X156643586Y-97943792D01*
X156636664Y-98175538D01*
X156221712Y-98175538D01*
X156226536Y-98014062D01*
X156188112Y-97785420D01*
X156105821Y-97568667D01*
X156072536Y-97506395D01*
X155891892Y-97429113D01*
X155226205Y-98094800D01*
X154866995Y-98094800D01*
X154201308Y-97429113D01*
X154020664Y-97506395D01*
X153925585Y-97717851D01*
X153873586Y-97943792D01*
X153866664Y-98175538D01*
X153451712Y-98175538D01*
X153456536Y-98014062D01*
X153418112Y-97785420D01*
X153335821Y-97568667D01*
X153302536Y-97506395D01*
X153121892Y-97429113D01*
X152456205Y-98094800D01*
X152096995Y-98094800D01*
X151431308Y-97429113D01*
X151250664Y-97506395D01*
X151155585Y-97717851D01*
X151103586Y-97943792D01*
X151096664Y-98175538D01*
X150681712Y-98175538D01*
X150686536Y-98014062D01*
X150648112Y-97785420D01*
X150565821Y-97568667D01*
X150532536Y-97506395D01*
X150351892Y-97429113D01*
X149686205Y-98094800D01*
X149326995Y-98094800D01*
X148661308Y-97429113D01*
X148480664Y-97506395D01*
X148385585Y-97717851D01*
X148333586Y-97943792D01*
X148326664Y-98175538D01*
X147911712Y-98175538D01*
X147916536Y-98014062D01*
X147878112Y-97785420D01*
X147795821Y-97568667D01*
X147762536Y-97506395D01*
X147581892Y-97429113D01*
X146916205Y-98094800D01*
X146556995Y-98094800D01*
X145891308Y-97429113D01*
X145710664Y-97506395D01*
X145615585Y-97717851D01*
X145563586Y-97943792D01*
X145556664Y-98175538D01*
X145141712Y-98175538D01*
X145146536Y-98014062D01*
X145108112Y-97785420D01*
X145025821Y-97568667D01*
X144992536Y-97506395D01*
X144811892Y-97429113D01*
X144146205Y-98094800D01*
X143786995Y-98094800D01*
X143121308Y-97429113D01*
X142940664Y-97506395D01*
X142845585Y-97717851D01*
X142793586Y-97943792D01*
X142786664Y-98175538D01*
X142371712Y-98175538D01*
X142376536Y-98014062D01*
X142338112Y-97785420D01*
X142255821Y-97568667D01*
X142222536Y-97506395D01*
X142041892Y-97429113D01*
X141376205Y-98094800D01*
X141016995Y-98094800D01*
X140351308Y-97429113D01*
X140170664Y-97506395D01*
X140075585Y-97717851D01*
X140023586Y-97943792D01*
X140016664Y-98175538D01*
X139601712Y-98175538D01*
X139606536Y-98014062D01*
X139568112Y-97785420D01*
X139485821Y-97568667D01*
X139452536Y-97506395D01*
X139271892Y-97429113D01*
X138606205Y-98094800D01*
X138246995Y-98094800D01*
X137581308Y-97429113D01*
X137400664Y-97506395D01*
X137305585Y-97717851D01*
X137253586Y-97943792D01*
X137246664Y-98175538D01*
X132713101Y-98175538D01*
X132512108Y-97799505D01*
X132162496Y-97523509D01*
X130321205Y-99364800D01*
X129961995Y-99364800D01*
X128120704Y-97523509D01*
X127771092Y-97799505D01*
X127511267Y-98292045D01*
X127452000Y-98491327D01*
X127452000Y-97343904D01*
X128300309Y-97343904D01*
X130141600Y-99185195D01*
X131982891Y-97343904D01*
X131908372Y-97249508D01*
X137760913Y-97249508D01*
X138426600Y-97915195D01*
X139092287Y-97249508D01*
X140530913Y-97249508D01*
X141196600Y-97915195D01*
X141862287Y-97249508D01*
X143300913Y-97249508D01*
X143966600Y-97915195D01*
X144632287Y-97249508D01*
X146070913Y-97249508D01*
X146736600Y-97915195D01*
X147402287Y-97249508D01*
X148840913Y-97249508D01*
X149506600Y-97915195D01*
X150172287Y-97249508D01*
X151610913Y-97249508D01*
X152276600Y-97915195D01*
X152942287Y-97249508D01*
X154380913Y-97249508D01*
X155046600Y-97915195D01*
X155712287Y-97249508D01*
X157150913Y-97249508D01*
X157816600Y-97915195D01*
X158482287Y-97249508D01*
X159920913Y-97249508D01*
X160586600Y-97915195D01*
X161252287Y-97249508D01*
X161175005Y-97068864D01*
X160963549Y-96973785D01*
X160737608Y-96921786D01*
X160505862Y-96914864D01*
X160277220Y-96953288D01*
X160060467Y-97035579D01*
X159998195Y-97068864D01*
X159920913Y-97249508D01*
X158482287Y-97249508D01*
X158405005Y-97068864D01*
X158193549Y-96973785D01*
X157967608Y-96921786D01*
X157735862Y-96914864D01*
X157507220Y-96953288D01*
X157290467Y-97035579D01*
X157228195Y-97068864D01*
X157150913Y-97249508D01*
X155712287Y-97249508D01*
X155635005Y-97068864D01*
X155423549Y-96973785D01*
X155197608Y-96921786D01*
X154965862Y-96914864D01*
X154737220Y-96953288D01*
X154520467Y-97035579D01*
X154458195Y-97068864D01*
X154380913Y-97249508D01*
X152942287Y-97249508D01*
X152865005Y-97068864D01*
X152653549Y-96973785D01*
X152427608Y-96921786D01*
X152195862Y-96914864D01*
X151967220Y-96953288D01*
X151750467Y-97035579D01*
X151688195Y-97068864D01*
X151610913Y-97249508D01*
X150172287Y-97249508D01*
X150095005Y-97068864D01*
X149883549Y-96973785D01*
X149657608Y-96921786D01*
X149425862Y-96914864D01*
X149197220Y-96953288D01*
X148980467Y-97035579D01*
X148918195Y-97068864D01*
X148840913Y-97249508D01*
X147402287Y-97249508D01*
X147325005Y-97068864D01*
X147113549Y-96973785D01*
X146887608Y-96921786D01*
X146655862Y-96914864D01*
X146427220Y-96953288D01*
X146210467Y-97035579D01*
X146148195Y-97068864D01*
X146070913Y-97249508D01*
X144632287Y-97249508D01*
X144555005Y-97068864D01*
X144343549Y-96973785D01*
X144117608Y-96921786D01*
X143885862Y-96914864D01*
X143657220Y-96953288D01*
X143440467Y-97035579D01*
X143378195Y-97068864D01*
X143300913Y-97249508D01*
X141862287Y-97249508D01*
X141785005Y-97068864D01*
X141573549Y-96973785D01*
X141347608Y-96921786D01*
X141115862Y-96914864D01*
X140887220Y-96953288D01*
X140670467Y-97035579D01*
X140608195Y-97068864D01*
X140530913Y-97249508D01*
X139092287Y-97249508D01*
X139015005Y-97068864D01*
X138803549Y-96973785D01*
X138577608Y-96921786D01*
X138345862Y-96914864D01*
X138117220Y-96953288D01*
X137900467Y-97035579D01*
X137838195Y-97068864D01*
X137760913Y-97249508D01*
X131908372Y-97249508D01*
X131706895Y-96994292D01*
X131214355Y-96734467D01*
X130680590Y-96575724D01*
X130126112Y-96524164D01*
X129572229Y-96581768D01*
X129040227Y-96746322D01*
X128576305Y-96994292D01*
X128300309Y-97343904D01*
X127452000Y-97343904D01*
X127452000Y-88082000D01*
X179888000Y-88082000D01*
X179888000Y-98547679D01*
G36*
X162211201Y-113525245D02*
G01*
X162211201Y-116376908D01*
X162063729Y-116278371D01*
X161844069Y-116187384D01*
X161610879Y-116141000D01*
X161373121Y-116141000D01*
X161139931Y-116187384D01*
X160920271Y-116278371D01*
X160749800Y-116392276D01*
X160749800Y-112063843D01*
X162211201Y-113525245D01*
G37*
X162211201Y-113525245D02*
X162211201Y-116376908D01*
X162063729Y-116278371D01*
X161844069Y-116187384D01*
X161610879Y-116141000D01*
X161373121Y-116141000D01*
X161139931Y-116187384D01*
X160920271Y-116278371D01*
X160749800Y-116392276D01*
X160749800Y-112063843D01*
X162211201Y-113525245D01*
G36*
X164751200Y-115428833D02*
G01*
X164751200Y-116376908D01*
X164603729Y-116278371D01*
X164384069Y-116187384D01*
X164150879Y-116141000D01*
X163913121Y-116141000D01*
X163679931Y-116187384D01*
X163460271Y-116278371D01*
X163315200Y-116375304D01*
X163315200Y-113992833D01*
X164751200Y-115428833D01*
G37*
X164751200Y-115428833D02*
X164751200Y-116376908D01*
X164603729Y-116278371D01*
X164384069Y-116187384D01*
X164150879Y-116141000D01*
X163913121Y-116141000D01*
X163679931Y-116187384D01*
X163460271Y-116278371D01*
X163315200Y-116375304D01*
X163315200Y-113992833D01*
X164751200Y-115428833D01*
%TD*%
M02*
