%TF.GenerationSoftware,KiCad,Pcbnew,(5.1.6)-1*%
%TF.CreationDate,2022-10-28T15:03:09-04:00*%
%TF.ProjectId,Amiga ESP32fi,416d6967-6120-4455-9350-333266692e6b,rev?*%
%TF.SameCoordinates,Original*%
%TF.FileFunction,Legend,Top*%
%TF.FilePolarity,Positive*%
%FSLAX46Y46*%
G04 Gerber Fmt 4.6, Leading zero omitted, Abs format (unit mm)*
G04 Created by KiCad (PCBNEW (5.1.6)-1) date 2022-10-28 15:03:09*
%MOMM*%
%LPD*%
G01*
G04 APERTURE LIST*
%ADD10C,0.150000*%
%ADD11C,0.500000*%
%ADD12C,0.010000*%
%ADD13C,0.120000*%
%ADD14C,0.200000*%
%ADD15C,0.127000*%
%ADD16C,0.254000*%
G04 APERTURE END LIST*
D10*
X153281142Y-109005714D02*
X153662095Y-109005714D01*
X153424000Y-108672380D02*
X153424000Y-109529523D01*
X153471619Y-109624761D01*
X153566857Y-109672380D01*
X153662095Y-109672380D01*
X154138285Y-109672380D02*
X154043047Y-109624761D01*
X153995428Y-109577142D01*
X153947809Y-109481904D01*
X153947809Y-109196190D01*
X153995428Y-109100952D01*
X154043047Y-109053333D01*
X154138285Y-109005714D01*
X154281142Y-109005714D01*
X154376380Y-109053333D01*
X154424000Y-109100952D01*
X154471619Y-109196190D01*
X154471619Y-109481904D01*
X154424000Y-109577142D01*
X154376380Y-109624761D01*
X154281142Y-109672380D01*
X154138285Y-109672380D01*
X152447809Y-110196380D02*
X153066857Y-110196380D01*
X152733523Y-110577333D01*
X152876380Y-110577333D01*
X152971619Y-110624952D01*
X153019238Y-110672571D01*
X153066857Y-110767809D01*
X153066857Y-111005904D01*
X153019238Y-111101142D01*
X152971619Y-111148761D01*
X152876380Y-111196380D01*
X152590666Y-111196380D01*
X152495428Y-111148761D01*
X152447809Y-111101142D01*
X153495428Y-111101142D02*
X153543047Y-111148761D01*
X153495428Y-111196380D01*
X153447809Y-111148761D01*
X153495428Y-111101142D01*
X153495428Y-111196380D01*
X153876380Y-110196380D02*
X154495428Y-110196380D01*
X154162095Y-110577333D01*
X154304952Y-110577333D01*
X154400190Y-110624952D01*
X154447809Y-110672571D01*
X154495428Y-110767809D01*
X154495428Y-111005904D01*
X154447809Y-111101142D01*
X154400190Y-111148761D01*
X154304952Y-111196380D01*
X154019238Y-111196380D01*
X153924000Y-111148761D01*
X153876380Y-111101142D01*
X154781142Y-110196380D02*
X155114476Y-111196380D01*
X155447809Y-110196380D01*
X153733523Y-107148380D02*
X153257333Y-107148380D01*
X153209714Y-107624571D01*
X153257333Y-107576952D01*
X153352571Y-107529333D01*
X153590666Y-107529333D01*
X153685904Y-107576952D01*
X153733523Y-107624571D01*
X153781142Y-107719809D01*
X153781142Y-107957904D01*
X153733523Y-108053142D01*
X153685904Y-108100761D01*
X153590666Y-108148380D01*
X153352571Y-108148380D01*
X153257333Y-108100761D01*
X153209714Y-108053142D01*
X154066857Y-107148380D02*
X154400190Y-108148380D01*
X154733523Y-107148380D01*
X130516380Y-135373428D02*
X131325904Y-135373428D01*
X131421142Y-135325809D01*
X131468761Y-135278190D01*
X131516380Y-135182952D01*
X131516380Y-134992476D01*
X131468761Y-134897238D01*
X131421142Y-134849619D01*
X131325904Y-134802000D01*
X130516380Y-134802000D01*
X131468761Y-134373428D02*
X131516380Y-134230571D01*
X131516380Y-133992476D01*
X131468761Y-133897238D01*
X131421142Y-133849619D01*
X131325904Y-133802000D01*
X131230666Y-133802000D01*
X131135428Y-133849619D01*
X131087809Y-133897238D01*
X131040190Y-133992476D01*
X130992571Y-134182952D01*
X130944952Y-134278190D01*
X130897333Y-134325809D01*
X130802095Y-134373428D01*
X130706857Y-134373428D01*
X130611619Y-134325809D01*
X130564000Y-134278190D01*
X130516380Y-134182952D01*
X130516380Y-133944857D01*
X130564000Y-133802000D01*
X130992571Y-133040095D02*
X131040190Y-132897238D01*
X131087809Y-132849619D01*
X131183047Y-132802000D01*
X131325904Y-132802000D01*
X131421142Y-132849619D01*
X131468761Y-132897238D01*
X131516380Y-132992476D01*
X131516380Y-133373428D01*
X130516380Y-133373428D01*
X130516380Y-133040095D01*
X130564000Y-132944857D01*
X130611619Y-132897238D01*
X130706857Y-132849619D01*
X130802095Y-132849619D01*
X130897333Y-132897238D01*
X130944952Y-132944857D01*
X130992571Y-133040095D01*
X130992571Y-133373428D01*
X130992571Y-131611523D02*
X130992571Y-131278190D01*
X131516380Y-131135333D02*
X131516380Y-131611523D01*
X130516380Y-131611523D01*
X130516380Y-131135333D01*
X130849714Y-130706761D02*
X131516380Y-130706761D01*
X130944952Y-130706761D02*
X130897333Y-130659142D01*
X130849714Y-130563904D01*
X130849714Y-130421047D01*
X130897333Y-130325809D01*
X130992571Y-130278190D01*
X131516380Y-130278190D01*
X131516380Y-129373428D02*
X130516380Y-129373428D01*
X131468761Y-129373428D02*
X131516380Y-129468666D01*
X131516380Y-129659142D01*
X131468761Y-129754380D01*
X131421142Y-129802000D01*
X131325904Y-129849619D01*
X131040190Y-129849619D01*
X130944952Y-129802000D01*
X130897333Y-129754380D01*
X130849714Y-129659142D01*
X130849714Y-129468666D01*
X130897333Y-129373428D01*
X131516380Y-128135333D02*
X130516380Y-128135333D01*
X130992571Y-128135333D02*
X130992571Y-127563904D01*
X131516380Y-127563904D02*
X130516380Y-127563904D01*
X131468761Y-126706761D02*
X131516380Y-126802000D01*
X131516380Y-126992476D01*
X131468761Y-127087714D01*
X131373523Y-127135333D01*
X130992571Y-127135333D01*
X130897333Y-127087714D01*
X130849714Y-126992476D01*
X130849714Y-126802000D01*
X130897333Y-126706761D01*
X130992571Y-126659142D01*
X131087809Y-126659142D01*
X131183047Y-127135333D01*
X131516380Y-126230571D02*
X130849714Y-126230571D01*
X131040190Y-126230571D02*
X130944952Y-126182952D01*
X130897333Y-126135333D01*
X130849714Y-126040095D01*
X130849714Y-125944857D01*
X131468761Y-125230571D02*
X131516380Y-125325809D01*
X131516380Y-125516285D01*
X131468761Y-125611523D01*
X131373523Y-125659142D01*
X130992571Y-125659142D01*
X130897333Y-125611523D01*
X130849714Y-125516285D01*
X130849714Y-125325809D01*
X130897333Y-125230571D01*
X130992571Y-125182952D01*
X131087809Y-125182952D01*
X131183047Y-125659142D01*
X175982380Y-134936857D02*
X176982380Y-134698761D01*
X176268095Y-134508285D01*
X176982380Y-134317809D01*
X175982380Y-134079714D01*
X176982380Y-133698761D02*
X176315714Y-133698761D01*
X175982380Y-133698761D02*
X176030000Y-133746380D01*
X176077619Y-133698761D01*
X176030000Y-133651142D01*
X175982380Y-133698761D01*
X176077619Y-133698761D01*
X176458571Y-132889238D02*
X176458571Y-133222571D01*
X176982380Y-133222571D02*
X175982380Y-133222571D01*
X175982380Y-132746380D01*
X176982380Y-132365428D02*
X175982380Y-132365428D01*
X176458571Y-131127333D02*
X176458571Y-130794000D01*
X176982380Y-130651142D02*
X176982380Y-131127333D01*
X175982380Y-131127333D01*
X175982380Y-130651142D01*
X176315714Y-130222571D02*
X176982380Y-130222571D01*
X176410952Y-130222571D02*
X176363333Y-130174952D01*
X176315714Y-130079714D01*
X176315714Y-129936857D01*
X176363333Y-129841619D01*
X176458571Y-129794000D01*
X176982380Y-129794000D01*
X176982380Y-128889238D02*
X175982380Y-128889238D01*
X176934761Y-128889238D02*
X176982380Y-128984476D01*
X176982380Y-129174952D01*
X176934761Y-129270190D01*
X176887142Y-129317809D01*
X176791904Y-129365428D01*
X176506190Y-129365428D01*
X176410952Y-129317809D01*
X176363333Y-129270190D01*
X176315714Y-129174952D01*
X176315714Y-128984476D01*
X176363333Y-128889238D01*
X176982380Y-127651142D02*
X175982380Y-127651142D01*
X176458571Y-127651142D02*
X176458571Y-127079714D01*
X176982380Y-127079714D02*
X175982380Y-127079714D01*
X176934761Y-126222571D02*
X176982380Y-126317809D01*
X176982380Y-126508285D01*
X176934761Y-126603523D01*
X176839523Y-126651142D01*
X176458571Y-126651142D01*
X176363333Y-126603523D01*
X176315714Y-126508285D01*
X176315714Y-126317809D01*
X176363333Y-126222571D01*
X176458571Y-126174952D01*
X176553809Y-126174952D01*
X176649047Y-126651142D01*
X176982380Y-125746380D02*
X176315714Y-125746380D01*
X176506190Y-125746380D02*
X176410952Y-125698761D01*
X176363333Y-125651142D01*
X176315714Y-125555904D01*
X176315714Y-125460666D01*
X176934761Y-124746380D02*
X176982380Y-124841619D01*
X176982380Y-125032095D01*
X176934761Y-125127333D01*
X176839523Y-125174952D01*
X176458571Y-125174952D01*
X176363333Y-125127333D01*
X176315714Y-125032095D01*
X176315714Y-124841619D01*
X176363333Y-124746380D01*
X176458571Y-124698761D01*
X176553809Y-124698761D01*
X176649047Y-125174952D01*
X149050952Y-89114380D02*
X149050952Y-89828666D01*
X149003333Y-89971523D01*
X148908095Y-90066761D01*
X148765238Y-90114380D01*
X148670000Y-90114380D01*
X150003333Y-90114380D02*
X149527142Y-90114380D01*
X149527142Y-89114380D01*
X150908095Y-90019142D02*
X150860476Y-90066761D01*
X150717619Y-90114380D01*
X150622380Y-90114380D01*
X150479523Y-90066761D01*
X150384285Y-89971523D01*
X150336666Y-89876285D01*
X150289047Y-89685809D01*
X150289047Y-89542952D01*
X150336666Y-89352476D01*
X150384285Y-89257238D01*
X150479523Y-89162000D01*
X150622380Y-89114380D01*
X150717619Y-89114380D01*
X150860476Y-89162000D01*
X150908095Y-89209619D01*
X151622380Y-89114380D02*
X151622380Y-89828666D01*
X151574761Y-89971523D01*
X151479523Y-90066761D01*
X151336666Y-90114380D01*
X151241428Y-90114380D01*
X152574761Y-90114380D02*
X152098571Y-90114380D01*
X152098571Y-89114380D01*
X153479523Y-90019142D02*
X153431904Y-90066761D01*
X153289047Y-90114380D01*
X153193809Y-90114380D01*
X153050952Y-90066761D01*
X152955714Y-89971523D01*
X152908095Y-89876285D01*
X152860476Y-89685809D01*
X152860476Y-89542952D01*
X152908095Y-89352476D01*
X152955714Y-89257238D01*
X153050952Y-89162000D01*
X153193809Y-89114380D01*
X153289047Y-89114380D01*
X153431904Y-89162000D01*
X153479523Y-89209619D01*
X154193809Y-89114380D02*
X154193809Y-89828666D01*
X154146190Y-89971523D01*
X154050952Y-90066761D01*
X153908095Y-90114380D01*
X153812857Y-90114380D01*
X155146190Y-90114380D02*
X154670000Y-90114380D01*
X154670000Y-89114380D01*
X156050952Y-90019142D02*
X156003333Y-90066761D01*
X155860476Y-90114380D01*
X155765238Y-90114380D01*
X155622380Y-90066761D01*
X155527142Y-89971523D01*
X155479523Y-89876285D01*
X155431904Y-89685809D01*
X155431904Y-89542952D01*
X155479523Y-89352476D01*
X155527142Y-89257238D01*
X155622380Y-89162000D01*
X155765238Y-89114380D01*
X155860476Y-89114380D01*
X156003333Y-89162000D01*
X156050952Y-89209619D01*
X156765238Y-89114380D02*
X156765238Y-89828666D01*
X156717619Y-89971523D01*
X156622380Y-90066761D01*
X156479523Y-90114380D01*
X156384285Y-90114380D01*
X157717619Y-90114380D02*
X157241428Y-90114380D01*
X157241428Y-89114380D01*
X158622380Y-90019142D02*
X158574761Y-90066761D01*
X158431904Y-90114380D01*
X158336666Y-90114380D01*
X158193809Y-90066761D01*
X158098571Y-89971523D01*
X158050952Y-89876285D01*
X158003333Y-89685809D01*
X158003333Y-89542952D01*
X158050952Y-89352476D01*
X158098571Y-89257238D01*
X158193809Y-89162000D01*
X158336666Y-89114380D01*
X158431904Y-89114380D01*
X158574761Y-89162000D01*
X158622380Y-89209619D01*
X127436761Y-103830380D02*
X127436761Y-103163714D01*
X127436761Y-103354190D02*
X127484380Y-103258952D01*
X127532000Y-103211333D01*
X127627238Y-103163714D01*
X127722476Y-103163714D01*
X128436761Y-103782761D02*
X128341523Y-103830380D01*
X128151047Y-103830380D01*
X128055809Y-103782761D01*
X128008190Y-103687523D01*
X128008190Y-103306571D01*
X128055809Y-103211333D01*
X128151047Y-103163714D01*
X128341523Y-103163714D01*
X128436761Y-103211333D01*
X128484380Y-103306571D01*
X128484380Y-103401809D01*
X128008190Y-103497047D01*
X128817714Y-103163714D02*
X129055809Y-103830380D01*
X129293904Y-103163714D01*
X129674857Y-103735142D02*
X129722476Y-103782761D01*
X129674857Y-103830380D01*
X129627238Y-103782761D01*
X129674857Y-103735142D01*
X129674857Y-103830380D01*
X130341523Y-102830380D02*
X130436761Y-102830380D01*
X130532000Y-102878000D01*
X130579619Y-102925619D01*
X130627238Y-103020857D01*
X130674857Y-103211333D01*
X130674857Y-103449428D01*
X130627238Y-103639904D01*
X130579619Y-103735142D01*
X130532000Y-103782761D01*
X130436761Y-103830380D01*
X130341523Y-103830380D01*
X130246285Y-103782761D01*
X130198666Y-103735142D01*
X130151047Y-103639904D01*
X130103428Y-103449428D01*
X130103428Y-103211333D01*
X130151047Y-103020857D01*
X130198666Y-102925619D01*
X130246285Y-102878000D01*
X130341523Y-102830380D01*
X128030314Y-142425133D02*
X128696980Y-142234657D01*
X128220790Y-142044180D01*
X128696980Y-141853704D01*
X128030314Y-141663228D01*
X128696980Y-141282276D02*
X128030314Y-141282276D01*
X127696980Y-141282276D02*
X127744600Y-141329895D01*
X127792219Y-141282276D01*
X127744600Y-141234657D01*
X127696980Y-141282276D01*
X127792219Y-141282276D01*
X128696980Y-140806085D02*
X128030314Y-140806085D01*
X128220790Y-140806085D02*
X128125552Y-140758466D01*
X128077933Y-140710847D01*
X128030314Y-140615609D01*
X128030314Y-140520371D01*
X128649361Y-139806085D02*
X128696980Y-139901323D01*
X128696980Y-140091800D01*
X128649361Y-140187038D01*
X128554123Y-140234657D01*
X128173171Y-140234657D01*
X128077933Y-140187038D01*
X128030314Y-140091800D01*
X128030314Y-139901323D01*
X128077933Y-139806085D01*
X128173171Y-139758466D01*
X128268409Y-139758466D01*
X128363647Y-140234657D01*
X128030314Y-139472752D02*
X128030314Y-139091800D01*
X127696980Y-139329895D02*
X128554123Y-139329895D01*
X128649361Y-139282276D01*
X128696980Y-139187038D01*
X128696980Y-139091800D01*
X128696980Y-138329895D02*
X128173171Y-138329895D01*
X128077933Y-138377514D01*
X128030314Y-138472752D01*
X128030314Y-138663228D01*
X128077933Y-138758466D01*
X128649361Y-138329895D02*
X128696980Y-138425133D01*
X128696980Y-138663228D01*
X128649361Y-138758466D01*
X128554123Y-138806085D01*
X128458885Y-138806085D01*
X128363647Y-138758466D01*
X128316028Y-138663228D01*
X128316028Y-138425133D01*
X128268409Y-138329895D01*
X128030314Y-137853704D02*
X129030314Y-137853704D01*
X128077933Y-137853704D02*
X128030314Y-137758466D01*
X128030314Y-137567990D01*
X128077933Y-137472752D01*
X128125552Y-137425133D01*
X128220790Y-137377514D01*
X128506504Y-137377514D01*
X128601742Y-137425133D01*
X128649361Y-137472752D01*
X128696980Y-137567990D01*
X128696980Y-137758466D01*
X128649361Y-137853704D01*
X127792219Y-136234657D02*
X127744600Y-136187038D01*
X127696980Y-136091800D01*
X127696980Y-135853704D01*
X127744600Y-135758466D01*
X127792219Y-135710847D01*
X127887457Y-135663228D01*
X127982695Y-135663228D01*
X128125552Y-135710847D01*
X128696980Y-136282276D01*
X128696980Y-135663228D01*
X127696980Y-135044180D02*
X127696980Y-134948942D01*
X127744600Y-134853704D01*
X127792219Y-134806085D01*
X127887457Y-134758466D01*
X128077933Y-134710847D01*
X128316028Y-134710847D01*
X128506504Y-134758466D01*
X128601742Y-134806085D01*
X128649361Y-134853704D01*
X128696980Y-134948942D01*
X128696980Y-135044180D01*
X128649361Y-135139419D01*
X128601742Y-135187038D01*
X128506504Y-135234657D01*
X128316028Y-135282276D01*
X128077933Y-135282276D01*
X127887457Y-135234657D01*
X127792219Y-135187038D01*
X127744600Y-135139419D01*
X127696980Y-135044180D01*
X127792219Y-134329895D02*
X127744600Y-134282276D01*
X127696980Y-134187038D01*
X127696980Y-133948942D01*
X127744600Y-133853704D01*
X127792219Y-133806085D01*
X127887457Y-133758466D01*
X127982695Y-133758466D01*
X128125552Y-133806085D01*
X128696980Y-134377514D01*
X128696980Y-133758466D01*
X127792219Y-133377514D02*
X127744600Y-133329895D01*
X127696980Y-133234657D01*
X127696980Y-132996561D01*
X127744600Y-132901323D01*
X127792219Y-132853704D01*
X127887457Y-132806085D01*
X127982695Y-132806085D01*
X128125552Y-132853704D01*
X128696980Y-133425133D01*
X128696980Y-132806085D01*
X135501571Y-107780580D02*
X135501571Y-106780580D01*
X135882523Y-106780580D01*
X135977761Y-106828200D01*
X136025380Y-106875819D01*
X136073000Y-106971057D01*
X136073000Y-107113914D01*
X136025380Y-107209152D01*
X135977761Y-107256771D01*
X135882523Y-107304390D01*
X135501571Y-107304390D01*
X136644428Y-107780580D02*
X136549190Y-107732961D01*
X136501571Y-107637723D01*
X136501571Y-106780580D01*
X137025380Y-107780580D02*
X137025380Y-107113914D01*
X137025380Y-106780580D02*
X136977761Y-106828200D01*
X137025380Y-106875819D01*
X137073000Y-106828200D01*
X137025380Y-106780580D01*
X137025380Y-106875819D01*
X137501571Y-107113914D02*
X137501571Y-108113914D01*
X137501571Y-107161533D02*
X137596809Y-107113914D01*
X137787285Y-107113914D01*
X137882523Y-107161533D01*
X137930142Y-107209152D01*
X137977761Y-107304390D01*
X137977761Y-107590104D01*
X137930142Y-107685342D01*
X137882523Y-107732961D01*
X137787285Y-107780580D01*
X137596809Y-107780580D01*
X137501571Y-107732961D01*
X139073000Y-106780580D02*
X139311095Y-107780580D01*
X139501571Y-107066295D01*
X139692047Y-107780580D01*
X139930142Y-106780580D01*
X140311095Y-107780580D02*
X140311095Y-107113914D01*
X140311095Y-106780580D02*
X140263476Y-106828200D01*
X140311095Y-106875819D01*
X140358714Y-106828200D01*
X140311095Y-106780580D01*
X140311095Y-106875819D01*
X140787285Y-107399628D02*
X141549190Y-107399628D01*
X142358714Y-107256771D02*
X142025380Y-107256771D01*
X142025380Y-107780580D02*
X142025380Y-106780580D01*
X142501571Y-106780580D01*
X142882523Y-107780580D02*
X142882523Y-107113914D01*
X142882523Y-106780580D02*
X142834904Y-106828200D01*
X142882523Y-106875819D01*
X142930142Y-106828200D01*
X142882523Y-106780580D01*
X142882523Y-106875819D01*
X134453952Y-108763914D02*
X134834904Y-108763914D01*
X134596809Y-109430580D02*
X134596809Y-108573438D01*
X134644428Y-108478200D01*
X134739666Y-108430580D01*
X134834904Y-108430580D01*
X135311095Y-109430580D02*
X135215857Y-109382961D01*
X135168238Y-109335342D01*
X135120619Y-109240104D01*
X135120619Y-108954390D01*
X135168238Y-108859152D01*
X135215857Y-108811533D01*
X135311095Y-108763914D01*
X135453952Y-108763914D01*
X135549190Y-108811533D01*
X135596809Y-108859152D01*
X135644428Y-108954390D01*
X135644428Y-109240104D01*
X135596809Y-109335342D01*
X135549190Y-109382961D01*
X135453952Y-109430580D01*
X135311095Y-109430580D01*
X136073000Y-109430580D02*
X136073000Y-108763914D01*
X136073000Y-108954390D02*
X136120619Y-108859152D01*
X136168238Y-108811533D01*
X136263476Y-108763914D01*
X136358714Y-108763914D01*
X137311095Y-108763914D02*
X137692047Y-108763914D01*
X137453952Y-108430580D02*
X137453952Y-109287723D01*
X137501571Y-109382961D01*
X137596809Y-109430580D01*
X137692047Y-109430580D01*
X138025380Y-109430580D02*
X138025380Y-108430580D01*
X138453952Y-109430580D02*
X138453952Y-108906771D01*
X138406333Y-108811533D01*
X138311095Y-108763914D01*
X138168238Y-108763914D01*
X138073000Y-108811533D01*
X138025380Y-108859152D01*
X139311095Y-109382961D02*
X139215857Y-109430580D01*
X139025380Y-109430580D01*
X138930142Y-109382961D01*
X138882523Y-109287723D01*
X138882523Y-108906771D01*
X138930142Y-108811533D01*
X139025380Y-108763914D01*
X139215857Y-108763914D01*
X139311095Y-108811533D01*
X139358714Y-108906771D01*
X139358714Y-109002009D01*
X138882523Y-109097247D01*
X140501571Y-109144866D02*
X140977761Y-109144866D01*
X140406333Y-109430580D02*
X140739666Y-108430580D01*
X141073000Y-109430580D01*
X141406333Y-109430580D02*
X141406333Y-108763914D01*
X141406333Y-108859152D02*
X141453952Y-108811533D01*
X141549190Y-108763914D01*
X141692047Y-108763914D01*
X141787285Y-108811533D01*
X141834904Y-108906771D01*
X141834904Y-109430580D01*
X141834904Y-108906771D02*
X141882523Y-108811533D01*
X141977761Y-108763914D01*
X142120619Y-108763914D01*
X142215857Y-108811533D01*
X142263476Y-108906771D01*
X142263476Y-109430580D01*
X142739666Y-109430580D02*
X142739666Y-108763914D01*
X142739666Y-108430580D02*
X142692047Y-108478200D01*
X142739666Y-108525819D01*
X142787285Y-108478200D01*
X142739666Y-108430580D01*
X142739666Y-108525819D01*
X143644428Y-108763914D02*
X143644428Y-109573438D01*
X143596809Y-109668676D01*
X143549190Y-109716295D01*
X143453952Y-109763914D01*
X143311095Y-109763914D01*
X143215857Y-109716295D01*
X143644428Y-109382961D02*
X143549190Y-109430580D01*
X143358714Y-109430580D01*
X143263476Y-109382961D01*
X143215857Y-109335342D01*
X143168238Y-109240104D01*
X143168238Y-108954390D01*
X143215857Y-108859152D01*
X143263476Y-108811533D01*
X143358714Y-108763914D01*
X143549190Y-108763914D01*
X143644428Y-108811533D01*
X144549190Y-109430580D02*
X144549190Y-108906771D01*
X144501571Y-108811533D01*
X144406333Y-108763914D01*
X144215857Y-108763914D01*
X144120619Y-108811533D01*
X144549190Y-109382961D02*
X144453952Y-109430580D01*
X144215857Y-109430580D01*
X144120619Y-109382961D01*
X144073000Y-109287723D01*
X144073000Y-109192485D01*
X144120619Y-109097247D01*
X144215857Y-109049628D01*
X144453952Y-109049628D01*
X144549190Y-109002009D01*
X173644276Y-113075980D02*
X173310942Y-112599790D01*
X173072847Y-113075980D02*
X173072847Y-112075980D01*
X173453800Y-112075980D01*
X173549038Y-112123600D01*
X173596657Y-112171219D01*
X173644276Y-112266457D01*
X173644276Y-112409314D01*
X173596657Y-112504552D01*
X173549038Y-112552171D01*
X173453800Y-112599790D01*
X173072847Y-112599790D01*
X174072847Y-112552171D02*
X174406180Y-112552171D01*
X174549038Y-113075980D02*
X174072847Y-113075980D01*
X174072847Y-112075980D01*
X174549038Y-112075980D01*
X174929990Y-113028361D02*
X175072847Y-113075980D01*
X175310942Y-113075980D01*
X175406180Y-113028361D01*
X175453800Y-112980742D01*
X175501419Y-112885504D01*
X175501419Y-112790266D01*
X175453800Y-112695028D01*
X175406180Y-112647409D01*
X175310942Y-112599790D01*
X175120466Y-112552171D01*
X175025228Y-112504552D01*
X174977609Y-112456933D01*
X174929990Y-112361695D01*
X174929990Y-112266457D01*
X174977609Y-112171219D01*
X175025228Y-112123600D01*
X175120466Y-112075980D01*
X175358561Y-112075980D01*
X175501419Y-112123600D01*
X175929990Y-112552171D02*
X176263323Y-112552171D01*
X176406180Y-113075980D02*
X175929990Y-113075980D01*
X175929990Y-112075980D01*
X176406180Y-112075980D01*
X176691895Y-112075980D02*
X177263323Y-112075980D01*
X176977609Y-113075980D02*
X176977609Y-112075980D01*
X177358561Y-113171219D02*
X178120466Y-113171219D01*
X178358561Y-112552171D02*
X178691895Y-112552171D01*
X178834752Y-113075980D02*
X178358561Y-113075980D01*
X178358561Y-112075980D01*
X178834752Y-112075980D01*
X179263323Y-113075980D02*
X179263323Y-112075980D01*
X179834752Y-113075980D01*
X179834752Y-112075980D01*
X128514790Y-112025180D02*
X128038600Y-112025180D01*
X127990980Y-112501371D01*
X128038600Y-112453752D01*
X128133838Y-112406133D01*
X128371933Y-112406133D01*
X128467171Y-112453752D01*
X128514790Y-112501371D01*
X128562409Y-112596609D01*
X128562409Y-112834704D01*
X128514790Y-112929942D01*
X128467171Y-112977561D01*
X128371933Y-113025180D01*
X128133838Y-113025180D01*
X128038600Y-112977561D01*
X127990980Y-112929942D01*
X128848123Y-112025180D02*
X129181457Y-113025180D01*
X129514790Y-112025180D01*
X130610028Y-113025180D02*
X130610028Y-112025180D01*
X130610028Y-112501371D02*
X131181457Y-112501371D01*
X131181457Y-113025180D02*
X131181457Y-112025180D01*
X131610028Y-112739466D02*
X132086219Y-112739466D01*
X131514790Y-113025180D02*
X131848123Y-112025180D01*
X132181457Y-113025180D01*
X133086219Y-112929942D02*
X133038600Y-112977561D01*
X132895742Y-113025180D01*
X132800504Y-113025180D01*
X132657647Y-112977561D01*
X132562409Y-112882323D01*
X132514790Y-112787085D01*
X132467171Y-112596609D01*
X132467171Y-112453752D01*
X132514790Y-112263276D01*
X132562409Y-112168038D01*
X132657647Y-112072800D01*
X132800504Y-112025180D01*
X132895742Y-112025180D01*
X133038600Y-112072800D01*
X133086219Y-112120419D01*
X133514790Y-113025180D02*
X133514790Y-112025180D01*
X134086219Y-113025180D02*
X133657647Y-112453752D01*
X134086219Y-112025180D02*
X133514790Y-112596609D01*
D11*
X134163466Y-104835342D02*
X134830133Y-104835342D01*
X135115847Y-105882961D02*
X134163466Y-105882961D01*
X134163466Y-103882961D01*
X135115847Y-103882961D01*
X135877752Y-105787723D02*
X136163466Y-105882961D01*
X136639657Y-105882961D01*
X136830133Y-105787723D01*
X136925371Y-105692485D01*
X137020609Y-105502009D01*
X137020609Y-105311533D01*
X136925371Y-105121057D01*
X136830133Y-105025819D01*
X136639657Y-104930580D01*
X136258704Y-104835342D01*
X136068228Y-104740104D01*
X135972990Y-104644866D01*
X135877752Y-104454390D01*
X135877752Y-104263914D01*
X135972990Y-104073438D01*
X136068228Y-103978200D01*
X136258704Y-103882961D01*
X136734895Y-103882961D01*
X137020609Y-103978200D01*
X137877752Y-105882961D02*
X137877752Y-103882961D01*
X138639657Y-103882961D01*
X138830133Y-103978200D01*
X138925371Y-104073438D01*
X139020609Y-104263914D01*
X139020609Y-104549628D01*
X138925371Y-104740104D01*
X138830133Y-104835342D01*
X138639657Y-104930580D01*
X137877752Y-104930580D01*
X139687276Y-103882961D02*
X140925371Y-103882961D01*
X140258704Y-104644866D01*
X140544419Y-104644866D01*
X140734895Y-104740104D01*
X140830133Y-104835342D01*
X140925371Y-105025819D01*
X140925371Y-105502009D01*
X140830133Y-105692485D01*
X140734895Y-105787723D01*
X140544419Y-105882961D01*
X139972990Y-105882961D01*
X139782514Y-105787723D01*
X139687276Y-105692485D01*
X141687276Y-104073438D02*
X141782514Y-103978200D01*
X141972990Y-103882961D01*
X142449180Y-103882961D01*
X142639657Y-103978200D01*
X142734895Y-104073438D01*
X142830133Y-104263914D01*
X142830133Y-104454390D01*
X142734895Y-104740104D01*
X141592038Y-105882961D01*
X142830133Y-105882961D01*
X143401561Y-104549628D02*
X144163466Y-104549628D01*
X143687276Y-105882961D02*
X143687276Y-104168676D01*
X143782514Y-103978200D01*
X143972990Y-103882961D01*
X144163466Y-103882961D01*
X144830133Y-105882961D02*
X144830133Y-104549628D01*
X144830133Y-103882961D02*
X144734895Y-103978200D01*
X144830133Y-104073438D01*
X144925371Y-103978200D01*
X144830133Y-103882961D01*
X144830133Y-104073438D01*
D12*
%TO.C,REF\u002A\u002A*%
G36*
X166382744Y-114594318D02*
G01*
X166438201Y-114621968D01*
X166487148Y-114672880D01*
X166500629Y-114691738D01*
X166515314Y-114716415D01*
X166524842Y-114743216D01*
X166530293Y-114778987D01*
X166532747Y-114830569D01*
X166533286Y-114898667D01*
X166530852Y-114991988D01*
X166522394Y-115062057D01*
X166506174Y-115114331D01*
X166480454Y-115154269D01*
X166443497Y-115187329D01*
X166440782Y-115189286D01*
X166404360Y-115209308D01*
X166360502Y-115219215D01*
X166304724Y-115221657D01*
X166214048Y-115221657D01*
X166214010Y-115309683D01*
X166213166Y-115358708D01*
X166208024Y-115387465D01*
X166194587Y-115404711D01*
X166168858Y-115419208D01*
X166162679Y-115422169D01*
X166133764Y-115436048D01*
X166111376Y-115444814D01*
X166094729Y-115445571D01*
X166083036Y-115435423D01*
X166075510Y-115411473D01*
X166071366Y-115370826D01*
X166069815Y-115310586D01*
X166070071Y-115227855D01*
X166071349Y-115119739D01*
X166071748Y-115087400D01*
X166073185Y-114975924D01*
X166074472Y-114903003D01*
X166213971Y-114903003D01*
X166214755Y-114964899D01*
X166218240Y-115005397D01*
X166226124Y-115032108D01*
X166240105Y-115052644D01*
X166249597Y-115062660D01*
X166288404Y-115091967D01*
X166322763Y-115094352D01*
X166358216Y-115070150D01*
X166359114Y-115069257D01*
X166373539Y-115050553D01*
X166382313Y-115025132D01*
X166386739Y-114985984D01*
X166388118Y-114926097D01*
X166388143Y-114912830D01*
X166384812Y-114830301D01*
X166373969Y-114773091D01*
X166354340Y-114738166D01*
X166324650Y-114722494D01*
X166307491Y-114720914D01*
X166266766Y-114728326D01*
X166238832Y-114752730D01*
X166222017Y-114797380D01*
X166214650Y-114865530D01*
X166213971Y-114903003D01*
X166074472Y-114903003D01*
X166074708Y-114889645D01*
X166076677Y-114824733D01*
X166079450Y-114777358D01*
X166083388Y-114743690D01*
X166088849Y-114719898D01*
X166096192Y-114702153D01*
X166105777Y-114686624D01*
X166109887Y-114680781D01*
X166164405Y-114625585D01*
X166233336Y-114594290D01*
X166313072Y-114585565D01*
X166382744Y-114594318D01*
G37*
X166382744Y-114594318D02*
X166438201Y-114621968D01*
X166487148Y-114672880D01*
X166500629Y-114691738D01*
X166515314Y-114716415D01*
X166524842Y-114743216D01*
X166530293Y-114778987D01*
X166532747Y-114830569D01*
X166533286Y-114898667D01*
X166530852Y-114991988D01*
X166522394Y-115062057D01*
X166506174Y-115114331D01*
X166480454Y-115154269D01*
X166443497Y-115187329D01*
X166440782Y-115189286D01*
X166404360Y-115209308D01*
X166360502Y-115219215D01*
X166304724Y-115221657D01*
X166214048Y-115221657D01*
X166214010Y-115309683D01*
X166213166Y-115358708D01*
X166208024Y-115387465D01*
X166194587Y-115404711D01*
X166168858Y-115419208D01*
X166162679Y-115422169D01*
X166133764Y-115436048D01*
X166111376Y-115444814D01*
X166094729Y-115445571D01*
X166083036Y-115435423D01*
X166075510Y-115411473D01*
X166071366Y-115370826D01*
X166069815Y-115310586D01*
X166070071Y-115227855D01*
X166071349Y-115119739D01*
X166071748Y-115087400D01*
X166073185Y-114975924D01*
X166074472Y-114903003D01*
X166213971Y-114903003D01*
X166214755Y-114964899D01*
X166218240Y-115005397D01*
X166226124Y-115032108D01*
X166240105Y-115052644D01*
X166249597Y-115062660D01*
X166288404Y-115091967D01*
X166322763Y-115094352D01*
X166358216Y-115070150D01*
X166359114Y-115069257D01*
X166373539Y-115050553D01*
X166382313Y-115025132D01*
X166386739Y-114985984D01*
X166388118Y-114926097D01*
X166388143Y-114912830D01*
X166384812Y-114830301D01*
X166373969Y-114773091D01*
X166354340Y-114738166D01*
X166324650Y-114722494D01*
X166307491Y-114720914D01*
X166266766Y-114728326D01*
X166238832Y-114752730D01*
X166222017Y-114797380D01*
X166214650Y-114865530D01*
X166213971Y-114903003D01*
X166074472Y-114903003D01*
X166074708Y-114889645D01*
X166076677Y-114824733D01*
X166079450Y-114777358D01*
X166083388Y-114743690D01*
X166088849Y-114719898D01*
X166096192Y-114702153D01*
X166105777Y-114686624D01*
X166109887Y-114680781D01*
X166164405Y-114625585D01*
X166233336Y-114594290D01*
X166313072Y-114585565D01*
X166382744Y-114594318D01*
G36*
X167499093Y-114602180D02*
G01*
X167545672Y-114629123D01*
X167578057Y-114655866D01*
X167601742Y-114683884D01*
X167618059Y-114718148D01*
X167628339Y-114763627D01*
X167633914Y-114825292D01*
X167636116Y-114908111D01*
X167636371Y-114967646D01*
X167636371Y-115186791D01*
X167574686Y-115214444D01*
X167513000Y-115242097D01*
X167505743Y-115002070D01*
X167502744Y-114912428D01*
X167499598Y-114847362D01*
X167495701Y-114802426D01*
X167490447Y-114773170D01*
X167483231Y-114755148D01*
X167473450Y-114743911D01*
X167470312Y-114741479D01*
X167422761Y-114722483D01*
X167374697Y-114730000D01*
X167346086Y-114749943D01*
X167334447Y-114764075D01*
X167326391Y-114782620D01*
X167321271Y-114810734D01*
X167318441Y-114853573D01*
X167317256Y-114916295D01*
X167317057Y-114981661D01*
X167317018Y-115063668D01*
X167315614Y-115121716D01*
X167310914Y-115160865D01*
X167300987Y-115186180D01*
X167283903Y-115202723D01*
X167257732Y-115215556D01*
X167222775Y-115228891D01*
X167184596Y-115243407D01*
X167189141Y-114985789D01*
X167190971Y-114892919D01*
X167193112Y-114824289D01*
X167196181Y-114775111D01*
X167200794Y-114740598D01*
X167207568Y-114715962D01*
X167217119Y-114696416D01*
X167228634Y-114679170D01*
X167284190Y-114624080D01*
X167351980Y-114592222D01*
X167425713Y-114584591D01*
X167499093Y-114602180D01*
G37*
X167499093Y-114602180D02*
X167545672Y-114629123D01*
X167578057Y-114655866D01*
X167601742Y-114683884D01*
X167618059Y-114718148D01*
X167628339Y-114763627D01*
X167633914Y-114825292D01*
X167636116Y-114908111D01*
X167636371Y-114967646D01*
X167636371Y-115186791D01*
X167574686Y-115214444D01*
X167513000Y-115242097D01*
X167505743Y-115002070D01*
X167502744Y-114912428D01*
X167499598Y-114847362D01*
X167495701Y-114802426D01*
X167490447Y-114773170D01*
X167483231Y-114755148D01*
X167473450Y-114743911D01*
X167470312Y-114741479D01*
X167422761Y-114722483D01*
X167374697Y-114730000D01*
X167346086Y-114749943D01*
X167334447Y-114764075D01*
X167326391Y-114782620D01*
X167321271Y-114810734D01*
X167318441Y-114853573D01*
X167317256Y-114916295D01*
X167317057Y-114981661D01*
X167317018Y-115063668D01*
X167315614Y-115121716D01*
X167310914Y-115160865D01*
X167300987Y-115186180D01*
X167283903Y-115202723D01*
X167257732Y-115215556D01*
X167222775Y-115228891D01*
X167184596Y-115243407D01*
X167189141Y-114985789D01*
X167190971Y-114892919D01*
X167193112Y-114824289D01*
X167196181Y-114775111D01*
X167200794Y-114740598D01*
X167207568Y-114715962D01*
X167217119Y-114696416D01*
X167228634Y-114679170D01*
X167284190Y-114624080D01*
X167351980Y-114592222D01*
X167425713Y-114584591D01*
X167499093Y-114602180D01*
G36*
X165824115Y-114596362D02*
G01*
X165892145Y-114632133D01*
X165942351Y-114689701D01*
X165960185Y-114726712D01*
X165974063Y-114782282D01*
X165981167Y-114852496D01*
X165981840Y-114929127D01*
X165976427Y-115003952D01*
X165965270Y-115068742D01*
X165948714Y-115115273D01*
X165943626Y-115123287D01*
X165883355Y-115183107D01*
X165811769Y-115218935D01*
X165734092Y-115229420D01*
X165655548Y-115213210D01*
X165633689Y-115203492D01*
X165591122Y-115173543D01*
X165553763Y-115133833D01*
X165550232Y-115128797D01*
X165535881Y-115104524D01*
X165526394Y-115078578D01*
X165520790Y-115044422D01*
X165518086Y-114995519D01*
X165517299Y-114925335D01*
X165517286Y-114909600D01*
X165517322Y-114904592D01*
X165662429Y-114904592D01*
X165663273Y-114970830D01*
X165666596Y-115014786D01*
X165673583Y-115043179D01*
X165685416Y-115062725D01*
X165691457Y-115069257D01*
X165726186Y-115094080D01*
X165759903Y-115092948D01*
X165793995Y-115071416D01*
X165814329Y-115048429D01*
X165826371Y-115014878D01*
X165833134Y-114961969D01*
X165833598Y-114955799D01*
X165834752Y-114859913D01*
X165822688Y-114788699D01*
X165797570Y-114742594D01*
X165759560Y-114722035D01*
X165745992Y-114720914D01*
X165710364Y-114726552D01*
X165685994Y-114746086D01*
X165671093Y-114783442D01*
X165663875Y-114842550D01*
X165662429Y-114904592D01*
X165517322Y-114904592D01*
X165517826Y-114834813D01*
X165520096Y-114782559D01*
X165525068Y-114746349D01*
X165533713Y-114719699D01*
X165547005Y-114696122D01*
X165549943Y-114691738D01*
X165599313Y-114632649D01*
X165653109Y-114598347D01*
X165718602Y-114584731D01*
X165740842Y-114584065D01*
X165824115Y-114596362D01*
G37*
X165824115Y-114596362D02*
X165892145Y-114632133D01*
X165942351Y-114689701D01*
X165960185Y-114726712D01*
X165974063Y-114782282D01*
X165981167Y-114852496D01*
X165981840Y-114929127D01*
X165976427Y-115003952D01*
X165965270Y-115068742D01*
X165948714Y-115115273D01*
X165943626Y-115123287D01*
X165883355Y-115183107D01*
X165811769Y-115218935D01*
X165734092Y-115229420D01*
X165655548Y-115213210D01*
X165633689Y-115203492D01*
X165591122Y-115173543D01*
X165553763Y-115133833D01*
X165550232Y-115128797D01*
X165535881Y-115104524D01*
X165526394Y-115078578D01*
X165520790Y-115044422D01*
X165518086Y-114995519D01*
X165517299Y-114925335D01*
X165517286Y-114909600D01*
X165517322Y-114904592D01*
X165662429Y-114904592D01*
X165663273Y-114970830D01*
X165666596Y-115014786D01*
X165673583Y-115043179D01*
X165685416Y-115062725D01*
X165691457Y-115069257D01*
X165726186Y-115094080D01*
X165759903Y-115092948D01*
X165793995Y-115071416D01*
X165814329Y-115048429D01*
X165826371Y-115014878D01*
X165833134Y-114961969D01*
X165833598Y-114955799D01*
X165834752Y-114859913D01*
X165822688Y-114788699D01*
X165797570Y-114742594D01*
X165759560Y-114722035D01*
X165745992Y-114720914D01*
X165710364Y-114726552D01*
X165685994Y-114746086D01*
X165671093Y-114783442D01*
X165663875Y-114842550D01*
X165662429Y-114904592D01*
X165517322Y-114904592D01*
X165517826Y-114834813D01*
X165520096Y-114782559D01*
X165525068Y-114746349D01*
X165533713Y-114719699D01*
X165547005Y-114696122D01*
X165549943Y-114691738D01*
X165599313Y-114632649D01*
X165653109Y-114598347D01*
X165718602Y-114584731D01*
X165740842Y-114584065D01*
X165824115Y-114596362D01*
G36*
X166951303Y-114605639D02*
G01*
X167008527Y-114644135D01*
X167052749Y-114699735D01*
X167079167Y-114770486D01*
X167084510Y-114822562D01*
X167083903Y-114844293D01*
X167078822Y-114860931D01*
X167064855Y-114875837D01*
X167037589Y-114892373D01*
X166992612Y-114913898D01*
X166925511Y-114943774D01*
X166925171Y-114943924D01*
X166863407Y-114972213D01*
X166812759Y-114997333D01*
X166778404Y-115016579D01*
X166765518Y-115027248D01*
X166765514Y-115027334D01*
X166776872Y-115050566D01*
X166803431Y-115076174D01*
X166833923Y-115094621D01*
X166849370Y-115098286D01*
X166891515Y-115085612D01*
X166927808Y-115053871D01*
X166945517Y-115018972D01*
X166962552Y-114993245D01*
X166995922Y-114963946D01*
X167035149Y-114938635D01*
X167069756Y-114924871D01*
X167076993Y-114924114D01*
X167085139Y-114936560D01*
X167085630Y-114968372D01*
X167079643Y-115011266D01*
X167068357Y-115056958D01*
X167052950Y-115097161D01*
X167052171Y-115098722D01*
X167005804Y-115163462D01*
X166945711Y-115207497D01*
X166877465Y-115229111D01*
X166806638Y-115226585D01*
X166738804Y-115198204D01*
X166735788Y-115196208D01*
X166682427Y-115147848D01*
X166647340Y-115084752D01*
X166627922Y-115001787D01*
X166625316Y-114978478D01*
X166620701Y-114868455D01*
X166626233Y-114817148D01*
X166765514Y-114817148D01*
X166767324Y-114849153D01*
X166777222Y-114858493D01*
X166801898Y-114851505D01*
X166840795Y-114834987D01*
X166884275Y-114814281D01*
X166885356Y-114813733D01*
X166922209Y-114794349D01*
X166937000Y-114781413D01*
X166933353Y-114767851D01*
X166917995Y-114750032D01*
X166878923Y-114724245D01*
X166836846Y-114722350D01*
X166799103Y-114741117D01*
X166773034Y-114777315D01*
X166765514Y-114817148D01*
X166626233Y-114817148D01*
X166630194Y-114780427D01*
X166654550Y-114710612D01*
X166688456Y-114661702D01*
X166749653Y-114612278D01*
X166817063Y-114587759D01*
X166885880Y-114586197D01*
X166951303Y-114605639D01*
G37*
X166951303Y-114605639D02*
X167008527Y-114644135D01*
X167052749Y-114699735D01*
X167079167Y-114770486D01*
X167084510Y-114822562D01*
X167083903Y-114844293D01*
X167078822Y-114860931D01*
X167064855Y-114875837D01*
X167037589Y-114892373D01*
X166992612Y-114913898D01*
X166925511Y-114943774D01*
X166925171Y-114943924D01*
X166863407Y-114972213D01*
X166812759Y-114997333D01*
X166778404Y-115016579D01*
X166765518Y-115027248D01*
X166765514Y-115027334D01*
X166776872Y-115050566D01*
X166803431Y-115076174D01*
X166833923Y-115094621D01*
X166849370Y-115098286D01*
X166891515Y-115085612D01*
X166927808Y-115053871D01*
X166945517Y-115018972D01*
X166962552Y-114993245D01*
X166995922Y-114963946D01*
X167035149Y-114938635D01*
X167069756Y-114924871D01*
X167076993Y-114924114D01*
X167085139Y-114936560D01*
X167085630Y-114968372D01*
X167079643Y-115011266D01*
X167068357Y-115056958D01*
X167052950Y-115097161D01*
X167052171Y-115098722D01*
X167005804Y-115163462D01*
X166945711Y-115207497D01*
X166877465Y-115229111D01*
X166806638Y-115226585D01*
X166738804Y-115198204D01*
X166735788Y-115196208D01*
X166682427Y-115147848D01*
X166647340Y-115084752D01*
X166627922Y-115001787D01*
X166625316Y-114978478D01*
X166620701Y-114868455D01*
X166626233Y-114817148D01*
X166765514Y-114817148D01*
X166767324Y-114849153D01*
X166777222Y-114858493D01*
X166801898Y-114851505D01*
X166840795Y-114834987D01*
X166884275Y-114814281D01*
X166885356Y-114813733D01*
X166922209Y-114794349D01*
X166937000Y-114781413D01*
X166933353Y-114767851D01*
X166917995Y-114750032D01*
X166878923Y-114724245D01*
X166836846Y-114722350D01*
X166799103Y-114741117D01*
X166773034Y-114777315D01*
X166765514Y-114817148D01*
X166626233Y-114817148D01*
X166630194Y-114780427D01*
X166654550Y-114710612D01*
X166688456Y-114661702D01*
X166749653Y-114612278D01*
X166817063Y-114587759D01*
X166885880Y-114586197D01*
X166951303Y-114605639D01*
G36*
X168158886Y-114525689D02*
G01*
X168163139Y-114585013D01*
X168168025Y-114619972D01*
X168174795Y-114635220D01*
X168184702Y-114635415D01*
X168187914Y-114633595D01*
X168230644Y-114620415D01*
X168286227Y-114621185D01*
X168342737Y-114634733D01*
X168378082Y-114652261D01*
X168414321Y-114680261D01*
X168440813Y-114711949D01*
X168458999Y-114752213D01*
X168470322Y-114805943D01*
X168476222Y-114878026D01*
X168478143Y-114973351D01*
X168478177Y-114991637D01*
X168478200Y-115197046D01*
X168432491Y-115212980D01*
X168400027Y-115223820D01*
X168382215Y-115228868D01*
X168381691Y-115228914D01*
X168379937Y-115215228D01*
X168378444Y-115177476D01*
X168377326Y-115120624D01*
X168376697Y-115049634D01*
X168376600Y-115006473D01*
X168376398Y-114921373D01*
X168375358Y-114860381D01*
X168372831Y-114818577D01*
X168368164Y-114791042D01*
X168360707Y-114772856D01*
X168349811Y-114759098D01*
X168343007Y-114752473D01*
X168296272Y-114725775D01*
X168245272Y-114723775D01*
X168199001Y-114746355D01*
X168190444Y-114754507D01*
X168177893Y-114769836D01*
X168169188Y-114788018D01*
X168163631Y-114814309D01*
X168160526Y-114853962D01*
X168159176Y-114912232D01*
X168158886Y-114992573D01*
X168158886Y-115197046D01*
X168113177Y-115212980D01*
X168080713Y-115223820D01*
X168062901Y-115228868D01*
X168062377Y-115228914D01*
X168061037Y-115215023D01*
X168059828Y-115175839D01*
X168058801Y-115115100D01*
X168058002Y-115036541D01*
X168057481Y-114943898D01*
X168057286Y-114840909D01*
X168057286Y-114443742D01*
X168104457Y-114423844D01*
X168151629Y-114403947D01*
X168158886Y-114525689D01*
G37*
X168158886Y-114525689D02*
X168163139Y-114585013D01*
X168168025Y-114619972D01*
X168174795Y-114635220D01*
X168184702Y-114635415D01*
X168187914Y-114633595D01*
X168230644Y-114620415D01*
X168286227Y-114621185D01*
X168342737Y-114634733D01*
X168378082Y-114652261D01*
X168414321Y-114680261D01*
X168440813Y-114711949D01*
X168458999Y-114752213D01*
X168470322Y-114805943D01*
X168476222Y-114878026D01*
X168478143Y-114973351D01*
X168478177Y-114991637D01*
X168478200Y-115197046D01*
X168432491Y-115212980D01*
X168400027Y-115223820D01*
X168382215Y-115228868D01*
X168381691Y-115228914D01*
X168379937Y-115215228D01*
X168378444Y-115177476D01*
X168377326Y-115120624D01*
X168376697Y-115049634D01*
X168376600Y-115006473D01*
X168376398Y-114921373D01*
X168375358Y-114860381D01*
X168372831Y-114818577D01*
X168368164Y-114791042D01*
X168360707Y-114772856D01*
X168349811Y-114759098D01*
X168343007Y-114752473D01*
X168296272Y-114725775D01*
X168245272Y-114723775D01*
X168199001Y-114746355D01*
X168190444Y-114754507D01*
X168177893Y-114769836D01*
X168169188Y-114788018D01*
X168163631Y-114814309D01*
X168160526Y-114853962D01*
X168159176Y-114912232D01*
X168158886Y-114992573D01*
X168158886Y-115197046D01*
X168113177Y-115212980D01*
X168080713Y-115223820D01*
X168062901Y-115228868D01*
X168062377Y-115228914D01*
X168061037Y-115215023D01*
X168059828Y-115175839D01*
X168058801Y-115115100D01*
X168058002Y-115036541D01*
X168057481Y-114943898D01*
X168057286Y-114840909D01*
X168057286Y-114443742D01*
X168104457Y-114423844D01*
X168151629Y-114403947D01*
X168158886Y-114525689D01*
G36*
X168822744Y-114625368D02*
G01*
X168879616Y-114646487D01*
X168880267Y-114646893D01*
X168915440Y-114672780D01*
X168941407Y-114703033D01*
X168959670Y-114742458D01*
X168971732Y-114795862D01*
X168979096Y-114868051D01*
X168983264Y-114963832D01*
X168983629Y-114977478D01*
X168988876Y-115183242D01*
X168944716Y-115206078D01*
X168912763Y-115221510D01*
X168893470Y-115228823D01*
X168892578Y-115228914D01*
X168889239Y-115215422D01*
X168886587Y-115179026D01*
X168884956Y-115125852D01*
X168884600Y-115082793D01*
X168884592Y-115013041D01*
X168881403Y-114969237D01*
X168870288Y-114948344D01*
X168846501Y-114947325D01*
X168805296Y-114963141D01*
X168743086Y-114992215D01*
X168697341Y-115016363D01*
X168673813Y-115037313D01*
X168666896Y-115060147D01*
X168666886Y-115061277D01*
X168678299Y-115100612D01*
X168712092Y-115121862D01*
X168763809Y-115124939D01*
X168801061Y-115124406D01*
X168820703Y-115135135D01*
X168832952Y-115160905D01*
X168840002Y-115193737D01*
X168829842Y-115212366D01*
X168826017Y-115215032D01*
X168790001Y-115225740D01*
X168739566Y-115227256D01*
X168687626Y-115220159D01*
X168650822Y-115207188D01*
X168599938Y-115163985D01*
X168571014Y-115103846D01*
X168565286Y-115056862D01*
X168569657Y-115014482D01*
X168585475Y-114979888D01*
X168616797Y-114949163D01*
X168667678Y-114918390D01*
X168742176Y-114883652D01*
X168746714Y-114881688D01*
X168813821Y-114850687D01*
X168855232Y-114825262D01*
X168872981Y-114802414D01*
X168869107Y-114779145D01*
X168845643Y-114752456D01*
X168838627Y-114746314D01*
X168791630Y-114722500D01*
X168742933Y-114723503D01*
X168700522Y-114746851D01*
X168672384Y-114790075D01*
X168669769Y-114798560D01*
X168644308Y-114839708D01*
X168612001Y-114859528D01*
X168565286Y-114879170D01*
X168565286Y-114828350D01*
X168579496Y-114754482D01*
X168621675Y-114686727D01*
X168643624Y-114664061D01*
X168693517Y-114634969D01*
X168756967Y-114621800D01*
X168822744Y-114625368D01*
G37*
X168822744Y-114625368D02*
X168879616Y-114646487D01*
X168880267Y-114646893D01*
X168915440Y-114672780D01*
X168941407Y-114703033D01*
X168959670Y-114742458D01*
X168971732Y-114795862D01*
X168979096Y-114868051D01*
X168983264Y-114963832D01*
X168983629Y-114977478D01*
X168988876Y-115183242D01*
X168944716Y-115206078D01*
X168912763Y-115221510D01*
X168893470Y-115228823D01*
X168892578Y-115228914D01*
X168889239Y-115215422D01*
X168886587Y-115179026D01*
X168884956Y-115125852D01*
X168884600Y-115082793D01*
X168884592Y-115013041D01*
X168881403Y-114969237D01*
X168870288Y-114948344D01*
X168846501Y-114947325D01*
X168805296Y-114963141D01*
X168743086Y-114992215D01*
X168697341Y-115016363D01*
X168673813Y-115037313D01*
X168666896Y-115060147D01*
X168666886Y-115061277D01*
X168678299Y-115100612D01*
X168712092Y-115121862D01*
X168763809Y-115124939D01*
X168801061Y-115124406D01*
X168820703Y-115135135D01*
X168832952Y-115160905D01*
X168840002Y-115193737D01*
X168829842Y-115212366D01*
X168826017Y-115215032D01*
X168790001Y-115225740D01*
X168739566Y-115227256D01*
X168687626Y-115220159D01*
X168650822Y-115207188D01*
X168599938Y-115163985D01*
X168571014Y-115103846D01*
X168565286Y-115056862D01*
X168569657Y-115014482D01*
X168585475Y-114979888D01*
X168616797Y-114949163D01*
X168667678Y-114918390D01*
X168742176Y-114883652D01*
X168746714Y-114881688D01*
X168813821Y-114850687D01*
X168855232Y-114825262D01*
X168872981Y-114802414D01*
X168869107Y-114779145D01*
X168845643Y-114752456D01*
X168838627Y-114746314D01*
X168791630Y-114722500D01*
X168742933Y-114723503D01*
X168700522Y-114746851D01*
X168672384Y-114790075D01*
X168669769Y-114798560D01*
X168644308Y-114839708D01*
X168612001Y-114859528D01*
X168565286Y-114879170D01*
X168565286Y-114828350D01*
X168579496Y-114754482D01*
X168621675Y-114686727D01*
X168643624Y-114664061D01*
X168693517Y-114634969D01*
X168756967Y-114621800D01*
X168822744Y-114625368D01*
G36*
X169312926Y-114624155D02*
G01*
X169378858Y-114648484D01*
X169432273Y-114691517D01*
X169453164Y-114721809D01*
X169475939Y-114777394D01*
X169475466Y-114817586D01*
X169451562Y-114844617D01*
X169442717Y-114849213D01*
X169404530Y-114863544D01*
X169385028Y-114859872D01*
X169378422Y-114835807D01*
X169378086Y-114822514D01*
X169365992Y-114773610D01*
X169334471Y-114739399D01*
X169290659Y-114722876D01*
X169241695Y-114727034D01*
X169201894Y-114748627D01*
X169188450Y-114760944D01*
X169178921Y-114775887D01*
X169172485Y-114798475D01*
X169168317Y-114833728D01*
X169165597Y-114886666D01*
X169163502Y-114962307D01*
X169162960Y-114986257D01*
X169160981Y-115068190D01*
X169158731Y-115125855D01*
X169155357Y-115164008D01*
X169150006Y-115187404D01*
X169141824Y-115200798D01*
X169129959Y-115208945D01*
X169122362Y-115212544D01*
X169090102Y-115224852D01*
X169071111Y-115228914D01*
X169064836Y-115215348D01*
X169061006Y-115174334D01*
X169059600Y-115105399D01*
X169060598Y-115008069D01*
X169060908Y-114993057D01*
X169063101Y-114904259D01*
X169065693Y-114839419D01*
X169069382Y-114793467D01*
X169074864Y-114761335D01*
X169082835Y-114737953D01*
X169093993Y-114718252D01*
X169099830Y-114709810D01*
X169133296Y-114672457D01*
X169170727Y-114643403D01*
X169175309Y-114640867D01*
X169242426Y-114620843D01*
X169312926Y-114624155D01*
G37*
X169312926Y-114624155D02*
X169378858Y-114648484D01*
X169432273Y-114691517D01*
X169453164Y-114721809D01*
X169475939Y-114777394D01*
X169475466Y-114817586D01*
X169451562Y-114844617D01*
X169442717Y-114849213D01*
X169404530Y-114863544D01*
X169385028Y-114859872D01*
X169378422Y-114835807D01*
X169378086Y-114822514D01*
X169365992Y-114773610D01*
X169334471Y-114739399D01*
X169290659Y-114722876D01*
X169241695Y-114727034D01*
X169201894Y-114748627D01*
X169188450Y-114760944D01*
X169178921Y-114775887D01*
X169172485Y-114798475D01*
X169168317Y-114833728D01*
X169165597Y-114886666D01*
X169163502Y-114962307D01*
X169162960Y-114986257D01*
X169160981Y-115068190D01*
X169158731Y-115125855D01*
X169155357Y-115164008D01*
X169150006Y-115187404D01*
X169141824Y-115200798D01*
X169129959Y-115208945D01*
X169122362Y-115212544D01*
X169090102Y-115224852D01*
X169071111Y-115228914D01*
X169064836Y-115215348D01*
X169061006Y-115174334D01*
X169059600Y-115105399D01*
X169060598Y-115008069D01*
X169060908Y-114993057D01*
X169063101Y-114904259D01*
X169065693Y-114839419D01*
X169069382Y-114793467D01*
X169074864Y-114761335D01*
X169082835Y-114737953D01*
X169093993Y-114718252D01*
X169099830Y-114709810D01*
X169133296Y-114672457D01*
X169170727Y-114643403D01*
X169175309Y-114640867D01*
X169242426Y-114620843D01*
X169312926Y-114624155D01*
G36*
X169973117Y-114739758D02*
G01*
X169972933Y-114848237D01*
X169972219Y-114931687D01*
X169970675Y-114994104D01*
X169968001Y-115039485D01*
X169963894Y-115071829D01*
X169958055Y-115095133D01*
X169950182Y-115113395D01*
X169944221Y-115123818D01*
X169894855Y-115180345D01*
X169832264Y-115215777D01*
X169763013Y-115228490D01*
X169693668Y-115216863D01*
X169652375Y-115195968D01*
X169609025Y-115159822D01*
X169579481Y-115115676D01*
X169561655Y-115057862D01*
X169553463Y-114980713D01*
X169552302Y-114924114D01*
X169552458Y-114920047D01*
X169653857Y-114920047D01*
X169654476Y-114984950D01*
X169657314Y-115027914D01*
X169663840Y-115056022D01*
X169675523Y-115076353D01*
X169689483Y-115091688D01*
X169736365Y-115121290D01*
X169786701Y-115123819D01*
X169834276Y-115099105D01*
X169837979Y-115095756D01*
X169853783Y-115078335D01*
X169863693Y-115057609D01*
X169869058Y-115026762D01*
X169871228Y-114978977D01*
X169871571Y-114926148D01*
X169870827Y-114859781D01*
X169867748Y-114815506D01*
X169861061Y-114786409D01*
X169849496Y-114765573D01*
X169840013Y-114754507D01*
X169795960Y-114726598D01*
X169745224Y-114723243D01*
X169696796Y-114744559D01*
X169687450Y-114752473D01*
X169671540Y-114770047D01*
X169661610Y-114790987D01*
X169656278Y-114822182D01*
X169654163Y-114870522D01*
X169653857Y-114920047D01*
X169552458Y-114920047D01*
X169555810Y-114832968D01*
X169567726Y-114764486D01*
X169590135Y-114713000D01*
X169625124Y-114672843D01*
X169652375Y-114652261D01*
X169701907Y-114630025D01*
X169759316Y-114619704D01*
X169812682Y-114622467D01*
X169842543Y-114633612D01*
X169854261Y-114636783D01*
X169862037Y-114624957D01*
X169867465Y-114593266D01*
X169871571Y-114544993D01*
X169876067Y-114491229D01*
X169882313Y-114458882D01*
X169893676Y-114440385D01*
X169913528Y-114428170D01*
X169926000Y-114422762D01*
X169973171Y-114403001D01*
X169973117Y-114739758D01*
G37*
X169973117Y-114739758D02*
X169972933Y-114848237D01*
X169972219Y-114931687D01*
X169970675Y-114994104D01*
X169968001Y-115039485D01*
X169963894Y-115071829D01*
X169958055Y-115095133D01*
X169950182Y-115113395D01*
X169944221Y-115123818D01*
X169894855Y-115180345D01*
X169832264Y-115215777D01*
X169763013Y-115228490D01*
X169693668Y-115216863D01*
X169652375Y-115195968D01*
X169609025Y-115159822D01*
X169579481Y-115115676D01*
X169561655Y-115057862D01*
X169553463Y-114980713D01*
X169552302Y-114924114D01*
X169552458Y-114920047D01*
X169653857Y-114920047D01*
X169654476Y-114984950D01*
X169657314Y-115027914D01*
X169663840Y-115056022D01*
X169675523Y-115076353D01*
X169689483Y-115091688D01*
X169736365Y-115121290D01*
X169786701Y-115123819D01*
X169834276Y-115099105D01*
X169837979Y-115095756D01*
X169853783Y-115078335D01*
X169863693Y-115057609D01*
X169869058Y-115026762D01*
X169871228Y-114978977D01*
X169871571Y-114926148D01*
X169870827Y-114859781D01*
X169867748Y-114815506D01*
X169861061Y-114786409D01*
X169849496Y-114765573D01*
X169840013Y-114754507D01*
X169795960Y-114726598D01*
X169745224Y-114723243D01*
X169696796Y-114744559D01*
X169687450Y-114752473D01*
X169671540Y-114770047D01*
X169661610Y-114790987D01*
X169656278Y-114822182D01*
X169654163Y-114870522D01*
X169653857Y-114920047D01*
X169552458Y-114920047D01*
X169555810Y-114832968D01*
X169567726Y-114764486D01*
X169590135Y-114713000D01*
X169625124Y-114672843D01*
X169652375Y-114652261D01*
X169701907Y-114630025D01*
X169759316Y-114619704D01*
X169812682Y-114622467D01*
X169842543Y-114633612D01*
X169854261Y-114636783D01*
X169862037Y-114624957D01*
X169867465Y-114593266D01*
X169871571Y-114544993D01*
X169876067Y-114491229D01*
X169882313Y-114458882D01*
X169893676Y-114440385D01*
X169913528Y-114428170D01*
X169926000Y-114422762D01*
X169973171Y-114403001D01*
X169973117Y-114739758D01*
G36*
X170562833Y-114633063D02*
G01*
X170565048Y-114671250D01*
X170566784Y-114729286D01*
X170567899Y-114802580D01*
X170568257Y-114879455D01*
X170568257Y-115139596D01*
X170522326Y-115185527D01*
X170490675Y-115213829D01*
X170462890Y-115225293D01*
X170424915Y-115224568D01*
X170409840Y-115222721D01*
X170362726Y-115217348D01*
X170323756Y-115214269D01*
X170314257Y-115213985D01*
X170282233Y-115215845D01*
X170236432Y-115220514D01*
X170218674Y-115222721D01*
X170175057Y-115226135D01*
X170145745Y-115218720D01*
X170116680Y-115195827D01*
X170106188Y-115185527D01*
X170060257Y-115139596D01*
X170060257Y-114653002D01*
X170097226Y-114636158D01*
X170129059Y-114623682D01*
X170147683Y-114619314D01*
X170152458Y-114633118D01*
X170156921Y-114671686D01*
X170160775Y-114730756D01*
X170163722Y-114806063D01*
X170165143Y-114869686D01*
X170169114Y-115120057D01*
X170203759Y-115124956D01*
X170235268Y-115121531D01*
X170250708Y-115110441D01*
X170255023Y-115089708D01*
X170258708Y-115045545D01*
X170261469Y-114983546D01*
X170263012Y-114909309D01*
X170263235Y-114871106D01*
X170263457Y-114651183D01*
X170309166Y-114635249D01*
X170341518Y-114624415D01*
X170359115Y-114619362D01*
X170359623Y-114619314D01*
X170361388Y-114633048D01*
X170363329Y-114671130D01*
X170365282Y-114728882D01*
X170367084Y-114801627D01*
X170368343Y-114869686D01*
X170372314Y-115120057D01*
X170459400Y-115120057D01*
X170463396Y-114891640D01*
X170467392Y-114663222D01*
X170509847Y-114641268D01*
X170541192Y-114626193D01*
X170559744Y-114619351D01*
X170560279Y-114619314D01*
X170562833Y-114633063D01*
G37*
X170562833Y-114633063D02*
X170565048Y-114671250D01*
X170566784Y-114729286D01*
X170567899Y-114802580D01*
X170568257Y-114879455D01*
X170568257Y-115139596D01*
X170522326Y-115185527D01*
X170490675Y-115213829D01*
X170462890Y-115225293D01*
X170424915Y-115224568D01*
X170409840Y-115222721D01*
X170362726Y-115217348D01*
X170323756Y-115214269D01*
X170314257Y-115213985D01*
X170282233Y-115215845D01*
X170236432Y-115220514D01*
X170218674Y-115222721D01*
X170175057Y-115226135D01*
X170145745Y-115218720D01*
X170116680Y-115195827D01*
X170106188Y-115185527D01*
X170060257Y-115139596D01*
X170060257Y-114653002D01*
X170097226Y-114636158D01*
X170129059Y-114623682D01*
X170147683Y-114619314D01*
X170152458Y-114633118D01*
X170156921Y-114671686D01*
X170160775Y-114730756D01*
X170163722Y-114806063D01*
X170165143Y-114869686D01*
X170169114Y-115120057D01*
X170203759Y-115124956D01*
X170235268Y-115121531D01*
X170250708Y-115110441D01*
X170255023Y-115089708D01*
X170258708Y-115045545D01*
X170261469Y-114983546D01*
X170263012Y-114909309D01*
X170263235Y-114871106D01*
X170263457Y-114651183D01*
X170309166Y-114635249D01*
X170341518Y-114624415D01*
X170359115Y-114619362D01*
X170359623Y-114619314D01*
X170361388Y-114633048D01*
X170363329Y-114671130D01*
X170365282Y-114728882D01*
X170367084Y-114801627D01*
X170368343Y-114869686D01*
X170372314Y-115120057D01*
X170459400Y-115120057D01*
X170463396Y-114891640D01*
X170467392Y-114663222D01*
X170509847Y-114641268D01*
X170541192Y-114626193D01*
X170559744Y-114619351D01*
X170560279Y-114619314D01*
X170562833Y-114633063D01*
G36*
X170927876Y-114630735D02*
G01*
X170969667Y-114649744D01*
X171002469Y-114672778D01*
X171026503Y-114698533D01*
X171043097Y-114731758D01*
X171053577Y-114777200D01*
X171059271Y-114839607D01*
X171061507Y-114923727D01*
X171061743Y-114979121D01*
X171061743Y-115195226D01*
X171024774Y-115212070D01*
X170995656Y-115224381D01*
X170981231Y-115228914D01*
X170978472Y-115215425D01*
X170976282Y-115179053D01*
X170974942Y-115125942D01*
X170974657Y-115083772D01*
X170973434Y-115022847D01*
X170970136Y-114974515D01*
X170965321Y-114944918D01*
X170961496Y-114938629D01*
X170935783Y-114945052D01*
X170895418Y-114961525D01*
X170848679Y-114983858D01*
X170803845Y-115007857D01*
X170769193Y-115029330D01*
X170753002Y-115044085D01*
X170752938Y-115044245D01*
X170754330Y-115071552D01*
X170766818Y-115097619D01*
X170788743Y-115118792D01*
X170820743Y-115125874D01*
X170848092Y-115125049D01*
X170886826Y-115124442D01*
X170907158Y-115133516D01*
X170919369Y-115157492D01*
X170920909Y-115162013D01*
X170926203Y-115196206D01*
X170912047Y-115216968D01*
X170875148Y-115226862D01*
X170835289Y-115228692D01*
X170763562Y-115215127D01*
X170726432Y-115195755D01*
X170680576Y-115150245D01*
X170656256Y-115094383D01*
X170654073Y-115035357D01*
X170674629Y-114980353D01*
X170705549Y-114945886D01*
X170736420Y-114926589D01*
X170784942Y-114902159D01*
X170841485Y-114877385D01*
X170850910Y-114873599D01*
X170913019Y-114846191D01*
X170948822Y-114822034D01*
X170960337Y-114798019D01*
X170949580Y-114771035D01*
X170931114Y-114749943D01*
X170887469Y-114723972D01*
X170839446Y-114722024D01*
X170795406Y-114742037D01*
X170763709Y-114781951D01*
X170759549Y-114792248D01*
X170735327Y-114830124D01*
X170699965Y-114858242D01*
X170655343Y-114881317D01*
X170655343Y-114815885D01*
X170657969Y-114775906D01*
X170669230Y-114744397D01*
X170694199Y-114710778D01*
X170718169Y-114684884D01*
X170755441Y-114648217D01*
X170784401Y-114628521D01*
X170815505Y-114620620D01*
X170850713Y-114619314D01*
X170927876Y-114630735D01*
G37*
X170927876Y-114630735D02*
X170969667Y-114649744D01*
X171002469Y-114672778D01*
X171026503Y-114698533D01*
X171043097Y-114731758D01*
X171053577Y-114777200D01*
X171059271Y-114839607D01*
X171061507Y-114923727D01*
X171061743Y-114979121D01*
X171061743Y-115195226D01*
X171024774Y-115212070D01*
X170995656Y-115224381D01*
X170981231Y-115228914D01*
X170978472Y-115215425D01*
X170976282Y-115179053D01*
X170974942Y-115125942D01*
X170974657Y-115083772D01*
X170973434Y-115022847D01*
X170970136Y-114974515D01*
X170965321Y-114944918D01*
X170961496Y-114938629D01*
X170935783Y-114945052D01*
X170895418Y-114961525D01*
X170848679Y-114983858D01*
X170803845Y-115007857D01*
X170769193Y-115029330D01*
X170753002Y-115044085D01*
X170752938Y-115044245D01*
X170754330Y-115071552D01*
X170766818Y-115097619D01*
X170788743Y-115118792D01*
X170820743Y-115125874D01*
X170848092Y-115125049D01*
X170886826Y-115124442D01*
X170907158Y-115133516D01*
X170919369Y-115157492D01*
X170920909Y-115162013D01*
X170926203Y-115196206D01*
X170912047Y-115216968D01*
X170875148Y-115226862D01*
X170835289Y-115228692D01*
X170763562Y-115215127D01*
X170726432Y-115195755D01*
X170680576Y-115150245D01*
X170656256Y-115094383D01*
X170654073Y-115035357D01*
X170674629Y-114980353D01*
X170705549Y-114945886D01*
X170736420Y-114926589D01*
X170784942Y-114902159D01*
X170841485Y-114877385D01*
X170850910Y-114873599D01*
X170913019Y-114846191D01*
X170948822Y-114822034D01*
X170960337Y-114798019D01*
X170949580Y-114771035D01*
X170931114Y-114749943D01*
X170887469Y-114723972D01*
X170839446Y-114722024D01*
X170795406Y-114742037D01*
X170763709Y-114781951D01*
X170759549Y-114792248D01*
X170735327Y-114830124D01*
X170699965Y-114858242D01*
X170655343Y-114881317D01*
X170655343Y-114815885D01*
X170657969Y-114775906D01*
X170669230Y-114744397D01*
X170694199Y-114710778D01*
X170718169Y-114684884D01*
X170755441Y-114648217D01*
X170784401Y-114628521D01*
X170815505Y-114620620D01*
X170850713Y-114619314D01*
X170927876Y-114630735D01*
G36*
X171435600Y-114633152D02*
G01*
X171452948Y-114640734D01*
X171494356Y-114673528D01*
X171529765Y-114720947D01*
X171551664Y-114771551D01*
X171555229Y-114796498D01*
X171543279Y-114831327D01*
X171517067Y-114849757D01*
X171488964Y-114860916D01*
X171476095Y-114862972D01*
X171469829Y-114848049D01*
X171457456Y-114815575D01*
X171452028Y-114800902D01*
X171421590Y-114750144D01*
X171377520Y-114724827D01*
X171321010Y-114725606D01*
X171316825Y-114726603D01*
X171286655Y-114740907D01*
X171264476Y-114768793D01*
X171249327Y-114813687D01*
X171240250Y-114879015D01*
X171236286Y-114968204D01*
X171235914Y-115015661D01*
X171235730Y-115090471D01*
X171234522Y-115141469D01*
X171231309Y-115173871D01*
X171225109Y-115192895D01*
X171214940Y-115203756D01*
X171199819Y-115211672D01*
X171198946Y-115212070D01*
X171169828Y-115224381D01*
X171155403Y-115228914D01*
X171153186Y-115215209D01*
X171151289Y-115177325D01*
X171149847Y-115120115D01*
X171148998Y-115048427D01*
X171148829Y-114995965D01*
X171149692Y-114894447D01*
X171153070Y-114817432D01*
X171160142Y-114760423D01*
X171172088Y-114718926D01*
X171190090Y-114688443D01*
X171215327Y-114664480D01*
X171240247Y-114647755D01*
X171300171Y-114625497D01*
X171369911Y-114620476D01*
X171435600Y-114633152D01*
G37*
X171435600Y-114633152D02*
X171452948Y-114640734D01*
X171494356Y-114673528D01*
X171529765Y-114720947D01*
X171551664Y-114771551D01*
X171555229Y-114796498D01*
X171543279Y-114831327D01*
X171517067Y-114849757D01*
X171488964Y-114860916D01*
X171476095Y-114862972D01*
X171469829Y-114848049D01*
X171457456Y-114815575D01*
X171452028Y-114800902D01*
X171421590Y-114750144D01*
X171377520Y-114724827D01*
X171321010Y-114725606D01*
X171316825Y-114726603D01*
X171286655Y-114740907D01*
X171264476Y-114768793D01*
X171249327Y-114813687D01*
X171240250Y-114879015D01*
X171236286Y-114968204D01*
X171235914Y-115015661D01*
X171235730Y-115090471D01*
X171234522Y-115141469D01*
X171231309Y-115173871D01*
X171225109Y-115192895D01*
X171214940Y-115203756D01*
X171199819Y-115211672D01*
X171198946Y-115212070D01*
X171169828Y-115224381D01*
X171155403Y-115228914D01*
X171153186Y-115215209D01*
X171151289Y-115177325D01*
X171149847Y-115120115D01*
X171148998Y-115048427D01*
X171148829Y-114995965D01*
X171149692Y-114894447D01*
X171153070Y-114817432D01*
X171160142Y-114760423D01*
X171172088Y-114718926D01*
X171190090Y-114688443D01*
X171215327Y-114664480D01*
X171240247Y-114647755D01*
X171300171Y-114625497D01*
X171369911Y-114620476D01*
X171435600Y-114633152D01*
G36*
X171936595Y-114641366D02*
G01*
X171994021Y-114678897D01*
X172021719Y-114712496D01*
X172043662Y-114773464D01*
X172045405Y-114821708D01*
X172041457Y-114886216D01*
X171892686Y-114951334D01*
X171820349Y-114984602D01*
X171773084Y-115011364D01*
X171748507Y-115034544D01*
X171744237Y-115057067D01*
X171757889Y-115081855D01*
X171772943Y-115098286D01*
X171816746Y-115124635D01*
X171864389Y-115126481D01*
X171908145Y-115105946D01*
X171940289Y-115065152D01*
X171946038Y-115050747D01*
X171973576Y-115005756D01*
X172005258Y-114986582D01*
X172048714Y-114970179D01*
X172048714Y-115032366D01*
X172044872Y-115074683D01*
X172029823Y-115110369D01*
X171998280Y-115151343D01*
X171993592Y-115156667D01*
X171958506Y-115193120D01*
X171928347Y-115212683D01*
X171890615Y-115221683D01*
X171859335Y-115224630D01*
X171803385Y-115225365D01*
X171763555Y-115216060D01*
X171738708Y-115202246D01*
X171699656Y-115171867D01*
X171672625Y-115139013D01*
X171655517Y-115097694D01*
X171646238Y-115041921D01*
X171642693Y-114965705D01*
X171642410Y-114927022D01*
X171643372Y-114880647D01*
X171731007Y-114880647D01*
X171732023Y-114905526D01*
X171734556Y-114909600D01*
X171751274Y-114904065D01*
X171787249Y-114889417D01*
X171835331Y-114868590D01*
X171845386Y-114864114D01*
X171906152Y-114833214D01*
X171939632Y-114806057D01*
X171946990Y-114780620D01*
X171929391Y-114754881D01*
X171914856Y-114743509D01*
X171862410Y-114720764D01*
X171813322Y-114724522D01*
X171772227Y-114752284D01*
X171743758Y-114801552D01*
X171734631Y-114840657D01*
X171731007Y-114880647D01*
X171643372Y-114880647D01*
X171644285Y-114836649D01*
X171651196Y-114769784D01*
X171664884Y-114721095D01*
X171687096Y-114685249D01*
X171719574Y-114656913D01*
X171733733Y-114647755D01*
X171798053Y-114623907D01*
X171868473Y-114622406D01*
X171936595Y-114641366D01*
G37*
X171936595Y-114641366D02*
X171994021Y-114678897D01*
X172021719Y-114712496D01*
X172043662Y-114773464D01*
X172045405Y-114821708D01*
X172041457Y-114886216D01*
X171892686Y-114951334D01*
X171820349Y-114984602D01*
X171773084Y-115011364D01*
X171748507Y-115034544D01*
X171744237Y-115057067D01*
X171757889Y-115081855D01*
X171772943Y-115098286D01*
X171816746Y-115124635D01*
X171864389Y-115126481D01*
X171908145Y-115105946D01*
X171940289Y-115065152D01*
X171946038Y-115050747D01*
X171973576Y-115005756D01*
X172005258Y-114986582D01*
X172048714Y-114970179D01*
X172048714Y-115032366D01*
X172044872Y-115074683D01*
X172029823Y-115110369D01*
X171998280Y-115151343D01*
X171993592Y-115156667D01*
X171958506Y-115193120D01*
X171928347Y-115212683D01*
X171890615Y-115221683D01*
X171859335Y-115224630D01*
X171803385Y-115225365D01*
X171763555Y-115216060D01*
X171738708Y-115202246D01*
X171699656Y-115171867D01*
X171672625Y-115139013D01*
X171655517Y-115097694D01*
X171646238Y-115041921D01*
X171642693Y-114965705D01*
X171642410Y-114927022D01*
X171643372Y-114880647D01*
X171731007Y-114880647D01*
X171732023Y-114905526D01*
X171734556Y-114909600D01*
X171751274Y-114904065D01*
X171787249Y-114889417D01*
X171835331Y-114868590D01*
X171845386Y-114864114D01*
X171906152Y-114833214D01*
X171939632Y-114806057D01*
X171946990Y-114780620D01*
X171929391Y-114754881D01*
X171914856Y-114743509D01*
X171862410Y-114720764D01*
X171813322Y-114724522D01*
X171772227Y-114752284D01*
X171743758Y-114801552D01*
X171734631Y-114840657D01*
X171731007Y-114880647D01*
X171643372Y-114880647D01*
X171644285Y-114836649D01*
X171651196Y-114769784D01*
X171664884Y-114721095D01*
X171687096Y-114685249D01*
X171719574Y-114656913D01*
X171733733Y-114647755D01*
X171798053Y-114623907D01*
X171868473Y-114622406D01*
X171936595Y-114641366D01*
G36*
X168886910Y-109916748D02*
G01*
X168965454Y-109917178D01*
X169022298Y-109918342D01*
X169061105Y-109920607D01*
X169085538Y-109924340D01*
X169099262Y-109929906D01*
X169105940Y-109937673D01*
X169109236Y-109948005D01*
X169109556Y-109949343D01*
X169114562Y-109973479D01*
X169123829Y-110021101D01*
X169136392Y-110087141D01*
X169151287Y-110166528D01*
X169167551Y-110254196D01*
X169168119Y-110257275D01*
X169184410Y-110343189D01*
X169199652Y-110419096D01*
X169212861Y-110480445D01*
X169223054Y-110522682D01*
X169229248Y-110541255D01*
X169229543Y-110541584D01*
X169247788Y-110550653D01*
X169285405Y-110565767D01*
X169334271Y-110583662D01*
X169334543Y-110583758D01*
X169396093Y-110606893D01*
X169468657Y-110636365D01*
X169537057Y-110665997D01*
X169540294Y-110667462D01*
X169651702Y-110718026D01*
X169898399Y-110549560D01*
X169974077Y-110498203D01*
X170042631Y-110452289D01*
X170100088Y-110414430D01*
X170142476Y-110387237D01*
X170165825Y-110373321D01*
X170168042Y-110372289D01*
X170185010Y-110376884D01*
X170216701Y-110399055D01*
X170264352Y-110439847D01*
X170329198Y-110500305D01*
X170395397Y-110564627D01*
X170459214Y-110628012D01*
X170516329Y-110685851D01*
X170563305Y-110734575D01*
X170596703Y-110770610D01*
X170613085Y-110790384D01*
X170613694Y-110791402D01*
X170615505Y-110804972D01*
X170608683Y-110827133D01*
X170591540Y-110860878D01*
X170562393Y-110909200D01*
X170519555Y-110975092D01*
X170462448Y-111059917D01*
X170411766Y-111134577D01*
X170366461Y-111201540D01*
X170329150Y-111256916D01*
X170302452Y-111296820D01*
X170288985Y-111317362D01*
X170288137Y-111318756D01*
X170289781Y-111338438D01*
X170302245Y-111376693D01*
X170323048Y-111426289D01*
X170330462Y-111442128D01*
X170362814Y-111512690D01*
X170397328Y-111592753D01*
X170425365Y-111662029D01*
X170445568Y-111713445D01*
X170461615Y-111752519D01*
X170470888Y-111772941D01*
X170472041Y-111774514D01*
X170489096Y-111777121D01*
X170529298Y-111784263D01*
X170587302Y-111794923D01*
X170657763Y-111808085D01*
X170735335Y-111822733D01*
X170814672Y-111837849D01*
X170890431Y-111852418D01*
X170957264Y-111865422D01*
X171009828Y-111875845D01*
X171042776Y-111882670D01*
X171050857Y-111884599D01*
X171059205Y-111889362D01*
X171065506Y-111900118D01*
X171070045Y-111920498D01*
X171073104Y-111954134D01*
X171074967Y-112004655D01*
X171075918Y-112075692D01*
X171076240Y-112170876D01*
X171076257Y-112209892D01*
X171076257Y-112527199D01*
X171000057Y-112542239D01*
X170957663Y-112550395D01*
X170894400Y-112562299D01*
X170817962Y-112576516D01*
X170736043Y-112591610D01*
X170713400Y-112595755D01*
X170637806Y-112610453D01*
X170571953Y-112624905D01*
X170521366Y-112637775D01*
X170491574Y-112647722D01*
X170486612Y-112650687D01*
X170474426Y-112671683D01*
X170456953Y-112712367D01*
X170437577Y-112764722D01*
X170433734Y-112776000D01*
X170408339Y-112845923D01*
X170376817Y-112924818D01*
X170345969Y-112995666D01*
X170345817Y-112995995D01*
X170294447Y-113107133D01*
X170463399Y-113355653D01*
X170632352Y-113604172D01*
X170415429Y-113821458D01*
X170349819Y-113886126D01*
X170289979Y-113943133D01*
X170239267Y-113989433D01*
X170201046Y-114021984D01*
X170178675Y-114037743D01*
X170175466Y-114038743D01*
X170156626Y-114030869D01*
X170118180Y-114008978D01*
X170064330Y-113975667D01*
X169999276Y-113933531D01*
X169928940Y-113886343D01*
X169857555Y-113838210D01*
X169793908Y-113796328D01*
X169742041Y-113763271D01*
X169705995Y-113741618D01*
X169689867Y-113733943D01*
X169670189Y-113740437D01*
X169632875Y-113757550D01*
X169585621Y-113781726D01*
X169580612Y-113784413D01*
X169516977Y-113816327D01*
X169473341Y-113831979D01*
X169446202Y-113832145D01*
X169432057Y-113817604D01*
X169431975Y-113817400D01*
X169424905Y-113800179D01*
X169408042Y-113759299D01*
X169382695Y-113697925D01*
X169350171Y-113619219D01*
X169311778Y-113526347D01*
X169268822Y-113422472D01*
X169227222Y-113321902D01*
X169181504Y-113210916D01*
X169139526Y-113108103D01*
X169102548Y-113016615D01*
X169071827Y-112939601D01*
X169048622Y-112880215D01*
X169034190Y-112841609D01*
X169029743Y-112827200D01*
X169040896Y-112810672D01*
X169070069Y-112784330D01*
X169108971Y-112755287D01*
X169219757Y-112663439D01*
X169306351Y-112558159D01*
X169367716Y-112441666D01*
X169402815Y-112316176D01*
X169410608Y-112183907D01*
X169404943Y-112122857D01*
X169374078Y-111996195D01*
X169320920Y-111884341D01*
X169248767Y-111788401D01*
X169160917Y-111709476D01*
X169060665Y-111648670D01*
X168951310Y-111607087D01*
X168836147Y-111585828D01*
X168718475Y-111585999D01*
X168601590Y-111608701D01*
X168488789Y-111655038D01*
X168383369Y-111726113D01*
X168339368Y-111766311D01*
X168254979Y-111869529D01*
X168196222Y-111982325D01*
X168162704Y-112101410D01*
X168154035Y-112223495D01*
X168169823Y-112345293D01*
X168209678Y-112463516D01*
X168273207Y-112574875D01*
X168360021Y-112676084D01*
X168457029Y-112755287D01*
X168497437Y-112785562D01*
X168525982Y-112811619D01*
X168536257Y-112827225D01*
X168530877Y-112844243D01*
X168515575Y-112884900D01*
X168491612Y-112946042D01*
X168460244Y-113024519D01*
X168422732Y-113117180D01*
X168380333Y-113220872D01*
X168338663Y-113321926D01*
X168292690Y-113433007D01*
X168250107Y-113535941D01*
X168212221Y-113627565D01*
X168180340Y-113704716D01*
X168155771Y-113764231D01*
X168139820Y-113802944D01*
X168133910Y-113817400D01*
X168119948Y-113832085D01*
X168092940Y-113832042D01*
X168049413Y-113816499D01*
X167985890Y-113784684D01*
X167985388Y-113784413D01*
X167937560Y-113759723D01*
X167898897Y-113741738D01*
X167877095Y-113734014D01*
X167876133Y-113733943D01*
X167859721Y-113741778D01*
X167823487Y-113763565D01*
X167771474Y-113796728D01*
X167707725Y-113838691D01*
X167637060Y-113886343D01*
X167565116Y-113934591D01*
X167500274Y-113976551D01*
X167446735Y-114009627D01*
X167408697Y-114031221D01*
X167390533Y-114038743D01*
X167373808Y-114028857D01*
X167340180Y-114001226D01*
X167293010Y-113958895D01*
X167235658Y-113904905D01*
X167171484Y-113842299D01*
X167150497Y-113821383D01*
X166933499Y-113604023D01*
X167098668Y-113361620D01*
X167148864Y-113287181D01*
X167192919Y-113220372D01*
X167228362Y-113165065D01*
X167252719Y-113125129D01*
X167263522Y-113104436D01*
X167263838Y-113102963D01*
X167258143Y-113083458D01*
X167242826Y-113044222D01*
X167220537Y-112991830D01*
X167204893Y-112956755D01*
X167175641Y-112889601D01*
X167148094Y-112821758D01*
X167126737Y-112764434D01*
X167120935Y-112746972D01*
X167104452Y-112700338D01*
X167088340Y-112664305D01*
X167079490Y-112650687D01*
X167059960Y-112642352D01*
X167017334Y-112630537D01*
X166957145Y-112616581D01*
X166884922Y-112601822D01*
X166852600Y-112595755D01*
X166770522Y-112580673D01*
X166691795Y-112566069D01*
X166624109Y-112553380D01*
X166575160Y-112544042D01*
X166565943Y-112542239D01*
X166489743Y-112527199D01*
X166489743Y-112209892D01*
X166489914Y-112105554D01*
X166490616Y-112026613D01*
X166492134Y-111969438D01*
X166494749Y-111930399D01*
X166498746Y-111905865D01*
X166504409Y-111892205D01*
X166512020Y-111885789D01*
X166515143Y-111884599D01*
X166533978Y-111880380D01*
X166575588Y-111871962D01*
X166634630Y-111860361D01*
X166705757Y-111846595D01*
X166783625Y-111831680D01*
X166862887Y-111816632D01*
X166938198Y-111802469D01*
X167004213Y-111790206D01*
X167055587Y-111780861D01*
X167086975Y-111775450D01*
X167093959Y-111774514D01*
X167100285Y-111761996D01*
X167114290Y-111728646D01*
X167133355Y-111680777D01*
X167140634Y-111662029D01*
X167169996Y-111589595D01*
X167204571Y-111509570D01*
X167235537Y-111442128D01*
X167258323Y-111390559D01*
X167273482Y-111348185D01*
X167278542Y-111322234D01*
X167277736Y-111318756D01*
X167267041Y-111302336D01*
X167242620Y-111265817D01*
X167207095Y-111213087D01*
X167163087Y-111148035D01*
X167113217Y-111074551D01*
X167103356Y-111060045D01*
X167045492Y-110974104D01*
X167002956Y-110908661D01*
X166974054Y-110860704D01*
X166957090Y-110827220D01*
X166950367Y-110805195D01*
X166952190Y-110791617D01*
X166952236Y-110791531D01*
X166966586Y-110773697D01*
X166998323Y-110739217D01*
X167044010Y-110691668D01*
X167100204Y-110634622D01*
X167163468Y-110571655D01*
X167170602Y-110564627D01*
X167250330Y-110487420D01*
X167311857Y-110430730D01*
X167356421Y-110393510D01*
X167385257Y-110374715D01*
X167397958Y-110372289D01*
X167416494Y-110382871D01*
X167454961Y-110407316D01*
X167509386Y-110443012D01*
X167575798Y-110487347D01*
X167650225Y-110537711D01*
X167667601Y-110549560D01*
X167914297Y-110718026D01*
X168025706Y-110667462D01*
X168093457Y-110637995D01*
X168166183Y-110608359D01*
X168228703Y-110584730D01*
X168231457Y-110583758D01*
X168280360Y-110565857D01*
X168318057Y-110550720D01*
X168336425Y-110541610D01*
X168336456Y-110541584D01*
X168342285Y-110525117D01*
X168352192Y-110484619D01*
X168365195Y-110424642D01*
X168380309Y-110349740D01*
X168396552Y-110264464D01*
X168397881Y-110257275D01*
X168414175Y-110169414D01*
X168429133Y-110089660D01*
X168441791Y-110023081D01*
X168451186Y-109974747D01*
X168456354Y-109949725D01*
X168456444Y-109949343D01*
X168459589Y-109938699D01*
X168465704Y-109930662D01*
X168478453Y-109924867D01*
X168501500Y-109920947D01*
X168538509Y-109918535D01*
X168593144Y-109917265D01*
X168669067Y-109916771D01*
X168769944Y-109916686D01*
X168783000Y-109916686D01*
X168886910Y-109916748D01*
G37*
X168886910Y-109916748D02*
X168965454Y-109917178D01*
X169022298Y-109918342D01*
X169061105Y-109920607D01*
X169085538Y-109924340D01*
X169099262Y-109929906D01*
X169105940Y-109937673D01*
X169109236Y-109948005D01*
X169109556Y-109949343D01*
X169114562Y-109973479D01*
X169123829Y-110021101D01*
X169136392Y-110087141D01*
X169151287Y-110166528D01*
X169167551Y-110254196D01*
X169168119Y-110257275D01*
X169184410Y-110343189D01*
X169199652Y-110419096D01*
X169212861Y-110480445D01*
X169223054Y-110522682D01*
X169229248Y-110541255D01*
X169229543Y-110541584D01*
X169247788Y-110550653D01*
X169285405Y-110565767D01*
X169334271Y-110583662D01*
X169334543Y-110583758D01*
X169396093Y-110606893D01*
X169468657Y-110636365D01*
X169537057Y-110665997D01*
X169540294Y-110667462D01*
X169651702Y-110718026D01*
X169898399Y-110549560D01*
X169974077Y-110498203D01*
X170042631Y-110452289D01*
X170100088Y-110414430D01*
X170142476Y-110387237D01*
X170165825Y-110373321D01*
X170168042Y-110372289D01*
X170185010Y-110376884D01*
X170216701Y-110399055D01*
X170264352Y-110439847D01*
X170329198Y-110500305D01*
X170395397Y-110564627D01*
X170459214Y-110628012D01*
X170516329Y-110685851D01*
X170563305Y-110734575D01*
X170596703Y-110770610D01*
X170613085Y-110790384D01*
X170613694Y-110791402D01*
X170615505Y-110804972D01*
X170608683Y-110827133D01*
X170591540Y-110860878D01*
X170562393Y-110909200D01*
X170519555Y-110975092D01*
X170462448Y-111059917D01*
X170411766Y-111134577D01*
X170366461Y-111201540D01*
X170329150Y-111256916D01*
X170302452Y-111296820D01*
X170288985Y-111317362D01*
X170288137Y-111318756D01*
X170289781Y-111338438D01*
X170302245Y-111376693D01*
X170323048Y-111426289D01*
X170330462Y-111442128D01*
X170362814Y-111512690D01*
X170397328Y-111592753D01*
X170425365Y-111662029D01*
X170445568Y-111713445D01*
X170461615Y-111752519D01*
X170470888Y-111772941D01*
X170472041Y-111774514D01*
X170489096Y-111777121D01*
X170529298Y-111784263D01*
X170587302Y-111794923D01*
X170657763Y-111808085D01*
X170735335Y-111822733D01*
X170814672Y-111837849D01*
X170890431Y-111852418D01*
X170957264Y-111865422D01*
X171009828Y-111875845D01*
X171042776Y-111882670D01*
X171050857Y-111884599D01*
X171059205Y-111889362D01*
X171065506Y-111900118D01*
X171070045Y-111920498D01*
X171073104Y-111954134D01*
X171074967Y-112004655D01*
X171075918Y-112075692D01*
X171076240Y-112170876D01*
X171076257Y-112209892D01*
X171076257Y-112527199D01*
X171000057Y-112542239D01*
X170957663Y-112550395D01*
X170894400Y-112562299D01*
X170817962Y-112576516D01*
X170736043Y-112591610D01*
X170713400Y-112595755D01*
X170637806Y-112610453D01*
X170571953Y-112624905D01*
X170521366Y-112637775D01*
X170491574Y-112647722D01*
X170486612Y-112650687D01*
X170474426Y-112671683D01*
X170456953Y-112712367D01*
X170437577Y-112764722D01*
X170433734Y-112776000D01*
X170408339Y-112845923D01*
X170376817Y-112924818D01*
X170345969Y-112995666D01*
X170345817Y-112995995D01*
X170294447Y-113107133D01*
X170463399Y-113355653D01*
X170632352Y-113604172D01*
X170415429Y-113821458D01*
X170349819Y-113886126D01*
X170289979Y-113943133D01*
X170239267Y-113989433D01*
X170201046Y-114021984D01*
X170178675Y-114037743D01*
X170175466Y-114038743D01*
X170156626Y-114030869D01*
X170118180Y-114008978D01*
X170064330Y-113975667D01*
X169999276Y-113933531D01*
X169928940Y-113886343D01*
X169857555Y-113838210D01*
X169793908Y-113796328D01*
X169742041Y-113763271D01*
X169705995Y-113741618D01*
X169689867Y-113733943D01*
X169670189Y-113740437D01*
X169632875Y-113757550D01*
X169585621Y-113781726D01*
X169580612Y-113784413D01*
X169516977Y-113816327D01*
X169473341Y-113831979D01*
X169446202Y-113832145D01*
X169432057Y-113817604D01*
X169431975Y-113817400D01*
X169424905Y-113800179D01*
X169408042Y-113759299D01*
X169382695Y-113697925D01*
X169350171Y-113619219D01*
X169311778Y-113526347D01*
X169268822Y-113422472D01*
X169227222Y-113321902D01*
X169181504Y-113210916D01*
X169139526Y-113108103D01*
X169102548Y-113016615D01*
X169071827Y-112939601D01*
X169048622Y-112880215D01*
X169034190Y-112841609D01*
X169029743Y-112827200D01*
X169040896Y-112810672D01*
X169070069Y-112784330D01*
X169108971Y-112755287D01*
X169219757Y-112663439D01*
X169306351Y-112558159D01*
X169367716Y-112441666D01*
X169402815Y-112316176D01*
X169410608Y-112183907D01*
X169404943Y-112122857D01*
X169374078Y-111996195D01*
X169320920Y-111884341D01*
X169248767Y-111788401D01*
X169160917Y-111709476D01*
X169060665Y-111648670D01*
X168951310Y-111607087D01*
X168836147Y-111585828D01*
X168718475Y-111585999D01*
X168601590Y-111608701D01*
X168488789Y-111655038D01*
X168383369Y-111726113D01*
X168339368Y-111766311D01*
X168254979Y-111869529D01*
X168196222Y-111982325D01*
X168162704Y-112101410D01*
X168154035Y-112223495D01*
X168169823Y-112345293D01*
X168209678Y-112463516D01*
X168273207Y-112574875D01*
X168360021Y-112676084D01*
X168457029Y-112755287D01*
X168497437Y-112785562D01*
X168525982Y-112811619D01*
X168536257Y-112827225D01*
X168530877Y-112844243D01*
X168515575Y-112884900D01*
X168491612Y-112946042D01*
X168460244Y-113024519D01*
X168422732Y-113117180D01*
X168380333Y-113220872D01*
X168338663Y-113321926D01*
X168292690Y-113433007D01*
X168250107Y-113535941D01*
X168212221Y-113627565D01*
X168180340Y-113704716D01*
X168155771Y-113764231D01*
X168139820Y-113802944D01*
X168133910Y-113817400D01*
X168119948Y-113832085D01*
X168092940Y-113832042D01*
X168049413Y-113816499D01*
X167985890Y-113784684D01*
X167985388Y-113784413D01*
X167937560Y-113759723D01*
X167898897Y-113741738D01*
X167877095Y-113734014D01*
X167876133Y-113733943D01*
X167859721Y-113741778D01*
X167823487Y-113763565D01*
X167771474Y-113796728D01*
X167707725Y-113838691D01*
X167637060Y-113886343D01*
X167565116Y-113934591D01*
X167500274Y-113976551D01*
X167446735Y-114009627D01*
X167408697Y-114031221D01*
X167390533Y-114038743D01*
X167373808Y-114028857D01*
X167340180Y-114001226D01*
X167293010Y-113958895D01*
X167235658Y-113904905D01*
X167171484Y-113842299D01*
X167150497Y-113821383D01*
X166933499Y-113604023D01*
X167098668Y-113361620D01*
X167148864Y-113287181D01*
X167192919Y-113220372D01*
X167228362Y-113165065D01*
X167252719Y-113125129D01*
X167263522Y-113104436D01*
X167263838Y-113102963D01*
X167258143Y-113083458D01*
X167242826Y-113044222D01*
X167220537Y-112991830D01*
X167204893Y-112956755D01*
X167175641Y-112889601D01*
X167148094Y-112821758D01*
X167126737Y-112764434D01*
X167120935Y-112746972D01*
X167104452Y-112700338D01*
X167088340Y-112664305D01*
X167079490Y-112650687D01*
X167059960Y-112642352D01*
X167017334Y-112630537D01*
X166957145Y-112616581D01*
X166884922Y-112601822D01*
X166852600Y-112595755D01*
X166770522Y-112580673D01*
X166691795Y-112566069D01*
X166624109Y-112553380D01*
X166575160Y-112544042D01*
X166565943Y-112542239D01*
X166489743Y-112527199D01*
X166489743Y-112209892D01*
X166489914Y-112105554D01*
X166490616Y-112026613D01*
X166492134Y-111969438D01*
X166494749Y-111930399D01*
X166498746Y-111905865D01*
X166504409Y-111892205D01*
X166512020Y-111885789D01*
X166515143Y-111884599D01*
X166533978Y-111880380D01*
X166575588Y-111871962D01*
X166634630Y-111860361D01*
X166705757Y-111846595D01*
X166783625Y-111831680D01*
X166862887Y-111816632D01*
X166938198Y-111802469D01*
X167004213Y-111790206D01*
X167055587Y-111780861D01*
X167086975Y-111775450D01*
X167093959Y-111774514D01*
X167100285Y-111761996D01*
X167114290Y-111728646D01*
X167133355Y-111680777D01*
X167140634Y-111662029D01*
X167169996Y-111589595D01*
X167204571Y-111509570D01*
X167235537Y-111442128D01*
X167258323Y-111390559D01*
X167273482Y-111348185D01*
X167278542Y-111322234D01*
X167277736Y-111318756D01*
X167267041Y-111302336D01*
X167242620Y-111265817D01*
X167207095Y-111213087D01*
X167163087Y-111148035D01*
X167113217Y-111074551D01*
X167103356Y-111060045D01*
X167045492Y-110974104D01*
X167002956Y-110908661D01*
X166974054Y-110860704D01*
X166957090Y-110827220D01*
X166950367Y-110805195D01*
X166952190Y-110791617D01*
X166952236Y-110791531D01*
X166966586Y-110773697D01*
X166998323Y-110739217D01*
X167044010Y-110691668D01*
X167100204Y-110634622D01*
X167163468Y-110571655D01*
X167170602Y-110564627D01*
X167250330Y-110487420D01*
X167311857Y-110430730D01*
X167356421Y-110393510D01*
X167385257Y-110374715D01*
X167397958Y-110372289D01*
X167416494Y-110382871D01*
X167454961Y-110407316D01*
X167509386Y-110443012D01*
X167575798Y-110487347D01*
X167650225Y-110537711D01*
X167667601Y-110549560D01*
X167914297Y-110718026D01*
X168025706Y-110667462D01*
X168093457Y-110637995D01*
X168166183Y-110608359D01*
X168228703Y-110584730D01*
X168231457Y-110583758D01*
X168280360Y-110565857D01*
X168318057Y-110550720D01*
X168336425Y-110541610D01*
X168336456Y-110541584D01*
X168342285Y-110525117D01*
X168352192Y-110484619D01*
X168365195Y-110424642D01*
X168380309Y-110349740D01*
X168396552Y-110264464D01*
X168397881Y-110257275D01*
X168414175Y-110169414D01*
X168429133Y-110089660D01*
X168441791Y-110023081D01*
X168451186Y-109974747D01*
X168456354Y-109949725D01*
X168456444Y-109949343D01*
X168459589Y-109938699D01*
X168465704Y-109930662D01*
X168478453Y-109924867D01*
X168501500Y-109920947D01*
X168538509Y-109918535D01*
X168593144Y-109917265D01*
X168669067Y-109916771D01*
X168769944Y-109916686D01*
X168783000Y-109916686D01*
X168886910Y-109916748D01*
G36*
X164490400Y-103838854D02*
G01*
X164501265Y-103952793D01*
X164532882Y-104060416D01*
X164583785Y-104159415D01*
X164652507Y-104247484D01*
X164737581Y-104322316D01*
X164834568Y-104380184D01*
X164940836Y-104419805D01*
X165047850Y-104438373D01*
X165153500Y-104437234D01*
X165255675Y-104417730D01*
X165352266Y-104381206D01*
X165441162Y-104329005D01*
X165520254Y-104262473D01*
X165587431Y-104182952D01*
X165640583Y-104091787D01*
X165677601Y-103990323D01*
X165696373Y-103879902D01*
X165698311Y-103830006D01*
X165698311Y-103742067D01*
X165750240Y-103742067D01*
X165786547Y-103744911D01*
X165813445Y-103756711D01*
X165840551Y-103780449D01*
X165878933Y-103818831D01*
X165878933Y-106010402D01*
X165878924Y-106272539D01*
X165878892Y-106513041D01*
X165878828Y-106732848D01*
X165878724Y-106932901D01*
X165878573Y-107114144D01*
X165878366Y-107277516D01*
X165878094Y-107423960D01*
X165877750Y-107554417D01*
X165877326Y-107669829D01*
X165876813Y-107771138D01*
X165876203Y-107859284D01*
X165875488Y-107935210D01*
X165874660Y-107999857D01*
X165873711Y-108054167D01*
X165872633Y-108099080D01*
X165871417Y-108135540D01*
X165870055Y-108164487D01*
X165868539Y-108186863D01*
X165866862Y-108203609D01*
X165865014Y-108215668D01*
X165862987Y-108223980D01*
X165860775Y-108229487D01*
X165859692Y-108231337D01*
X165855529Y-108238349D01*
X165851995Y-108244796D01*
X165848165Y-108250700D01*
X165843118Y-108256086D01*
X165835929Y-108260978D01*
X165825677Y-108265398D01*
X165811436Y-108269372D01*
X165792286Y-108272921D01*
X165767301Y-108276070D01*
X165735560Y-108278842D01*
X165696138Y-108281261D01*
X165648114Y-108283351D01*
X165590563Y-108285135D01*
X165522563Y-108286637D01*
X165443190Y-108287880D01*
X165351521Y-108288889D01*
X165246634Y-108289685D01*
X165127604Y-108290294D01*
X164993510Y-108290739D01*
X164843427Y-108291043D01*
X164676433Y-108291230D01*
X164491604Y-108291324D01*
X164288017Y-108291348D01*
X164064750Y-108291325D01*
X163820878Y-108291280D01*
X163555479Y-108291237D01*
X163517096Y-108291232D01*
X163250118Y-108291189D01*
X163004798Y-108291118D01*
X162780217Y-108291013D01*
X162575455Y-108290866D01*
X162389594Y-108290669D01*
X162221712Y-108290416D01*
X162070892Y-108290100D01*
X161936213Y-108289713D01*
X161816756Y-108289247D01*
X161711601Y-108288697D01*
X161619829Y-108288053D01*
X161540521Y-108287311D01*
X161472757Y-108286461D01*
X161415618Y-108285497D01*
X161368183Y-108284411D01*
X161329534Y-108283197D01*
X161298751Y-108281847D01*
X161274915Y-108280355D01*
X161257106Y-108278711D01*
X161244405Y-108276911D01*
X161235892Y-108274945D01*
X161231534Y-108273277D01*
X161223072Y-108269706D01*
X161215303Y-108267070D01*
X161208198Y-108264434D01*
X161201727Y-108260862D01*
X161195861Y-108255421D01*
X161190571Y-108247175D01*
X161185826Y-108235190D01*
X161181598Y-108218531D01*
X161177857Y-108196263D01*
X161174573Y-108167452D01*
X161171717Y-108131163D01*
X161169260Y-108086461D01*
X161167171Y-108032411D01*
X161165422Y-107968079D01*
X161163983Y-107892530D01*
X161162824Y-107804830D01*
X161161917Y-107704043D01*
X161161231Y-107589234D01*
X161160737Y-107459470D01*
X161160405Y-107313815D01*
X161160207Y-107151335D01*
X161160113Y-106971095D01*
X161160092Y-106772160D01*
X161160115Y-106553596D01*
X161160154Y-106314468D01*
X161160178Y-106053840D01*
X161160178Y-106011689D01*
X161160164Y-105748792D01*
X161160139Y-105507532D01*
X161160129Y-105286965D01*
X161160158Y-105086152D01*
X161160252Y-104904149D01*
X161160438Y-104740016D01*
X161160741Y-104592811D01*
X161161186Y-104461592D01*
X161161766Y-104351667D01*
X161464603Y-104351667D01*
X161504393Y-104409511D01*
X161515564Y-104425279D01*
X161525634Y-104439241D01*
X161534662Y-104452584D01*
X161542703Y-104466493D01*
X161549814Y-104482156D01*
X161556053Y-104500758D01*
X161561475Y-104523486D01*
X161566138Y-104551527D01*
X161570099Y-104586067D01*
X161573415Y-104628292D01*
X161576141Y-104679389D01*
X161578336Y-104740544D01*
X161580055Y-104812944D01*
X161581356Y-104897775D01*
X161582295Y-104996222D01*
X161582930Y-105109474D01*
X161583316Y-105238716D01*
X161583512Y-105385134D01*
X161583573Y-105549916D01*
X161583557Y-105734247D01*
X161583520Y-105939313D01*
X161583511Y-106061933D01*
X161583535Y-106278882D01*
X161583569Y-106474442D01*
X161583557Y-106649799D01*
X161583442Y-106806141D01*
X161583170Y-106944657D01*
X161582682Y-107066534D01*
X161581924Y-107172960D01*
X161580838Y-107265122D01*
X161579369Y-107344209D01*
X161577460Y-107411408D01*
X161575056Y-107467907D01*
X161572099Y-107514893D01*
X161568534Y-107553555D01*
X161564305Y-107585080D01*
X161559354Y-107610655D01*
X161553627Y-107631470D01*
X161547067Y-107648711D01*
X161539617Y-107663565D01*
X161531221Y-107677222D01*
X161521824Y-107690869D01*
X161511368Y-107705693D01*
X161505277Y-107714583D01*
X161466504Y-107772200D01*
X161998068Y-107772200D01*
X162121317Y-107772165D01*
X162223813Y-107772015D01*
X162307380Y-107771678D01*
X162373844Y-107771086D01*
X162425029Y-107770167D01*
X162462759Y-107768851D01*
X162488860Y-107767069D01*
X162505156Y-107764751D01*
X162513472Y-107761826D01*
X162515632Y-107758224D01*
X162513461Y-107753875D01*
X162512265Y-107752445D01*
X162487115Y-107715373D01*
X162461217Y-107662572D01*
X162437608Y-107600570D01*
X162429339Y-107574157D01*
X162424722Y-107556216D01*
X162420821Y-107535155D01*
X162417552Y-107508889D01*
X162414834Y-107475332D01*
X162412585Y-107432399D01*
X162410723Y-107378004D01*
X162409164Y-107310062D01*
X162407828Y-107226488D01*
X162406631Y-107125195D01*
X162405492Y-107004100D01*
X162405115Y-106959400D01*
X162404098Y-106834249D01*
X162403340Y-106729882D01*
X162402897Y-106644507D01*
X162402830Y-106576333D01*
X162403195Y-106523565D01*
X162404052Y-106484414D01*
X162405459Y-106457085D01*
X162407475Y-106439786D01*
X162410157Y-106430726D01*
X162413564Y-106428112D01*
X162417756Y-106430151D01*
X162422229Y-106434467D01*
X162432584Y-106447402D01*
X162454642Y-106476476D01*
X162486843Y-106519559D01*
X162527626Y-106574518D01*
X162575430Y-106639223D01*
X162628695Y-106711542D01*
X162685860Y-106789344D01*
X162745363Y-106870498D01*
X162805645Y-106952872D01*
X162865145Y-107034336D01*
X162922302Y-107112757D01*
X162975555Y-107186004D01*
X163023343Y-107251947D01*
X163064107Y-107308454D01*
X163096284Y-107353393D01*
X163118315Y-107384634D01*
X163122883Y-107391266D01*
X163145804Y-107428169D01*
X163172612Y-107476159D01*
X163198011Y-107525697D01*
X163201232Y-107532377D01*
X163222910Y-107580572D01*
X163235496Y-107618134D01*
X163241226Y-107653960D01*
X163242344Y-107696000D01*
X163241710Y-107772200D01*
X164396149Y-107772200D01*
X164304985Y-107678469D01*
X164258188Y-107628575D01*
X164207901Y-107572095D01*
X164161856Y-107517826D01*
X164141431Y-107492473D01*
X164110993Y-107452928D01*
X164070938Y-107399716D01*
X164022439Y-107334467D01*
X163966665Y-107258811D01*
X163904789Y-107174377D01*
X163837981Y-107082794D01*
X163767413Y-106985692D01*
X163694255Y-106884701D01*
X163619679Y-106781450D01*
X163544856Y-106677568D01*
X163470957Y-106574685D01*
X163399154Y-106474431D01*
X163330616Y-106378436D01*
X163266516Y-106288327D01*
X163208025Y-106205736D01*
X163156314Y-106132292D01*
X163112553Y-106069624D01*
X163077915Y-106019361D01*
X163053570Y-105983134D01*
X163040689Y-105962571D01*
X163038931Y-105958468D01*
X163046890Y-105947142D01*
X163067685Y-105919962D01*
X163099953Y-105878629D01*
X163142330Y-105824844D01*
X163193453Y-105760306D01*
X163251959Y-105686718D01*
X163316486Y-105605778D01*
X163385669Y-105519188D01*
X163458147Y-105428648D01*
X163532554Y-105335860D01*
X163592283Y-105261502D01*
X164603289Y-105261502D01*
X164609198Y-105274459D01*
X164623528Y-105296708D01*
X164624575Y-105298191D01*
X164643362Y-105328344D01*
X164663009Y-105365175D01*
X164666908Y-105373311D01*
X164670444Y-105381740D01*
X164673570Y-105391859D01*
X164676314Y-105405060D01*
X164678708Y-105422738D01*
X164680781Y-105446284D01*
X164682565Y-105477093D01*
X164684088Y-105516557D01*
X164685381Y-105566069D01*
X164686474Y-105627023D01*
X164687397Y-105700811D01*
X164688181Y-105788828D01*
X164688855Y-105892465D01*
X164689450Y-106013116D01*
X164689995Y-106152174D01*
X164690521Y-106311032D01*
X164691055Y-106489889D01*
X164691594Y-106675007D01*
X164692028Y-106838945D01*
X164692291Y-106983103D01*
X164692316Y-107108879D01*
X164692035Y-107217671D01*
X164691381Y-107310877D01*
X164690286Y-107389897D01*
X164688682Y-107456128D01*
X164686503Y-107510970D01*
X164683681Y-107555821D01*
X164680149Y-107592078D01*
X164675839Y-107621141D01*
X164670683Y-107644409D01*
X164664615Y-107663279D01*
X164657567Y-107679151D01*
X164649471Y-107693422D01*
X164640260Y-107707491D01*
X164631760Y-107719958D01*
X164614624Y-107746252D01*
X164604478Y-107763837D01*
X164603289Y-107767057D01*
X164614196Y-107768134D01*
X164645389Y-107769135D01*
X164694577Y-107770035D01*
X164759467Y-107770810D01*
X164837770Y-107771437D01*
X164927193Y-107771891D01*
X165025444Y-107772149D01*
X165094355Y-107772200D01*
X165199348Y-107771980D01*
X165296190Y-107771348D01*
X165382693Y-107770349D01*
X165456668Y-107769027D01*
X165515926Y-107767426D01*
X165558280Y-107765591D01*
X165581540Y-107763565D01*
X165585422Y-107762293D01*
X165577724Y-107747391D01*
X165569726Y-107739360D01*
X165556554Y-107722234D01*
X165539315Y-107691983D01*
X165527393Y-107667422D01*
X165500755Y-107608511D01*
X165497680Y-106431645D01*
X165494605Y-105254778D01*
X165048947Y-105254778D01*
X164951130Y-105254942D01*
X164860736Y-105255411D01*
X164780170Y-105256147D01*
X164711838Y-105257116D01*
X164658144Y-105258280D01*
X164621495Y-105259603D01*
X164604296Y-105261049D01*
X164603289Y-105261502D01*
X163592283Y-105261502D01*
X163607530Y-105242522D01*
X163681710Y-105150337D01*
X163753731Y-105061004D01*
X163822231Y-104976224D01*
X163885845Y-104897698D01*
X163943212Y-104827126D01*
X163992967Y-104766209D01*
X164033748Y-104716647D01*
X164050912Y-104695978D01*
X164137204Y-104595316D01*
X164213803Y-104512059D01*
X164282617Y-104444238D01*
X164345552Y-104389889D01*
X164354933Y-104382522D01*
X164394444Y-104351917D01*
X163262684Y-104351667D01*
X163267973Y-104399644D01*
X163264670Y-104456988D01*
X163243139Y-104525263D01*
X163203165Y-104605012D01*
X163157857Y-104677295D01*
X163141639Y-104699940D01*
X163113586Y-104737496D01*
X163075370Y-104787821D01*
X163028663Y-104848773D01*
X162975139Y-104918211D01*
X162916469Y-104993994D01*
X162854325Y-105073980D01*
X162790379Y-105156028D01*
X162726305Y-105237996D01*
X162663773Y-105317743D01*
X162604457Y-105393127D01*
X162550029Y-105462007D01*
X162502161Y-105522242D01*
X162462525Y-105571689D01*
X162432794Y-105608208D01*
X162414639Y-105629658D01*
X162411580Y-105632956D01*
X162408721Y-105624949D01*
X162406507Y-105594655D01*
X162404943Y-105542356D01*
X162404033Y-105468331D01*
X162403780Y-105372863D01*
X162404187Y-105256234D01*
X162405096Y-105136245D01*
X162406418Y-105004133D01*
X162407943Y-104892394D01*
X162409919Y-104798825D01*
X162412594Y-104721219D01*
X162416218Y-104657374D01*
X162421039Y-104605083D01*
X162427306Y-104562144D01*
X162435268Y-104526351D01*
X162445173Y-104495500D01*
X162457269Y-104467386D01*
X162471807Y-104439805D01*
X162486489Y-104414766D01*
X162524486Y-104351667D01*
X161464603Y-104351667D01*
X161161766Y-104351667D01*
X161161799Y-104345417D01*
X161162605Y-104243344D01*
X161163630Y-104154433D01*
X161164900Y-104077741D01*
X161166440Y-104012327D01*
X161168276Y-103957249D01*
X161170433Y-103911565D01*
X161172937Y-103874334D01*
X161175813Y-103844613D01*
X161179087Y-103821462D01*
X161182785Y-103803939D01*
X161186931Y-103791101D01*
X161191553Y-103782008D01*
X161196674Y-103775718D01*
X161202322Y-103771288D01*
X161208521Y-103767778D01*
X161215296Y-103764245D01*
X161221292Y-103760676D01*
X161226525Y-103758100D01*
X161234701Y-103755772D01*
X161246914Y-103753678D01*
X161264259Y-103751807D01*
X161287831Y-103750147D01*
X161318723Y-103748684D01*
X161358032Y-103747408D01*
X161406850Y-103746304D01*
X161466273Y-103745361D01*
X161537396Y-103744567D01*
X161621312Y-103743909D01*
X161719117Y-103743375D01*
X161831906Y-103742953D01*
X161960771Y-103742629D01*
X162106809Y-103742392D01*
X162271114Y-103742230D01*
X162454780Y-103742130D01*
X162658903Y-103742080D01*
X162870047Y-103742067D01*
X164490400Y-103742067D01*
X164490400Y-103838854D01*
G37*
X164490400Y-103838854D02*
X164501265Y-103952793D01*
X164532882Y-104060416D01*
X164583785Y-104159415D01*
X164652507Y-104247484D01*
X164737581Y-104322316D01*
X164834568Y-104380184D01*
X164940836Y-104419805D01*
X165047850Y-104438373D01*
X165153500Y-104437234D01*
X165255675Y-104417730D01*
X165352266Y-104381206D01*
X165441162Y-104329005D01*
X165520254Y-104262473D01*
X165587431Y-104182952D01*
X165640583Y-104091787D01*
X165677601Y-103990323D01*
X165696373Y-103879902D01*
X165698311Y-103830006D01*
X165698311Y-103742067D01*
X165750240Y-103742067D01*
X165786547Y-103744911D01*
X165813445Y-103756711D01*
X165840551Y-103780449D01*
X165878933Y-103818831D01*
X165878933Y-106010402D01*
X165878924Y-106272539D01*
X165878892Y-106513041D01*
X165878828Y-106732848D01*
X165878724Y-106932901D01*
X165878573Y-107114144D01*
X165878366Y-107277516D01*
X165878094Y-107423960D01*
X165877750Y-107554417D01*
X165877326Y-107669829D01*
X165876813Y-107771138D01*
X165876203Y-107859284D01*
X165875488Y-107935210D01*
X165874660Y-107999857D01*
X165873711Y-108054167D01*
X165872633Y-108099080D01*
X165871417Y-108135540D01*
X165870055Y-108164487D01*
X165868539Y-108186863D01*
X165866862Y-108203609D01*
X165865014Y-108215668D01*
X165862987Y-108223980D01*
X165860775Y-108229487D01*
X165859692Y-108231337D01*
X165855529Y-108238349D01*
X165851995Y-108244796D01*
X165848165Y-108250700D01*
X165843118Y-108256086D01*
X165835929Y-108260978D01*
X165825677Y-108265398D01*
X165811436Y-108269372D01*
X165792286Y-108272921D01*
X165767301Y-108276070D01*
X165735560Y-108278842D01*
X165696138Y-108281261D01*
X165648114Y-108283351D01*
X165590563Y-108285135D01*
X165522563Y-108286637D01*
X165443190Y-108287880D01*
X165351521Y-108288889D01*
X165246634Y-108289685D01*
X165127604Y-108290294D01*
X164993510Y-108290739D01*
X164843427Y-108291043D01*
X164676433Y-108291230D01*
X164491604Y-108291324D01*
X164288017Y-108291348D01*
X164064750Y-108291325D01*
X163820878Y-108291280D01*
X163555479Y-108291237D01*
X163517096Y-108291232D01*
X163250118Y-108291189D01*
X163004798Y-108291118D01*
X162780217Y-108291013D01*
X162575455Y-108290866D01*
X162389594Y-108290669D01*
X162221712Y-108290416D01*
X162070892Y-108290100D01*
X161936213Y-108289713D01*
X161816756Y-108289247D01*
X161711601Y-108288697D01*
X161619829Y-108288053D01*
X161540521Y-108287311D01*
X161472757Y-108286461D01*
X161415618Y-108285497D01*
X161368183Y-108284411D01*
X161329534Y-108283197D01*
X161298751Y-108281847D01*
X161274915Y-108280355D01*
X161257106Y-108278711D01*
X161244405Y-108276911D01*
X161235892Y-108274945D01*
X161231534Y-108273277D01*
X161223072Y-108269706D01*
X161215303Y-108267070D01*
X161208198Y-108264434D01*
X161201727Y-108260862D01*
X161195861Y-108255421D01*
X161190571Y-108247175D01*
X161185826Y-108235190D01*
X161181598Y-108218531D01*
X161177857Y-108196263D01*
X161174573Y-108167452D01*
X161171717Y-108131163D01*
X161169260Y-108086461D01*
X161167171Y-108032411D01*
X161165422Y-107968079D01*
X161163983Y-107892530D01*
X161162824Y-107804830D01*
X161161917Y-107704043D01*
X161161231Y-107589234D01*
X161160737Y-107459470D01*
X161160405Y-107313815D01*
X161160207Y-107151335D01*
X161160113Y-106971095D01*
X161160092Y-106772160D01*
X161160115Y-106553596D01*
X161160154Y-106314468D01*
X161160178Y-106053840D01*
X161160178Y-106011689D01*
X161160164Y-105748792D01*
X161160139Y-105507532D01*
X161160129Y-105286965D01*
X161160158Y-105086152D01*
X161160252Y-104904149D01*
X161160438Y-104740016D01*
X161160741Y-104592811D01*
X161161186Y-104461592D01*
X161161766Y-104351667D01*
X161464603Y-104351667D01*
X161504393Y-104409511D01*
X161515564Y-104425279D01*
X161525634Y-104439241D01*
X161534662Y-104452584D01*
X161542703Y-104466493D01*
X161549814Y-104482156D01*
X161556053Y-104500758D01*
X161561475Y-104523486D01*
X161566138Y-104551527D01*
X161570099Y-104586067D01*
X161573415Y-104628292D01*
X161576141Y-104679389D01*
X161578336Y-104740544D01*
X161580055Y-104812944D01*
X161581356Y-104897775D01*
X161582295Y-104996222D01*
X161582930Y-105109474D01*
X161583316Y-105238716D01*
X161583512Y-105385134D01*
X161583573Y-105549916D01*
X161583557Y-105734247D01*
X161583520Y-105939313D01*
X161583511Y-106061933D01*
X161583535Y-106278882D01*
X161583569Y-106474442D01*
X161583557Y-106649799D01*
X161583442Y-106806141D01*
X161583170Y-106944657D01*
X161582682Y-107066534D01*
X161581924Y-107172960D01*
X161580838Y-107265122D01*
X161579369Y-107344209D01*
X161577460Y-107411408D01*
X161575056Y-107467907D01*
X161572099Y-107514893D01*
X161568534Y-107553555D01*
X161564305Y-107585080D01*
X161559354Y-107610655D01*
X161553627Y-107631470D01*
X161547067Y-107648711D01*
X161539617Y-107663565D01*
X161531221Y-107677222D01*
X161521824Y-107690869D01*
X161511368Y-107705693D01*
X161505277Y-107714583D01*
X161466504Y-107772200D01*
X161998068Y-107772200D01*
X162121317Y-107772165D01*
X162223813Y-107772015D01*
X162307380Y-107771678D01*
X162373844Y-107771086D01*
X162425029Y-107770167D01*
X162462759Y-107768851D01*
X162488860Y-107767069D01*
X162505156Y-107764751D01*
X162513472Y-107761826D01*
X162515632Y-107758224D01*
X162513461Y-107753875D01*
X162512265Y-107752445D01*
X162487115Y-107715373D01*
X162461217Y-107662572D01*
X162437608Y-107600570D01*
X162429339Y-107574157D01*
X162424722Y-107556216D01*
X162420821Y-107535155D01*
X162417552Y-107508889D01*
X162414834Y-107475332D01*
X162412585Y-107432399D01*
X162410723Y-107378004D01*
X162409164Y-107310062D01*
X162407828Y-107226488D01*
X162406631Y-107125195D01*
X162405492Y-107004100D01*
X162405115Y-106959400D01*
X162404098Y-106834249D01*
X162403340Y-106729882D01*
X162402897Y-106644507D01*
X162402830Y-106576333D01*
X162403195Y-106523565D01*
X162404052Y-106484414D01*
X162405459Y-106457085D01*
X162407475Y-106439786D01*
X162410157Y-106430726D01*
X162413564Y-106428112D01*
X162417756Y-106430151D01*
X162422229Y-106434467D01*
X162432584Y-106447402D01*
X162454642Y-106476476D01*
X162486843Y-106519559D01*
X162527626Y-106574518D01*
X162575430Y-106639223D01*
X162628695Y-106711542D01*
X162685860Y-106789344D01*
X162745363Y-106870498D01*
X162805645Y-106952872D01*
X162865145Y-107034336D01*
X162922302Y-107112757D01*
X162975555Y-107186004D01*
X163023343Y-107251947D01*
X163064107Y-107308454D01*
X163096284Y-107353393D01*
X163118315Y-107384634D01*
X163122883Y-107391266D01*
X163145804Y-107428169D01*
X163172612Y-107476159D01*
X163198011Y-107525697D01*
X163201232Y-107532377D01*
X163222910Y-107580572D01*
X163235496Y-107618134D01*
X163241226Y-107653960D01*
X163242344Y-107696000D01*
X163241710Y-107772200D01*
X164396149Y-107772200D01*
X164304985Y-107678469D01*
X164258188Y-107628575D01*
X164207901Y-107572095D01*
X164161856Y-107517826D01*
X164141431Y-107492473D01*
X164110993Y-107452928D01*
X164070938Y-107399716D01*
X164022439Y-107334467D01*
X163966665Y-107258811D01*
X163904789Y-107174377D01*
X163837981Y-107082794D01*
X163767413Y-106985692D01*
X163694255Y-106884701D01*
X163619679Y-106781450D01*
X163544856Y-106677568D01*
X163470957Y-106574685D01*
X163399154Y-106474431D01*
X163330616Y-106378436D01*
X163266516Y-106288327D01*
X163208025Y-106205736D01*
X163156314Y-106132292D01*
X163112553Y-106069624D01*
X163077915Y-106019361D01*
X163053570Y-105983134D01*
X163040689Y-105962571D01*
X163038931Y-105958468D01*
X163046890Y-105947142D01*
X163067685Y-105919962D01*
X163099953Y-105878629D01*
X163142330Y-105824844D01*
X163193453Y-105760306D01*
X163251959Y-105686718D01*
X163316486Y-105605778D01*
X163385669Y-105519188D01*
X163458147Y-105428648D01*
X163532554Y-105335860D01*
X163592283Y-105261502D01*
X164603289Y-105261502D01*
X164609198Y-105274459D01*
X164623528Y-105296708D01*
X164624575Y-105298191D01*
X164643362Y-105328344D01*
X164663009Y-105365175D01*
X164666908Y-105373311D01*
X164670444Y-105381740D01*
X164673570Y-105391859D01*
X164676314Y-105405060D01*
X164678708Y-105422738D01*
X164680781Y-105446284D01*
X164682565Y-105477093D01*
X164684088Y-105516557D01*
X164685381Y-105566069D01*
X164686474Y-105627023D01*
X164687397Y-105700811D01*
X164688181Y-105788828D01*
X164688855Y-105892465D01*
X164689450Y-106013116D01*
X164689995Y-106152174D01*
X164690521Y-106311032D01*
X164691055Y-106489889D01*
X164691594Y-106675007D01*
X164692028Y-106838945D01*
X164692291Y-106983103D01*
X164692316Y-107108879D01*
X164692035Y-107217671D01*
X164691381Y-107310877D01*
X164690286Y-107389897D01*
X164688682Y-107456128D01*
X164686503Y-107510970D01*
X164683681Y-107555821D01*
X164680149Y-107592078D01*
X164675839Y-107621141D01*
X164670683Y-107644409D01*
X164664615Y-107663279D01*
X164657567Y-107679151D01*
X164649471Y-107693422D01*
X164640260Y-107707491D01*
X164631760Y-107719958D01*
X164614624Y-107746252D01*
X164604478Y-107763837D01*
X164603289Y-107767057D01*
X164614196Y-107768134D01*
X164645389Y-107769135D01*
X164694577Y-107770035D01*
X164759467Y-107770810D01*
X164837770Y-107771437D01*
X164927193Y-107771891D01*
X165025444Y-107772149D01*
X165094355Y-107772200D01*
X165199348Y-107771980D01*
X165296190Y-107771348D01*
X165382693Y-107770349D01*
X165456668Y-107769027D01*
X165515926Y-107767426D01*
X165558280Y-107765591D01*
X165581540Y-107763565D01*
X165585422Y-107762293D01*
X165577724Y-107747391D01*
X165569726Y-107739360D01*
X165556554Y-107722234D01*
X165539315Y-107691983D01*
X165527393Y-107667422D01*
X165500755Y-107608511D01*
X165497680Y-106431645D01*
X165494605Y-105254778D01*
X165048947Y-105254778D01*
X164951130Y-105254942D01*
X164860736Y-105255411D01*
X164780170Y-105256147D01*
X164711838Y-105257116D01*
X164658144Y-105258280D01*
X164621495Y-105259603D01*
X164604296Y-105261049D01*
X164603289Y-105261502D01*
X163592283Y-105261502D01*
X163607530Y-105242522D01*
X163681710Y-105150337D01*
X163753731Y-105061004D01*
X163822231Y-104976224D01*
X163885845Y-104897698D01*
X163943212Y-104827126D01*
X163992967Y-104766209D01*
X164033748Y-104716647D01*
X164050912Y-104695978D01*
X164137204Y-104595316D01*
X164213803Y-104512059D01*
X164282617Y-104444238D01*
X164345552Y-104389889D01*
X164354933Y-104382522D01*
X164394444Y-104351917D01*
X163262684Y-104351667D01*
X163267973Y-104399644D01*
X163264670Y-104456988D01*
X163243139Y-104525263D01*
X163203165Y-104605012D01*
X163157857Y-104677295D01*
X163141639Y-104699940D01*
X163113586Y-104737496D01*
X163075370Y-104787821D01*
X163028663Y-104848773D01*
X162975139Y-104918211D01*
X162916469Y-104993994D01*
X162854325Y-105073980D01*
X162790379Y-105156028D01*
X162726305Y-105237996D01*
X162663773Y-105317743D01*
X162604457Y-105393127D01*
X162550029Y-105462007D01*
X162502161Y-105522242D01*
X162462525Y-105571689D01*
X162432794Y-105608208D01*
X162414639Y-105629658D01*
X162411580Y-105632956D01*
X162408721Y-105624949D01*
X162406507Y-105594655D01*
X162404943Y-105542356D01*
X162404033Y-105468331D01*
X162403780Y-105372863D01*
X162404187Y-105256234D01*
X162405096Y-105136245D01*
X162406418Y-105004133D01*
X162407943Y-104892394D01*
X162409919Y-104798825D01*
X162412594Y-104721219D01*
X162416218Y-104657374D01*
X162421039Y-104605083D01*
X162427306Y-104562144D01*
X162435268Y-104526351D01*
X162445173Y-104495500D01*
X162457269Y-104467386D01*
X162471807Y-104439805D01*
X162486489Y-104414766D01*
X162524486Y-104351667D01*
X161464603Y-104351667D01*
X161161766Y-104351667D01*
X161161799Y-104345417D01*
X161162605Y-104243344D01*
X161163630Y-104154433D01*
X161164900Y-104077741D01*
X161166440Y-104012327D01*
X161168276Y-103957249D01*
X161170433Y-103911565D01*
X161172937Y-103874334D01*
X161175813Y-103844613D01*
X161179087Y-103821462D01*
X161182785Y-103803939D01*
X161186931Y-103791101D01*
X161191553Y-103782008D01*
X161196674Y-103775718D01*
X161202322Y-103771288D01*
X161208521Y-103767778D01*
X161215296Y-103764245D01*
X161221292Y-103760676D01*
X161226525Y-103758100D01*
X161234701Y-103755772D01*
X161246914Y-103753678D01*
X161264259Y-103751807D01*
X161287831Y-103750147D01*
X161318723Y-103748684D01*
X161358032Y-103747408D01*
X161406850Y-103746304D01*
X161466273Y-103745361D01*
X161537396Y-103744567D01*
X161621312Y-103743909D01*
X161719117Y-103743375D01*
X161831906Y-103742953D01*
X161960771Y-103742629D01*
X162106809Y-103742392D01*
X162271114Y-103742230D01*
X162454780Y-103742130D01*
X162658903Y-103742080D01*
X162870047Y-103742067D01*
X164490400Y-103742067D01*
X164490400Y-103838854D01*
G36*
X167765229Y-104298871D02*
G01*
X167925370Y-104320045D01*
X168089310Y-104360185D01*
X168259113Y-104419689D01*
X168436843Y-104498954D01*
X168448110Y-104504499D01*
X168505805Y-104532525D01*
X168557352Y-104556602D01*
X168598991Y-104575049D01*
X168626962Y-104586186D01*
X168636533Y-104588733D01*
X168655750Y-104593741D01*
X168660361Y-104597947D01*
X168655258Y-104608380D01*
X168639218Y-104634668D01*
X168614088Y-104674057D01*
X168581714Y-104723791D01*
X168543943Y-104781115D01*
X168502622Y-104843276D01*
X168459598Y-104907518D01*
X168416717Y-104971085D01*
X168375826Y-105031225D01*
X168338771Y-105085180D01*
X168307400Y-105130197D01*
X168283559Y-105163521D01*
X168269094Y-105182397D01*
X168267109Y-105184587D01*
X168256991Y-105179938D01*
X168234650Y-105162762D01*
X168204080Y-105136240D01*
X168188336Y-105121764D01*
X168091847Y-105046482D01*
X167985136Y-104991041D01*
X167869632Y-104955941D01*
X167746762Y-104941680D01*
X167677361Y-104942851D01*
X167556223Y-104960012D01*
X167447005Y-104995894D01*
X167349382Y-105050759D01*
X167263028Y-105124870D01*
X167187615Y-105218488D01*
X167122818Y-105331876D01*
X167085401Y-105418467D01*
X167041548Y-105554166D01*
X167009228Y-105701650D01*
X166988357Y-105857114D01*
X166978851Y-106016756D01*
X166980627Y-106176773D01*
X166993603Y-106333361D01*
X167017694Y-106482718D01*
X167052818Y-106621040D01*
X167098892Y-106744524D01*
X167115173Y-106778778D01*
X167183420Y-106892864D01*
X167263879Y-106989357D01*
X167355370Y-107067470D01*
X167456711Y-107126417D01*
X167566720Y-107165412D01*
X167684215Y-107183668D01*
X167725683Y-107185011D01*
X167847241Y-107174090D01*
X167967678Y-107141274D01*
X168085466Y-107087239D01*
X168199077Y-107012665D01*
X168290485Y-106934339D01*
X168337015Y-106889808D01*
X168518283Y-107187071D01*
X168563380Y-107261233D01*
X168604619Y-107329446D01*
X168640535Y-107389259D01*
X168669666Y-107438220D01*
X168690550Y-107473879D01*
X168701724Y-107493784D01*
X168703175Y-107496879D01*
X168694946Y-107506518D01*
X168669367Y-107523799D01*
X168629673Y-107547083D01*
X168579097Y-107574734D01*
X168520874Y-107605115D01*
X168458237Y-107636590D01*
X168394421Y-107667522D01*
X168332660Y-107696273D01*
X168276188Y-107721208D01*
X168228238Y-107740689D01*
X168204786Y-107749118D01*
X168071021Y-107786933D01*
X167933127Y-107811936D01*
X167785422Y-107824940D01*
X167658633Y-107827268D01*
X167590678Y-107826173D01*
X167525077Y-107824075D01*
X167467647Y-107821234D01*
X167424203Y-107817906D01*
X167410098Y-107816222D01*
X167271084Y-107787387D01*
X167129557Y-107742268D01*
X166992075Y-107683550D01*
X166865194Y-107613920D01*
X166787689Y-107561241D01*
X166660281Y-107453039D01*
X166541978Y-107326471D01*
X166434972Y-107184666D01*
X166341452Y-107030751D01*
X166263610Y-106867853D01*
X166219756Y-106750556D01*
X166169508Y-106566928D01*
X166136009Y-106372381D01*
X166119249Y-106171125D01*
X166119216Y-105967368D01*
X166135901Y-105765321D01*
X166169293Y-105569192D01*
X166219380Y-105383191D01*
X166223197Y-105371603D01*
X166286081Y-105209550D01*
X166362828Y-105061632D01*
X166456042Y-104923665D01*
X166568327Y-104791461D01*
X166612192Y-104746199D01*
X166748334Y-104622257D01*
X166888291Y-104519715D01*
X167034211Y-104437456D01*
X167188242Y-104374364D01*
X167352532Y-104329323D01*
X167448089Y-104311833D01*
X167606823Y-104296266D01*
X167765229Y-104298871D01*
G37*
X167765229Y-104298871D02*
X167925370Y-104320045D01*
X168089310Y-104360185D01*
X168259113Y-104419689D01*
X168436843Y-104498954D01*
X168448110Y-104504499D01*
X168505805Y-104532525D01*
X168557352Y-104556602D01*
X168598991Y-104575049D01*
X168626962Y-104586186D01*
X168636533Y-104588733D01*
X168655750Y-104593741D01*
X168660361Y-104597947D01*
X168655258Y-104608380D01*
X168639218Y-104634668D01*
X168614088Y-104674057D01*
X168581714Y-104723791D01*
X168543943Y-104781115D01*
X168502622Y-104843276D01*
X168459598Y-104907518D01*
X168416717Y-104971085D01*
X168375826Y-105031225D01*
X168338771Y-105085180D01*
X168307400Y-105130197D01*
X168283559Y-105163521D01*
X168269094Y-105182397D01*
X168267109Y-105184587D01*
X168256991Y-105179938D01*
X168234650Y-105162762D01*
X168204080Y-105136240D01*
X168188336Y-105121764D01*
X168091847Y-105046482D01*
X167985136Y-104991041D01*
X167869632Y-104955941D01*
X167746762Y-104941680D01*
X167677361Y-104942851D01*
X167556223Y-104960012D01*
X167447005Y-104995894D01*
X167349382Y-105050759D01*
X167263028Y-105124870D01*
X167187615Y-105218488D01*
X167122818Y-105331876D01*
X167085401Y-105418467D01*
X167041548Y-105554166D01*
X167009228Y-105701650D01*
X166988357Y-105857114D01*
X166978851Y-106016756D01*
X166980627Y-106176773D01*
X166993603Y-106333361D01*
X167017694Y-106482718D01*
X167052818Y-106621040D01*
X167098892Y-106744524D01*
X167115173Y-106778778D01*
X167183420Y-106892864D01*
X167263879Y-106989357D01*
X167355370Y-107067470D01*
X167456711Y-107126417D01*
X167566720Y-107165412D01*
X167684215Y-107183668D01*
X167725683Y-107185011D01*
X167847241Y-107174090D01*
X167967678Y-107141274D01*
X168085466Y-107087239D01*
X168199077Y-107012665D01*
X168290485Y-106934339D01*
X168337015Y-106889808D01*
X168518283Y-107187071D01*
X168563380Y-107261233D01*
X168604619Y-107329446D01*
X168640535Y-107389259D01*
X168669666Y-107438220D01*
X168690550Y-107473879D01*
X168701724Y-107493784D01*
X168703175Y-107496879D01*
X168694946Y-107506518D01*
X168669367Y-107523799D01*
X168629673Y-107547083D01*
X168579097Y-107574734D01*
X168520874Y-107605115D01*
X168458237Y-107636590D01*
X168394421Y-107667522D01*
X168332660Y-107696273D01*
X168276188Y-107721208D01*
X168228238Y-107740689D01*
X168204786Y-107749118D01*
X168071021Y-107786933D01*
X167933127Y-107811936D01*
X167785422Y-107824940D01*
X167658633Y-107827268D01*
X167590678Y-107826173D01*
X167525077Y-107824075D01*
X167467647Y-107821234D01*
X167424203Y-107817906D01*
X167410098Y-107816222D01*
X167271084Y-107787387D01*
X167129557Y-107742268D01*
X166992075Y-107683550D01*
X166865194Y-107613920D01*
X166787689Y-107561241D01*
X166660281Y-107453039D01*
X166541978Y-107326471D01*
X166434972Y-107184666D01*
X166341452Y-107030751D01*
X166263610Y-106867853D01*
X166219756Y-106750556D01*
X166169508Y-106566928D01*
X166136009Y-106372381D01*
X166119249Y-106171125D01*
X166119216Y-105967368D01*
X166135901Y-105765321D01*
X166169293Y-105569192D01*
X166219380Y-105383191D01*
X166223197Y-105371603D01*
X166286081Y-105209550D01*
X166362828Y-105061632D01*
X166456042Y-104923665D01*
X166568327Y-104791461D01*
X166612192Y-104746199D01*
X166748334Y-104622257D01*
X166888291Y-104519715D01*
X167034211Y-104437456D01*
X167188242Y-104374364D01*
X167352532Y-104329323D01*
X167448089Y-104311833D01*
X167606823Y-104296266D01*
X167765229Y-104298871D01*
G36*
X170110374Y-105216352D02*
G01*
X170262292Y-105236367D01*
X170397556Y-105270002D01*
X170517039Y-105317525D01*
X170621615Y-105379205D01*
X170699224Y-105442765D01*
X170768065Y-105516899D01*
X170821806Y-105596671D01*
X170864710Y-105688891D01*
X170880184Y-105731961D01*
X170893044Y-105770942D01*
X170904246Y-105807089D01*
X170913920Y-105842234D01*
X170922196Y-105878210D01*
X170929203Y-105916850D01*
X170935072Y-105959985D01*
X170939931Y-106009449D01*
X170943910Y-106067073D01*
X170947140Y-106134691D01*
X170949749Y-106214134D01*
X170951867Y-106307236D01*
X170953624Y-106415827D01*
X170955149Y-106541742D01*
X170956572Y-106686812D01*
X170957825Y-106829578D01*
X170959151Y-106985768D01*
X170960356Y-107121039D01*
X170961566Y-107237046D01*
X170962906Y-107335445D01*
X170964500Y-107417893D01*
X170966475Y-107486046D01*
X170968956Y-107541560D01*
X170972069Y-107586092D01*
X170975938Y-107621298D01*
X170980689Y-107648834D01*
X170986448Y-107670356D01*
X170993339Y-107687522D01*
X171001489Y-107701986D01*
X171011023Y-107715406D01*
X171022066Y-107729438D01*
X171026366Y-107734871D01*
X171042186Y-107757710D01*
X171049222Y-107773263D01*
X171049244Y-107773722D01*
X171038367Y-107775921D01*
X171007382Y-107777947D01*
X170958757Y-107779742D01*
X170894963Y-107781251D01*
X170818469Y-107782416D01*
X170731744Y-107783180D01*
X170637257Y-107783486D01*
X170626350Y-107783489D01*
X170203457Y-107783489D01*
X170200195Y-107687422D01*
X170196933Y-107591356D01*
X170134844Y-107642343D01*
X170037514Y-107709857D01*
X169927613Y-107764549D01*
X169841149Y-107794778D01*
X169772078Y-107809466D01*
X169688725Y-107819459D01*
X169598959Y-107824446D01*
X169510645Y-107824113D01*
X169431651Y-107818151D01*
X169395422Y-107812438D01*
X169255403Y-107774576D01*
X169128978Y-107719732D01*
X169017060Y-107648724D01*
X168920562Y-107562368D01*
X168840400Y-107461479D01*
X168777487Y-107346876D01*
X168733112Y-107220784D01*
X168720778Y-107164201D01*
X168713168Y-107102002D01*
X168709539Y-107027163D01*
X168709045Y-106993267D01*
X168709110Y-106990082D01*
X169469048Y-106990082D01*
X169478341Y-107065133D01*
X169506528Y-107128960D01*
X169554997Y-107184598D01*
X169560054Y-107189011D01*
X169608348Y-107223837D01*
X169660057Y-107246420D01*
X169720789Y-107258340D01*
X169796152Y-107261183D01*
X169814259Y-107260778D01*
X169868078Y-107258125D01*
X169908108Y-107252709D01*
X169943124Y-107242545D01*
X169981903Y-107225650D01*
X169992545Y-107220472D01*
X170053196Y-107184644D01*
X170100015Y-107142012D01*
X170112752Y-107126773D01*
X170157422Y-107070262D01*
X170157422Y-106874386D01*
X170156886Y-106795739D01*
X170155196Y-106737788D01*
X170152228Y-106698675D01*
X170147857Y-106676541D01*
X170143772Y-106670074D01*
X170127847Y-106666911D01*
X170094064Y-106664288D01*
X170047140Y-106662455D01*
X169991793Y-106661657D01*
X169982906Y-106661642D01*
X169862130Y-106666896D01*
X169759460Y-106683063D01*
X169672906Y-106710761D01*
X169600481Y-106750608D01*
X169545551Y-106797558D01*
X169501004Y-106855445D01*
X169476280Y-106918493D01*
X169469048Y-106990082D01*
X168709110Y-106990082D01*
X168710978Y-106899512D01*
X168719322Y-106820612D01*
X168735568Y-106749390D01*
X168761205Y-106678664D01*
X168785201Y-106626293D01*
X168843820Y-106530996D01*
X168921917Y-106442970D01*
X169017115Y-106363817D01*
X169127038Y-106295140D01*
X169249310Y-106238541D01*
X169381555Y-106195621D01*
X169446222Y-106180682D01*
X169582404Y-106158577D01*
X169730849Y-106143994D01*
X169882305Y-106137613D01*
X170008864Y-106139245D01*
X170170750Y-106146024D01*
X170163330Y-106087045D01*
X170144038Y-105987892D01*
X170112904Y-105907172D01*
X170069069Y-105844266D01*
X170011671Y-105798556D01*
X169939848Y-105769422D01*
X169852741Y-105756247D01*
X169749486Y-105758411D01*
X169711511Y-105762412D01*
X169570320Y-105787580D01*
X169433507Y-105828614D01*
X169338978Y-105866615D01*
X169293818Y-105885990D01*
X169255385Y-105901560D01*
X169229034Y-105911205D01*
X169221346Y-105913252D01*
X169211602Y-105904174D01*
X169194883Y-105875205D01*
X169171032Y-105826017D01*
X169139893Y-105756284D01*
X169101307Y-105665679D01*
X169094710Y-105649889D01*
X169064653Y-105577572D01*
X169037674Y-105512225D01*
X169014936Y-105456706D01*
X168997606Y-105413872D01*
X168986848Y-105386581D01*
X168983741Y-105377742D01*
X168993740Y-105372987D01*
X169020017Y-105367710D01*
X169048289Y-105364031D01*
X169078446Y-105359274D01*
X169126233Y-105349828D01*
X169187412Y-105336620D01*
X169257746Y-105320576D01*
X169332994Y-105302620D01*
X169361555Y-105295597D01*
X169466616Y-105270009D01*
X169554280Y-105249947D01*
X169628868Y-105234769D01*
X169694703Y-105223835D01*
X169756107Y-105216504D01*
X169817402Y-105212135D01*
X169882910Y-105210087D01*
X169940928Y-105209689D01*
X170110374Y-105216352D01*
G37*
X170110374Y-105216352D02*
X170262292Y-105236367D01*
X170397556Y-105270002D01*
X170517039Y-105317525D01*
X170621615Y-105379205D01*
X170699224Y-105442765D01*
X170768065Y-105516899D01*
X170821806Y-105596671D01*
X170864710Y-105688891D01*
X170880184Y-105731961D01*
X170893044Y-105770942D01*
X170904246Y-105807089D01*
X170913920Y-105842234D01*
X170922196Y-105878210D01*
X170929203Y-105916850D01*
X170935072Y-105959985D01*
X170939931Y-106009449D01*
X170943910Y-106067073D01*
X170947140Y-106134691D01*
X170949749Y-106214134D01*
X170951867Y-106307236D01*
X170953624Y-106415827D01*
X170955149Y-106541742D01*
X170956572Y-106686812D01*
X170957825Y-106829578D01*
X170959151Y-106985768D01*
X170960356Y-107121039D01*
X170961566Y-107237046D01*
X170962906Y-107335445D01*
X170964500Y-107417893D01*
X170966475Y-107486046D01*
X170968956Y-107541560D01*
X170972069Y-107586092D01*
X170975938Y-107621298D01*
X170980689Y-107648834D01*
X170986448Y-107670356D01*
X170993339Y-107687522D01*
X171001489Y-107701986D01*
X171011023Y-107715406D01*
X171022066Y-107729438D01*
X171026366Y-107734871D01*
X171042186Y-107757710D01*
X171049222Y-107773263D01*
X171049244Y-107773722D01*
X171038367Y-107775921D01*
X171007382Y-107777947D01*
X170958757Y-107779742D01*
X170894963Y-107781251D01*
X170818469Y-107782416D01*
X170731744Y-107783180D01*
X170637257Y-107783486D01*
X170626350Y-107783489D01*
X170203457Y-107783489D01*
X170200195Y-107687422D01*
X170196933Y-107591356D01*
X170134844Y-107642343D01*
X170037514Y-107709857D01*
X169927613Y-107764549D01*
X169841149Y-107794778D01*
X169772078Y-107809466D01*
X169688725Y-107819459D01*
X169598959Y-107824446D01*
X169510645Y-107824113D01*
X169431651Y-107818151D01*
X169395422Y-107812438D01*
X169255403Y-107774576D01*
X169128978Y-107719732D01*
X169017060Y-107648724D01*
X168920562Y-107562368D01*
X168840400Y-107461479D01*
X168777487Y-107346876D01*
X168733112Y-107220784D01*
X168720778Y-107164201D01*
X168713168Y-107102002D01*
X168709539Y-107027163D01*
X168709045Y-106993267D01*
X168709110Y-106990082D01*
X169469048Y-106990082D01*
X169478341Y-107065133D01*
X169506528Y-107128960D01*
X169554997Y-107184598D01*
X169560054Y-107189011D01*
X169608348Y-107223837D01*
X169660057Y-107246420D01*
X169720789Y-107258340D01*
X169796152Y-107261183D01*
X169814259Y-107260778D01*
X169868078Y-107258125D01*
X169908108Y-107252709D01*
X169943124Y-107242545D01*
X169981903Y-107225650D01*
X169992545Y-107220472D01*
X170053196Y-107184644D01*
X170100015Y-107142012D01*
X170112752Y-107126773D01*
X170157422Y-107070262D01*
X170157422Y-106874386D01*
X170156886Y-106795739D01*
X170155196Y-106737788D01*
X170152228Y-106698675D01*
X170147857Y-106676541D01*
X170143772Y-106670074D01*
X170127847Y-106666911D01*
X170094064Y-106664288D01*
X170047140Y-106662455D01*
X169991793Y-106661657D01*
X169982906Y-106661642D01*
X169862130Y-106666896D01*
X169759460Y-106683063D01*
X169672906Y-106710761D01*
X169600481Y-106750608D01*
X169545551Y-106797558D01*
X169501004Y-106855445D01*
X169476280Y-106918493D01*
X169469048Y-106990082D01*
X168709110Y-106990082D01*
X168710978Y-106899512D01*
X168719322Y-106820612D01*
X168735568Y-106749390D01*
X168761205Y-106678664D01*
X168785201Y-106626293D01*
X168843820Y-106530996D01*
X168921917Y-106442970D01*
X169017115Y-106363817D01*
X169127038Y-106295140D01*
X169249310Y-106238541D01*
X169381555Y-106195621D01*
X169446222Y-106180682D01*
X169582404Y-106158577D01*
X169730849Y-106143994D01*
X169882305Y-106137613D01*
X170008864Y-106139245D01*
X170170750Y-106146024D01*
X170163330Y-106087045D01*
X170144038Y-105987892D01*
X170112904Y-105907172D01*
X170069069Y-105844266D01*
X170011671Y-105798556D01*
X169939848Y-105769422D01*
X169852741Y-105756247D01*
X169749486Y-105758411D01*
X169711511Y-105762412D01*
X169570320Y-105787580D01*
X169433507Y-105828614D01*
X169338978Y-105866615D01*
X169293818Y-105885990D01*
X169255385Y-105901560D01*
X169229034Y-105911205D01*
X169221346Y-105913252D01*
X169211602Y-105904174D01*
X169194883Y-105875205D01*
X169171032Y-105826017D01*
X169139893Y-105756284D01*
X169101307Y-105665679D01*
X169094710Y-105649889D01*
X169064653Y-105577572D01*
X169037674Y-105512225D01*
X169014936Y-105456706D01*
X168997606Y-105413872D01*
X168986848Y-105386581D01*
X168983741Y-105377742D01*
X168993740Y-105372987D01*
X169020017Y-105367710D01*
X169048289Y-105364031D01*
X169078446Y-105359274D01*
X169126233Y-105349828D01*
X169187412Y-105336620D01*
X169257746Y-105320576D01*
X169332994Y-105302620D01*
X169361555Y-105295597D01*
X169466616Y-105270009D01*
X169554280Y-105249947D01*
X169628868Y-105234769D01*
X169694703Y-105223835D01*
X169756107Y-105216504D01*
X169817402Y-105212135D01*
X169882910Y-105210087D01*
X169940928Y-105209689D01*
X170110374Y-105216352D01*
G36*
X173623307Y-105822045D02*
G01*
X173623326Y-106056462D01*
X173623352Y-106269403D01*
X173623425Y-106461968D01*
X173623582Y-106635259D01*
X173623864Y-106790376D01*
X173624309Y-106928420D01*
X173624956Y-107050492D01*
X173625845Y-107157694D01*
X173627013Y-107251126D01*
X173628501Y-107331890D01*
X173630346Y-107401086D01*
X173632589Y-107459815D01*
X173635269Y-107509179D01*
X173638423Y-107550278D01*
X173642092Y-107584213D01*
X173646313Y-107612086D01*
X173651127Y-107634998D01*
X173656573Y-107654049D01*
X173662688Y-107670340D01*
X173669512Y-107684973D01*
X173677085Y-107699049D01*
X173685445Y-107713668D01*
X173690639Y-107722774D01*
X173724904Y-107783489D01*
X172866755Y-107783489D01*
X172866755Y-107687533D01*
X172866024Y-107644170D01*
X172864072Y-107611005D01*
X172861263Y-107593224D01*
X172860021Y-107591578D01*
X172848599Y-107598462D01*
X172825884Y-107616305D01*
X172803185Y-107635679D01*
X172748600Y-107676414D01*
X172679121Y-107717417D01*
X172602070Y-107754923D01*
X172524765Y-107785164D01*
X172493913Y-107794812D01*
X172425416Y-107809378D01*
X172342564Y-107819339D01*
X172253171Y-107824383D01*
X172165048Y-107824196D01*
X172086007Y-107818466D01*
X172048311Y-107812658D01*
X171910214Y-107774597D01*
X171782913Y-107716873D01*
X171667092Y-107640011D01*
X171563437Y-107544539D01*
X171472633Y-107430979D01*
X171405831Y-107320181D01*
X171350964Y-107203425D01*
X171308963Y-107084076D01*
X171278967Y-106958083D01*
X171260111Y-106821394D01*
X171251532Y-106669958D01*
X171250806Y-106592511D01*
X171252900Y-106535734D01*
X172082017Y-106535734D01*
X172082224Y-106628802D01*
X172085137Y-106716492D01*
X172090800Y-106793572D01*
X172099255Y-106854809D01*
X172101838Y-106867150D01*
X172133640Y-106974433D01*
X172175298Y-107061458D01*
X172227163Y-107128442D01*
X172289581Y-107175605D01*
X172362900Y-107203165D01*
X172447469Y-107211341D01*
X172543635Y-107200351D01*
X172607111Y-107184629D01*
X172656254Y-107166439D01*
X172710383Y-107140591D01*
X172751044Y-107116889D01*
X172821600Y-107070521D01*
X172821600Y-105920330D01*
X172754192Y-105876762D01*
X172675667Y-105835840D01*
X172591481Y-105809189D01*
X172506357Y-105797265D01*
X172425016Y-105800522D01*
X172352180Y-105819415D01*
X172320226Y-105834984D01*
X172262301Y-105877981D01*
X172213344Y-105934753D01*
X172172190Y-106007375D01*
X172137674Y-106097921D01*
X172108633Y-106208466D01*
X172107352Y-106214333D01*
X172097181Y-106276588D01*
X172089539Y-106354394D01*
X172084470Y-106442520D01*
X172082017Y-106535734D01*
X171252900Y-106535734D01*
X171258657Y-106379695D01*
X171280602Y-106183859D01*
X171316586Y-106005132D01*
X171366559Y-105843645D01*
X171430468Y-105699526D01*
X171508262Y-105572906D01*
X171599889Y-105463915D01*
X171705297Y-105372683D01*
X171750462Y-105341732D01*
X171851411Y-105285585D01*
X171954701Y-105245974D01*
X172064789Y-105221814D01*
X172186130Y-105212019D01*
X172278636Y-105213065D01*
X172408290Y-105224031D01*
X172520884Y-105245846D01*
X172619675Y-105279514D01*
X172707921Y-105326036D01*
X172756786Y-105360248D01*
X172786153Y-105382162D01*
X172807843Y-105397133D01*
X172816053Y-105401533D01*
X172817668Y-105390704D01*
X172818959Y-105360051D01*
X172819938Y-105312326D01*
X172820617Y-105250279D01*
X172821010Y-105176662D01*
X172821130Y-105094227D01*
X172820988Y-105005725D01*
X172820597Y-104913907D01*
X172819971Y-104821524D01*
X172819120Y-104731328D01*
X172818060Y-104646071D01*
X172816801Y-104568503D01*
X172815356Y-104501376D01*
X172813738Y-104447441D01*
X172811961Y-104409450D01*
X172811469Y-104402467D01*
X172803892Y-104332051D01*
X172792331Y-104276902D01*
X172774592Y-104229781D01*
X172748482Y-104183447D01*
X172742215Y-104173867D01*
X172717783Y-104137178D01*
X173623111Y-104137178D01*
X173623307Y-105822045D01*
G37*
X173623307Y-105822045D02*
X173623326Y-106056462D01*
X173623352Y-106269403D01*
X173623425Y-106461968D01*
X173623582Y-106635259D01*
X173623864Y-106790376D01*
X173624309Y-106928420D01*
X173624956Y-107050492D01*
X173625845Y-107157694D01*
X173627013Y-107251126D01*
X173628501Y-107331890D01*
X173630346Y-107401086D01*
X173632589Y-107459815D01*
X173635269Y-107509179D01*
X173638423Y-107550278D01*
X173642092Y-107584213D01*
X173646313Y-107612086D01*
X173651127Y-107634998D01*
X173656573Y-107654049D01*
X173662688Y-107670340D01*
X173669512Y-107684973D01*
X173677085Y-107699049D01*
X173685445Y-107713668D01*
X173690639Y-107722774D01*
X173724904Y-107783489D01*
X172866755Y-107783489D01*
X172866755Y-107687533D01*
X172866024Y-107644170D01*
X172864072Y-107611005D01*
X172861263Y-107593224D01*
X172860021Y-107591578D01*
X172848599Y-107598462D01*
X172825884Y-107616305D01*
X172803185Y-107635679D01*
X172748600Y-107676414D01*
X172679121Y-107717417D01*
X172602070Y-107754923D01*
X172524765Y-107785164D01*
X172493913Y-107794812D01*
X172425416Y-107809378D01*
X172342564Y-107819339D01*
X172253171Y-107824383D01*
X172165048Y-107824196D01*
X172086007Y-107818466D01*
X172048311Y-107812658D01*
X171910214Y-107774597D01*
X171782913Y-107716873D01*
X171667092Y-107640011D01*
X171563437Y-107544539D01*
X171472633Y-107430979D01*
X171405831Y-107320181D01*
X171350964Y-107203425D01*
X171308963Y-107084076D01*
X171278967Y-106958083D01*
X171260111Y-106821394D01*
X171251532Y-106669958D01*
X171250806Y-106592511D01*
X171252900Y-106535734D01*
X172082017Y-106535734D01*
X172082224Y-106628802D01*
X172085137Y-106716492D01*
X172090800Y-106793572D01*
X172099255Y-106854809D01*
X172101838Y-106867150D01*
X172133640Y-106974433D01*
X172175298Y-107061458D01*
X172227163Y-107128442D01*
X172289581Y-107175605D01*
X172362900Y-107203165D01*
X172447469Y-107211341D01*
X172543635Y-107200351D01*
X172607111Y-107184629D01*
X172656254Y-107166439D01*
X172710383Y-107140591D01*
X172751044Y-107116889D01*
X172821600Y-107070521D01*
X172821600Y-105920330D01*
X172754192Y-105876762D01*
X172675667Y-105835840D01*
X172591481Y-105809189D01*
X172506357Y-105797265D01*
X172425016Y-105800522D01*
X172352180Y-105819415D01*
X172320226Y-105834984D01*
X172262301Y-105877981D01*
X172213344Y-105934753D01*
X172172190Y-106007375D01*
X172137674Y-106097921D01*
X172108633Y-106208466D01*
X172107352Y-106214333D01*
X172097181Y-106276588D01*
X172089539Y-106354394D01*
X172084470Y-106442520D01*
X172082017Y-106535734D01*
X171252900Y-106535734D01*
X171258657Y-106379695D01*
X171280602Y-106183859D01*
X171316586Y-106005132D01*
X171366559Y-105843645D01*
X171430468Y-105699526D01*
X171508262Y-105572906D01*
X171599889Y-105463915D01*
X171705297Y-105372683D01*
X171750462Y-105341732D01*
X171851411Y-105285585D01*
X171954701Y-105245974D01*
X172064789Y-105221814D01*
X172186130Y-105212019D01*
X172278636Y-105213065D01*
X172408290Y-105224031D01*
X172520884Y-105245846D01*
X172619675Y-105279514D01*
X172707921Y-105326036D01*
X172756786Y-105360248D01*
X172786153Y-105382162D01*
X172807843Y-105397133D01*
X172816053Y-105401533D01*
X172817668Y-105390704D01*
X172818959Y-105360051D01*
X172819938Y-105312326D01*
X172820617Y-105250279D01*
X172821010Y-105176662D01*
X172821130Y-105094227D01*
X172820988Y-105005725D01*
X172820597Y-104913907D01*
X172819971Y-104821524D01*
X172819120Y-104731328D01*
X172818060Y-104646071D01*
X172816801Y-104568503D01*
X172815356Y-104501376D01*
X172813738Y-104447441D01*
X172811961Y-104409450D01*
X172811469Y-104402467D01*
X172803892Y-104332051D01*
X172792331Y-104276902D01*
X172774592Y-104229781D01*
X172748482Y-104183447D01*
X172742215Y-104173867D01*
X172717783Y-104137178D01*
X173623111Y-104137178D01*
X173623307Y-105822045D01*
G36*
X165163757Y-103376371D02*
G01*
X165260032Y-103400609D01*
X165346616Y-103443441D01*
X165421427Y-103503219D01*
X165482382Y-103578294D01*
X165527401Y-103667020D01*
X165553664Y-103763330D01*
X165559514Y-103860595D01*
X165544660Y-103954454D01*
X165510960Y-104042311D01*
X165460272Y-104121570D01*
X165394455Y-104189636D01*
X165315366Y-104243912D01*
X165224866Y-104281802D01*
X165173600Y-104294226D01*
X165129102Y-104301747D01*
X165094801Y-104304719D01*
X165061840Y-104302894D01*
X165021366Y-104296025D01*
X164988269Y-104289050D01*
X164894853Y-104257541D01*
X164811181Y-104206417D01*
X164739135Y-104137229D01*
X164680600Y-104051528D01*
X164666652Y-104024289D01*
X164650214Y-103987922D01*
X164639906Y-103957382D01*
X164634340Y-103925250D01*
X164632131Y-103884107D01*
X164631852Y-103838022D01*
X164635939Y-103753665D01*
X164649354Y-103684386D01*
X164674544Y-103623761D01*
X164713954Y-103565367D01*
X164752502Y-103521102D01*
X164824394Y-103455284D01*
X164899487Y-103409853D01*
X164982238Y-103382650D01*
X165059872Y-103372376D01*
X165163757Y-103376371D01*
G37*
X165163757Y-103376371D02*
X165260032Y-103400609D01*
X165346616Y-103443441D01*
X165421427Y-103503219D01*
X165482382Y-103578294D01*
X165527401Y-103667020D01*
X165553664Y-103763330D01*
X165559514Y-103860595D01*
X165544660Y-103954454D01*
X165510960Y-104042311D01*
X165460272Y-104121570D01*
X165394455Y-104189636D01*
X165315366Y-104243912D01*
X165224866Y-104281802D01*
X165173600Y-104294226D01*
X165129102Y-104301747D01*
X165094801Y-104304719D01*
X165061840Y-104302894D01*
X165021366Y-104296025D01*
X164988269Y-104289050D01*
X164894853Y-104257541D01*
X164811181Y-104206417D01*
X164739135Y-104137229D01*
X164680600Y-104051528D01*
X164666652Y-104024289D01*
X164650214Y-103987922D01*
X164639906Y-103957382D01*
X164634340Y-103925250D01*
X164632131Y-103884107D01*
X164631852Y-103838022D01*
X164635939Y-103753665D01*
X164649354Y-103684386D01*
X164674544Y-103623761D01*
X164713954Y-103565367D01*
X164752502Y-103521102D01*
X164824394Y-103455284D01*
X164899487Y-103409853D01*
X164982238Y-103382650D01*
X165059872Y-103372376D01*
X165163757Y-103376371D01*
G36*
X161315429Y-108618866D02*
G01*
X161354911Y-108619267D01*
X161470600Y-108622059D01*
X161567489Y-108630350D01*
X161648881Y-108645032D01*
X161718077Y-108666993D01*
X161778380Y-108697122D01*
X161833092Y-108736310D01*
X161852633Y-108753332D01*
X161885050Y-108793163D01*
X161914280Y-108847213D01*
X161936809Y-108907123D01*
X161949121Y-108964539D01*
X161950400Y-108985756D01*
X161942383Y-109044569D01*
X161920901Y-109108813D01*
X161889801Y-109169621D01*
X161852934Y-109218130D01*
X161846946Y-109223982D01*
X161796221Y-109265121D01*
X161740675Y-109297235D01*
X161677104Y-109321165D01*
X161602306Y-109337753D01*
X161513078Y-109347841D01*
X161406218Y-109352269D01*
X161357272Y-109352645D01*
X161295038Y-109352345D01*
X161251272Y-109351092D01*
X161221869Y-109348354D01*
X161202721Y-109343601D01*
X161189723Y-109336301D01*
X161182755Y-109330067D01*
X161176174Y-109322494D01*
X161171012Y-109312724D01*
X161167097Y-109298140D01*
X161164257Y-109276126D01*
X161162320Y-109244064D01*
X161161116Y-109199336D01*
X161160472Y-109139326D01*
X161160217Y-109061417D01*
X161160178Y-108985756D01*
X161159930Y-108884841D01*
X161159983Y-108804227D01*
X161160943Y-108765622D01*
X161306933Y-108765622D01*
X161306933Y-109205889D01*
X161400066Y-109205804D01*
X161456107Y-109204196D01*
X161514801Y-109200056D01*
X161563772Y-109194264D01*
X161565262Y-109194026D01*
X161644408Y-109174890D01*
X161705798Y-109145087D01*
X161752495Y-109102678D01*
X161782165Y-109056761D01*
X161800447Y-109005826D01*
X161799029Y-108958000D01*
X161777812Y-108906733D01*
X161736311Y-108853699D01*
X161678802Y-108814400D01*
X161604050Y-108788131D01*
X161554092Y-108778835D01*
X161497384Y-108772307D01*
X161437281Y-108767582D01*
X161386161Y-108765617D01*
X161383133Y-108765608D01*
X161306933Y-108765622D01*
X161160943Y-108765622D01*
X161161540Y-108741651D01*
X161165802Y-108694855D01*
X161173970Y-108661578D01*
X161187244Y-108639559D01*
X161206826Y-108626539D01*
X161233917Y-108620257D01*
X161269718Y-108618453D01*
X161315429Y-108618866D01*
G37*
X161315429Y-108618866D02*
X161354911Y-108619267D01*
X161470600Y-108622059D01*
X161567489Y-108630350D01*
X161648881Y-108645032D01*
X161718077Y-108666993D01*
X161778380Y-108697122D01*
X161833092Y-108736310D01*
X161852633Y-108753332D01*
X161885050Y-108793163D01*
X161914280Y-108847213D01*
X161936809Y-108907123D01*
X161949121Y-108964539D01*
X161950400Y-108985756D01*
X161942383Y-109044569D01*
X161920901Y-109108813D01*
X161889801Y-109169621D01*
X161852934Y-109218130D01*
X161846946Y-109223982D01*
X161796221Y-109265121D01*
X161740675Y-109297235D01*
X161677104Y-109321165D01*
X161602306Y-109337753D01*
X161513078Y-109347841D01*
X161406218Y-109352269D01*
X161357272Y-109352645D01*
X161295038Y-109352345D01*
X161251272Y-109351092D01*
X161221869Y-109348354D01*
X161202721Y-109343601D01*
X161189723Y-109336301D01*
X161182755Y-109330067D01*
X161176174Y-109322494D01*
X161171012Y-109312724D01*
X161167097Y-109298140D01*
X161164257Y-109276126D01*
X161162320Y-109244064D01*
X161161116Y-109199336D01*
X161160472Y-109139326D01*
X161160217Y-109061417D01*
X161160178Y-108985756D01*
X161159930Y-108884841D01*
X161159983Y-108804227D01*
X161160943Y-108765622D01*
X161306933Y-108765622D01*
X161306933Y-109205889D01*
X161400066Y-109205804D01*
X161456107Y-109204196D01*
X161514801Y-109200056D01*
X161563772Y-109194264D01*
X161565262Y-109194026D01*
X161644408Y-109174890D01*
X161705798Y-109145087D01*
X161752495Y-109102678D01*
X161782165Y-109056761D01*
X161800447Y-109005826D01*
X161799029Y-108958000D01*
X161777812Y-108906733D01*
X161736311Y-108853699D01*
X161678802Y-108814400D01*
X161604050Y-108788131D01*
X161554092Y-108778835D01*
X161497384Y-108772307D01*
X161437281Y-108767582D01*
X161386161Y-108765617D01*
X161383133Y-108765608D01*
X161306933Y-108765622D01*
X161160943Y-108765622D01*
X161161540Y-108741651D01*
X161165802Y-108694855D01*
X161173970Y-108661578D01*
X161187244Y-108639559D01*
X161206826Y-108626539D01*
X161233917Y-108620257D01*
X161269718Y-108618453D01*
X161315429Y-108618866D01*
G36*
X162724006Y-108618946D02*
G01*
X162793414Y-108619318D01*
X162845803Y-108620185D01*
X162883953Y-108621746D01*
X162910641Y-108624203D01*
X162928647Y-108627757D01*
X162940751Y-108632610D01*
X162949731Y-108638961D01*
X162952982Y-108641884D01*
X162972757Y-108672942D01*
X162976318Y-108708628D01*
X162963309Y-108740310D01*
X162957294Y-108746713D01*
X162947565Y-108752921D01*
X162931899Y-108757710D01*
X162907392Y-108761314D01*
X162871139Y-108763964D01*
X162820235Y-108765895D01*
X162751774Y-108767339D01*
X162689183Y-108768218D01*
X162441466Y-108771267D01*
X162438081Y-108836178D01*
X162434695Y-108901089D01*
X162602842Y-108901089D01*
X162675841Y-108901719D01*
X162729283Y-108904353D01*
X162766172Y-108910109D01*
X162789512Y-108920104D01*
X162802306Y-108935456D01*
X162807558Y-108957282D01*
X162808355Y-108977538D01*
X162805877Y-109002392D01*
X162796523Y-109020706D01*
X162777417Y-109033437D01*
X162745682Y-109041541D01*
X162698441Y-109045976D01*
X162632817Y-109047699D01*
X162596999Y-109047845D01*
X162435822Y-109047845D01*
X162435822Y-109205889D01*
X162684178Y-109205889D01*
X162765587Y-109206002D01*
X162827458Y-109206512D01*
X162872832Y-109207670D01*
X162904746Y-109209730D01*
X162926241Y-109212946D01*
X162940357Y-109217572D01*
X162950132Y-109223859D01*
X162955111Y-109228467D01*
X162972190Y-109255360D01*
X162977689Y-109279267D01*
X162969837Y-109308467D01*
X162955111Y-109330067D01*
X162947254Y-109336866D01*
X162937112Y-109342146D01*
X162921956Y-109346098D01*
X162899059Y-109348913D01*
X162865691Y-109350782D01*
X162819125Y-109351898D01*
X162756633Y-109352451D01*
X162675486Y-109352633D01*
X162633378Y-109352645D01*
X162543202Y-109352565D01*
X162472876Y-109352198D01*
X162419671Y-109351352D01*
X162380860Y-109349836D01*
X162353713Y-109347459D01*
X162335502Y-109344029D01*
X162323500Y-109339354D01*
X162314978Y-109333244D01*
X162311644Y-109330067D01*
X162305045Y-109322470D01*
X162299873Y-109312670D01*
X162295954Y-109298039D01*
X162293116Y-109275952D01*
X162291185Y-109243782D01*
X162289988Y-109198903D01*
X162289352Y-109138689D01*
X162289103Y-109060513D01*
X162289066Y-108987723D01*
X162289100Y-108894507D01*
X162289335Y-108821231D01*
X162289970Y-108765258D01*
X162291206Y-108723951D01*
X162293244Y-108694672D01*
X162296283Y-108674784D01*
X162300523Y-108661650D01*
X162306165Y-108652632D01*
X162313409Y-108645093D01*
X162315194Y-108643412D01*
X162323855Y-108635972D01*
X162333918Y-108630209D01*
X162348175Y-108625912D01*
X162369417Y-108622864D01*
X162400436Y-108620851D01*
X162444023Y-108619660D01*
X162502969Y-108619075D01*
X162580066Y-108618883D01*
X162634799Y-108618867D01*
X162724006Y-108618946D01*
G37*
X162724006Y-108618946D02*
X162793414Y-108619318D01*
X162845803Y-108620185D01*
X162883953Y-108621746D01*
X162910641Y-108624203D01*
X162928647Y-108627757D01*
X162940751Y-108632610D01*
X162949731Y-108638961D01*
X162952982Y-108641884D01*
X162972757Y-108672942D01*
X162976318Y-108708628D01*
X162963309Y-108740310D01*
X162957294Y-108746713D01*
X162947565Y-108752921D01*
X162931899Y-108757710D01*
X162907392Y-108761314D01*
X162871139Y-108763964D01*
X162820235Y-108765895D01*
X162751774Y-108767339D01*
X162689183Y-108768218D01*
X162441466Y-108771267D01*
X162438081Y-108836178D01*
X162434695Y-108901089D01*
X162602842Y-108901089D01*
X162675841Y-108901719D01*
X162729283Y-108904353D01*
X162766172Y-108910109D01*
X162789512Y-108920104D01*
X162802306Y-108935456D01*
X162807558Y-108957282D01*
X162808355Y-108977538D01*
X162805877Y-109002392D01*
X162796523Y-109020706D01*
X162777417Y-109033437D01*
X162745682Y-109041541D01*
X162698441Y-109045976D01*
X162632817Y-109047699D01*
X162596999Y-109047845D01*
X162435822Y-109047845D01*
X162435822Y-109205889D01*
X162684178Y-109205889D01*
X162765587Y-109206002D01*
X162827458Y-109206512D01*
X162872832Y-109207670D01*
X162904746Y-109209730D01*
X162926241Y-109212946D01*
X162940357Y-109217572D01*
X162950132Y-109223859D01*
X162955111Y-109228467D01*
X162972190Y-109255360D01*
X162977689Y-109279267D01*
X162969837Y-109308467D01*
X162955111Y-109330067D01*
X162947254Y-109336866D01*
X162937112Y-109342146D01*
X162921956Y-109346098D01*
X162899059Y-109348913D01*
X162865691Y-109350782D01*
X162819125Y-109351898D01*
X162756633Y-109352451D01*
X162675486Y-109352633D01*
X162633378Y-109352645D01*
X162543202Y-109352565D01*
X162472876Y-109352198D01*
X162419671Y-109351352D01*
X162380860Y-109349836D01*
X162353713Y-109347459D01*
X162335502Y-109344029D01*
X162323500Y-109339354D01*
X162314978Y-109333244D01*
X162311644Y-109330067D01*
X162305045Y-109322470D01*
X162299873Y-109312670D01*
X162295954Y-109298039D01*
X162293116Y-109275952D01*
X162291185Y-109243782D01*
X162289988Y-109198903D01*
X162289352Y-109138689D01*
X162289103Y-109060513D01*
X162289066Y-108987723D01*
X162289100Y-108894507D01*
X162289335Y-108821231D01*
X162289970Y-108765258D01*
X162291206Y-108723951D01*
X162293244Y-108694672D01*
X162296283Y-108674784D01*
X162300523Y-108661650D01*
X162306165Y-108652632D01*
X162313409Y-108645093D01*
X162315194Y-108643412D01*
X162323855Y-108635972D01*
X162333918Y-108630209D01*
X162348175Y-108625912D01*
X162369417Y-108622864D01*
X162400436Y-108620851D01*
X162444023Y-108619660D01*
X162502969Y-108619075D01*
X162580066Y-108618883D01*
X162634799Y-108618867D01*
X162724006Y-108618946D01*
G36*
X163745097Y-108620151D02*
G01*
X163819912Y-108625381D01*
X163889494Y-108633550D01*
X163949798Y-108644350D01*
X163996780Y-108657473D01*
X164026394Y-108672613D01*
X164030940Y-108677069D01*
X164046746Y-108711650D01*
X164041953Y-108747151D01*
X164017436Y-108777525D01*
X164016266Y-108778396D01*
X164001846Y-108787754D01*
X163986792Y-108792676D01*
X163965795Y-108793273D01*
X163933543Y-108789661D01*
X163884727Y-108781954D01*
X163880800Y-108781305D01*
X163808061Y-108772369D01*
X163729583Y-108767961D01*
X163650873Y-108767919D01*
X163577439Y-108772079D01*
X163514789Y-108780279D01*
X163468430Y-108792357D01*
X163465384Y-108793571D01*
X163431752Y-108812415D01*
X163419936Y-108831485D01*
X163429186Y-108850239D01*
X163458753Y-108868137D01*
X163507889Y-108884637D01*
X163575843Y-108899196D01*
X163621155Y-108906206D01*
X163715344Y-108919689D01*
X163790256Y-108932014D01*
X163849083Y-108944249D01*
X163895015Y-108957461D01*
X163931245Y-108972717D01*
X163960962Y-108991085D01*
X163987358Y-109013631D01*
X164008570Y-109035771D01*
X164033735Y-109066619D01*
X164046119Y-109093145D01*
X164049992Y-109125826D01*
X164050133Y-109137795D01*
X164047224Y-109177512D01*
X164035598Y-109207059D01*
X164015477Y-109233286D01*
X163974584Y-109273376D01*
X163928983Y-109303949D01*
X163875287Y-109326003D01*
X163810108Y-109340535D01*
X163730056Y-109348541D01*
X163631743Y-109351018D01*
X163615511Y-109350977D01*
X163549951Y-109349618D01*
X163484934Y-109346530D01*
X163427548Y-109342156D01*
X163384878Y-109336940D01*
X163381428Y-109336341D01*
X163339004Y-109326291D01*
X163303020Y-109313596D01*
X163282650Y-109301990D01*
X163263693Y-109271372D01*
X163262373Y-109235718D01*
X163278715Y-109203944D01*
X163282371Y-109200351D01*
X163297485Y-109189676D01*
X163316385Y-109185076D01*
X163345638Y-109185859D01*
X163381149Y-109189927D01*
X163420830Y-109193562D01*
X163476455Y-109196628D01*
X163541394Y-109198853D01*
X163609015Y-109199964D01*
X163626800Y-109200037D01*
X163694672Y-109199764D01*
X163744346Y-109198446D01*
X163780190Y-109195627D01*
X163806576Y-109190850D01*
X163827874Y-109183657D01*
X163840674Y-109177667D01*
X163868800Y-109161033D01*
X163886732Y-109145968D01*
X163889353Y-109141697D01*
X163883824Y-109124063D01*
X163857540Y-109106992D01*
X163812322Y-109091258D01*
X163749992Y-109077638D01*
X163731629Y-109074604D01*
X163635710Y-109059538D01*
X163559159Y-109046946D01*
X163499020Y-109035911D01*
X163452340Y-109025520D01*
X163416163Y-109014856D01*
X163387535Y-109003005D01*
X163363502Y-108989051D01*
X163341108Y-108972081D01*
X163317398Y-108951178D01*
X163309420Y-108943849D01*
X163281447Y-108916499D01*
X163266640Y-108894829D01*
X163260848Y-108870032D01*
X163259911Y-108838783D01*
X163270225Y-108777505D01*
X163301048Y-108725440D01*
X163352205Y-108682758D01*
X163423517Y-108649625D01*
X163474400Y-108634764D01*
X163529700Y-108625166D01*
X163595947Y-108619736D01*
X163669094Y-108618167D01*
X163745097Y-108620151D01*
G37*
X163745097Y-108620151D02*
X163819912Y-108625381D01*
X163889494Y-108633550D01*
X163949798Y-108644350D01*
X163996780Y-108657473D01*
X164026394Y-108672613D01*
X164030940Y-108677069D01*
X164046746Y-108711650D01*
X164041953Y-108747151D01*
X164017436Y-108777525D01*
X164016266Y-108778396D01*
X164001846Y-108787754D01*
X163986792Y-108792676D01*
X163965795Y-108793273D01*
X163933543Y-108789661D01*
X163884727Y-108781954D01*
X163880800Y-108781305D01*
X163808061Y-108772369D01*
X163729583Y-108767961D01*
X163650873Y-108767919D01*
X163577439Y-108772079D01*
X163514789Y-108780279D01*
X163468430Y-108792357D01*
X163465384Y-108793571D01*
X163431752Y-108812415D01*
X163419936Y-108831485D01*
X163429186Y-108850239D01*
X163458753Y-108868137D01*
X163507889Y-108884637D01*
X163575843Y-108899196D01*
X163621155Y-108906206D01*
X163715344Y-108919689D01*
X163790256Y-108932014D01*
X163849083Y-108944249D01*
X163895015Y-108957461D01*
X163931245Y-108972717D01*
X163960962Y-108991085D01*
X163987358Y-109013631D01*
X164008570Y-109035771D01*
X164033735Y-109066619D01*
X164046119Y-109093145D01*
X164049992Y-109125826D01*
X164050133Y-109137795D01*
X164047224Y-109177512D01*
X164035598Y-109207059D01*
X164015477Y-109233286D01*
X163974584Y-109273376D01*
X163928983Y-109303949D01*
X163875287Y-109326003D01*
X163810108Y-109340535D01*
X163730056Y-109348541D01*
X163631743Y-109351018D01*
X163615511Y-109350977D01*
X163549951Y-109349618D01*
X163484934Y-109346530D01*
X163427548Y-109342156D01*
X163384878Y-109336940D01*
X163381428Y-109336341D01*
X163339004Y-109326291D01*
X163303020Y-109313596D01*
X163282650Y-109301990D01*
X163263693Y-109271372D01*
X163262373Y-109235718D01*
X163278715Y-109203944D01*
X163282371Y-109200351D01*
X163297485Y-109189676D01*
X163316385Y-109185076D01*
X163345638Y-109185859D01*
X163381149Y-109189927D01*
X163420830Y-109193562D01*
X163476455Y-109196628D01*
X163541394Y-109198853D01*
X163609015Y-109199964D01*
X163626800Y-109200037D01*
X163694672Y-109199764D01*
X163744346Y-109198446D01*
X163780190Y-109195627D01*
X163806576Y-109190850D01*
X163827874Y-109183657D01*
X163840674Y-109177667D01*
X163868800Y-109161033D01*
X163886732Y-109145968D01*
X163889353Y-109141697D01*
X163883824Y-109124063D01*
X163857540Y-109106992D01*
X163812322Y-109091258D01*
X163749992Y-109077638D01*
X163731629Y-109074604D01*
X163635710Y-109059538D01*
X163559159Y-109046946D01*
X163499020Y-109035911D01*
X163452340Y-109025520D01*
X163416163Y-109014856D01*
X163387535Y-109003005D01*
X163363502Y-108989051D01*
X163341108Y-108972081D01*
X163317398Y-108951178D01*
X163309420Y-108943849D01*
X163281447Y-108916499D01*
X163266640Y-108894829D01*
X163260848Y-108870032D01*
X163259911Y-108838783D01*
X163270225Y-108777505D01*
X163301048Y-108725440D01*
X163352205Y-108682758D01*
X163423517Y-108649625D01*
X163474400Y-108634764D01*
X163529700Y-108625166D01*
X163595947Y-108619736D01*
X163669094Y-108618167D01*
X163745097Y-108620151D01*
G36*
X164512978Y-108641445D02*
G01*
X164519558Y-108649018D01*
X164524721Y-108658787D01*
X164528636Y-108673371D01*
X164531476Y-108695385D01*
X164533413Y-108727448D01*
X164534617Y-108772175D01*
X164535261Y-108832185D01*
X164535516Y-108910094D01*
X164535555Y-108985756D01*
X164535486Y-109079602D01*
X164535162Y-109153489D01*
X164534414Y-109210032D01*
X164533068Y-109251849D01*
X164530954Y-109281557D01*
X164527900Y-109301773D01*
X164523734Y-109315114D01*
X164518284Y-109324198D01*
X164512978Y-109330067D01*
X164479974Y-109349747D01*
X164444809Y-109347981D01*
X164413345Y-109326517D01*
X164406116Y-109318137D01*
X164400466Y-109308414D01*
X164396201Y-109294661D01*
X164393127Y-109274189D01*
X164391048Y-109244312D01*
X164389770Y-109202341D01*
X164389099Y-109145589D01*
X164388841Y-109071367D01*
X164388800Y-108987337D01*
X164388800Y-108674285D01*
X164416509Y-108646576D01*
X164450663Y-108623263D01*
X164483794Y-108622423D01*
X164512978Y-108641445D01*
G37*
X164512978Y-108641445D02*
X164519558Y-108649018D01*
X164524721Y-108658787D01*
X164528636Y-108673371D01*
X164531476Y-108695385D01*
X164533413Y-108727448D01*
X164534617Y-108772175D01*
X164535261Y-108832185D01*
X164535516Y-108910094D01*
X164535555Y-108985756D01*
X164535486Y-109079602D01*
X164535162Y-109153489D01*
X164534414Y-109210032D01*
X164533068Y-109251849D01*
X164530954Y-109281557D01*
X164527900Y-109301773D01*
X164523734Y-109315114D01*
X164518284Y-109324198D01*
X164512978Y-109330067D01*
X164479974Y-109349747D01*
X164444809Y-109347981D01*
X164413345Y-109326517D01*
X164406116Y-109318137D01*
X164400466Y-109308414D01*
X164396201Y-109294661D01*
X164393127Y-109274189D01*
X164391048Y-109244312D01*
X164389770Y-109202341D01*
X164389099Y-109145589D01*
X164388841Y-109071367D01*
X164388800Y-108987337D01*
X164388800Y-108674285D01*
X164416509Y-108646576D01*
X164450663Y-108623263D01*
X164483794Y-108622423D01*
X164512978Y-108641445D01*
G36*
X165486719Y-108624399D02*
G01*
X165555235Y-108635895D01*
X165607857Y-108653767D01*
X165642092Y-108677299D01*
X165651421Y-108690724D01*
X165660907Y-108721948D01*
X165654523Y-108750195D01*
X165634370Y-108776982D01*
X165603055Y-108789513D01*
X165557617Y-108788496D01*
X165522474Y-108781706D01*
X165444381Y-108768771D01*
X165364574Y-108767542D01*
X165275245Y-108778041D01*
X165250571Y-108782490D01*
X165167509Y-108805908D01*
X165102527Y-108840745D01*
X165056339Y-108886404D01*
X165029655Y-108942294D01*
X165024137Y-108971188D01*
X165027749Y-109029812D01*
X165051071Y-109081679D01*
X165091976Y-109125778D01*
X165148341Y-109161099D01*
X165218040Y-109186629D01*
X165298948Y-109201359D01*
X165388940Y-109204278D01*
X165485890Y-109194375D01*
X165491364Y-109193441D01*
X165529925Y-109186259D01*
X165551306Y-109179321D01*
X165560573Y-109169027D01*
X165562794Y-109151776D01*
X165562844Y-109142641D01*
X165562844Y-109104289D01*
X165494369Y-109104289D01*
X165433900Y-109100147D01*
X165392635Y-109086947D01*
X165368625Y-109063530D01*
X165359923Y-109028736D01*
X165359817Y-109024194D01*
X165364908Y-108994454D01*
X165382367Y-108973219D01*
X165414861Y-108959166D01*
X165465057Y-108950973D01*
X165513677Y-108947961D01*
X165584344Y-108946233D01*
X165635602Y-108948870D01*
X165670561Y-108958600D01*
X165692330Y-108978153D01*
X165704020Y-109010256D01*
X165708740Y-109057638D01*
X165709600Y-109119871D01*
X165708191Y-109189335D01*
X165703952Y-109236586D01*
X165696864Y-109261812D01*
X165695489Y-109263788D01*
X165656572Y-109295308D01*
X165599514Y-109320270D01*
X165527931Y-109338140D01*
X165445442Y-109348386D01*
X165355661Y-109350473D01*
X165262208Y-109343868D01*
X165207244Y-109335756D01*
X165121034Y-109311354D01*
X165040908Y-109271462D01*
X164973823Y-109219687D01*
X164963627Y-109209339D01*
X164930498Y-109165835D01*
X164900606Y-109111918D01*
X164877443Y-109055392D01*
X164864502Y-109004059D01*
X164862942Y-108984344D01*
X164869582Y-108943219D01*
X164887232Y-108892052D01*
X164912503Y-108838194D01*
X164942011Y-108788995D01*
X164968081Y-108756134D01*
X165029035Y-108707252D01*
X165107831Y-108668345D01*
X165201643Y-108640294D01*
X165307650Y-108623979D01*
X165404800Y-108619992D01*
X165486719Y-108624399D01*
G37*
X165486719Y-108624399D02*
X165555235Y-108635895D01*
X165607857Y-108653767D01*
X165642092Y-108677299D01*
X165651421Y-108690724D01*
X165660907Y-108721948D01*
X165654523Y-108750195D01*
X165634370Y-108776982D01*
X165603055Y-108789513D01*
X165557617Y-108788496D01*
X165522474Y-108781706D01*
X165444381Y-108768771D01*
X165364574Y-108767542D01*
X165275245Y-108778041D01*
X165250571Y-108782490D01*
X165167509Y-108805908D01*
X165102527Y-108840745D01*
X165056339Y-108886404D01*
X165029655Y-108942294D01*
X165024137Y-108971188D01*
X165027749Y-109029812D01*
X165051071Y-109081679D01*
X165091976Y-109125778D01*
X165148341Y-109161099D01*
X165218040Y-109186629D01*
X165298948Y-109201359D01*
X165388940Y-109204278D01*
X165485890Y-109194375D01*
X165491364Y-109193441D01*
X165529925Y-109186259D01*
X165551306Y-109179321D01*
X165560573Y-109169027D01*
X165562794Y-109151776D01*
X165562844Y-109142641D01*
X165562844Y-109104289D01*
X165494369Y-109104289D01*
X165433900Y-109100147D01*
X165392635Y-109086947D01*
X165368625Y-109063530D01*
X165359923Y-109028736D01*
X165359817Y-109024194D01*
X165364908Y-108994454D01*
X165382367Y-108973219D01*
X165414861Y-108959166D01*
X165465057Y-108950973D01*
X165513677Y-108947961D01*
X165584344Y-108946233D01*
X165635602Y-108948870D01*
X165670561Y-108958600D01*
X165692330Y-108978153D01*
X165704020Y-109010256D01*
X165708740Y-109057638D01*
X165709600Y-109119871D01*
X165708191Y-109189335D01*
X165703952Y-109236586D01*
X165696864Y-109261812D01*
X165695489Y-109263788D01*
X165656572Y-109295308D01*
X165599514Y-109320270D01*
X165527931Y-109338140D01*
X165445442Y-109348386D01*
X165355661Y-109350473D01*
X165262208Y-109343868D01*
X165207244Y-109335756D01*
X165121034Y-109311354D01*
X165040908Y-109271462D01*
X164973823Y-109219687D01*
X164963627Y-109209339D01*
X164930498Y-109165835D01*
X164900606Y-109111918D01*
X164877443Y-109055392D01*
X164864502Y-109004059D01*
X164862942Y-108984344D01*
X164869582Y-108943219D01*
X164887232Y-108892052D01*
X164912503Y-108838194D01*
X164942011Y-108788995D01*
X164968081Y-108756134D01*
X165029035Y-108707252D01*
X165107831Y-108668345D01*
X165201643Y-108640294D01*
X165307650Y-108623979D01*
X165404800Y-108619992D01*
X165486719Y-108624399D01*
G36*
X166136686Y-108623248D02*
G01*
X166160252Y-108637073D01*
X166191065Y-108659681D01*
X166230722Y-108692138D01*
X166280820Y-108735508D01*
X166342957Y-108790858D01*
X166418728Y-108859251D01*
X166505466Y-108937884D01*
X166686089Y-109101678D01*
X166691733Y-108881829D01*
X166693771Y-108806151D01*
X166695737Y-108749794D01*
X166698066Y-108709506D01*
X166701194Y-108682035D01*
X166705555Y-108664129D01*
X166711584Y-108652537D01*
X166719716Y-108644008D01*
X166724028Y-108640423D01*
X166758559Y-108621470D01*
X166791417Y-108624241D01*
X166817482Y-108640433D01*
X166844133Y-108661999D01*
X166847448Y-108976951D01*
X166848365Y-109069579D01*
X166848832Y-109142344D01*
X166848687Y-109197961D01*
X166847768Y-109239142D01*
X166845913Y-109268603D01*
X166842961Y-109289055D01*
X166838750Y-109303213D01*
X166833118Y-109313791D01*
X166826873Y-109322274D01*
X166813361Y-109338007D01*
X166799917Y-109348436D01*
X166784676Y-109352439D01*
X166765774Y-109348894D01*
X166741345Y-109336679D01*
X166709527Y-109314671D01*
X166668452Y-109281749D01*
X166616258Y-109236791D01*
X166551078Y-109178675D01*
X166477244Y-109111899D01*
X166211955Y-108871258D01*
X166206311Y-109090389D01*
X166204269Y-109165928D01*
X166202298Y-109222154D01*
X166199961Y-109262324D01*
X166196819Y-109289696D01*
X166192436Y-109307528D01*
X166186376Y-109319079D01*
X166178200Y-109327607D01*
X166174016Y-109331082D01*
X166137035Y-109350172D01*
X166102092Y-109347293D01*
X166071664Y-109322900D01*
X166064703Y-109313086D01*
X166059277Y-109301626D01*
X166055197Y-109285768D01*
X166052271Y-109262763D01*
X166050308Y-109229862D01*
X166049117Y-109184316D01*
X166048508Y-109123373D01*
X166048289Y-109044286D01*
X166048266Y-108985756D01*
X166048340Y-108894207D01*
X166048687Y-108822487D01*
X166049499Y-108767845D01*
X166050967Y-108727532D01*
X166053281Y-108698798D01*
X166056633Y-108678893D01*
X166061212Y-108665068D01*
X166067211Y-108654572D01*
X166071664Y-108648611D01*
X166082950Y-108634491D01*
X166093499Y-108623829D01*
X166104907Y-108617692D01*
X166118770Y-108617143D01*
X166136686Y-108623248D01*
G37*
X166136686Y-108623248D02*
X166160252Y-108637073D01*
X166191065Y-108659681D01*
X166230722Y-108692138D01*
X166280820Y-108735508D01*
X166342957Y-108790858D01*
X166418728Y-108859251D01*
X166505466Y-108937884D01*
X166686089Y-109101678D01*
X166691733Y-108881829D01*
X166693771Y-108806151D01*
X166695737Y-108749794D01*
X166698066Y-108709506D01*
X166701194Y-108682035D01*
X166705555Y-108664129D01*
X166711584Y-108652537D01*
X166719716Y-108644008D01*
X166724028Y-108640423D01*
X166758559Y-108621470D01*
X166791417Y-108624241D01*
X166817482Y-108640433D01*
X166844133Y-108661999D01*
X166847448Y-108976951D01*
X166848365Y-109069579D01*
X166848832Y-109142344D01*
X166848687Y-109197961D01*
X166847768Y-109239142D01*
X166845913Y-109268603D01*
X166842961Y-109289055D01*
X166838750Y-109303213D01*
X166833118Y-109313791D01*
X166826873Y-109322274D01*
X166813361Y-109338007D01*
X166799917Y-109348436D01*
X166784676Y-109352439D01*
X166765774Y-109348894D01*
X166741345Y-109336679D01*
X166709527Y-109314671D01*
X166668452Y-109281749D01*
X166616258Y-109236791D01*
X166551078Y-109178675D01*
X166477244Y-109111899D01*
X166211955Y-108871258D01*
X166206311Y-109090389D01*
X166204269Y-109165928D01*
X166202298Y-109222154D01*
X166199961Y-109262324D01*
X166196819Y-109289696D01*
X166192436Y-109307528D01*
X166186376Y-109319079D01*
X166178200Y-109327607D01*
X166174016Y-109331082D01*
X166137035Y-109350172D01*
X166102092Y-109347293D01*
X166071664Y-109322900D01*
X166064703Y-109313086D01*
X166059277Y-109301626D01*
X166055197Y-109285768D01*
X166052271Y-109262763D01*
X166050308Y-109229862D01*
X166049117Y-109184316D01*
X166048508Y-109123373D01*
X166048289Y-109044286D01*
X166048266Y-108985756D01*
X166048340Y-108894207D01*
X166048687Y-108822487D01*
X166049499Y-108767845D01*
X166050967Y-108727532D01*
X166053281Y-108698798D01*
X166056633Y-108678893D01*
X166061212Y-108665068D01*
X166067211Y-108654572D01*
X166071664Y-108648611D01*
X166082950Y-108634491D01*
X166093499Y-108623829D01*
X166104907Y-108617692D01*
X166118770Y-108617143D01*
X166136686Y-108623248D01*
G36*
X167667143Y-108619060D02*
G01*
X167743501Y-108619974D01*
X167802017Y-108622111D01*
X167845055Y-108625975D01*
X167874983Y-108632067D01*
X167894168Y-108640890D01*
X167904976Y-108652946D01*
X167909773Y-108668739D01*
X167910927Y-108688770D01*
X167910933Y-108691135D01*
X167909931Y-108713792D01*
X167905196Y-108731303D01*
X167894133Y-108744374D01*
X167874148Y-108753713D01*
X167842646Y-108760027D01*
X167797032Y-108764022D01*
X167734713Y-108766406D01*
X167653093Y-108767886D01*
X167628077Y-108768214D01*
X167386000Y-108771267D01*
X167382614Y-108836178D01*
X167379229Y-108901089D01*
X167547376Y-108901089D01*
X167613066Y-108901331D01*
X167659972Y-108902356D01*
X167691883Y-108904611D01*
X167712591Y-108908542D01*
X167725884Y-108914598D01*
X167735555Y-108923224D01*
X167735617Y-108923293D01*
X167753156Y-108956912D01*
X167752522Y-108993248D01*
X167734114Y-109024223D01*
X167730471Y-109027407D01*
X167717541Y-109035612D01*
X167699824Y-109041321D01*
X167673370Y-109044962D01*
X167634232Y-109046967D01*
X167578462Y-109047764D01*
X167542794Y-109047845D01*
X167380355Y-109047845D01*
X167380355Y-109205889D01*
X167626961Y-109205889D01*
X167708380Y-109206031D01*
X167770210Y-109206614D01*
X167815437Y-109207868D01*
X167847048Y-109210027D01*
X167868031Y-109213323D01*
X167881373Y-109217989D01*
X167890061Y-109224257D01*
X167892250Y-109226533D01*
X167908414Y-109258080D01*
X167909597Y-109293968D01*
X167896336Y-109325085D01*
X167885843Y-109335071D01*
X167874929Y-109340569D01*
X167858017Y-109344822D01*
X167832433Y-109347980D01*
X167795501Y-109350192D01*
X167744546Y-109351606D01*
X167676894Y-109352372D01*
X167589869Y-109352638D01*
X167570194Y-109352645D01*
X167481711Y-109352587D01*
X167413027Y-109352267D01*
X167361364Y-109351467D01*
X167323945Y-109349967D01*
X167297990Y-109347549D01*
X167280722Y-109343994D01*
X167269362Y-109339082D01*
X167261132Y-109332595D01*
X167256617Y-109327938D01*
X167249821Y-109319689D01*
X167244512Y-109309469D01*
X167240506Y-109294600D01*
X167237621Y-109272402D01*
X167235674Y-109240193D01*
X167234481Y-109195296D01*
X167233861Y-109135028D01*
X167233629Y-109056711D01*
X167233600Y-108990794D01*
X167233671Y-108898428D01*
X167234008Y-108825917D01*
X167234798Y-108770537D01*
X167236226Y-108729565D01*
X167238479Y-108700278D01*
X167241743Y-108679953D01*
X167246204Y-108665866D01*
X167252048Y-108655295D01*
X167256997Y-108648611D01*
X167280394Y-108618867D01*
X167570574Y-108618867D01*
X167667143Y-108619060D01*
G37*
X167667143Y-108619060D02*
X167743501Y-108619974D01*
X167802017Y-108622111D01*
X167845055Y-108625975D01*
X167874983Y-108632067D01*
X167894168Y-108640890D01*
X167904976Y-108652946D01*
X167909773Y-108668739D01*
X167910927Y-108688770D01*
X167910933Y-108691135D01*
X167909931Y-108713792D01*
X167905196Y-108731303D01*
X167894133Y-108744374D01*
X167874148Y-108753713D01*
X167842646Y-108760027D01*
X167797032Y-108764022D01*
X167734713Y-108766406D01*
X167653093Y-108767886D01*
X167628077Y-108768214D01*
X167386000Y-108771267D01*
X167382614Y-108836178D01*
X167379229Y-108901089D01*
X167547376Y-108901089D01*
X167613066Y-108901331D01*
X167659972Y-108902356D01*
X167691883Y-108904611D01*
X167712591Y-108908542D01*
X167725884Y-108914598D01*
X167735555Y-108923224D01*
X167735617Y-108923293D01*
X167753156Y-108956912D01*
X167752522Y-108993248D01*
X167734114Y-109024223D01*
X167730471Y-109027407D01*
X167717541Y-109035612D01*
X167699824Y-109041321D01*
X167673370Y-109044962D01*
X167634232Y-109046967D01*
X167578462Y-109047764D01*
X167542794Y-109047845D01*
X167380355Y-109047845D01*
X167380355Y-109205889D01*
X167626961Y-109205889D01*
X167708380Y-109206031D01*
X167770210Y-109206614D01*
X167815437Y-109207868D01*
X167847048Y-109210027D01*
X167868031Y-109213323D01*
X167881373Y-109217989D01*
X167890061Y-109224257D01*
X167892250Y-109226533D01*
X167908414Y-109258080D01*
X167909597Y-109293968D01*
X167896336Y-109325085D01*
X167885843Y-109335071D01*
X167874929Y-109340569D01*
X167858017Y-109344822D01*
X167832433Y-109347980D01*
X167795501Y-109350192D01*
X167744546Y-109351606D01*
X167676894Y-109352372D01*
X167589869Y-109352638D01*
X167570194Y-109352645D01*
X167481711Y-109352587D01*
X167413027Y-109352267D01*
X167361364Y-109351467D01*
X167323945Y-109349967D01*
X167297990Y-109347549D01*
X167280722Y-109343994D01*
X167269362Y-109339082D01*
X167261132Y-109332595D01*
X167256617Y-109327938D01*
X167249821Y-109319689D01*
X167244512Y-109309469D01*
X167240506Y-109294600D01*
X167237621Y-109272402D01*
X167235674Y-109240193D01*
X167234481Y-109195296D01*
X167233861Y-109135028D01*
X167233629Y-109056711D01*
X167233600Y-108990794D01*
X167233671Y-108898428D01*
X167234008Y-108825917D01*
X167234798Y-108770537D01*
X167236226Y-108729565D01*
X167238479Y-108700278D01*
X167241743Y-108679953D01*
X167246204Y-108665866D01*
X167252048Y-108655295D01*
X167256997Y-108648611D01*
X167280394Y-108618867D01*
X167570574Y-108618867D01*
X167667143Y-108619060D01*
G36*
X168455109Y-108619075D02*
G01*
X168584088Y-108623436D01*
X168693791Y-108636661D01*
X168786026Y-108659541D01*
X168862602Y-108692870D01*
X168925327Y-108737438D01*
X168976012Y-108794036D01*
X169016463Y-108863458D01*
X169017259Y-108865151D01*
X169041401Y-108927283D01*
X169050003Y-108982309D01*
X169043031Y-109037687D01*
X169020454Y-109100873D01*
X169016172Y-109110489D01*
X168986972Y-109166766D01*
X168954156Y-109210251D01*
X168911802Y-109247217D01*
X168853990Y-109283935D01*
X168850631Y-109285852D01*
X168800304Y-109310027D01*
X168743421Y-109328082D01*
X168676327Y-109340639D01*
X168595365Y-109348322D01*
X168496882Y-109351753D01*
X168462086Y-109352051D01*
X168296394Y-109352645D01*
X168272997Y-109322900D01*
X168266057Y-109313119D01*
X168260642Y-109301697D01*
X168256565Y-109285895D01*
X168253637Y-109262975D01*
X168251667Y-109230196D01*
X168251025Y-109205889D01*
X168407644Y-109205889D01*
X168501526Y-109205889D01*
X168556464Y-109204283D01*
X168612860Y-109200055D01*
X168659145Y-109194092D01*
X168661939Y-109193590D01*
X168744148Y-109171536D01*
X168807914Y-109138400D01*
X168855252Y-109092647D01*
X168888182Y-109032739D01*
X168893908Y-109016861D01*
X168899521Y-108992133D01*
X168897091Y-108967702D01*
X168885267Y-108935200D01*
X168878140Y-108919234D01*
X168854800Y-108876806D01*
X168826680Y-108847040D01*
X168795740Y-108826311D01*
X168733766Y-108799337D01*
X168654451Y-108779798D01*
X168562053Y-108768546D01*
X168495133Y-108766070D01*
X168407644Y-108765622D01*
X168407644Y-109205889D01*
X168251025Y-109205889D01*
X168250468Y-109184821D01*
X168249850Y-109124111D01*
X168249625Y-109045326D01*
X168249600Y-108983720D01*
X168249600Y-108674285D01*
X168277309Y-108646576D01*
X168289606Y-108635344D01*
X168302903Y-108627653D01*
X168321472Y-108622840D01*
X168349586Y-108620246D01*
X168391517Y-108619210D01*
X168451537Y-108619070D01*
X168455109Y-108619075D01*
G37*
X168455109Y-108619075D02*
X168584088Y-108623436D01*
X168693791Y-108636661D01*
X168786026Y-108659541D01*
X168862602Y-108692870D01*
X168925327Y-108737438D01*
X168976012Y-108794036D01*
X169016463Y-108863458D01*
X169017259Y-108865151D01*
X169041401Y-108927283D01*
X169050003Y-108982309D01*
X169043031Y-109037687D01*
X169020454Y-109100873D01*
X169016172Y-109110489D01*
X168986972Y-109166766D01*
X168954156Y-109210251D01*
X168911802Y-109247217D01*
X168853990Y-109283935D01*
X168850631Y-109285852D01*
X168800304Y-109310027D01*
X168743421Y-109328082D01*
X168676327Y-109340639D01*
X168595365Y-109348322D01*
X168496882Y-109351753D01*
X168462086Y-109352051D01*
X168296394Y-109352645D01*
X168272997Y-109322900D01*
X168266057Y-109313119D01*
X168260642Y-109301697D01*
X168256565Y-109285895D01*
X168253637Y-109262975D01*
X168251667Y-109230196D01*
X168251025Y-109205889D01*
X168407644Y-109205889D01*
X168501526Y-109205889D01*
X168556464Y-109204283D01*
X168612860Y-109200055D01*
X168659145Y-109194092D01*
X168661939Y-109193590D01*
X168744148Y-109171536D01*
X168807914Y-109138400D01*
X168855252Y-109092647D01*
X168888182Y-109032739D01*
X168893908Y-109016861D01*
X168899521Y-108992133D01*
X168897091Y-108967702D01*
X168885267Y-108935200D01*
X168878140Y-108919234D01*
X168854800Y-108876806D01*
X168826680Y-108847040D01*
X168795740Y-108826311D01*
X168733766Y-108799337D01*
X168654451Y-108779798D01*
X168562053Y-108768546D01*
X168495133Y-108766070D01*
X168407644Y-108765622D01*
X168407644Y-109205889D01*
X168251025Y-109205889D01*
X168250468Y-109184821D01*
X168249850Y-109124111D01*
X168249625Y-109045326D01*
X168249600Y-108983720D01*
X168249600Y-108674285D01*
X168277309Y-108646576D01*
X168289606Y-108635344D01*
X168302903Y-108627653D01*
X168321472Y-108622840D01*
X168349586Y-108620246D01*
X168391517Y-108619210D01*
X168451537Y-108619070D01*
X168455109Y-108619075D01*
G36*
X171181465Y-108620834D02*
G01*
X171201055Y-108627835D01*
X171201810Y-108628177D01*
X171228413Y-108648478D01*
X171243070Y-108669361D01*
X171245938Y-108679152D01*
X171245796Y-108692161D01*
X171241761Y-108710695D01*
X171232946Y-108737057D01*
X171218469Y-108773552D01*
X171197445Y-108822487D01*
X171168988Y-108886165D01*
X171132215Y-108966893D01*
X171111975Y-109011016D01*
X171075425Y-109089785D01*
X171041115Y-109162223D01*
X171010352Y-109225680D01*
X170984448Y-109277508D01*
X170964710Y-109315059D01*
X170952450Y-109335684D01*
X170950024Y-109338533D01*
X170918983Y-109351102D01*
X170883921Y-109349419D01*
X170855800Y-109334132D01*
X170854654Y-109332889D01*
X170843468Y-109315954D01*
X170824704Y-109282970D01*
X170800675Y-109238180D01*
X170773697Y-109185832D01*
X170764001Y-109166542D01*
X170690814Y-109019950D01*
X170611040Y-109179193D01*
X170582567Y-109234215D01*
X170556150Y-109281932D01*
X170533948Y-109318693D01*
X170518119Y-109340844D01*
X170512754Y-109345541D01*
X170471057Y-109351902D01*
X170436649Y-109338533D01*
X170426528Y-109324246D01*
X170409014Y-109292492D01*
X170385535Y-109246397D01*
X170357520Y-109189085D01*
X170326399Y-109123680D01*
X170293599Y-109053307D01*
X170260550Y-108981091D01*
X170228681Y-108910155D01*
X170199419Y-108843625D01*
X170174195Y-108784626D01*
X170154436Y-108736281D01*
X170141572Y-108701715D01*
X170137031Y-108684053D01*
X170137077Y-108683413D01*
X170148126Y-108661188D01*
X170170210Y-108638553D01*
X170171510Y-108637568D01*
X170198653Y-108622225D01*
X170223758Y-108622374D01*
X170233168Y-108625266D01*
X170244634Y-108631518D01*
X170256810Y-108643814D01*
X170271157Y-108664708D01*
X170289136Y-108696749D01*
X170312207Y-108742488D01*
X170341830Y-108804477D01*
X170368545Y-108861698D01*
X170399280Y-108928026D01*
X170426821Y-108987674D01*
X170449738Y-109037525D01*
X170466598Y-109074464D01*
X170475973Y-109095373D01*
X170477340Y-109098645D01*
X170483489Y-109093297D01*
X170497622Y-109070909D01*
X170517857Y-109034746D01*
X170542315Y-108988077D01*
X170552048Y-108968822D01*
X170585017Y-108903804D01*
X170610443Y-108856454D01*
X170630412Y-108824019D01*
X170647010Y-108803746D01*
X170662324Y-108792882D01*
X170678440Y-108788675D01*
X170688943Y-108788200D01*
X170707470Y-108789842D01*
X170723704Y-108796631D01*
X170739835Y-108811366D01*
X170758051Y-108836844D01*
X170780539Y-108875861D01*
X170809489Y-108931214D01*
X170825462Y-108962703D01*
X170851370Y-109012887D01*
X170873967Y-109054504D01*
X170891258Y-109084042D01*
X170901250Y-109097989D01*
X170902609Y-109098570D01*
X170909061Y-109087593D01*
X170923508Y-109059090D01*
X170944503Y-109016044D01*
X170970597Y-108961438D01*
X171000346Y-108898254D01*
X171014980Y-108866871D01*
X171053050Y-108785878D01*
X171083705Y-108723556D01*
X171108537Y-108677871D01*
X171129137Y-108646789D01*
X171147098Y-108628278D01*
X171164010Y-108620304D01*
X171181465Y-108620834D01*
G37*
X171181465Y-108620834D02*
X171201055Y-108627835D01*
X171201810Y-108628177D01*
X171228413Y-108648478D01*
X171243070Y-108669361D01*
X171245938Y-108679152D01*
X171245796Y-108692161D01*
X171241761Y-108710695D01*
X171232946Y-108737057D01*
X171218469Y-108773552D01*
X171197445Y-108822487D01*
X171168988Y-108886165D01*
X171132215Y-108966893D01*
X171111975Y-109011016D01*
X171075425Y-109089785D01*
X171041115Y-109162223D01*
X171010352Y-109225680D01*
X170984448Y-109277508D01*
X170964710Y-109315059D01*
X170952450Y-109335684D01*
X170950024Y-109338533D01*
X170918983Y-109351102D01*
X170883921Y-109349419D01*
X170855800Y-109334132D01*
X170854654Y-109332889D01*
X170843468Y-109315954D01*
X170824704Y-109282970D01*
X170800675Y-109238180D01*
X170773697Y-109185832D01*
X170764001Y-109166542D01*
X170690814Y-109019950D01*
X170611040Y-109179193D01*
X170582567Y-109234215D01*
X170556150Y-109281932D01*
X170533948Y-109318693D01*
X170518119Y-109340844D01*
X170512754Y-109345541D01*
X170471057Y-109351902D01*
X170436649Y-109338533D01*
X170426528Y-109324246D01*
X170409014Y-109292492D01*
X170385535Y-109246397D01*
X170357520Y-109189085D01*
X170326399Y-109123680D01*
X170293599Y-109053307D01*
X170260550Y-108981091D01*
X170228681Y-108910155D01*
X170199419Y-108843625D01*
X170174195Y-108784626D01*
X170154436Y-108736281D01*
X170141572Y-108701715D01*
X170137031Y-108684053D01*
X170137077Y-108683413D01*
X170148126Y-108661188D01*
X170170210Y-108638553D01*
X170171510Y-108637568D01*
X170198653Y-108622225D01*
X170223758Y-108622374D01*
X170233168Y-108625266D01*
X170244634Y-108631518D01*
X170256810Y-108643814D01*
X170271157Y-108664708D01*
X170289136Y-108696749D01*
X170312207Y-108742488D01*
X170341830Y-108804477D01*
X170368545Y-108861698D01*
X170399280Y-108928026D01*
X170426821Y-108987674D01*
X170449738Y-109037525D01*
X170466598Y-109074464D01*
X170475973Y-109095373D01*
X170477340Y-109098645D01*
X170483489Y-109093297D01*
X170497622Y-109070909D01*
X170517857Y-109034746D01*
X170542315Y-108988077D01*
X170552048Y-108968822D01*
X170585017Y-108903804D01*
X170610443Y-108856454D01*
X170630412Y-108824019D01*
X170647010Y-108803746D01*
X170662324Y-108792882D01*
X170678440Y-108788675D01*
X170688943Y-108788200D01*
X170707470Y-108789842D01*
X170723704Y-108796631D01*
X170739835Y-108811366D01*
X170758051Y-108836844D01*
X170780539Y-108875861D01*
X170809489Y-108931214D01*
X170825462Y-108962703D01*
X170851370Y-109012887D01*
X170873967Y-109054504D01*
X170891258Y-109084042D01*
X170901250Y-109097989D01*
X170902609Y-109098570D01*
X170909061Y-109087593D01*
X170923508Y-109059090D01*
X170944503Y-109016044D01*
X170970597Y-108961438D01*
X171000346Y-108898254D01*
X171014980Y-108866871D01*
X171053050Y-108785878D01*
X171083705Y-108723556D01*
X171108537Y-108677871D01*
X171129137Y-108646789D01*
X171147098Y-108628278D01*
X171164010Y-108620304D01*
X171181465Y-108620834D01*
G36*
X171625414Y-108625677D02*
G01*
X171649127Y-108640447D01*
X171675778Y-108662027D01*
X171675778Y-108983573D01*
X171675693Y-109077630D01*
X171675329Y-109151732D01*
X171674524Y-109208504D01*
X171673113Y-109250568D01*
X171670933Y-109280548D01*
X171667821Y-109301067D01*
X171663614Y-109314749D01*
X171658148Y-109324216D01*
X171654272Y-109328882D01*
X171622834Y-109349375D01*
X171587033Y-109348539D01*
X171555673Y-109331064D01*
X171529022Y-109309484D01*
X171529022Y-108662027D01*
X171555673Y-108640447D01*
X171581394Y-108624749D01*
X171602400Y-108618867D01*
X171625414Y-108625677D01*
G37*
X171625414Y-108625677D02*
X171649127Y-108640447D01*
X171675778Y-108662027D01*
X171675778Y-108983573D01*
X171675693Y-109077630D01*
X171675329Y-109151732D01*
X171674524Y-109208504D01*
X171673113Y-109250568D01*
X171670933Y-109280548D01*
X171667821Y-109301067D01*
X171663614Y-109314749D01*
X171658148Y-109324216D01*
X171654272Y-109328882D01*
X171622834Y-109349375D01*
X171587033Y-109348539D01*
X171555673Y-109331064D01*
X171529022Y-109309484D01*
X171529022Y-108662027D01*
X171555673Y-108640447D01*
X171581394Y-108624749D01*
X171602400Y-108618867D01*
X171625414Y-108625677D01*
G36*
X172399865Y-108618963D02*
G01*
X172478572Y-108619342D01*
X172539663Y-108620133D01*
X172585617Y-108621470D01*
X172618914Y-108623483D01*
X172642036Y-108626306D01*
X172657462Y-108630069D01*
X172667671Y-108634905D01*
X172672613Y-108638622D01*
X172698257Y-108671158D01*
X172701359Y-108704938D01*
X172685511Y-108735626D01*
X172675148Y-108747889D01*
X172663996Y-108756250D01*
X172647835Y-108761457D01*
X172622442Y-108764257D01*
X172583598Y-108765396D01*
X172527080Y-108765621D01*
X172515980Y-108765622D01*
X172370044Y-108765622D01*
X172370044Y-109036556D01*
X172369948Y-109121954D01*
X172369511Y-109187664D01*
X172368512Y-109236574D01*
X172366728Y-109271573D01*
X172363937Y-109295549D01*
X172359917Y-109311393D01*
X172354445Y-109321991D01*
X172347466Y-109330067D01*
X172314534Y-109349912D01*
X172280154Y-109348348D01*
X172248976Y-109325706D01*
X172246686Y-109322900D01*
X172239229Y-109312292D01*
X172233547Y-109299881D01*
X172229401Y-109282650D01*
X172226550Y-109257584D01*
X172224754Y-109221667D01*
X172223772Y-109171883D01*
X172223364Y-109105217D01*
X172223289Y-109029389D01*
X172223289Y-108765622D01*
X172083927Y-108765622D01*
X172024122Y-108765218D01*
X171982718Y-108763640D01*
X171955548Y-108760347D01*
X171938446Y-108754792D01*
X171927243Y-108746431D01*
X171925883Y-108744978D01*
X171909525Y-108711739D01*
X171910972Y-108674162D01*
X171929778Y-108641445D01*
X171937050Y-108635098D01*
X171946427Y-108630066D01*
X171960409Y-108626196D01*
X171981496Y-108623337D01*
X172012189Y-108621335D01*
X172054989Y-108620039D01*
X172112395Y-108619298D01*
X172186910Y-108618958D01*
X172281033Y-108618868D01*
X172301060Y-108618867D01*
X172399865Y-108618963D01*
G37*
X172399865Y-108618963D02*
X172478572Y-108619342D01*
X172539663Y-108620133D01*
X172585617Y-108621470D01*
X172618914Y-108623483D01*
X172642036Y-108626306D01*
X172657462Y-108630069D01*
X172667671Y-108634905D01*
X172672613Y-108638622D01*
X172698257Y-108671158D01*
X172701359Y-108704938D01*
X172685511Y-108735626D01*
X172675148Y-108747889D01*
X172663996Y-108756250D01*
X172647835Y-108761457D01*
X172622442Y-108764257D01*
X172583598Y-108765396D01*
X172527080Y-108765621D01*
X172515980Y-108765622D01*
X172370044Y-108765622D01*
X172370044Y-109036556D01*
X172369948Y-109121954D01*
X172369511Y-109187664D01*
X172368512Y-109236574D01*
X172366728Y-109271573D01*
X172363937Y-109295549D01*
X172359917Y-109311393D01*
X172354445Y-109321991D01*
X172347466Y-109330067D01*
X172314534Y-109349912D01*
X172280154Y-109348348D01*
X172248976Y-109325706D01*
X172246686Y-109322900D01*
X172239229Y-109312292D01*
X172233547Y-109299881D01*
X172229401Y-109282650D01*
X172226550Y-109257584D01*
X172224754Y-109221667D01*
X172223772Y-109171883D01*
X172223364Y-109105217D01*
X172223289Y-109029389D01*
X172223289Y-108765622D01*
X172083927Y-108765622D01*
X172024122Y-108765218D01*
X171982718Y-108763640D01*
X171955548Y-108760347D01*
X171938446Y-108754792D01*
X171927243Y-108746431D01*
X171925883Y-108744978D01*
X171909525Y-108711739D01*
X171910972Y-108674162D01*
X171929778Y-108641445D01*
X171937050Y-108635098D01*
X171946427Y-108630066D01*
X171960409Y-108626196D01*
X171981496Y-108623337D01*
X172012189Y-108621335D01*
X172054989Y-108620039D01*
X172112395Y-108619298D01*
X172186910Y-108618958D01*
X172281033Y-108618868D01*
X172301060Y-108618867D01*
X172399865Y-108618963D01*
G36*
X173665623Y-108624333D02*
G01*
X173697002Y-108646576D01*
X173724711Y-108674285D01*
X173724711Y-108983720D01*
X173724638Y-109075599D01*
X173724295Y-109147640D01*
X173723492Y-109202580D01*
X173722041Y-109243160D01*
X173719752Y-109272117D01*
X173716436Y-109292191D01*
X173711905Y-109306121D01*
X173705969Y-109316645D01*
X173701314Y-109322900D01*
X173670583Y-109347473D01*
X173635296Y-109350141D01*
X173603045Y-109335071D01*
X173592388Y-109326174D01*
X173585264Y-109314357D01*
X173580967Y-109295326D01*
X173578791Y-109264792D01*
X173578028Y-109218462D01*
X173577955Y-109182671D01*
X173577955Y-109047845D01*
X173081244Y-109047845D01*
X173081244Y-109170500D01*
X173080731Y-109226587D01*
X173078676Y-109265133D01*
X173074308Y-109291161D01*
X173066856Y-109309697D01*
X173057847Y-109322900D01*
X173026944Y-109347404D01*
X172991996Y-109350306D01*
X172958538Y-109332889D01*
X172949404Y-109323759D01*
X172942952Y-109311655D01*
X172938697Y-109292801D01*
X172936152Y-109263420D01*
X172934829Y-109219737D01*
X172934243Y-109157975D01*
X172934175Y-109143800D01*
X172933691Y-109027431D01*
X172933441Y-108931527D01*
X172933523Y-108853977D01*
X172934031Y-108792669D01*
X172935062Y-108745490D01*
X172936713Y-108710330D01*
X172939079Y-108685076D01*
X172942257Y-108667617D01*
X172946344Y-108655841D01*
X172951434Y-108647635D01*
X172957066Y-108641445D01*
X172988928Y-108621644D01*
X173022157Y-108624333D01*
X173053535Y-108646576D01*
X173066233Y-108660926D01*
X173074326Y-108676778D01*
X173078842Y-108699354D01*
X173080806Y-108733878D01*
X173081244Y-108785576D01*
X173081244Y-108901089D01*
X173577955Y-108901089D01*
X173577955Y-108782556D01*
X173578462Y-108727948D01*
X173580498Y-108691075D01*
X173584835Y-108667107D01*
X173592247Y-108651215D01*
X173600533Y-108641445D01*
X173632394Y-108621644D01*
X173665623Y-108624333D01*
G37*
X173665623Y-108624333D02*
X173697002Y-108646576D01*
X173724711Y-108674285D01*
X173724711Y-108983720D01*
X173724638Y-109075599D01*
X173724295Y-109147640D01*
X173723492Y-109202580D01*
X173722041Y-109243160D01*
X173719752Y-109272117D01*
X173716436Y-109292191D01*
X173711905Y-109306121D01*
X173705969Y-109316645D01*
X173701314Y-109322900D01*
X173670583Y-109347473D01*
X173635296Y-109350141D01*
X173603045Y-109335071D01*
X173592388Y-109326174D01*
X173585264Y-109314357D01*
X173580967Y-109295326D01*
X173578791Y-109264792D01*
X173578028Y-109218462D01*
X173577955Y-109182671D01*
X173577955Y-109047845D01*
X173081244Y-109047845D01*
X173081244Y-109170500D01*
X173080731Y-109226587D01*
X173078676Y-109265133D01*
X173074308Y-109291161D01*
X173066856Y-109309697D01*
X173057847Y-109322900D01*
X173026944Y-109347404D01*
X172991996Y-109350306D01*
X172958538Y-109332889D01*
X172949404Y-109323759D01*
X172942952Y-109311655D01*
X172938697Y-109292801D01*
X172936152Y-109263420D01*
X172934829Y-109219737D01*
X172934243Y-109157975D01*
X172934175Y-109143800D01*
X172933691Y-109027431D01*
X172933441Y-108931527D01*
X172933523Y-108853977D01*
X172934031Y-108792669D01*
X172935062Y-108745490D01*
X172936713Y-108710330D01*
X172939079Y-108685076D01*
X172942257Y-108667617D01*
X172946344Y-108655841D01*
X172951434Y-108647635D01*
X172957066Y-108641445D01*
X172988928Y-108621644D01*
X173022157Y-108624333D01*
X173053535Y-108646576D01*
X173066233Y-108660926D01*
X173074326Y-108676778D01*
X173078842Y-108699354D01*
X173080806Y-108733878D01*
X173081244Y-108785576D01*
X173081244Y-108901089D01*
X173577955Y-108901089D01*
X173577955Y-108782556D01*
X173578462Y-108727948D01*
X173580498Y-108691075D01*
X173584835Y-108667107D01*
X173592247Y-108651215D01*
X173600533Y-108641445D01*
X173632394Y-108621644D01*
X173665623Y-108624333D01*
D13*
%TO.C,C1*%
X144433548Y-113867000D02*
X144956052Y-113867000D01*
X144433548Y-112447000D02*
X144956052Y-112447000D01*
D14*
%TO.C,IC1*%
X159920000Y-104847400D02*
X159920000Y-106322400D01*
X147420000Y-106672400D02*
X159920000Y-106672400D01*
X147420000Y-112072400D02*
X147420000Y-106672400D01*
X159920000Y-112072400D02*
X147420000Y-112072400D01*
X159920000Y-106672400D02*
X159920000Y-112072400D01*
%TO.C,J0*%
X180181600Y-102294800D02*
X127141600Y-102294800D01*
X127141600Y-102294800D02*
X127141600Y-87694800D01*
X127141600Y-87694800D02*
X180181600Y-87694800D01*
X180181600Y-87694800D02*
X180181600Y-102294800D01*
X179181600Y-87694800D02*
X175181600Y-87694800D01*
X175181600Y-87694800D02*
X175181600Y-81894800D01*
X175181600Y-81894800D02*
X179181600Y-81894800D01*
X179181600Y-81894800D02*
X179181600Y-87694800D01*
X132141600Y-87694800D02*
X128141600Y-87694800D01*
X128141600Y-87694800D02*
X128141600Y-81894800D01*
X128141600Y-81894800D02*
X132141600Y-81894800D01*
X132141600Y-81894800D02*
X132141600Y-87694800D01*
X173141600Y-87694800D02*
X134181600Y-87694800D01*
X134181600Y-87694800D02*
X134181600Y-81694800D01*
X134181600Y-81694800D02*
X173141600Y-81694800D01*
X173141600Y-81694800D02*
X173141600Y-87694800D01*
D13*
%TO.C,J1*%
X175123800Y-106416800D02*
X176453800Y-106416800D01*
X175123800Y-107746800D02*
X175123800Y-106416800D01*
X175123800Y-109016800D02*
X177783800Y-109016800D01*
X177783800Y-109016800D02*
X177783800Y-111616800D01*
X175123800Y-109016800D02*
X175123800Y-111616800D01*
X175123800Y-111616800D02*
X177783800Y-111616800D01*
%TO.C,J2*%
X129683200Y-111566000D02*
X132343200Y-111566000D01*
X129683200Y-108966000D02*
X129683200Y-111566000D01*
X132343200Y-108966000D02*
X132343200Y-111566000D01*
X129683200Y-108966000D02*
X132343200Y-108966000D01*
X129683200Y-107696000D02*
X129683200Y-106366000D01*
X129683200Y-106366000D02*
X131013200Y-106366000D01*
%TO.C,R1*%
X162821252Y-113867000D02*
X162298748Y-113867000D01*
X162821252Y-112447000D02*
X162298748Y-112447000D01*
D15*
%TO.C,U1*%
X129722000Y-143998000D02*
X129722000Y-116098000D01*
X184122000Y-143998000D02*
X129722000Y-143998000D01*
X184122000Y-116098000D02*
X184122000Y-143998000D01*
X129722000Y-116098000D02*
X184122000Y-116098000D01*
%TO.C,C1*%
D10*
X144537133Y-115165142D02*
X144489514Y-115212761D01*
X144346657Y-115260380D01*
X144251419Y-115260380D01*
X144108561Y-115212761D01*
X144013323Y-115117523D01*
X143965704Y-115022285D01*
X143918085Y-114831809D01*
X143918085Y-114688952D01*
X143965704Y-114498476D01*
X144013323Y-114403238D01*
X144108561Y-114308000D01*
X144251419Y-114260380D01*
X144346657Y-114260380D01*
X144489514Y-114308000D01*
X144537133Y-114355619D01*
X145489514Y-115260380D02*
X144918085Y-115260380D01*
X145203800Y-115260380D02*
X145203800Y-114260380D01*
X145108561Y-114403238D01*
X145013323Y-114498476D01*
X144918085Y-114546095D01*
%TO.C,IC1*%
D16*
X147005523Y-110612161D02*
X145735523Y-110612161D01*
X146884571Y-109281685D02*
X146945047Y-109342161D01*
X147005523Y-109523590D01*
X147005523Y-109644542D01*
X146945047Y-109825971D01*
X146824095Y-109946923D01*
X146703142Y-110007400D01*
X146461238Y-110067876D01*
X146279809Y-110067876D01*
X146037904Y-110007400D01*
X145916952Y-109946923D01*
X145796000Y-109825971D01*
X145735523Y-109644542D01*
X145735523Y-109523590D01*
X145796000Y-109342161D01*
X145856476Y-109281685D01*
X147005523Y-108072161D02*
X147005523Y-108797876D01*
X147005523Y-108435019D02*
X145735523Y-108435019D01*
X145916952Y-108555971D01*
X146037904Y-108676923D01*
X146098380Y-108797876D01*
%TO.C,J0*%
X153238266Y-91299323D02*
X153238266Y-92206466D01*
X153177790Y-92387895D01*
X153056838Y-92508847D01*
X152875409Y-92569323D01*
X152754457Y-92569323D01*
X154084933Y-91299323D02*
X154205885Y-91299323D01*
X154326838Y-91359800D01*
X154387314Y-91420276D01*
X154447790Y-91541228D01*
X154508266Y-91783133D01*
X154508266Y-92085514D01*
X154447790Y-92327419D01*
X154387314Y-92448371D01*
X154326838Y-92508847D01*
X154205885Y-92569323D01*
X154084933Y-92569323D01*
X153963980Y-92508847D01*
X153903504Y-92448371D01*
X153843028Y-92327419D01*
X153782552Y-92085514D01*
X153782552Y-91783133D01*
X153843028Y-91541228D01*
X153903504Y-91420276D01*
X153963980Y-91359800D01*
X154084933Y-91299323D01*
%TO.C,J1*%
D10*
X176120466Y-104869180D02*
X176120466Y-105583466D01*
X176072847Y-105726323D01*
X175977609Y-105821561D01*
X175834752Y-105869180D01*
X175739514Y-105869180D01*
X177120466Y-105869180D02*
X176549038Y-105869180D01*
X176834752Y-105869180D02*
X176834752Y-104869180D01*
X176739514Y-105012038D01*
X176644276Y-105107276D01*
X176549038Y-105154895D01*
%TO.C,J2*%
X130679866Y-104818380D02*
X130679866Y-105532666D01*
X130632247Y-105675523D01*
X130537009Y-105770761D01*
X130394152Y-105818380D01*
X130298914Y-105818380D01*
X131108438Y-104913619D02*
X131156057Y-104866000D01*
X131251295Y-104818380D01*
X131489390Y-104818380D01*
X131584628Y-104866000D01*
X131632247Y-104913619D01*
X131679866Y-105008857D01*
X131679866Y-105104095D01*
X131632247Y-105246952D01*
X131060819Y-105818380D01*
X131679866Y-105818380D01*
%TO.C,R1*%
X162393333Y-115259380D02*
X162060000Y-114783190D01*
X161821904Y-115259380D02*
X161821904Y-114259380D01*
X162202857Y-114259380D01*
X162298095Y-114307000D01*
X162345714Y-114354619D01*
X162393333Y-114449857D01*
X162393333Y-114592714D01*
X162345714Y-114687952D01*
X162298095Y-114735571D01*
X162202857Y-114783190D01*
X161821904Y-114783190D01*
X163345714Y-115259380D02*
X162774285Y-115259380D01*
X163060000Y-115259380D02*
X163060000Y-114259380D01*
X162964761Y-114402238D01*
X162869523Y-114497476D01*
X162774285Y-114545095D01*
%TO.C,U1*%
X152476001Y-129474769D02*
X152476001Y-130284605D01*
X152523638Y-130379880D01*
X152571276Y-130427518D01*
X152666550Y-130475155D01*
X152857100Y-130475155D01*
X152952375Y-130427518D01*
X153000012Y-130379880D01*
X153047650Y-130284605D01*
X153047650Y-129474769D01*
X154048036Y-130475155D02*
X153476387Y-130475155D01*
X153762211Y-130475155D02*
X153762211Y-129474769D01*
X153666936Y-129617681D01*
X153571662Y-129712956D01*
X153476387Y-129760594D01*
%TD*%
M02*
